<?xml version="1.0" encoding="utf-8" standalone="no"?>
<!DOCTYPE svg PUBLIC "-//W3C//DTD SVG 1.1//EN"
  "http://www.w3.org/Graphics/SVG/1.1/DTD/svg11.dtd">
<svg xmlns:xlink="http://www.w3.org/1999/xlink" width="536.56pt" height="566.589937pt" viewBox="0 0 536.56 566.589937" xmlns="http://www.w3.org/2000/svg" version="1.1">
 <metadata>
  <rdf:RDF xmlns:dc="http://purl.org/dc/elements/1.1/" xmlns:cc="http://creativecommons.org/ns#" xmlns:rdf="http://www.w3.org/1999/02/22-rdf-syntax-ns#">
   <cc:Work>
    <dc:type rdf:resource="http://purl.org/dc/dcmitype/StillImage"/>
    <dc:date>2026-07-06T14:15:07.979069</dc:date>
    <dc:format>image/svg+xml</dc:format>
    <dc:creator>
     <cc:Agent>
      <dc:title>Matplotlib v3.10.8, https://matplotlib.org/</dc:title>
     </cc:Agent>
    </dc:creator>
   </cc:Work>
  </rdf:RDF>
 </metadata>
 <defs>
  <style type="text/css">*{stroke-linejoin: round; stroke-linecap: butt}</style>
 </defs>
 <g id="figure_1">
  <g id="patch_1">
   <path d="M 0 566.589937 
L 536.56 566.589937 
L 536.56 0 
L 0 0 
z
" style="fill: #ffffff"/>
  </g>
  <g id="patch_2">
   <path d="M 7.2 559.389937 
L 529.36 559.389937 
L 529.36 37.229937 
L 7.2 37.229937 
z
" style="fill: #ffffff"/>
  </g>
  <g id="pane3d_1">
   <g id="patch_3">
    <path d="M 474.572224 458.6377 
L 409.827747 334.155557 
L 413.532516 121.722106 
L 480.718544 224.572687 
" style="fill: #f2f2f2; opacity: 0.5; stroke: #f2f2f2; stroke-linejoin: miter"/>
   </g>
  </g>
  <g id="pane3d_2">
   <g id="patch_4">
    <path d="M 94.2075 350.060388 
L 409.827747 334.155557 
L 413.532516 121.722106 
L 89.141815 134.826376 
" style="fill: #e6e6e6; opacity: 0.5; stroke: #e6e6e6; stroke-linejoin: miter"/>
   </g>
  </g>
  <g id="pane3d_3">
   <g id="patch_5">
    <path d="M 122.706039 478.492022 
L 474.572224 458.6377 
L 409.827747 334.155557 
L 94.2075 350.060388 
" style="fill: #ececec; opacity: 0.5; stroke: #ececec; stroke-linejoin: miter"/>
   </g>
  </g>
  <g id="grid3d_1">
   <g id="Line3DCollection_1">
    <path d="M 145.445596 477.208925 
L 114.571658 349.034191 
L 110.079871 133.980551 
" style="fill: none; stroke: #b0b0b0; stroke-width: 0.8"/>
    <path d="M 210.286203 473.550244 
L 172.663939 346.106788 
L 169.803214 131.567933 
" style="fill: none; stroke: #b0b0b0; stroke-width: 0.8"/>
    <path d="M 274.736921 469.913562 
L 230.443613 343.195137 
L 229.196243 129.168658 
" style="fill: none; stroke: #b0b0b0; stroke-width: 0.8"/>
    <path d="M 338.801255 466.298682 
L 287.913196 340.299112 
L 288.261692 126.782617 
" style="fill: none; stroke: #b0b0b0; stroke-width: 0.8"/>
    <path d="M 402.482671 462.705409 
L 345.075179 337.418588 
L 347.002261 124.4097 
" style="fill: none; stroke: #b0b0b0; stroke-width: 0.8"/>
    <path d="M 465.78459 459.13355 
L 401.932024 334.553441 
L 405.420626 122.049799 
" style="fill: none; stroke: #b0b0b0; stroke-width: 0.8"/>
   </g>
  </g>
  <g id="grid3d_2">
   <g id="Line3DCollection_2">
    <path d="M 470.178746 208.438019 
L 464.442897 439.162365 
L 118.240908 458.369444 
" style="fill: none; stroke: #b0b0b0; stroke-width: 0.8"/>
    <path d="M 457.001452 188.265783 
L 451.764448 414.785917 
L 112.6555 433.198222 
" style="fill: none; stroke: #b0b0b0; stroke-width: 0.8"/>
    <path d="M 444.375266 168.937202 
L 439.60127 391.400162 
L 107.300648 409.066025 
" style="fill: none; stroke: #b0b0b0; stroke-width: 0.8"/>
    <path d="M 432.266323 150.400434 
L 427.922576 368.945909 
L 102.162365 385.909818 
" style="fill: none; stroke: #b0b0b0; stroke-width: 0.8"/>
    <path d="M 420.643478 132.607801 
L 416.699984 347.368589 
L 97.227774 363.671567 
" style="fill: none; stroke: #b0b0b0; stroke-width: 0.8"/>
   </g>
  </g>
  <g id="grid3d_3">
   <g id="Line3DCollection_3">
    <path d="M 94.2075 350.060388 
L 409.827747 334.155557 
L 474.572224 458.6377 
" style="fill: none; stroke: #b0b0b0; stroke-width: 0.8"/>
    <path d="M 93.642559 326.056809 
L 410.241065 310.455685 
L 475.255978 432.598892 
" style="fill: none; stroke: #b0b0b0; stroke-width: 0.8"/>
    <path d="M 93.074082 301.903028 
L 410.656931 286.609696 
L 475.944441 406.380744 
" style="fill: none; stroke: #b0b0b0; stroke-width: 0.8"/>
    <path d="M 92.502038 277.597628 
L 411.075369 262.616234 
L 476.637662 379.981398 
" style="fill: none; stroke: #b0b0b0; stroke-width: 0.8"/>
    <path d="M 91.926391 253.13918 
L 411.496403 238.473927 
L 477.335691 353.398968 
" style="fill: none; stroke: #b0b0b0; stroke-width: 0.8"/>
    <path d="M 91.347107 228.526232 
L 411.920057 214.181385 
L 478.038577 326.631543 
" style="fill: none; stroke: #b0b0b0; stroke-width: 0.8"/>
    <path d="M 90.764153 203.757316 
L 412.346355 189.737202 
L 478.746372 299.677185 
" style="fill: none; stroke: #b0b0b0; stroke-width: 0.8"/>
    <path d="M 90.177494 178.830944 
L 412.775323 165.139954 
L 479.459128 272.533929 
" style="fill: none; stroke: #b0b0b0; stroke-width: 0.8"/>
    <path d="M 89.587093 153.745611 
L 413.206986 140.388197 
L 480.176896 245.199783 
" style="fill: none; stroke: #b0b0b0; stroke-width: 0.8"/>
   </g>
  </g>
  <g id="axis3d_1">
   <g id="line2d_1">
    <path d="M 474.572224 458.6377 
L 122.706039 478.492022 
" style="fill: none; stroke: #000000; stroke-width: 0.8; stroke-linecap: square"/>
   </g>
   <g id="xtick_1">
    <g id="line2d_2">
     <path d="M 145.16969 476.063485 
L 145.998977 479.506312 
" style="fill: none; stroke: #000000; stroke-width: 0.8; stroke-linecap: square"/>
    </g>
    <g id="text_1">
     <!-- 0 -->
     <g transform="translate(143.578952 501.413043) scale(0.11 -0.11)">
      <defs>
       <path id="DejaVuSans-30" d="M 2034 4250 
Q 1547 4250 1301 3770 
Q 1056 3291 1056 2328 
Q 1056 1369 1301 889 
Q 1547 409 2034 409 
Q 2525 409 2770 889 
Q 3016 1369 3016 2328 
Q 3016 3291 2770 3770 
Q 2525 4250 2034 4250 
z
M 2034 4750 
Q 2819 4750 3233 4129 
Q 3647 3509 3647 2328 
Q 3647 1150 3233 529 
Q 2819 -91 2034 -91 
Q 1250 -91 836 529 
Q 422 1150 422 2328 
Q 422 3509 836 4129 
Q 1250 4750 2034 4750 
z
" transform="scale(0.015625)"/>
      </defs>
      <use xlink:href="#DejaVuSans-30"/>
     </g>
    </g>
   </g>
   <g id="xtick_2">
    <g id="line2d_3">
     <path d="M 209.950096 472.411698 
L 210.960321 475.833783 
" style="fill: none; stroke: #000000; stroke-width: 0.8; stroke-linecap: square"/>
    </g>
    <g id="text_2">
     <!-- 50 -->
     <g transform="translate(205.155957 497.692817) scale(0.11 -0.11)">
      <defs>
       <path id="DejaVuSans-35" d="M 691 4666 
L 3169 4666 
L 3169 4134 
L 1269 4134 
L 1269 2991 
Q 1406 3038 1543 3061 
Q 1681 3084 1819 3084 
Q 2600 3084 3056 2656 
Q 3513 2228 3513 1497 
Q 3513 744 3044 326 
Q 2575 -91 1722 -91 
Q 1428 -91 1123 -41 
Q 819 9 494 109 
L 494 744 
Q 775 591 1075 516 
Q 1375 441 1709 441 
Q 2250 441 2565 725 
Q 2881 1009 2881 1497 
Q 2881 1984 2565 2268 
Q 2250 2553 1709 2553 
Q 1456 2553 1204 2497 
Q 953 2441 691 2322 
L 691 4666 
z
" transform="scale(0.015625)"/>
      </defs>
      <use xlink:href="#DejaVuSans-35"/>
      <use xlink:href="#DejaVuSans-30" transform="translate(63.623047 0)"/>
     </g>
    </g>
   </g>
   <g id="xtick_3">
    <g id="line2d_4">
     <path d="M 274.341341 468.781849 
L 275.530315 472.183378 
" style="fill: none; stroke: #000000; stroke-width: 0.8; stroke-linecap: square"/>
    </g>
    <g id="text_3">
     <!-- 100 -->
     <g transform="translate(266.340207 493.995044) scale(0.11 -0.11)">
      <defs>
       <path id="DejaVuSans-31" d="M 794 531 
L 1825 531 
L 1825 4091 
L 703 3866 
L 703 4441 
L 1819 4666 
L 2450 4666 
L 2450 531 
L 3481 531 
L 3481 0 
L 794 0 
L 794 531 
z
" transform="scale(0.015625)"/>
      </defs>
      <use xlink:href="#DejaVuSans-31"/>
      <use xlink:href="#DejaVuSans-30" transform="translate(63.623047 0)"/>
      <use xlink:href="#DejaVuSans-30" transform="translate(127.246094 0)"/>
     </g>
    </g>
   </g>
   <g id="xtick_4">
    <g id="line2d_5">
     <path d="M 338.34692 465.173741 
L 339.712484 468.554898 
" style="fill: none; stroke: #000000; stroke-width: 0.8; stroke-linecap: square"/>
    </g>
    <g id="text_4">
     <!-- 150 -->
     <g transform="translate(330.634622 490.31952) scale(0.11 -0.11)">
      <use xlink:href="#DejaVuSans-31"/>
      <use xlink:href="#DejaVuSans-35" transform="translate(63.623047 0)"/>
      <use xlink:href="#DejaVuSans-30" transform="translate(127.246094 0)"/>
     </g>
    </g>
   </g>
   <g id="xtick_5">
    <g id="line2d_6">
     <path d="M 401.970288 461.587179 
L 403.510312 464.948147 
" style="fill: none; stroke: #000000; stroke-width: 0.8; stroke-linecap: square"/>
    </g>
    <g id="text_5">
     <!-- 200 -->
     <g transform="translate(394.543328 486.666047) scale(0.11 -0.11)">
      <defs>
       <path id="DejaVuSans-32" d="M 1228 531 
L 3431 531 
L 3431 0 
L 469 0 
L 469 531 
Q 828 903 1448 1529 
Q 2069 2156 2228 2338 
Q 2531 2678 2651 2914 
Q 2772 3150 2772 3378 
Q 2772 3750 2511 3984 
Q 2250 4219 1831 4219 
Q 1534 4219 1204 4116 
Q 875 4013 500 3803 
L 500 4441 
Q 881 4594 1212 4672 
Q 1544 4750 1819 4750 
Q 2544 4750 2975 4387 
Q 3406 4025 3406 3419 
Q 3406 3131 3298 2873 
Q 3191 2616 2906 2266 
Q 2828 2175 2409 1742 
Q 1991 1309 1228 531 
z
" transform="scale(0.015625)"/>
      </defs>
      <use xlink:href="#DejaVuSans-32"/>
      <use xlink:href="#DejaVuSans-30" transform="translate(63.623047 0)"/>
      <use xlink:href="#DejaVuSans-30" transform="translate(127.246094 0)"/>
     </g>
    </g>
   </g>
   <g id="xtick_6">
    <g id="line2d_7">
     <path d="M 465.214858 458.02197 
L 466.927241 461.36293 
" style="fill: none; stroke: #000000; stroke-width: 0.8; stroke-linecap: square"/>
    </g>
    <g id="text_6">
     <!-- 250 -->
     <g transform="translate(458.069787 483.034426) scale(0.11 -0.11)">
      <use xlink:href="#DejaVuSans-32"/>
      <use xlink:href="#DejaVuSans-35" transform="translate(63.623047 0)"/>
      <use xlink:href="#DejaVuSans-30" transform="translate(127.246094 0)"/>
     </g>
    </g>
   </g>
   <g id="text_7">
    <!-- Global X -->
    <g transform="translate(282.023507 507.090116) rotate(-3.229534) scale(0.11 -0.11)">
     <defs>
      <path id="DejaVuSans-47" d="M 3809 666 
L 3809 1919 
L 2778 1919 
L 2778 2438 
L 4434 2438 
L 4434 434 
Q 4069 175 3628 42 
Q 3188 -91 2688 -91 
Q 1594 -91 976 548 
Q 359 1188 359 2328 
Q 359 3472 976 4111 
Q 1594 4750 2688 4750 
Q 3144 4750 3555 4637 
Q 3966 4525 4313 4306 
L 4313 3634 
Q 3963 3931 3569 4081 
Q 3175 4231 2741 4231 
Q 1884 4231 1454 3753 
Q 1025 3275 1025 2328 
Q 1025 1384 1454 906 
Q 1884 428 2741 428 
Q 3075 428 3337 486 
Q 3600 544 3809 666 
z
" transform="scale(0.015625)"/>
      <path id="DejaVuSans-6c" d="M 603 4863 
L 1178 4863 
L 1178 0 
L 603 0 
L 603 4863 
z
" transform="scale(0.015625)"/>
      <path id="DejaVuSans-6f" d="M 1959 3097 
Q 1497 3097 1228 2736 
Q 959 2375 959 1747 
Q 959 1119 1226 758 
Q 1494 397 1959 397 
Q 2419 397 2687 759 
Q 2956 1122 2956 1747 
Q 2956 2369 2687 2733 
Q 2419 3097 1959 3097 
z
M 1959 3584 
Q 2709 3584 3137 3096 
Q 3566 2609 3566 1747 
Q 3566 888 3137 398 
Q 2709 -91 1959 -91 
Q 1206 -91 779 398 
Q 353 888 353 1747 
Q 353 2609 779 3096 
Q 1206 3584 1959 3584 
z
" transform="scale(0.015625)"/>
      <path id="DejaVuSans-62" d="M 3116 1747 
Q 3116 2381 2855 2742 
Q 2594 3103 2138 3103 
Q 1681 3103 1420 2742 
Q 1159 2381 1159 1747 
Q 1159 1113 1420 752 
Q 1681 391 2138 391 
Q 2594 391 2855 752 
Q 3116 1113 3116 1747 
z
M 1159 2969 
Q 1341 3281 1617 3432 
Q 1894 3584 2278 3584 
Q 2916 3584 3314 3078 
Q 3713 2572 3713 1747 
Q 3713 922 3314 415 
Q 2916 -91 2278 -91 
Q 1894 -91 1617 61 
Q 1341 213 1159 525 
L 1159 0 
L 581 0 
L 581 4863 
L 1159 4863 
L 1159 2969 
z
" transform="scale(0.015625)"/>
      <path id="DejaVuSans-61" d="M 2194 1759 
Q 1497 1759 1228 1600 
Q 959 1441 959 1056 
Q 959 750 1161 570 
Q 1363 391 1709 391 
Q 2188 391 2477 730 
Q 2766 1069 2766 1631 
L 2766 1759 
L 2194 1759 
z
M 3341 1997 
L 3341 0 
L 2766 0 
L 2766 531 
Q 2569 213 2275 61 
Q 1981 -91 1556 -91 
Q 1019 -91 701 211 
Q 384 513 384 1019 
Q 384 1609 779 1909 
Q 1175 2209 1959 2209 
L 2766 2209 
L 2766 2266 
Q 2766 2663 2505 2880 
Q 2244 3097 1772 3097 
Q 1472 3097 1187 3025 
Q 903 2953 641 2809 
L 641 3341 
Q 956 3463 1253 3523 
Q 1550 3584 1831 3584 
Q 2591 3584 2966 3190 
Q 3341 2797 3341 1997 
z
" transform="scale(0.015625)"/>
      <path id="DejaVuSans-20" transform="scale(0.015625)"/>
      <path id="DejaVuSans-58" d="M 403 4666 
L 1081 4666 
L 2241 2931 
L 3406 4666 
L 4084 4666 
L 2584 2425 
L 4184 0 
L 3506 0 
L 2194 1984 
L 872 0 
L 191 0 
L 1856 2491 
L 403 4666 
z
" transform="scale(0.015625)"/>
     </defs>
     <use xlink:href="#DejaVuSans-47"/>
     <use xlink:href="#DejaVuSans-6c" transform="translate(77.490234 0)"/>
     <use xlink:href="#DejaVuSans-6f" transform="translate(105.273438 0)"/>
     <use xlink:href="#DejaVuSans-62" transform="translate(166.455078 0)"/>
     <use xlink:href="#DejaVuSans-61" transform="translate(229.931641 0)"/>
     <use xlink:href="#DejaVuSans-6c" transform="translate(291.210938 0)"/>
     <use xlink:href="#DejaVuSans-20" transform="translate(318.994141 0)"/>
     <use xlink:href="#DejaVuSans-58" transform="translate(350.78125 0)"/>
    </g>
   </g>
  </g>
  <g id="axis3d_2">
   <g id="line2d_8">
    <path d="M 94.2075 350.060388 
L 122.706039 478.492022 
" style="fill: none; stroke: #000000; stroke-width: 0.8; stroke-linecap: square"/>
   </g>
   <g id="xtick_7">
    <g id="line2d_9">
     <path d="M 121.055421 458.213296 
L 112.609673 458.681861 
" style="fill: none; stroke: #000000; stroke-width: 0.8; stroke-linecap: square"/>
    </g>
    <g id="text_8">
     <!-- 0 -->
     <g transform="translate(100.069989 477.146837) scale(0.11 -0.11)">
      <use xlink:href="#DejaVuSans-30"/>
     </g>
    </g>
   </g>
   <g id="xtick_8">
    <g id="line2d_10">
     <path d="M 115.411423 433.048586 
L 107.141538 433.497609 
" style="fill: none; stroke: #000000; stroke-width: 0.8; stroke-linecap: square"/>
    </g>
    <g id="text_9">
     <!-- 50 -->
     <g transform="translate(91.297359 451.770304) scale(0.11 -0.11)">
      <use xlink:href="#DejaVuSans-35"/>
      <use xlink:href="#DejaVuSans-30" transform="translate(63.623047 0)"/>
     </g>
    </g>
   </g>
   <g id="xtick_9">
    <g id="line2d_11">
     <path d="M 110.000369 408.922501 
L 101.899176 409.353179 
" style="fill: none; stroke: #000000; stroke-width: 0.8; stroke-linecap: square"/>
    </g>
    <g id="text_10">
     <!-- 100 -->
     <g transform="translate(82.742279 427.440693) scale(0.11 -0.11)">
      <use xlink:href="#DejaVuSans-31"/>
      <use xlink:href="#DejaVuSans-30" transform="translate(63.623047 0)"/>
      <use xlink:href="#DejaVuSans-30" transform="translate(127.246094 0)"/>
     </g>
    </g>
   </g>
   <g id="xtick_10">
    <g id="line2d_12">
     <path d="M 104.808131 385.77204 
L 96.868884 386.185475 
" style="fill: none; stroke: #000000; stroke-width: 0.8; stroke-linecap: square"/>
    </g>
    <g id="text_11">
     <!-- 150 -->
     <g transform="translate(77.890935 404.094526) scale(0.11 -0.11)">
      <use xlink:href="#DejaVuSans-31"/>
      <use xlink:href="#DejaVuSans-35" transform="translate(63.623047 0)"/>
      <use xlink:href="#DejaVuSans-30" transform="translate(127.246094 0)"/>
     </g>
    </g>
   </g>
   <g id="xtick_11">
    <g id="line2d_13">
     <path d="M 99.821698 363.539196 
L 92.038051 363.936403 
" style="fill: none; stroke: #000000; stroke-width: 0.8; stroke-linecap: square"/>
    </g>
    <g id="text_12">
     <!-- 200 -->
     <g transform="translate(73.231806 381.673357) scale(0.11 -0.11)">
      <use xlink:href="#DejaVuSans-32"/>
      <use xlink:href="#DejaVuSans-30" transform="translate(63.623047 0)"/>
      <use xlink:href="#DejaVuSans-30" transform="translate(127.246094 0)"/>
     </g>
    </g>
   </g>
   <g id="text_13">
    <!-- Global Y -->
    <g transform="translate(69.201216 411.02418) rotate(-282.511026) scale(0.11 -0.11)">
     <defs>
      <path id="DejaVuSans-59" d="M -13 4666 
L 666 4666 
L 1959 2747 
L 3244 4666 
L 3922 4666 
L 2272 2222 
L 2272 0 
L 1638 0 
L 1638 2222 
L -13 4666 
z
" transform="scale(0.015625)"/>
     </defs>
     <use xlink:href="#DejaVuSans-47"/>
     <use xlink:href="#DejaVuSans-6c" transform="translate(77.490234 0)"/>
     <use xlink:href="#DejaVuSans-6f" transform="translate(105.273438 0)"/>
     <use xlink:href="#DejaVuSans-62" transform="translate(166.455078 0)"/>
     <use xlink:href="#DejaVuSans-61" transform="translate(229.931641 0)"/>
     <use xlink:href="#DejaVuSans-6c" transform="translate(291.210938 0)"/>
     <use xlink:href="#DejaVuSans-20" transform="translate(318.994141 0)"/>
     <use xlink:href="#DejaVuSans-59" transform="translate(350.78125 0)"/>
    </g>
   </g>
  </g>
  <g id="axis3d_3">
   <g id="line2d_14">
    <path d="M 94.2075 350.060388 
L 89.141815 134.826376 
" style="fill: none; stroke: #000000; stroke-width: 0.8; stroke-linecap: square"/>
   </g>
   <g id="xtick_12">
    <g id="line2d_15">
     <path d="M 96.769682 349.931274 
L 89.081307 350.318709 
" style="fill: none; stroke: #000000; stroke-width: 0.8; stroke-linecap: square"/>
    </g>
    <g id="text_14">
     <!-- 0 -->
     <g transform="translate(76.141822 354.260634) scale(0.11 -0.11)">
      <use xlink:href="#DejaVuSans-30"/>
     </g>
    </g>
   </g>
   <g id="xtick_13">
    <g id="line2d_16">
     <path d="M 96.212799 325.930155 
L 88.500239 326.310209 
" style="fill: none; stroke: #000000; stroke-width: 0.8; stroke-linecap: square"/>
    </g>
    <g id="text_15">
     <!-- 20 -->
     <g transform="translate(72.034417 330.336316) scale(0.11 -0.11)">
      <use xlink:href="#DejaVuSans-32"/>
      <use xlink:href="#DejaVuSans-30" transform="translate(63.623047 0)"/>
     </g>
    </g>
   </g>
   <g id="xtick_14">
    <g id="line2d_17">
     <path d="M 95.652431 301.778866 
L 87.915534 302.15144 
" style="fill: none; stroke: #000000; stroke-width: 0.8; stroke-linecap: square"/>
    </g>
    <g id="text_16">
     <!-- 40 -->
     <g transform="translate(71.422597 306.262868) scale(0.11 -0.11)">
      <defs>
       <path id="DejaVuSans-34" d="M 2419 4116 
L 825 1625 
L 2419 1625 
L 2419 4116 
z
M 2253 4666 
L 3047 4666 
L 3047 1625 
L 3713 1625 
L 3713 1100 
L 3047 1100 
L 3047 0 
L 2419 0 
L 2419 1100 
L 313 1100 
L 313 1709 
L 2253 4666 
z
" transform="scale(0.015625)"/>
      </defs>
      <use xlink:href="#DejaVuSans-34"/>
      <use xlink:href="#DejaVuSans-30" transform="translate(63.623047 0)"/>
     </g>
    </g>
   </g>
   <g id="xtick_15">
    <g id="line2d_18">
     <path d="M 95.088546 277.475994 
L 87.327157 277.840985 
" style="fill: none; stroke: #000000; stroke-width: 0.8; stroke-linecap: square"/>
    </g>
    <g id="text_17">
     <!-- 60 -->
     <g transform="translate(70.806952 282.038891) scale(0.11 -0.11)">
      <defs>
       <path id="DejaVuSans-36" d="M 2113 2584 
Q 1688 2584 1439 2293 
Q 1191 2003 1191 1497 
Q 1191 994 1439 701 
Q 1688 409 2113 409 
Q 2538 409 2786 701 
Q 3034 994 3034 1497 
Q 3034 2003 2786 2293 
Q 2538 2584 2113 2584 
z
M 3366 4563 
L 3366 3988 
Q 3128 4100 2886 4159 
Q 2644 4219 2406 4219 
Q 1781 4219 1451 3797 
Q 1122 3375 1075 2522 
Q 1259 2794 1537 2939 
Q 1816 3084 2150 3084 
Q 2853 3084 3261 2657 
Q 3669 2231 3669 1497 
Q 3669 778 3244 343 
Q 2819 -91 2113 -91 
Q 1303 -91 875 529 
Q 447 1150 447 2328 
Q 447 3434 972 4092 
Q 1497 4750 2381 4750 
Q 2619 4750 2861 4703 
Q 3103 4656 3366 4563 
z
" transform="scale(0.015625)"/>
      </defs>
      <use xlink:href="#DejaVuSans-36"/>
      <use xlink:href="#DejaVuSans-30" transform="translate(63.623047 0)"/>
     </g>
    </g>
   </g>
   <g id="xtick_16">
    <g id="line2d_19">
     <path d="M 94.521111 253.020107 
L 86.735075 253.377412 
" style="fill: none; stroke: #000000; stroke-width: 0.8; stroke-linecap: square"/>
    </g>
    <g id="text_18">
     <!-- 80 -->
     <g transform="translate(70.187445 257.662969) scale(0.11 -0.11)">
      <defs>
       <path id="DejaVuSans-38" d="M 2034 2216 
Q 1584 2216 1326 1975 
Q 1069 1734 1069 1313 
Q 1069 891 1326 650 
Q 1584 409 2034 409 
Q 2484 409 2743 651 
Q 3003 894 3003 1313 
Q 3003 1734 2745 1975 
Q 2488 2216 2034 2216 
z
M 1403 2484 
Q 997 2584 770 2862 
Q 544 3141 544 3541 
Q 544 4100 942 4425 
Q 1341 4750 2034 4750 
Q 2731 4750 3128 4425 
Q 3525 4100 3525 3541 
Q 3525 3141 3298 2862 
Q 3072 2584 2669 2484 
Q 3125 2378 3379 2068 
Q 3634 1759 3634 1313 
Q 3634 634 3220 271 
Q 2806 -91 2034 -91 
Q 1263 -91 848 271 
Q 434 634 434 1313 
Q 434 1759 690 2068 
Q 947 2378 1403 2484 
z
M 1172 3481 
Q 1172 3119 1398 2916 
Q 1625 2713 2034 2713 
Q 2441 2713 2670 2916 
Q 2900 3119 2900 3481 
Q 2900 3844 2670 4047 
Q 2441 4250 2034 4250 
Q 1625 4250 1398 4047 
Q 1172 3844 1172 3481 
z
" transform="scale(0.015625)"/>
      </defs>
      <use xlink:href="#DejaVuSans-38"/>
      <use xlink:href="#DejaVuSans-30" transform="translate(63.623047 0)"/>
     </g>
    </g>
   </g>
   <g id="xtick_17">
    <g id="line2d_20">
     <path d="M 93.950092 228.409755 
L 86.139251 228.759271 
" style="fill: none; stroke: #000000; stroke-width: 0.8; stroke-linecap: square"/>
    </g>
    <g id="text_19">
     <!-- 100 -->
     <g transform="translate(66.064665 233.133667) scale(0.11 -0.11)">
      <use xlink:href="#DejaVuSans-31"/>
      <use xlink:href="#DejaVuSans-30" transform="translate(63.623047 0)"/>
      <use xlink:href="#DejaVuSans-30" transform="translate(127.246094 0)"/>
     </g>
    </g>
   </g>
   <g id="xtick_18">
    <g id="line2d_21">
     <path d="M 93.375455 203.64347 
L 85.539652 203.98509 
" style="fill: none; stroke: #000000; stroke-width: 0.8; stroke-linecap: square"/>
    </g>
    <g id="text_20">
     <!-- 120 -->
     <g transform="translate(65.437325 208.449534) scale(0.11 -0.11)">
      <use xlink:href="#DejaVuSans-31"/>
      <use xlink:href="#DejaVuSans-32" transform="translate(63.623047 0)"/>
      <use xlink:href="#DejaVuSans-30" transform="translate(127.246094 0)"/>
     </g>
    </g>
   </g>
   <g id="xtick_19">
    <g id="line2d_22">
     <path d="M 92.797166 178.719766 
L 84.936239 179.053382 
" style="fill: none; stroke: #000000; stroke-width: 0.8; stroke-linecap: square"/>
    </g>
    <g id="text_21">
     <!-- 140 -->
     <g transform="translate(64.806013 183.609098) scale(0.11 -0.11)">
      <use xlink:href="#DejaVuSans-31"/>
      <use xlink:href="#DejaVuSans-34" transform="translate(63.623047 0)"/>
      <use xlink:href="#DejaVuSans-30" transform="translate(127.246094 0)"/>
     </g>
    </g>
   </g>
   <g id="xtick_20">
    <g id="line2d_23">
     <path d="M 92.215189 153.637137 
L 84.328978 153.96264 
" style="fill: none; stroke: #000000; stroke-width: 0.8; stroke-linecap: square"/>
    </g>
    <g id="text_22">
     <!-- 160 -->
     <g transform="translate(64.17069 158.610871) scale(0.11 -0.11)">
      <use xlink:href="#DejaVuSans-31"/>
      <use xlink:href="#DejaVuSans-36" transform="translate(63.623047 0)"/>
      <use xlink:href="#DejaVuSans-30" transform="translate(127.246094 0)"/>
     </g>
    </g>
   </g>
   <g id="text_23">
    <!-- Global Z (elevation) -->
    <g transform="translate(55.457108 181.226157) rotate(-271.348248) scale(0.11 -0.11)">
     <defs>
      <path id="DejaVuSans-5a" d="M 359 4666 
L 4025 4666 
L 4025 4184 
L 1075 531 
L 4097 531 
L 4097 0 
L 288 0 
L 288 481 
L 3238 4134 
L 359 4134 
L 359 4666 
z
" transform="scale(0.015625)"/>
      <path id="DejaVuSans-28" d="M 1984 4856 
Q 1566 4138 1362 3434 
Q 1159 2731 1159 2009 
Q 1159 1288 1364 580 
Q 1569 -128 1984 -844 
L 1484 -844 
Q 1016 -109 783 600 
Q 550 1309 550 2009 
Q 550 2706 781 3412 
Q 1013 4119 1484 4856 
L 1984 4856 
z
" transform="scale(0.015625)"/>
      <path id="DejaVuSans-65" d="M 3597 1894 
L 3597 1613 
L 953 1613 
Q 991 1019 1311 708 
Q 1631 397 2203 397 
Q 2534 397 2845 478 
Q 3156 559 3463 722 
L 3463 178 
Q 3153 47 2828 -22 
Q 2503 -91 2169 -91 
Q 1331 -91 842 396 
Q 353 884 353 1716 
Q 353 2575 817 3079 
Q 1281 3584 2069 3584 
Q 2775 3584 3186 3129 
Q 3597 2675 3597 1894 
z
M 3022 2063 
Q 3016 2534 2758 2815 
Q 2500 3097 2075 3097 
Q 1594 3097 1305 2825 
Q 1016 2553 972 2059 
L 3022 2063 
z
" transform="scale(0.015625)"/>
      <path id="DejaVuSans-76" d="M 191 3500 
L 800 3500 
L 1894 563 
L 2988 3500 
L 3597 3500 
L 2284 0 
L 1503 0 
L 191 3500 
z
" transform="scale(0.015625)"/>
      <path id="DejaVuSans-74" d="M 1172 4494 
L 1172 3500 
L 2356 3500 
L 2356 3053 
L 1172 3053 
L 1172 1153 
Q 1172 725 1289 603 
Q 1406 481 1766 481 
L 2356 481 
L 2356 0 
L 1766 0 
Q 1100 0 847 248 
Q 594 497 594 1153 
L 594 3053 
L 172 3053 
L 172 3500 
L 594 3500 
L 594 4494 
L 1172 4494 
z
" transform="scale(0.015625)"/>
      <path id="DejaVuSans-69" d="M 603 3500 
L 1178 3500 
L 1178 0 
L 603 0 
L 603 3500 
z
M 603 4863 
L 1178 4863 
L 1178 4134 
L 603 4134 
L 603 4863 
z
" transform="scale(0.015625)"/>
      <path id="DejaVuSans-6e" d="M 3513 2113 
L 3513 0 
L 2938 0 
L 2938 2094 
Q 2938 2591 2744 2837 
Q 2550 3084 2163 3084 
Q 1697 3084 1428 2787 
Q 1159 2491 1159 1978 
L 1159 0 
L 581 0 
L 581 3500 
L 1159 3500 
L 1159 2956 
Q 1366 3272 1645 3428 
Q 1925 3584 2291 3584 
Q 2894 3584 3203 3211 
Q 3513 2838 3513 2113 
z
" transform="scale(0.015625)"/>
      <path id="DejaVuSans-29" d="M 513 4856 
L 1013 4856 
Q 1481 4119 1714 3412 
Q 1947 2706 1947 2009 
Q 1947 1309 1714 600 
Q 1481 -109 1013 -844 
L 513 -844 
Q 928 -128 1133 580 
Q 1338 1288 1338 2009 
Q 1338 2731 1133 3434 
Q 928 4138 513 4856 
z
" transform="scale(0.015625)"/>
     </defs>
     <use xlink:href="#DejaVuSans-47"/>
     <use xlink:href="#DejaVuSans-6c" transform="translate(77.490234 0)"/>
     <use xlink:href="#DejaVuSans-6f" transform="translate(105.273438 0)"/>
     <use xlink:href="#DejaVuSans-62" transform="translate(166.455078 0)"/>
     <use xlink:href="#DejaVuSans-61" transform="translate(229.931641 0)"/>
     <use xlink:href="#DejaVuSans-6c" transform="translate(291.210938 0)"/>
     <use xlink:href="#DejaVuSans-20" transform="translate(318.994141 0)"/>
     <use xlink:href="#DejaVuSans-5a" transform="translate(350.78125 0)"/>
     <use xlink:href="#DejaVuSans-20" transform="translate(419.287109 0)"/>
     <use xlink:href="#DejaVuSans-28" transform="translate(451.074219 0)"/>
     <use xlink:href="#DejaVuSans-65" transform="translate(490.087891 0)"/>
     <use xlink:href="#DejaVuSans-6c" transform="translate(551.611328 0)"/>
     <use xlink:href="#DejaVuSans-65" transform="translate(579.394531 0)"/>
     <use xlink:href="#DejaVuSans-76" transform="translate(640.917969 0)"/>
     <use xlink:href="#DejaVuSans-61" transform="translate(700.097656 0)"/>
     <use xlink:href="#DejaVuSans-74" transform="translate(761.376953 0)"/>
     <use xlink:href="#DejaVuSans-69" transform="translate(800.585938 0)"/>
     <use xlink:href="#DejaVuSans-6f" transform="translate(828.369141 0)"/>
     <use xlink:href="#DejaVuSans-6e" transform="translate(889.550781 0)"/>
     <use xlink:href="#DejaVuSans-29" transform="translate(952.929688 0)"/>
    </g>
   </g>
  </g>
  <g id="axes_1">
   <g id="line2d_24">
    <path d="M 140.608745 457.128489 
L 152.477546 450.893336 
L 164.27305 444.455822 
L 175.967714 437.821032 
L 187.534369 430.994566 
L 198.946317 423.982511 
L 209.164568 417.452368 
L 219.214202 410.779476 
L 229.076567 403.969333 
L 238.733566 397.027682 
L 248.167705 389.960496 
L 257.36214 382.77395 
L 265.418817 376.209256 
L 273.256961 369.557768 
L 280.865791 362.824319 
L 288.235038 356.013815 
L 295.354959 349.131222 
L 302.216352 342.181556 
L 308.810567 335.169863 
L 315.129511 328.101213 
L 321.165659 320.980681 
L 326.288079 314.611864 
L 331.177044 308.209611 
L 335.828407 301.777455 
L 340.238377 295.318907 
L 344.403517 288.837445 
L 348.320745 282.336516 
L 351.987328 275.819522 
L 355.400879 269.289824 
L 358.559353 262.750728 
L 361.461039 256.205486 
L 364.10456 249.657293 
L 366.488858 243.109277 
L 368.613194 236.564502 
L 370.477139 230.025958 
L 372.080565 223.496565 
L 373.423635 216.979166 
L 374.5068 210.476523 
L 375.330783 203.99132 
L 375.839932 198.33312 
L 376.152228 192.691954 
L 376.268644 187.06946 
L 376.163272 180.668653 
L 375.805397 174.296596 
L 375.197123 167.95549 
L 374.340769 161.647448 
L 373.53721 156.939335 
L 373.53721 156.939335 
" clip-path="url(#p833cdeac1c)" style="fill: none; stroke: #2b6cb0; stroke-width: 2.5; stroke-linecap: square"/>
   </g>
   <g id="line2d_25">
    <path d="M 323.435163 318.198665 
L 360.743913 271.958945 
" clip-path="url(#p833cdeac1c)" style="fill: none; stroke: #c53030; stroke-width: 3; stroke-linecap: square"/>
   </g>
   <g id="line2d_26">
    <path d="M 323.435163 318.198665 
L 268.815468 303.309911 
" clip-path="url(#p833cdeac1c)" style="fill: none; stroke: #2f855a; stroke-width: 3; stroke-linecap: square"/>
   </g>
   <g id="line2d_27">
    <path d="M 323.435163 318.198665 
L 306.643966 260.542237 
" clip-path="url(#p833cdeac1c)" style="fill: none; stroke: #2b6cb0; stroke-width: 3; stroke-linecap: square"/>
   </g>
   <g id="line2d_28">
    <path d="M 140.608745 457.128489 
L 152.565997 456.361344 
L 164.432838 455.392213 
L 176.181948 454.223836 
L 187.786475 452.859503 
L 199.220131 451.303035 
L 210.457288 449.558767 
L 221.47306 447.63152 
L 232.243389 445.526582 
L 242.745121 443.249679 
L 252.956072 440.806948 
L 262.855095 438.204907 
L 272.422133 435.450424 
L 281.638271 432.550685 
L 289.697129 429.794792 
L 297.43886 426.930824 
L 304.851855 423.964729 
L 311.925367 420.902591 
L 318.649518 417.750604 
L 325.015302 414.515056 
L 331.014589 411.202306 
L 336.094577 408.160123 
L 340.867124 405.065303 
L 345.328105 401.922558 
L 349.473954 398.736604 
L 353.301652 395.512149 
L 356.808721 392.253885 
L 359.993214 388.966477 
L 362.551901 386.023615 
L 364.853906 383.064612 
L 366.898868 380.092662 
L 368.686723 377.110926 
L 370.217701 374.122526 
L 371.492313 371.130544 
L 372.511344 368.138017 
L 373.275845 365.147932 
L 373.78712 362.16323 
L 374.04672 359.186796 
L 374.056432 356.221462 
L 373.818271 353.270003 
L 373.334469 350.335134 
L 372.607464 347.419511 
L 371.639894 344.525728 
L 371.215605 343.446709 
L 371.215605 343.446709 
" clip-path="url(#p833cdeac1c)" style="fill: none; stroke-dasharray: 6.66,2.88; stroke-dashoffset: 0; stroke: #808080; stroke-opacity: 0.8; stroke-width: 1.8"/>
   </g>
   <g id="line2d_29">
    <path d="M 323.435163 318.198665 
L 322.828569 415.656606 
" clip-path="url(#p833cdeac1c)" style="fill: none; stroke-dasharray: 1.2,1.2; stroke-dashoffset: 0; stroke: #808080; stroke-width: 1.2"/>
   </g>
   <g id="Path3DCollection_1">
    <defs>
     <path id="mdac4c609e3" d="M 0 2.236068 
C 0.593012 2.236068 1.161816 2.000462 1.581139 1.581139 
C 2.000462 1.161816 2.236068 0.593012 2.236068 0 
C 2.236068 -0.593012 2.000462 -1.161816 1.581139 -1.581139 
C 1.161816 -2.000462 0.593012 -2.236068 0 -2.236068 
C -0.593012 -2.236068 -1.161816 -2.000462 -1.581139 -1.581139 
C -2.000462 -1.161816 -2.236068 -0.593012 -2.236068 0 
C -2.236068 0.593012 -2.000462 1.161816 -1.581139 1.581139 
C -1.161816 2.000462 -0.593012 2.236068 0 2.236068 
z
" style="stroke: #4a5568"/>
    </defs>
    <g clip-path="url(#p833cdeac1c)">
     <use xlink:href="#mdac4c609e3" x="373.53721" y="156.939335" style="fill: #4a5568; stroke: #4a5568"/>
    </g>
   </g>
   <g id="text_24">
    <g id="patch_6">
     <path d="M 304.538796 314.45605 
L 315.254421 314.45605 
L 315.254421 300.9223 
L 304.538796 300.9223 
z
" style="fill: #ffffff; opacity: 0.8"/>
    </g>
    <!-- P -->
    <g transform="translate(305.498796 311.000425) scale(0.12 -0.12)">
     <defs>
      <path id="DejaVuSans-Bold-50" d="M 588 4666 
L 2584 4666 
Q 3475 4666 3951 4270 
Q 4428 3875 4428 3144 
Q 4428 2409 3951 2014 
Q 3475 1619 2584 1619 
L 1791 1619 
L 1791 0 
L 588 0 
L 588 4666 
z
M 1791 3794 
L 1791 2491 
L 2456 2491 
Q 2806 2491 2997 2661 
Q 3188 2831 3188 3144 
Q 3188 3456 2997 3625 
Q 2806 3794 2456 3794 
L 1791 3794 
z
" transform="scale(0.015625)"/>
     </defs>
     <use xlink:href="#DejaVuSans-Bold-50"/>
    </g>
   </g>
   <g id="text_25">
    <g id="patch_7">
     <path d="M 358.743913 273.958945 
L 483.3611 273.958945 
L 483.3611 249.083007 
L 358.743913 249.083007 
z
" style="fill: #ffffff; opacity: 0.85; stroke: #c53030; stroke-width: 0.6; stroke-linejoin: miter"/>
    </g>
    <!-- RefDirection (local X) -->
    <g style="fill: #c53030" transform="translate(360.743913 258.60332) scale(0.1 -0.1)">
     <defs>
      <path id="DejaVuSans-Bold-52" d="M 2297 2597 
Q 2675 2597 2839 2737 
Q 3003 2878 3003 3200 
Q 3003 3519 2839 3656 
Q 2675 3794 2297 3794 
L 1791 3794 
L 1791 2597 
L 2297 2597 
z
M 1791 1766 
L 1791 0 
L 588 0 
L 588 4666 
L 2425 4666 
Q 3347 4666 3776 4356 
Q 4206 4047 4206 3378 
Q 4206 2916 3982 2619 
Q 3759 2322 3309 2181 
Q 3556 2125 3751 1926 
Q 3947 1728 4147 1325 
L 4800 0 
L 3519 0 
L 2950 1159 
Q 2778 1509 2601 1637 
Q 2425 1766 2131 1766 
L 1791 1766 
z
" transform="scale(0.015625)"/>
      <path id="DejaVuSans-Bold-65" d="M 4031 1759 
L 4031 1441 
L 1416 1441 
Q 1456 1047 1700 850 
Q 1944 653 2381 653 
Q 2734 653 3104 758 
Q 3475 863 3866 1075 
L 3866 213 
Q 3469 63 3072 -14 
Q 2675 -91 2278 -91 
Q 1328 -91 801 392 
Q 275 875 275 1747 
Q 275 2603 792 3093 
Q 1309 3584 2216 3584 
Q 3041 3584 3536 3087 
Q 4031 2591 4031 1759 
z
M 2881 2131 
Q 2881 2450 2695 2645 
Q 2509 2841 2209 2841 
Q 1884 2841 1681 2658 
Q 1478 2475 1428 2131 
L 2881 2131 
z
" transform="scale(0.015625)"/>
      <path id="DejaVuSans-Bold-66" d="M 2841 4863 
L 2841 4128 
L 2222 4128 
Q 1984 4128 1890 4042 
Q 1797 3956 1797 3744 
L 1797 3500 
L 2753 3500 
L 2753 2700 
L 1797 2700 
L 1797 0 
L 678 0 
L 678 2700 
L 122 2700 
L 122 3500 
L 678 3500 
L 678 3744 
Q 678 4316 997 4589 
Q 1316 4863 1984 4863 
L 2841 4863 
z
" transform="scale(0.015625)"/>
      <path id="DejaVuSans-Bold-44" d="M 1791 3756 
L 1791 909 
L 2222 909 
Q 2959 909 3348 1275 
Q 3738 1641 3738 2338 
Q 3738 3031 3350 3393 
Q 2963 3756 2222 3756 
L 1791 3756 
z
M 588 4666 
L 1856 4666 
Q 2919 4666 3439 4514 
Q 3959 4363 4331 4000 
Q 4659 3684 4818 3271 
Q 4978 2859 4978 2338 
Q 4978 1809 4818 1395 
Q 4659 981 4331 666 
Q 3956 303 3431 151 
Q 2906 0 1856 0 
L 588 0 
L 588 4666 
z
" transform="scale(0.015625)"/>
      <path id="DejaVuSans-Bold-69" d="M 538 3500 
L 1656 3500 
L 1656 0 
L 538 0 
L 538 3500 
z
M 538 4863 
L 1656 4863 
L 1656 3950 
L 538 3950 
L 538 4863 
z
" transform="scale(0.015625)"/>
      <path id="DejaVuSans-Bold-72" d="M 3138 2547 
Q 2991 2616 2845 2648 
Q 2700 2681 2553 2681 
Q 2122 2681 1889 2404 
Q 1656 2128 1656 1613 
L 1656 0 
L 538 0 
L 538 3500 
L 1656 3500 
L 1656 2925 
Q 1872 3269 2151 3426 
Q 2431 3584 2822 3584 
Q 2878 3584 2943 3579 
Q 3009 3575 3134 3559 
L 3138 2547 
z
" transform="scale(0.015625)"/>
      <path id="DejaVuSans-Bold-63" d="M 3366 3391 
L 3366 2478 
Q 3138 2634 2908 2709 
Q 2678 2784 2431 2784 
Q 1963 2784 1702 2511 
Q 1441 2238 1441 1747 
Q 1441 1256 1702 982 
Q 1963 709 2431 709 
Q 2694 709 2930 787 
Q 3166 866 3366 1019 
L 3366 103 
Q 3103 6 2833 -42 
Q 2563 -91 2291 -91 
Q 1344 -91 809 395 
Q 275 881 275 1747 
Q 275 2613 809 3098 
Q 1344 3584 2291 3584 
Q 2566 3584 2833 3536 
Q 3100 3488 3366 3391 
z
" transform="scale(0.015625)"/>
      <path id="DejaVuSans-Bold-74" d="M 1759 4494 
L 1759 3500 
L 2913 3500 
L 2913 2700 
L 1759 2700 
L 1759 1216 
Q 1759 972 1856 886 
Q 1953 800 2241 800 
L 2816 800 
L 2816 0 
L 1856 0 
Q 1194 0 917 276 
Q 641 553 641 1216 
L 641 2700 
L 84 2700 
L 84 3500 
L 641 3500 
L 641 4494 
L 1759 4494 
z
" transform="scale(0.015625)"/>
      <path id="DejaVuSans-Bold-6f" d="M 2203 2784 
Q 1831 2784 1636 2517 
Q 1441 2250 1441 1747 
Q 1441 1244 1636 976 
Q 1831 709 2203 709 
Q 2569 709 2762 976 
Q 2956 1244 2956 1747 
Q 2956 2250 2762 2517 
Q 2569 2784 2203 2784 
z
M 2203 3584 
Q 3106 3584 3614 3096 
Q 4122 2609 4122 1747 
Q 4122 884 3614 396 
Q 3106 -91 2203 -91 
Q 1297 -91 786 396 
Q 275 884 275 1747 
Q 275 2609 786 3096 
Q 1297 3584 2203 3584 
z
" transform="scale(0.015625)"/>
      <path id="DejaVuSans-Bold-6e" d="M 4056 2131 
L 4056 0 
L 2931 0 
L 2931 347 
L 2931 1631 
Q 2931 2084 2911 2256 
Q 2891 2428 2841 2509 
Q 2775 2619 2662 2680 
Q 2550 2741 2406 2741 
Q 2056 2741 1856 2470 
Q 1656 2200 1656 1722 
L 1656 0 
L 538 0 
L 538 3500 
L 1656 3500 
L 1656 2988 
Q 1909 3294 2193 3439 
Q 2478 3584 2822 3584 
Q 3428 3584 3742 3212 
Q 4056 2841 4056 2131 
z
" transform="scale(0.015625)"/>
      <path id="DejaVuSans-Bold-20" transform="scale(0.015625)"/>
      <path id="DejaVuSans-Bold-28" d="M 2413 -844 
L 1484 -844 
Q 1006 -72 778 623 
Q 550 1319 550 2003 
Q 550 2688 779 3389 
Q 1009 4091 1484 4856 
L 2413 4856 
Q 2013 4116 1813 3408 
Q 1613 2700 1613 2009 
Q 1613 1319 1811 609 
Q 2009 -100 2413 -844 
z
" transform="scale(0.015625)"/>
      <path id="DejaVuSans-Bold-6c" d="M 538 4863 
L 1656 4863 
L 1656 0 
L 538 0 
L 538 4863 
z
" transform="scale(0.015625)"/>
      <path id="DejaVuSans-Bold-61" d="M 2106 1575 
Q 1756 1575 1579 1456 
Q 1403 1338 1403 1106 
Q 1403 894 1545 773 
Q 1688 653 1941 653 
Q 2256 653 2472 879 
Q 2688 1106 2688 1447 
L 2688 1575 
L 2106 1575 
z
M 3816 1997 
L 3816 0 
L 2688 0 
L 2688 519 
Q 2463 200 2181 54 
Q 1900 -91 1497 -91 
Q 953 -91 614 226 
Q 275 544 275 1050 
Q 275 1666 698 1953 
Q 1122 2241 2028 2241 
L 2688 2241 
L 2688 2328 
Q 2688 2594 2478 2717 
Q 2269 2841 1825 2841 
Q 1466 2841 1156 2769 
Q 847 2697 581 2553 
L 581 3406 
Q 941 3494 1303 3539 
Q 1666 3584 2028 3584 
Q 2975 3584 3395 3211 
Q 3816 2838 3816 1997 
z
" transform="scale(0.015625)"/>
      <path id="DejaVuSans-Bold-58" d="M 3188 2381 
L 4806 0 
L 3553 0 
L 2463 1594 
L 1381 0 
L 122 0 
L 1741 2381 
L 184 4666 
L 1441 4666 
L 2463 3163 
L 3481 4666 
L 4744 4666 
L 3188 2381 
z
" transform="scale(0.015625)"/>
      <path id="DejaVuSans-Bold-29" d="M 513 -844 
Q 913 -100 1113 609 
Q 1313 1319 1313 2009 
Q 1313 2700 1113 3408 
Q 913 4116 513 4856 
L 1441 4856 
Q 1916 4091 2145 3389 
Q 2375 2688 2375 2003 
Q 2375 1319 2147 623 
Q 1919 -72 1441 -844 
L 513 -844 
z
" transform="scale(0.015625)"/>
     </defs>
     <use xlink:href="#DejaVuSans-Bold-52"/>
     <use xlink:href="#DejaVuSans-Bold-65" transform="translate(77.001953 0)"/>
     <use xlink:href="#DejaVuSans-Bold-66" transform="translate(144.824219 0)"/>
     <use xlink:href="#DejaVuSans-Bold-44" transform="translate(188.330078 0)"/>
     <use xlink:href="#DejaVuSans-Bold-69" transform="translate(271.337891 0)"/>
     <use xlink:href="#DejaVuSans-Bold-72" transform="translate(305.615234 0)"/>
     <use xlink:href="#DejaVuSans-Bold-65" transform="translate(354.931641 0)"/>
     <use xlink:href="#DejaVuSans-Bold-63" transform="translate(422.753906 0)"/>
     <use xlink:href="#DejaVuSans-Bold-74" transform="translate(482.03125 0)"/>
     <use xlink:href="#DejaVuSans-Bold-69" transform="translate(529.833984 0)"/>
     <use xlink:href="#DejaVuSans-Bold-6f" transform="translate(564.111328 0)"/>
     <use xlink:href="#DejaVuSans-Bold-6e" transform="translate(632.8125 0)"/>
     <use xlink:href="#DejaVuSans-Bold-20" transform="translate(704.003906 0)"/>
     <use xlink:href="#DejaVuSans-Bold-28" transform="translate(738.818359 0)"/>
     <use xlink:href="#DejaVuSans-Bold-6c" transform="translate(784.521484 0)"/>
     <use xlink:href="#DejaVuSans-Bold-6f" transform="translate(818.798828 0)"/>
     <use xlink:href="#DejaVuSans-Bold-63" transform="translate(887.5 0)"/>
     <use xlink:href="#DejaVuSans-Bold-61" transform="translate(946.777344 0)"/>
     <use xlink:href="#DejaVuSans-Bold-6c" transform="translate(1014.257812 0)"/>
     <use xlink:href="#DejaVuSans-Bold-20" transform="translate(1048.535156 0)"/>
     <use xlink:href="#DejaVuSans-Bold-58" transform="translate(1083.349609 0)"/>
     <use xlink:href="#DejaVuSans-Bold-29" transform="translate(1160.449219 0)"/>
    </g>
    <!-- = curve tangent T -->
    <g style="fill: #c53030" transform="translate(360.743913 269.801132) scale(0.1 -0.1)">
     <defs>
      <path id="DejaVuSans-Bold-3d" d="M 678 3084 
L 4684 3084 
L 4684 2350 
L 678 2350 
L 678 3084 
z
M 678 1663 
L 4684 1663 
L 4684 922 
L 678 922 
L 678 1663 
z
" transform="scale(0.015625)"/>
      <path id="DejaVuSans-Bold-75" d="M 500 1363 
L 500 3500 
L 1625 3500 
L 1625 3150 
Q 1625 2866 1622 2436 
Q 1619 2006 1619 1863 
Q 1619 1441 1641 1255 
Q 1663 1069 1716 984 
Q 1784 875 1895 815 
Q 2006 756 2150 756 
Q 2500 756 2700 1025 
Q 2900 1294 2900 1772 
L 2900 3500 
L 4019 3500 
L 4019 0 
L 2900 0 
L 2900 506 
Q 2647 200 2364 54 
Q 2081 -91 1741 -91 
Q 1134 -91 817 281 
Q 500 653 500 1363 
z
" transform="scale(0.015625)"/>
      <path id="DejaVuSans-Bold-76" d="M 97 3500 
L 1216 3500 
L 2088 1081 
L 2956 3500 
L 4078 3500 
L 2700 0 
L 1472 0 
L 97 3500 
z
" transform="scale(0.015625)"/>
      <path id="DejaVuSans-Bold-67" d="M 2919 594 
Q 2688 288 2409 144 
Q 2131 0 1766 0 
Q 1125 0 706 504 
Q 288 1009 288 1791 
Q 288 2575 706 3076 
Q 1125 3578 1766 3578 
Q 2131 3578 2409 3434 
Q 2688 3291 2919 2981 
L 2919 3500 
L 4044 3500 
L 4044 353 
Q 4044 -491 3511 -936 
Q 2978 -1381 1966 -1381 
Q 1638 -1381 1331 -1331 
Q 1025 -1281 716 -1178 
L 716 -306 
Q 1009 -475 1290 -558 
Q 1572 -641 1856 -641 
Q 2406 -641 2662 -400 
Q 2919 -159 2919 353 
L 2919 594 
z
M 2181 2772 
Q 1834 2772 1640 2515 
Q 1447 2259 1447 1791 
Q 1447 1309 1634 1061 
Q 1822 813 2181 813 
Q 2531 813 2725 1069 
Q 2919 1325 2919 1791 
Q 2919 2259 2725 2515 
Q 2531 2772 2181 2772 
z
" transform="scale(0.015625)"/>
      <path id="DejaVuSans-Bold-54" d="M 31 4666 
L 4331 4666 
L 4331 3756 
L 2784 3756 
L 2784 0 
L 1581 0 
L 1581 3756 
L 31 3756 
L 31 4666 
z
" transform="scale(0.015625)"/>
     </defs>
     <use xlink:href="#DejaVuSans-Bold-3d"/>
     <use xlink:href="#DejaVuSans-Bold-20" transform="translate(83.789062 0)"/>
     <use xlink:href="#DejaVuSans-Bold-63" transform="translate(118.603516 0)"/>
     <use xlink:href="#DejaVuSans-Bold-75" transform="translate(177.880859 0)"/>
     <use xlink:href="#DejaVuSans-Bold-72" transform="translate(249.072266 0)"/>
     <use xlink:href="#DejaVuSans-Bold-76" transform="translate(298.388672 0)"/>
     <use xlink:href="#DejaVuSans-Bold-65" transform="translate(363.574219 0)"/>
     <use xlink:href="#DejaVuSans-Bold-20" transform="translate(431.396484 0)"/>
     <use xlink:href="#DejaVuSans-Bold-74" transform="translate(466.210938 0)"/>
     <use xlink:href="#DejaVuSans-Bold-61" transform="translate(514.013672 0)"/>
     <use xlink:href="#DejaVuSans-Bold-6e" transform="translate(581.494141 0)"/>
     <use xlink:href="#DejaVuSans-Bold-67" transform="translate(652.685547 0)"/>
     <use xlink:href="#DejaVuSans-Bold-65" transform="translate(724.267578 0)"/>
     <use xlink:href="#DejaVuSans-Bold-6e" transform="translate(792.089844 0)"/>
     <use xlink:href="#DejaVuSans-Bold-74" transform="translate(863.28125 0)"/>
     <use xlink:href="#DejaVuSans-Bold-20" transform="translate(911.083984 0)"/>
     <use xlink:href="#DejaVuSans-Bold-54" transform="translate(945.898438 0)"/>
    </g>
   </g>
   <g id="text_26">
    <g id="patch_8">
     <path d="M 145.64203 326.185849 
L 270.815468 326.185849 
L 270.815468 301.309911 
L 145.64203 301.309911 
z
" style="fill: #ffffff; opacity: 0.85; stroke: #2f855a; stroke-width: 0.6; stroke-linejoin: miter"/>
    </g>
    <!-- Derived local Y -->
    <g style="fill: #2f855a" transform="translate(184.306093 310.908349) scale(0.1 -0.1)">
     <defs>
      <path id="DejaVuSans-Bold-64" d="M 2919 2988 
L 2919 4863 
L 4044 4863 
L 4044 0 
L 2919 0 
L 2919 506 
Q 2688 197 2409 53 
Q 2131 -91 1766 -91 
Q 1119 -91 703 423 
Q 288 938 288 1747 
Q 288 2556 703 3070 
Q 1119 3584 1766 3584 
Q 2128 3584 2408 3439 
Q 2688 3294 2919 2988 
z
M 2181 722 
Q 2541 722 2730 984 
Q 2919 1247 2919 1747 
Q 2919 2247 2730 2509 
Q 2541 2772 2181 2772 
Q 1825 2772 1636 2509 
Q 1447 2247 1447 1747 
Q 1447 1247 1636 984 
Q 1825 722 2181 722 
z
" transform="scale(0.015625)"/>
      <path id="DejaVuSans-Bold-59" d="M -63 4666 
L 1253 4666 
L 2316 3003 
L 3378 4666 
L 4697 4666 
L 2919 1966 
L 2919 0 
L 1716 0 
L 1716 1966 
L -63 4666 
z
" transform="scale(0.015625)"/>
     </defs>
     <use xlink:href="#DejaVuSans-Bold-44"/>
     <use xlink:href="#DejaVuSans-Bold-65" transform="translate(83.007812 0)"/>
     <use xlink:href="#DejaVuSans-Bold-72" transform="translate(150.830078 0)"/>
     <use xlink:href="#DejaVuSans-Bold-69" transform="translate(200.146484 0)"/>
     <use xlink:href="#DejaVuSans-Bold-76" transform="translate(234.423828 0)"/>
     <use xlink:href="#DejaVuSans-Bold-65" transform="translate(299.609375 0)"/>
     <use xlink:href="#DejaVuSans-Bold-64" transform="translate(367.431641 0)"/>
     <use xlink:href="#DejaVuSans-Bold-20" transform="translate(439.013672 0)"/>
     <use xlink:href="#DejaVuSans-Bold-6c" transform="translate(473.828125 0)"/>
     <use xlink:href="#DejaVuSans-Bold-6f" transform="translate(508.105469 0)"/>
     <use xlink:href="#DejaVuSans-Bold-63" transform="translate(576.806641 0)"/>
     <use xlink:href="#DejaVuSans-Bold-61" transform="translate(636.083984 0)"/>
     <use xlink:href="#DejaVuSans-Bold-6c" transform="translate(703.564453 0)"/>
     <use xlink:href="#DejaVuSans-Bold-20" transform="translate(737.841797 0)"/>
     <use xlink:href="#DejaVuSans-Bold-59" transform="translate(772.65625 0)"/>
    </g>
    <!-- = Axis × RefDirection -->
    <g style="fill: #2f855a" transform="translate(147.64203 322.106161) scale(0.1 -0.1)">
     <defs>
      <path id="DejaVuSans-Bold-41" d="M 3419 850 
L 1538 850 
L 1241 0 
L 31 0 
L 1759 4666 
L 3194 4666 
L 4922 0 
L 3713 0 
L 3419 850 
z
M 1838 1716 
L 3116 1716 
L 2478 3572 
L 1838 1716 
z
" transform="scale(0.015625)"/>
      <path id="DejaVuSans-Bold-78" d="M 1422 1791 
L 159 3500 
L 1344 3500 
L 2059 2463 
L 2784 3500 
L 3969 3500 
L 2706 1797 
L 4031 0 
L 2847 0 
L 2059 1106 
L 1281 0 
L 97 0 
L 1422 1791 
z
" transform="scale(0.015625)"/>
      <path id="DejaVuSans-Bold-73" d="M 3272 3391 
L 3272 2541 
Q 2913 2691 2578 2766 
Q 2244 2841 1947 2841 
Q 1628 2841 1473 2761 
Q 1319 2681 1319 2516 
Q 1319 2381 1436 2309 
Q 1553 2238 1856 2203 
L 2053 2175 
Q 2913 2066 3209 1816 
Q 3506 1566 3506 1031 
Q 3506 472 3093 190 
Q 2681 -91 1863 -91 
Q 1516 -91 1145 -36 
Q 775 19 384 128 
L 384 978 
Q 719 816 1070 734 
Q 1422 653 1784 653 
Q 2113 653 2278 743 
Q 2444 834 2444 1013 
Q 2444 1163 2330 1236 
Q 2216 1309 1875 1350 
L 1678 1375 
Q 931 1469 631 1722 
Q 331 1975 331 2491 
Q 331 3047 712 3315 
Q 1094 3584 1881 3584 
Q 2191 3584 2531 3537 
Q 2872 3491 3272 3391 
z
" transform="scale(0.015625)"/>
      <path id="DejaVuSans-Bold-d7" d="M 4563 3359 
L 3206 2003 
L 4563 653 
L 4038 128 
L 2681 1478 
L 1325 128 
L 800 653 
L 2156 2003 
L 800 3359 
L 1325 3884 
L 2681 2528 
L 4038 3884 
L 4563 3359 
z
" transform="scale(0.015625)"/>
     </defs>
     <use xlink:href="#DejaVuSans-Bold-3d"/>
     <use xlink:href="#DejaVuSans-Bold-20" transform="translate(83.789062 0)"/>
     <use xlink:href="#DejaVuSans-Bold-41" transform="translate(118.603516 0)"/>
     <use xlink:href="#DejaVuSans-Bold-78" transform="translate(195.996094 0)"/>
     <use xlink:href="#DejaVuSans-Bold-69" transform="translate(260.498047 0)"/>
     <use xlink:href="#DejaVuSans-Bold-73" transform="translate(294.775391 0)"/>
     <use xlink:href="#DejaVuSans-Bold-20" transform="translate(354.296875 0)"/>
     <use xlink:href="#DejaVuSans-Bold-d7" transform="translate(389.111328 0)"/>
     <use xlink:href="#DejaVuSans-Bold-20" transform="translate(472.900391 0)"/>
     <use xlink:href="#DejaVuSans-Bold-52" transform="translate(507.714844 0)"/>
     <use xlink:href="#DejaVuSans-Bold-65" transform="translate(584.716797 0)"/>
     <use xlink:href="#DejaVuSans-Bold-66" transform="translate(652.539062 0)"/>
     <use xlink:href="#DejaVuSans-Bold-44" transform="translate(696.044922 0)"/>
     <use xlink:href="#DejaVuSans-Bold-69" transform="translate(779.052734 0)"/>
     <use xlink:href="#DejaVuSans-Bold-72" transform="translate(813.330078 0)"/>
     <use xlink:href="#DejaVuSans-Bold-65" transform="translate(862.646484 0)"/>
     <use xlink:href="#DejaVuSans-Bold-63" transform="translate(930.46875 0)"/>
     <use xlink:href="#DejaVuSans-Bold-74" transform="translate(989.746094 0)"/>
     <use xlink:href="#DejaVuSans-Bold-69" transform="translate(1037.548828 0)"/>
     <use xlink:href="#DejaVuSans-Bold-6f" transform="translate(1071.826172 0)"/>
     <use xlink:href="#DejaVuSans-Bold-6e" transform="translate(1140.527344 0)"/>
    </g>
   </g>
   <g id="text_27">
    <g id="patch_9">
     <path d="M 163.783029 262.542237 
L 308.643966 262.542237 
L 308.643966 237.666299 
L 163.783029 237.666299 
z
" style="fill: #ffffff; opacity: 0.85; stroke: #2b6cb0; stroke-width: 0.6; stroke-linejoin: miter"/>
    </g>
    <!-- Axis (local Z) -->
    <g style="fill: #2b6cb0" transform="translate(233.317404 247.264737) scale(0.1 -0.1)">
     <defs>
      <path id="DejaVuSans-Bold-5a" d="M 359 4666 
L 4281 4666 
L 4281 3938 
L 1778 909 
L 4353 909 
L 4353 0 
L 288 0 
L 288 728 
L 2791 3756 
L 359 3756 
L 359 4666 
z
" transform="scale(0.015625)"/>
     </defs>
     <use xlink:href="#DejaVuSans-Bold-41"/>
     <use xlink:href="#DejaVuSans-Bold-78" transform="translate(77.392578 0)"/>
     <use xlink:href="#DejaVuSans-Bold-69" transform="translate(141.894531 0)"/>
     <use xlink:href="#DejaVuSans-Bold-73" transform="translate(176.171875 0)"/>
     <use xlink:href="#DejaVuSans-Bold-20" transform="translate(235.693359 0)"/>
     <use xlink:href="#DejaVuSans-Bold-28" transform="translate(270.507812 0)"/>
     <use xlink:href="#DejaVuSans-Bold-6c" transform="translate(316.210938 0)"/>
     <use xlink:href="#DejaVuSans-Bold-6f" transform="translate(350.488281 0)"/>
     <use xlink:href="#DejaVuSans-Bold-63" transform="translate(419.189453 0)"/>
     <use xlink:href="#DejaVuSans-Bold-61" transform="translate(478.466797 0)"/>
     <use xlink:href="#DejaVuSans-Bold-6c" transform="translate(545.947266 0)"/>
     <use xlink:href="#DejaVuSans-Bold-20" transform="translate(580.224609 0)"/>
     <use xlink:href="#DejaVuSans-Bold-5a" transform="translate(615.039062 0)"/>
     <use xlink:href="#DejaVuSans-Bold-29" transform="translate(687.548828 0)"/>
    </g>
    <!-- (⊥ to T, in vertical plane) -->
    <g style="fill: #2b6cb0" transform="translate(165.783029 258.462549) scale(0.1 -0.1)">
     <defs>
      <path id="DejaVuSans-Bold-22a5" d="M 2588 675 
L 2588 4513 
L 3263 4513 
L 3263 675 
L 5303 675 
L 5303 0 
L 547 0 
L 547 675 
L 2588 675 
z
" transform="scale(0.015625)"/>
      <path id="DejaVuSans-Bold-2c" d="M 653 1209 
L 1778 1209 
L 1778 256 
L 1006 -909 
L 341 -909 
L 653 256 
L 653 1209 
z
" transform="scale(0.015625)"/>
      <path id="DejaVuSans-Bold-70" d="M 1656 506 
L 1656 -1331 
L 538 -1331 
L 538 3500 
L 1656 3500 
L 1656 2988 
Q 1888 3294 2169 3439 
Q 2450 3584 2816 3584 
Q 3463 3584 3878 3070 
Q 4294 2556 4294 1747 
Q 4294 938 3878 423 
Q 3463 -91 2816 -91 
Q 2450 -91 2169 54 
Q 1888 200 1656 506 
z
M 2400 2772 
Q 2041 2772 1848 2508 
Q 1656 2244 1656 1747 
Q 1656 1250 1848 986 
Q 2041 722 2400 722 
Q 2759 722 2948 984 
Q 3138 1247 3138 1747 
Q 3138 2247 2948 2509 
Q 2759 2772 2400 2772 
z
" transform="scale(0.015625)"/>
     </defs>
     <use xlink:href="#DejaVuSans-Bold-28"/>
     <use xlink:href="#DejaVuSans-Bold-22a5" transform="translate(45.703125 0)"/>
     <use xlink:href="#DejaVuSans-Bold-20" transform="translate(137.109375 0)"/>
     <use xlink:href="#DejaVuSans-Bold-74" transform="translate(171.923828 0)"/>
     <use xlink:href="#DejaVuSans-Bold-6f" transform="translate(219.726562 0)"/>
     <use xlink:href="#DejaVuSans-Bold-20" transform="translate(288.427734 0)"/>
     <use xlink:href="#DejaVuSans-Bold-54" transform="translate(323.242188 0)"/>
     <use xlink:href="#DejaVuSans-Bold-2c" transform="translate(377.205078 0)"/>
     <use xlink:href="#DejaVuSans-Bold-20" transform="translate(415.193359 0)"/>
     <use xlink:href="#DejaVuSans-Bold-69" transform="translate(450.007812 0)"/>
     <use xlink:href="#DejaVuSans-Bold-6e" transform="translate(484.285156 0)"/>
     <use xlink:href="#DejaVuSans-Bold-20" transform="translate(555.476562 0)"/>
     <use xlink:href="#DejaVuSans-Bold-76" transform="translate(590.291016 0)"/>
     <use xlink:href="#DejaVuSans-Bold-65" transform="translate(655.476562 0)"/>
     <use xlink:href="#DejaVuSans-Bold-72" transform="translate(723.298828 0)"/>
     <use xlink:href="#DejaVuSans-Bold-74" transform="translate(772.615234 0)"/>
     <use xlink:href="#DejaVuSans-Bold-69" transform="translate(820.417969 0)"/>
     <use xlink:href="#DejaVuSans-Bold-63" transform="translate(854.695312 0)"/>
     <use xlink:href="#DejaVuSans-Bold-61" transform="translate(913.972656 0)"/>
     <use xlink:href="#DejaVuSans-Bold-6c" transform="translate(981.453125 0)"/>
     <use xlink:href="#DejaVuSans-Bold-20" transform="translate(1015.730469 0)"/>
     <use xlink:href="#DejaVuSans-Bold-70" transform="translate(1050.544922 0)"/>
     <use xlink:href="#DejaVuSans-Bold-6c" transform="translate(1122.126953 0)"/>
     <use xlink:href="#DejaVuSans-Bold-61" transform="translate(1156.404297 0)"/>
     <use xlink:href="#DejaVuSans-Bold-6e" transform="translate(1223.884766 0)"/>
     <use xlink:href="#DejaVuSans-Bold-65" transform="translate(1295.076172 0)"/>
     <use xlink:href="#DejaVuSans-Bold-29" transform="translate(1362.898438 0)"/>
    </g>
   </g>
   <g id="text_28">
    <g id="patch_10">
     <path d="M 253.121639 426.07651 
L 392.441639 426.07651 
L 392.441639 415.36651 
L 253.121639 415.36651 
z
" style="fill: #ffffff; opacity: 0.7"/>
    </g>
    <!-- P'  (DistanceAlong = s$_0$, z = 0) -->
    <g style="fill: #808080" transform="translate(254.111639 423.19651) scale(0.09 -0.09)">
     <defs>
      <path id="DejaVuSans-50" d="M 1259 4147 
L 1259 2394 
L 2053 2394 
Q 2494 2394 2734 2622 
Q 2975 2850 2975 3272 
Q 2975 3691 2734 3919 
Q 2494 4147 2053 4147 
L 1259 4147 
z
M 628 4666 
L 2053 4666 
Q 2838 4666 3239 4311 
Q 3641 3956 3641 3272 
Q 3641 2581 3239 2228 
Q 2838 1875 2053 1875 
L 1259 1875 
L 1259 0 
L 628 0 
L 628 4666 
z
" transform="scale(0.015625)"/>
      <path id="DejaVuSans-27" d="M 1147 4666 
L 1147 2931 
L 616 2931 
L 616 4666 
L 1147 4666 
z
" transform="scale(0.015625)"/>
      <path id="DejaVuSans-44" d="M 1259 4147 
L 1259 519 
L 2022 519 
Q 2988 519 3436 956 
Q 3884 1394 3884 2338 
Q 3884 3275 3436 3711 
Q 2988 4147 2022 4147 
L 1259 4147 
z
M 628 4666 
L 1925 4666 
Q 3281 4666 3915 4102 
Q 4550 3538 4550 2338 
Q 4550 1131 3912 565 
Q 3275 0 1925 0 
L 628 0 
L 628 4666 
z
" transform="scale(0.015625)"/>
      <path id="DejaVuSans-73" d="M 2834 3397 
L 2834 2853 
Q 2591 2978 2328 3040 
Q 2066 3103 1784 3103 
Q 1356 3103 1142 2972 
Q 928 2841 928 2578 
Q 928 2378 1081 2264 
Q 1234 2150 1697 2047 
L 1894 2003 
Q 2506 1872 2764 1633 
Q 3022 1394 3022 966 
Q 3022 478 2636 193 
Q 2250 -91 1575 -91 
Q 1294 -91 989 -36 
Q 684 19 347 128 
L 347 722 
Q 666 556 975 473 
Q 1284 391 1588 391 
Q 1994 391 2212 530 
Q 2431 669 2431 922 
Q 2431 1156 2273 1281 
Q 2116 1406 1581 1522 
L 1381 1569 
Q 847 1681 609 1914 
Q 372 2147 372 2553 
Q 372 3047 722 3315 
Q 1072 3584 1716 3584 
Q 2034 3584 2315 3537 
Q 2597 3491 2834 3397 
z
" transform="scale(0.015625)"/>
      <path id="DejaVuSans-63" d="M 3122 3366 
L 3122 2828 
Q 2878 2963 2633 3030 
Q 2388 3097 2138 3097 
Q 1578 3097 1268 2742 
Q 959 2388 959 1747 
Q 959 1106 1268 751 
Q 1578 397 2138 397 
Q 2388 397 2633 464 
Q 2878 531 3122 666 
L 3122 134 
Q 2881 22 2623 -34 
Q 2366 -91 2075 -91 
Q 1284 -91 818 406 
Q 353 903 353 1747 
Q 353 2603 823 3093 
Q 1294 3584 2113 3584 
Q 2378 3584 2631 3529 
Q 2884 3475 3122 3366 
z
" transform="scale(0.015625)"/>
      <path id="DejaVuSans-41" d="M 2188 4044 
L 1331 1722 
L 3047 1722 
L 2188 4044 
z
M 1831 4666 
L 2547 4666 
L 4325 0 
L 3669 0 
L 3244 1197 
L 1141 1197 
L 716 0 
L 50 0 
L 1831 4666 
z
" transform="scale(0.015625)"/>
      <path id="DejaVuSans-67" d="M 2906 1791 
Q 2906 2416 2648 2759 
Q 2391 3103 1925 3103 
Q 1463 3103 1205 2759 
Q 947 2416 947 1791 
Q 947 1169 1205 825 
Q 1463 481 1925 481 
Q 2391 481 2648 825 
Q 2906 1169 2906 1791 
z
M 3481 434 
Q 3481 -459 3084 -895 
Q 2688 -1331 1869 -1331 
Q 1566 -1331 1297 -1286 
Q 1028 -1241 775 -1147 
L 775 -588 
Q 1028 -725 1275 -790 
Q 1522 -856 1778 -856 
Q 2344 -856 2625 -561 
Q 2906 -266 2906 331 
L 2906 616 
Q 2728 306 2450 153 
Q 2172 0 1784 0 
Q 1141 0 747 490 
Q 353 981 353 1791 
Q 353 2603 747 3093 
Q 1141 3584 1784 3584 
Q 2172 3584 2450 3431 
Q 2728 3278 2906 2969 
L 2906 3500 
L 3481 3500 
L 3481 434 
z
" transform="scale(0.015625)"/>
      <path id="DejaVuSans-3d" d="M 678 2906 
L 4684 2906 
L 4684 2381 
L 678 2381 
L 678 2906 
z
M 678 1631 
L 4684 1631 
L 4684 1100 
L 678 1100 
L 678 1631 
z
" transform="scale(0.015625)"/>
      <path id="DejaVuSans-2c" d="M 750 794 
L 1409 794 
L 1409 256 
L 897 -744 
L 494 -744 
L 750 256 
L 750 794 
z
" transform="scale(0.015625)"/>
      <path id="DejaVuSans-7a" d="M 353 3500 
L 3084 3500 
L 3084 2975 
L 922 459 
L 3084 459 
L 3084 0 
L 275 0 
L 275 525 
L 2438 3041 
L 353 3041 
L 353 3500 
z
" transform="scale(0.015625)"/>
     </defs>
     <use xlink:href="#DejaVuSans-50" transform="translate(0 0.015625)"/>
     <use xlink:href="#DejaVuSans-27" transform="translate(60.302734 0.015625)"/>
     <use xlink:href="#DejaVuSans-20" transform="translate(87.792969 0.015625)"/>
     <use xlink:href="#DejaVuSans-20" transform="translate(119.580078 0.015625)"/>
     <use xlink:href="#DejaVuSans-28" transform="translate(151.367188 0.015625)"/>
     <use xlink:href="#DejaVuSans-44" transform="translate(190.380859 0.015625)"/>
     <use xlink:href="#DejaVuSans-69" transform="translate(267.382812 0.015625)"/>
     <use xlink:href="#DejaVuSans-73" transform="translate(295.166016 0.015625)"/>
     <use xlink:href="#DejaVuSans-74" transform="translate(347.265625 0.015625)"/>
     <use xlink:href="#DejaVuSans-61" transform="translate(386.474609 0.015625)"/>
     <use xlink:href="#DejaVuSans-6e" transform="translate(447.753906 0.015625)"/>
     <use xlink:href="#DejaVuSans-63" transform="translate(511.132812 0.015625)"/>
     <use xlink:href="#DejaVuSans-65" transform="translate(566.113281 0.015625)"/>
     <use xlink:href="#DejaVuSans-41" transform="translate(627.636719 0.015625)"/>
     <use xlink:href="#DejaVuSans-6c" transform="translate(696.044922 0.015625)"/>
     <use xlink:href="#DejaVuSans-6f" transform="translate(723.828125 0.015625)"/>
     <use xlink:href="#DejaVuSans-6e" transform="translate(785.009766 0.015625)"/>
     <use xlink:href="#DejaVuSans-67" transform="translate(848.388672 0.015625)"/>
     <use xlink:href="#DejaVuSans-20" transform="translate(911.865234 0.015625)"/>
     <use xlink:href="#DejaVuSans-3d" transform="translate(943.652344 0.015625)"/>
     <use xlink:href="#DejaVuSans-20" transform="translate(1027.441406 0.015625)"/>
     <use xlink:href="#DejaVuSans-73" transform="translate(1059.228516 0.015625)"/>
     <use xlink:href="#DejaVuSans-30" transform="translate(1112.285156 -16.390625) scale(0.7)"/>
     <use xlink:href="#DejaVuSans-2c" transform="translate(1159.555664 0.015625)"/>
     <use xlink:href="#DejaVuSans-20" transform="translate(1191.342773 0.015625)"/>
     <use xlink:href="#DejaVuSans-7a" transform="translate(1223.129883 0.015625)"/>
     <use xlink:href="#DejaVuSans-20" transform="translate(1275.620117 0.015625)"/>
     <use xlink:href="#DejaVuSans-3d" transform="translate(1307.407227 0.015625)"/>
     <use xlink:href="#DejaVuSans-20" transform="translate(1391.196289 0.015625)"/>
     <use xlink:href="#DejaVuSans-30" transform="translate(1422.983398 0.015625)"/>
     <use xlink:href="#DejaVuSans-29" transform="translate(1486.606445 0.015625)"/>
    </g>
   </g>
   <g id="text_29">
    <!--   s = 0 -->
    <g style="fill: #4a5568" transform="translate(140.608745 457.128489) scale(0.09 -0.09)">
     <use xlink:href="#DejaVuSans-20"/>
     <use xlink:href="#DejaVuSans-20" transform="translate(31.787109 0)"/>
     <use xlink:href="#DejaVuSans-73" transform="translate(63.574219 0)"/>
     <use xlink:href="#DejaVuSans-20" transform="translate(115.673828 0)"/>
     <use xlink:href="#DejaVuSans-3d" transform="translate(147.460938 0)"/>
     <use xlink:href="#DejaVuSans-20" transform="translate(231.25 0)"/>
     <use xlink:href="#DejaVuSans-30" transform="translate(263.037109 0)"/>
    </g>
   </g>
   <g id="text_30">
    <!--   s = L -->
    <g style="fill: #4a5568" transform="translate(373.53721 156.939335) scale(0.09 -0.09)">
     <defs>
      <path id="DejaVuSans-4c" d="M 628 4666 
L 1259 4666 
L 1259 531 
L 3531 531 
L 3531 0 
L 628 0 
L 628 4666 
z
" transform="scale(0.015625)"/>
     </defs>
     <use xlink:href="#DejaVuSans-20"/>
     <use xlink:href="#DejaVuSans-20" transform="translate(31.787109 0)"/>
     <use xlink:href="#DejaVuSans-73" transform="translate(63.574219 0)"/>
     <use xlink:href="#DejaVuSans-20" transform="translate(115.673828 0)"/>
     <use xlink:href="#DejaVuSans-3d" transform="translate(147.460938 0)"/>
     <use xlink:href="#DejaVuSans-20" transform="translate(231.25 0)"/>
     <use xlink:href="#DejaVuSans-4c" transform="translate(263.037109 0)"/>
    </g>
   </g>
   <g id="text_31">
    <g id="patch_11">
     <path d="M 279.004394 232.693158 
L 373.609736 193.568259 
L 369.52425 183.689414 
L 274.918908 222.814313 
z
" style="fill: #ffffff; opacity: 0.7"/>
    </g>
    <!-- plane of T ⊥ global XY -->
    <g style="fill: #2b6cb0" transform="translate(278.825591 229.670318) rotate(-22.467986) scale(0.09 -0.09)">
     <defs>
      <path id="DejaVuSans-Oblique-70" d="M 3175 2156 
Q 3175 2616 2975 2859 
Q 2775 3103 2400 3103 
Q 2144 3103 1911 2972 
Q 1678 2841 1497 2591 
Q 1319 2344 1212 1994 
Q 1106 1644 1106 1300 
Q 1106 863 1306 627 
Q 1506 391 1875 391 
Q 2147 391 2380 519 
Q 2613 647 2778 891 
Q 2956 1147 3065 1494 
Q 3175 1841 3175 2156 
z
M 1394 2969 
Q 1625 3272 1939 3428 
Q 2253 3584 2638 3584 
Q 3175 3584 3472 3232 
Q 3769 2881 3769 2247 
Q 3769 1728 3584 1258 
Q 3400 788 3053 416 
Q 2822 169 2531 39 
Q 2241 -91 1919 -91 
Q 1547 -91 1294 64 
Q 1041 219 916 525 
L 556 -1331 
L -19 -1331 
L 922 3500 
L 1497 3500 
L 1394 2969 
z
" transform="scale(0.015625)"/>
      <path id="DejaVuSans-Oblique-6c" d="M 1172 4863 
L 1747 4863 
L 800 0 
L 225 0 
L 1172 4863 
z
" transform="scale(0.015625)"/>
      <path id="DejaVuSans-Oblique-61" d="M 3438 1997 
L 3047 0 
L 2472 0 
L 2578 531 
Q 2325 219 2001 64 
Q 1678 -91 1281 -91 
Q 834 -91 548 182 
Q 263 456 263 884 
Q 263 1497 752 1853 
Q 1241 2209 2100 2209 
L 2900 2209 
L 2931 2363 
Q 2938 2388 2941 2417 
Q 2944 2447 2944 2509 
Q 2944 2788 2717 2942 
Q 2491 3097 2081 3097 
Q 1800 3097 1504 3025 
Q 1209 2953 897 2809 
L 997 3341 
Q 1322 3463 1633 3523 
Q 1944 3584 2234 3584 
Q 2853 3584 3176 3315 
Q 3500 3047 3500 2534 
Q 3500 2431 3484 2292 
Q 3469 2153 3438 1997 
z
M 2816 1759 
L 2241 1759 
Q 1534 1759 1195 1570 
Q 856 1381 856 984 
Q 856 709 1029 553 
Q 1203 397 1509 397 
Q 1978 397 2328 733 
Q 2678 1069 2791 1631 
L 2816 1759 
z
" transform="scale(0.015625)"/>
      <path id="DejaVuSans-Oblique-6e" d="M 3566 2113 
L 3156 0 
L 2578 0 
L 2988 2091 
Q 3016 2238 3031 2350 
Q 3047 2463 3047 2528 
Q 3047 2791 2881 2937 
Q 2716 3084 2419 3084 
Q 1956 3084 1622 2776 
Q 1288 2469 1184 1941 
L 800 0 
L 225 0 
L 903 3500 
L 1478 3500 
L 1363 2950 
Q 1603 3253 1940 3418 
Q 2278 3584 2650 3584 
Q 3113 3584 3367 3334 
Q 3622 3084 3622 2631 
Q 3622 2519 3608 2391 
Q 3594 2263 3566 2113 
z
" transform="scale(0.015625)"/>
      <path id="DejaVuSans-Oblique-65" d="M 3078 2063 
Q 3088 2113 3092 2166 
Q 3097 2219 3097 2272 
Q 3097 2653 2873 2875 
Q 2650 3097 2266 3097 
Q 1838 3097 1509 2826 
Q 1181 2556 1013 2059 
L 3078 2063 
z
M 3578 1613 
L 903 1613 
Q 884 1494 878 1425 
Q 872 1356 872 1306 
Q 872 872 1139 634 
Q 1406 397 1894 397 
Q 2269 397 2603 481 
Q 2938 566 3225 728 
L 3116 159 
Q 2806 34 2476 -28 
Q 2147 -91 1806 -91 
Q 1078 -91 686 257 
Q 294 606 294 1247 
Q 294 1794 489 2264 
Q 684 2734 1063 3103 
Q 1306 3334 1642 3459 
Q 1978 3584 2356 3584 
Q 2950 3584 3301 3228 
Q 3653 2872 3653 2272 
Q 3653 2128 3634 1964 
Q 3616 1800 3578 1613 
z
" transform="scale(0.015625)"/>
      <path id="DejaVuSans-Oblique-20" transform="scale(0.015625)"/>
      <path id="DejaVuSans-Oblique-6f" d="M 1625 -91 
Q 1009 -91 651 289 
Q 294 669 294 1325 
Q 294 1706 417 2101 
Q 541 2497 738 2766 
Q 1047 3184 1428 3384 
Q 1809 3584 2291 3584 
Q 2888 3584 3255 3212 
Q 3622 2841 3622 2241 
Q 3622 1825 3500 1412 
Q 3378 1000 3181 728 
Q 2875 309 2494 109 
Q 2113 -91 1625 -91 
z
M 891 1344 
Q 891 869 1089 633 
Q 1288 397 1691 397 
Q 2269 397 2648 901 
Q 3028 1406 3028 2181 
Q 3028 2634 2825 2865 
Q 2622 3097 2228 3097 
Q 1903 3097 1650 2945 
Q 1397 2794 1197 2484 
Q 1050 2253 970 1956 
Q 891 1659 891 1344 
z
" transform="scale(0.015625)"/>
      <path id="DejaVuSans-Oblique-66" d="M 3059 4863 
L 2969 4384 
L 2419 4384 
Q 2106 4384 1964 4261 
Q 1822 4138 1753 3809 
L 1691 3500 
L 2638 3500 
L 2553 3053 
L 1606 3053 
L 1013 0 
L 434 0 
L 1031 3053 
L 481 3053 
L 563 3500 
L 1113 3500 
L 1159 3744 
Q 1278 4363 1576 4613 
Q 1875 4863 2516 4863 
L 3059 4863 
z
" transform="scale(0.015625)"/>
      <path id="DejaVuSans-Oblique-54" d="M 378 4666 
L 4325 4666 
L 4225 4134 
L 2559 4134 
L 1759 0 
L 1125 0 
L 1925 4134 
L 275 4134 
L 378 4666 
z
" transform="scale(0.015625)"/>
      <path id="DejaVuSans-Oblique-22a5" d="M 2588 397 
L 2588 4481 
L 2988 4481 
L 2988 397 
L 5028 397 
L 5028 0 
L 547 0 
L 547 397 
L 2588 397 
z
" transform="scale(0.015625)"/>
      <path id="DejaVuSans-Oblique-67" d="M 3816 3500 
L 3219 434 
Q 3047 -456 2561 -893 
Q 2075 -1331 1253 -1331 
Q 950 -1331 690 -1286 
Q 431 -1241 206 -1147 
L 313 -588 
Q 525 -725 762 -790 
Q 1000 -856 1269 -856 
Q 1816 -856 2167 -557 
Q 2519 -259 2631 300 
L 2681 563 
Q 2441 288 2122 144 
Q 1803 0 1434 0 
Q 903 0 598 351 
Q 294 703 294 1319 
Q 294 1803 478 2267 
Q 663 2731 997 3091 
Q 1219 3328 1514 3456 
Q 1809 3584 2131 3584 
Q 2484 3584 2746 3420 
Q 3009 3256 3138 2956 
L 3238 3500 
L 3816 3500 
z
M 2950 2216 
Q 2950 2641 2750 2872 
Q 2550 3103 2181 3103 
Q 1953 3103 1747 3012 
Q 1541 2922 1394 2759 
Q 1156 2491 1023 2127 
Q 891 1763 891 1375 
Q 891 944 1092 712 
Q 1294 481 1672 481 
Q 2219 481 2584 976 
Q 2950 1472 2950 2216 
z
" transform="scale(0.015625)"/>
      <path id="DejaVuSans-Oblique-62" d="M 3169 2138 
Q 3169 2591 2961 2847 
Q 2753 3103 2388 3103 
Q 2122 3103 1889 2973 
Q 1656 2844 1484 2597 
Q 1303 2338 1198 1995 
Q 1094 1653 1094 1313 
Q 1094 881 1298 636 
Q 1503 391 1863 391 
Q 2134 391 2365 517 
Q 2597 644 2772 891 
Q 2950 1147 3059 1487 
Q 3169 1828 3169 2138 
z
M 1381 2969 
Q 1594 3256 1914 3420 
Q 2234 3584 2584 3584 
Q 3122 3584 3439 3221 
Q 3756 2859 3756 2241 
Q 3756 1734 3570 1259 
Q 3384 784 3041 416 
Q 2816 172 2522 40 
Q 2228 -91 1906 -91 
Q 1566 -91 1316 65 
Q 1066 222 909 531 
L 806 0 
L 231 0 
L 1178 4863 
L 1753 4863 
L 1381 2969 
z
" transform="scale(0.015625)"/>
      <path id="DejaVuSans-Oblique-58" d="M 878 4666 
L 1516 4666 
L 2316 2981 
L 3763 4666 
L 4500 4666 
L 2578 2438 
L 3738 0 
L 3103 0 
L 2163 1966 
L 459 0 
L -275 0 
L 1906 2509 
L 878 4666 
z
" transform="scale(0.015625)"/>
      <path id="DejaVuSans-Oblique-59" d="M 403 4666 
L 1081 4666 
L 1953 2747 
L 3616 4666 
L 4325 4666 
L 2209 2222 
L 1778 0 
L 1147 0 
L 1575 2222 
L 403 4666 
z
" transform="scale(0.015625)"/>
     </defs>
     <use xlink:href="#DejaVuSans-Oblique-70"/>
     <use xlink:href="#DejaVuSans-Oblique-6c" transform="translate(63.476562 0)"/>
     <use xlink:href="#DejaVuSans-Oblique-61" transform="translate(91.259766 0)"/>
     <use xlink:href="#DejaVuSans-Oblique-6e" transform="translate(152.539062 0)"/>
     <use xlink:href="#DejaVuSans-Oblique-65" transform="translate(215.917969 0)"/>
     <use xlink:href="#DejaVuSans-Oblique-20" transform="translate(277.441406 0)"/>
     <use xlink:href="#DejaVuSans-Oblique-6f" transform="translate(309.228516 0)"/>
     <use xlink:href="#DejaVuSans-Oblique-66" transform="translate(370.410156 0)"/>
     <use xlink:href="#DejaVuSans-Oblique-20" transform="translate(405.615234 0)"/>
     <use xlink:href="#DejaVuSans-Oblique-54" transform="translate(437.402344 0)"/>
     <use xlink:href="#DejaVuSans-Oblique-20" transform="translate(498.486328 0)"/>
     <use xlink:href="#DejaVuSans-Oblique-22a5" transform="translate(530.273438 0)"/>
     <use xlink:href="#DejaVuSans-Oblique-20" transform="translate(617.382812 0)"/>
     <use xlink:href="#DejaVuSans-Oblique-67" transform="translate(649.169922 0)"/>
     <use xlink:href="#DejaVuSans-Oblique-6c" transform="translate(712.646484 0)"/>
     <use xlink:href="#DejaVuSans-Oblique-6f" transform="translate(740.429688 0)"/>
     <use xlink:href="#DejaVuSans-Oblique-62" transform="translate(801.611328 0)"/>
     <use xlink:href="#DejaVuSans-Oblique-61" transform="translate(865.087891 0)"/>
     <use xlink:href="#DejaVuSans-Oblique-6c" transform="translate(926.367188 0)"/>
     <use xlink:href="#DejaVuSans-Oblique-20" transform="translate(954.150391 0)"/>
     <use xlink:href="#DejaVuSans-Oblique-58" transform="translate(985.9375 0)"/>
     <use xlink:href="#DejaVuSans-Oblique-59" transform="translate(1054.443359 0)"/>
    </g>
   </g>
   <g id="text_32">
    <!-- Figure 3 — Default Axis and RefDirection for IfcAxis2PlacementLinear -->
    <g transform="translate(39.652906 17.229937) scale(0.132 -0.132)">
     <defs>
      <path id="DejaVuSans-46" d="M 628 4666 
L 3309 4666 
L 3309 4134 
L 1259 4134 
L 1259 2759 
L 3109 2759 
L 3109 2228 
L 1259 2228 
L 1259 0 
L 628 0 
L 628 4666 
z
" transform="scale(0.015625)"/>
      <path id="DejaVuSans-75" d="M 544 1381 
L 544 3500 
L 1119 3500 
L 1119 1403 
Q 1119 906 1312 657 
Q 1506 409 1894 409 
Q 2359 409 2629 706 
Q 2900 1003 2900 1516 
L 2900 3500 
L 3475 3500 
L 3475 0 
L 2900 0 
L 2900 538 
Q 2691 219 2414 64 
Q 2138 -91 1772 -91 
Q 1169 -91 856 284 
Q 544 659 544 1381 
z
M 1991 3584 
L 1991 3584 
z
" transform="scale(0.015625)"/>
      <path id="DejaVuSans-72" d="M 2631 2963 
Q 2534 3019 2420 3045 
Q 2306 3072 2169 3072 
Q 1681 3072 1420 2755 
Q 1159 2438 1159 1844 
L 1159 0 
L 581 0 
L 581 3500 
L 1159 3500 
L 1159 2956 
Q 1341 3275 1631 3429 
Q 1922 3584 2338 3584 
Q 2397 3584 2469 3576 
Q 2541 3569 2628 3553 
L 2631 2963 
z
" transform="scale(0.015625)"/>
      <path id="DejaVuSans-33" d="M 2597 2516 
Q 3050 2419 3304 2112 
Q 3559 1806 3559 1356 
Q 3559 666 3084 287 
Q 2609 -91 1734 -91 
Q 1441 -91 1130 -33 
Q 819 25 488 141 
L 488 750 
Q 750 597 1062 519 
Q 1375 441 1716 441 
Q 2309 441 2620 675 
Q 2931 909 2931 1356 
Q 2931 1769 2642 2001 
Q 2353 2234 1838 2234 
L 1294 2234 
L 1294 2753 
L 1863 2753 
Q 2328 2753 2575 2939 
Q 2822 3125 2822 3475 
Q 2822 3834 2567 4026 
Q 2313 4219 1838 4219 
Q 1578 4219 1281 4162 
Q 984 4106 628 3988 
L 628 4550 
Q 988 4650 1302 4700 
Q 1616 4750 1894 4750 
Q 2613 4750 3031 4423 
Q 3450 4097 3450 3541 
Q 3450 3153 3228 2886 
Q 3006 2619 2597 2516 
z
" transform="scale(0.015625)"/>
      <path id="DejaVuSans-2014" d="M 313 1978 
L 6088 1978 
L 6088 1528 
L 313 1528 
L 313 1978 
z
" transform="scale(0.015625)"/>
      <path id="DejaVuSans-66" d="M 2375 4863 
L 2375 4384 
L 1825 4384 
Q 1516 4384 1395 4259 
Q 1275 4134 1275 3809 
L 1275 3500 
L 2222 3500 
L 2222 3053 
L 1275 3053 
L 1275 0 
L 697 0 
L 697 3053 
L 147 3053 
L 147 3500 
L 697 3500 
L 697 3744 
Q 697 4328 969 4595 
Q 1241 4863 1831 4863 
L 2375 4863 
z
" transform="scale(0.015625)"/>
      <path id="DejaVuSans-78" d="M 3513 3500 
L 2247 1797 
L 3578 0 
L 2900 0 
L 1881 1375 
L 863 0 
L 184 0 
L 1544 1831 
L 300 3500 
L 978 3500 
L 1906 2253 
L 2834 3500 
L 3513 3500 
z
" transform="scale(0.015625)"/>
      <path id="DejaVuSans-64" d="M 2906 2969 
L 2906 4863 
L 3481 4863 
L 3481 0 
L 2906 0 
L 2906 525 
Q 2725 213 2448 61 
Q 2172 -91 1784 -91 
Q 1150 -91 751 415 
Q 353 922 353 1747 
Q 353 2572 751 3078 
Q 1150 3584 1784 3584 
Q 2172 3584 2448 3432 
Q 2725 3281 2906 2969 
z
M 947 1747 
Q 947 1113 1208 752 
Q 1469 391 1925 391 
Q 2381 391 2643 752 
Q 2906 1113 2906 1747 
Q 2906 2381 2643 2742 
Q 2381 3103 1925 3103 
Q 1469 3103 1208 2742 
Q 947 2381 947 1747 
z
" transform="scale(0.015625)"/>
      <path id="DejaVuSans-52" d="M 2841 2188 
Q 3044 2119 3236 1894 
Q 3428 1669 3622 1275 
L 4263 0 
L 3584 0 
L 2988 1197 
Q 2756 1666 2539 1819 
Q 2322 1972 1947 1972 
L 1259 1972 
L 1259 0 
L 628 0 
L 628 4666 
L 2053 4666 
Q 2853 4666 3247 4331 
Q 3641 3997 3641 3322 
Q 3641 2881 3436 2590 
Q 3231 2300 2841 2188 
z
M 1259 4147 
L 1259 2491 
L 2053 2491 
Q 2509 2491 2742 2702 
Q 2975 2913 2975 3322 
Q 2975 3731 2742 3939 
Q 2509 4147 2053 4147 
L 1259 4147 
z
" transform="scale(0.015625)"/>
      <path id="DejaVuSans-49" d="M 628 4666 
L 1259 4666 
L 1259 0 
L 628 0 
L 628 4666 
z
" transform="scale(0.015625)"/>
      <path id="DejaVuSans-6d" d="M 3328 2828 
Q 3544 3216 3844 3400 
Q 4144 3584 4550 3584 
Q 5097 3584 5394 3201 
Q 5691 2819 5691 2113 
L 5691 0 
L 5113 0 
L 5113 2094 
Q 5113 2597 4934 2840 
Q 4756 3084 4391 3084 
Q 3944 3084 3684 2787 
Q 3425 2491 3425 1978 
L 3425 0 
L 2847 0 
L 2847 2094 
Q 2847 2600 2669 2842 
Q 2491 3084 2119 3084 
Q 1678 3084 1418 2786 
Q 1159 2488 1159 1978 
L 1159 0 
L 581 0 
L 581 3500 
L 1159 3500 
L 1159 2956 
Q 1356 3278 1631 3431 
Q 1906 3584 2284 3584 
Q 2666 3584 2933 3390 
Q 3200 3197 3328 2828 
z
" transform="scale(0.015625)"/>
     </defs>
     <use xlink:href="#DejaVuSans-46"/>
     <use xlink:href="#DejaVuSans-69" transform="translate(50.269531 0)"/>
     <use xlink:href="#DejaVuSans-67" transform="translate(78.052734 0)"/>
     <use xlink:href="#DejaVuSans-75" transform="translate(141.529297 0)"/>
     <use xlink:href="#DejaVuSans-72" transform="translate(204.908203 0)"/>
     <use xlink:href="#DejaVuSans-65" transform="translate(243.771484 0)"/>
     <use xlink:href="#DejaVuSans-20" transform="translate(305.294922 0)"/>
     <use xlink:href="#DejaVuSans-33" transform="translate(337.082031 0)"/>
     <use xlink:href="#DejaVuSans-20" transform="translate(400.705078 0)"/>
     <use xlink:href="#DejaVuSans-2014" transform="translate(432.492188 0)"/>
     <use xlink:href="#DejaVuSans-20" transform="translate(532.492188 0)"/>
     <use xlink:href="#DejaVuSans-44" transform="translate(564.279297 0)"/>
     <use xlink:href="#DejaVuSans-65" transform="translate(641.28125 0)"/>
     <use xlink:href="#DejaVuSans-66" transform="translate(702.804688 0)"/>
     <use xlink:href="#DejaVuSans-61" transform="translate(738.009766 0)"/>
     <use xlink:href="#DejaVuSans-75" transform="translate(799.289062 0)"/>
     <use xlink:href="#DejaVuSans-6c" transform="translate(862.667969 0)"/>
     <use xlink:href="#DejaVuSans-74" transform="translate(890.451172 0)"/>
     <use xlink:href="#DejaVuSans-20" transform="translate(929.660156 0)"/>
     <use xlink:href="#DejaVuSans-41" transform="translate(961.447266 0)"/>
     <use xlink:href="#DejaVuSans-78" transform="translate(1029.855469 0)"/>
     <use xlink:href="#DejaVuSans-69" transform="translate(1089.035156 0)"/>
     <use xlink:href="#DejaVuSans-73" transform="translate(1116.818359 0)"/>
     <use xlink:href="#DejaVuSans-20" transform="translate(1168.917969 0)"/>
     <use xlink:href="#DejaVuSans-61" transform="translate(1200.705078 0)"/>
     <use xlink:href="#DejaVuSans-6e" transform="translate(1261.984375 0)"/>
     <use xlink:href="#DejaVuSans-64" transform="translate(1325.363281 0)"/>
     <use xlink:href="#DejaVuSans-20" transform="translate(1388.839844 0)"/>
     <use xlink:href="#DejaVuSans-52" transform="translate(1420.626953 0)"/>
     <use xlink:href="#DejaVuSans-65" transform="translate(1485.609375 0)"/>
     <use xlink:href="#DejaVuSans-66" transform="translate(1547.132812 0)"/>
     <use xlink:href="#DejaVuSans-44" transform="translate(1582.337891 0)"/>
     <use xlink:href="#DejaVuSans-69" transform="translate(1659.339844 0)"/>
     <use xlink:href="#DejaVuSans-72" transform="translate(1687.123047 0)"/>
     <use xlink:href="#DejaVuSans-65" transform="translate(1725.986328 0)"/>
     <use xlink:href="#DejaVuSans-63" transform="translate(1787.509766 0)"/>
     <use xlink:href="#DejaVuSans-74" transform="translate(1842.490234 0)"/>
     <use xlink:href="#DejaVuSans-69" transform="translate(1881.699219 0)"/>
     <use xlink:href="#DejaVuSans-6f" transform="translate(1909.482422 0)"/>
     <use xlink:href="#DejaVuSans-6e" transform="translate(1970.664062 0)"/>
     <use xlink:href="#DejaVuSans-20" transform="translate(2034.042969 0)"/>
     <use xlink:href="#DejaVuSans-66" transform="translate(2065.830078 0)"/>
     <use xlink:href="#DejaVuSans-6f" transform="translate(2101.035156 0)"/>
     <use xlink:href="#DejaVuSans-72" transform="translate(2162.216797 0)"/>
     <use xlink:href="#DejaVuSans-20" transform="translate(2203.330078 0)"/>
     <use xlink:href="#DejaVuSans-49" transform="translate(2235.117188 0)"/>
     <use xlink:href="#DejaVuSans-66" transform="translate(2264.609375 0)"/>
     <use xlink:href="#DejaVuSans-63" transform="translate(2299.814453 0)"/>
     <use xlink:href="#DejaVuSans-41" transform="translate(2354.794922 0)"/>
     <use xlink:href="#DejaVuSans-78" transform="translate(2423.203125 0)"/>
     <use xlink:href="#DejaVuSans-69" transform="translate(2482.382812 0)"/>
     <use xlink:href="#DejaVuSans-73" transform="translate(2510.166016 0)"/>
     <use xlink:href="#DejaVuSans-32" transform="translate(2562.265625 0)"/>
     <use xlink:href="#DejaVuSans-50" transform="translate(2625.888672 0)"/>
     <use xlink:href="#DejaVuSans-6c" transform="translate(2686.191406 0)"/>
     <use xlink:href="#DejaVuSans-61" transform="translate(2713.974609 0)"/>
     <use xlink:href="#DejaVuSans-63" transform="translate(2775.253906 0)"/>
     <use xlink:href="#DejaVuSans-65" transform="translate(2830.234375 0)"/>
     <use xlink:href="#DejaVuSans-6d" transform="translate(2891.757812 0)"/>
     <use xlink:href="#DejaVuSans-65" transform="translate(2989.169922 0)"/>
     <use xlink:href="#DejaVuSans-6e" transform="translate(3050.693359 0)"/>
     <use xlink:href="#DejaVuSans-74" transform="translate(3114.072266 0)"/>
     <use xlink:href="#DejaVuSans-4c" transform="translate(3153.28125 0)"/>
     <use xlink:href="#DejaVuSans-69" transform="translate(3208.994141 0)"/>
     <use xlink:href="#DejaVuSans-6e" transform="translate(3236.777344 0)"/>
     <use xlink:href="#DejaVuSans-65" transform="translate(3300.15625 0)"/>
     <use xlink:href="#DejaVuSans-61" transform="translate(3361.679688 0)"/>
     <use xlink:href="#DejaVuSans-72" transform="translate(3422.958984 0)"/>
    </g>
   </g>
   <g id="Path3DCollection_2">
    <defs>
     <path id="m5dc6f30092" d="M 0 2.5 
C 0.663008 2.5 1.29895 2.236584 1.767767 1.767767 
C 2.236584 1.29895 2.5 0.663008 2.5 0 
C 2.5 -0.663008 2.236584 -1.29895 1.767767 -1.767767 
C 1.29895 -2.236584 0.663008 -2.5 0 -2.5 
C -0.663008 -2.5 -1.29895 -2.236584 -1.767767 -1.767767 
C -2.236584 -1.29895 -2.5 -0.663008 -2.5 0 
C -2.5 0.663008 -2.236584 1.29895 -1.767767 1.767767 
C -1.29895 2.236584 -0.663008 2.5 0 2.5 
z
" style="stroke: #808080"/>
    </defs>
    <g clip-path="url(#p833cdeac1c)">
     <use xlink:href="#m5dc6f30092" x="322.828569" y="415.656606" style="fill: #808080; stroke: #808080"/>
    </g>
   </g>
   <g id="Line3DCollection_4">
    <path d="M 360.743913 271.958945 
L 323.435163 318.198665 
" clip-path="url(#p833cdeac1c)" style="fill: none; stroke: #c53030; stroke-width: 3"/>
    <path d="M 360.743913 271.958945 
L 356.959646 279.018803 
" clip-path="url(#p833cdeac1c)" style="fill: none; stroke: #c53030; stroke-width: 3"/>
    <path d="M 360.743913 271.958945 
L 355.977291 275.494567 
" clip-path="url(#p833cdeac1c)" style="fill: none; stroke: #c53030; stroke-width: 3"/>
   </g>
   <g id="legend_1">
    <g id="patch_12">
     <path d="M 13.5 70.850563 
L 188.333437 70.850563 
Q 190.133437 70.850563 190.133437 69.050563 
L 190.133437 43.529937 
Q 190.133437 41.729938 188.333437 41.729938 
L 13.5 41.729938 
Q 11.7 41.729938 11.7 43.529937 
L 11.7 69.050563 
Q 11.7 70.850563 13.5 70.850563 
z
" style="fill: #ffffff; opacity: 0.8; stroke: #cccccc; stroke-linejoin: miter"/>
    </g>
    <g id="line2d_30">
     <path d="M 15.3 49.018531 
L 24.3 49.018531 
L 33.3 49.018531 
" style="fill: none; stroke: #2b6cb0; stroke-width: 2.5; stroke-linecap: square"/>
    </g>
    <g id="text_33">
     <!-- Basis curve -->
     <g transform="translate(40.5 52.168531) scale(0.09 -0.09)">
      <defs>
       <path id="DejaVuSans-42" d="M 1259 2228 
L 1259 519 
L 2272 519 
Q 2781 519 3026 730 
Q 3272 941 3272 1375 
Q 3272 1813 3026 2020 
Q 2781 2228 2272 2228 
L 1259 2228 
z
M 1259 4147 
L 1259 2741 
L 2194 2741 
Q 2656 2741 2882 2914 
Q 3109 3088 3109 3444 
Q 3109 3797 2882 3972 
Q 2656 4147 2194 4147 
L 1259 4147 
z
M 628 4666 
L 2241 4666 
Q 2963 4666 3353 4366 
Q 3744 4066 3744 3513 
Q 3744 3084 3544 2831 
Q 3344 2578 2956 2516 
Q 3422 2416 3680 2098 
Q 3938 1781 3938 1306 
Q 3938 681 3513 340 
Q 3088 0 2303 0 
L 628 0 
L 628 4666 
z
" transform="scale(0.015625)"/>
      </defs>
      <use xlink:href="#DejaVuSans-42"/>
      <use xlink:href="#DejaVuSans-61" transform="translate(68.603516 0)"/>
      <use xlink:href="#DejaVuSans-73" transform="translate(129.882812 0)"/>
      <use xlink:href="#DejaVuSans-69" transform="translate(181.982422 0)"/>
      <use xlink:href="#DejaVuSans-73" transform="translate(209.765625 0)"/>
      <use xlink:href="#DejaVuSans-20" transform="translate(261.865234 0)"/>
      <use xlink:href="#DejaVuSans-63" transform="translate(293.652344 0)"/>
      <use xlink:href="#DejaVuSans-75" transform="translate(348.632812 0)"/>
      <use xlink:href="#DejaVuSans-72" transform="translate(412.011719 0)"/>
      <use xlink:href="#DejaVuSans-76" transform="translate(453.125 0)"/>
      <use xlink:href="#DejaVuSans-65" transform="translate(512.304688 0)"/>
     </g>
    </g>
    <g id="line2d_31">
     <path d="M 15.3 62.228844 
L 24.3 62.228844 
L 33.3 62.228844 
" style="fill: none; stroke-dasharray: 6.66,2.88; stroke-dashoffset: 0; stroke: #808080; stroke-opacity: 0.8; stroke-width: 1.8"/>
    </g>
    <g id="text_34">
     <!-- Projection onto global XY (z = 0) -->
     <g transform="translate(40.5 65.378844) scale(0.09 -0.09)">
      <defs>
       <path id="DejaVuSans-6a" d="M 603 3500 
L 1178 3500 
L 1178 -63 
Q 1178 -731 923 -1031 
Q 669 -1331 103 -1331 
L -116 -1331 
L -116 -844 
L 38 -844 
Q 366 -844 484 -692 
Q 603 -541 603 -63 
L 603 3500 
z
M 603 4863 
L 1178 4863 
L 1178 4134 
L 603 4134 
L 603 4863 
z
" transform="scale(0.015625)"/>
      </defs>
      <use xlink:href="#DejaVuSans-50"/>
      <use xlink:href="#DejaVuSans-72" transform="translate(58.552734 0)"/>
      <use xlink:href="#DejaVuSans-6f" transform="translate(97.416016 0)"/>
      <use xlink:href="#DejaVuSans-6a" transform="translate(158.597656 0)"/>
      <use xlink:href="#DejaVuSans-65" transform="translate(186.380859 0)"/>
      <use xlink:href="#DejaVuSans-63" transform="translate(247.904297 0)"/>
      <use xlink:href="#DejaVuSans-74" transform="translate(302.884766 0)"/>
      <use xlink:href="#DejaVuSans-69" transform="translate(342.09375 0)"/>
      <use xlink:href="#DejaVuSans-6f" transform="translate(369.876953 0)"/>
      <use xlink:href="#DejaVuSans-6e" transform="translate(431.058594 0)"/>
      <use xlink:href="#DejaVuSans-20" transform="translate(494.4375 0)"/>
      <use xlink:href="#DejaVuSans-6f" transform="translate(526.224609 0)"/>
      <use xlink:href="#DejaVuSans-6e" transform="translate(587.40625 0)"/>
      <use xlink:href="#DejaVuSans-74" transform="translate(650.785156 0)"/>
      <use xlink:href="#DejaVuSans-6f" transform="translate(689.994141 0)"/>
      <use xlink:href="#DejaVuSans-20" transform="translate(751.175781 0)"/>
      <use xlink:href="#DejaVuSans-67" transform="translate(782.962891 0)"/>
      <use xlink:href="#DejaVuSans-6c" transform="translate(846.439453 0)"/>
      <use xlink:href="#DejaVuSans-6f" transform="translate(874.222656 0)"/>
      <use xlink:href="#DejaVuSans-62" transform="translate(935.404297 0)"/>
      <use xlink:href="#DejaVuSans-61" transform="translate(998.880859 0)"/>
      <use xlink:href="#DejaVuSans-6c" transform="translate(1060.160156 0)"/>
      <use xlink:href="#DejaVuSans-20" transform="translate(1087.943359 0)"/>
      <use xlink:href="#DejaVuSans-58" transform="translate(1119.730469 0)"/>
      <use xlink:href="#DejaVuSans-59" transform="translate(1188.236328 0)"/>
      <use xlink:href="#DejaVuSans-20" transform="translate(1249.320312 0)"/>
      <use xlink:href="#DejaVuSans-28" transform="translate(1281.107422 0)"/>
      <use xlink:href="#DejaVuSans-7a" transform="translate(1320.121094 0)"/>
      <use xlink:href="#DejaVuSans-20" transform="translate(1372.611328 0)"/>
      <use xlink:href="#DejaVuSans-3d" transform="translate(1404.398438 0)"/>
      <use xlink:href="#DejaVuSans-20" transform="translate(1488.1875 0)"/>
      <use xlink:href="#DejaVuSans-30" transform="translate(1519.974609 0)"/>
      <use xlink:href="#DejaVuSans-29" transform="translate(1583.597656 0)"/>
     </g>
    </g>
   </g>
   <g id="Line3DCollection_5">
    <path d="M 268.815468 303.309911 
L 323.435163 318.198665 
" clip-path="url(#p833cdeac1c)" style="fill: none; stroke: #2f855a; stroke-width: 3"/>
    <path d="M 268.815468 303.309911 
L 275.067396 307.193617 
" clip-path="url(#p833cdeac1c)" style="fill: none; stroke: #2f855a; stroke-width: 3"/>
    <path d="M 268.815468 303.309911 
L 275.067244 302.833355 
" clip-path="url(#p833cdeac1c)" style="fill: none; stroke: #2f855a; stroke-width: 3"/>
   </g>
   <g id="Line3DCollection_6">
    <path d="M 306.643966 260.542237 
L 323.435163 318.198665 
" clip-path="url(#p833cdeac1c)" style="fill: none; stroke: #2b6cb0; stroke-width: 3"/>
    <path d="M 306.643966 260.542237 
L 307.420855 268.776119 
" clip-path="url(#p833cdeac1c)" style="fill: none; stroke: #2b6cb0; stroke-width: 3"/>
    <path d="M 306.643966 260.542237 
L 309.814301 265.866625 
" clip-path="url(#p833cdeac1c)" style="fill: none; stroke: #2b6cb0; stroke-width: 3"/>
   </g>
   <g id="Path3DCollection_3">
    <g clip-path="url(#p833cdeac1c)">
     <use xlink:href="#mdac4c609e3" x="140.608745" y="457.128489" style="fill: #4a5568; stroke: #4a5568"/>
    </g>
   </g>
   <g id="Poly3DCollection_1">
    <defs>
     <path id="mc8fb7c84eb" d="M 230.270137 -103.305232 
L 228.874298 -338.164963 
L 412.111591 -413.944411 
L 408.316394 -194.923085 
z
" style="stroke: #2b6cb0; stroke-opacity: 0.15"/>
    </defs>
    <g clip-path="url(#p833cdeac1c)">
     <use xlink:href="#mc8fb7c84eb" x="0" y="566.589937" style="fill: #63b3ed; fill-opacity: 0.15; stroke: #2b6cb0; stroke-opacity: 0.15"/>
    </g>
   </g>
   <g id="text_35">
    <!-- ● -->
    <g transform="translate(319.508913 320.682102) scale(0.09 -0.09)">
     <defs>
      <path id="DejaVuSans-25cf" d="M 350 1656 
Q 350 2309 678 2878 
Q 1003 3444 1572 3772 
Q 2138 4100 2794 4100 
Q 3447 4100 4013 3772 
Q 4581 3444 4906 2878 
Q 5234 2309 5234 1656 
Q 5234 1003 4906 434 
Q 4581 -131 4013 -459 
Q 3447 -788 2794 -788 
Q 2138 -788 1572 -459 
Q 1003 -131 678 434 
Q 350 1003 350 1656 
z
" transform="scale(0.015625)"/>
     </defs>
     <use xlink:href="#DejaVuSans-25cf"/>
    </g>
   </g>
  </g>
 </g>
 <defs>
  <clipPath id="p833cdeac1c">
   <rect x="7.2" y="37.229937" width="522.16" height="522.16"/>
  </clipPath>
 </defs>
</svg>
