<?xml version="1.0" encoding="utf-8" standalone="no"?>
<!DOCTYPE svg PUBLIC "-//W3C//DTD SVG 1.1//EN"
  "http://www.w3.org/Graphics/SVG/1.1/DTD/svg11.dtd">
<svg xmlns:xlink="http://www.w3.org/1999/xlink" width="568.8pt" height="1000.8pt" viewBox="0 0 568.8 1000.8" xmlns="http://www.w3.org/2000/svg" version="1.1">
 <metadata>
  <rdf:RDF xmlns:dc="http://purl.org/dc/elements/1.1/" xmlns:cc="http://creativecommons.org/ns#" xmlns:rdf="http://www.w3.org/1999/02/22-rdf-syntax-ns#">
   <cc:Work>
    <dc:type rdf:resource="http://purl.org/dc/dcmitype/StillImage"/>
    <dc:date>2026-05-16T19:21:33.743079</dc:date>
    <dc:format>image/svg+xml</dc:format>
    <dc:creator>
     <cc:Agent>
      <dc:title>Matplotlib v3.10.9, https://matplotlib.org/</dc:title>
     </cc:Agent>
    </dc:creator>
   </cc:Work>
  </rdf:RDF>
 </metadata>
 <defs>
  <style type="text/css">*{stroke-linejoin: round; stroke-linecap: butt}</style>
 </defs>
 <g id="figure_1">
  <g id="patch_1">
   <path d="M 0 1000.8 
L 568.8 1000.8 
L 568.8 0 
L 0 0 
z
" style="fill: #ffffff"/>
  </g>
  <g id="axes_1">
   <g id="patch_2">
    <path d="M 50.14375 298.44375 
L 528.196875 298.44375 
L 528.196875 28.237 
L 50.14375 28.237 
z
" style="fill: #ffffff"/>
   </g>
   <g id="matplotlib.axis_1">
    <g id="xtick_1">
     <g id="line2d_1">
      <path d="M 71.873437 298.44375 
L 71.873437 28.237 
" clip-path="url(#p6c02edd190)" style="fill: none; stroke-dasharray: 2.96,1.28; stroke-dashoffset: 0; stroke: #b0b0b0; stroke-opacity: 0.5; stroke-width: 0.8"/>
     </g>
     <g id="line2d_2">
      <defs>
       <path id="mc9290ce319" d="M 0 0 
L 0 3.5 
" style="stroke: #000000; stroke-width: 0.8"/>
      </defs>
      <g>
       <use xlink:href="#mc9290ce319" x="71.873437" y="298.44375" style="stroke: #000000; stroke-width: 0.8"/>
      </g>
     </g>
     <g id="text_1">
      <!-- 0 -->
      <g transform="translate(68.692187 313.042187) scale(0.1 -0.1)">
       <defs>
        <path id="DejaVuSans-30" d="M 2034 4250 
Q 1547 4250 1301 3770 
Q 1056 3291 1056 2328 
Q 1056 1369 1301 889 
Q 1547 409 2034 409 
Q 2525 409 2770 889 
Q 3016 1369 3016 2328 
Q 3016 3291 2770 3770 
Q 2525 4250 2034 4250 
z
M 2034 4750 
Q 2819 4750 3233 4129 
Q 3647 3509 3647 2328 
Q 3647 1150 3233 529 
Q 2819 -91 2034 -91 
Q 1250 -91 836 529 
Q 422 1150 422 2328 
Q 422 3509 836 4129 
Q 1250 4750 2034 4750 
z
" transform="scale(0.015625)"/>
       </defs>
       <use xlink:href="#DejaVuSans-30"/>
      </g>
     </g>
    </g>
    <g id="xtick_2">
     <g id="line2d_3">
      <path d="M 159.499834 298.44375 
L 159.499834 28.237 
" clip-path="url(#p6c02edd190)" style="fill: none; stroke-dasharray: 2.96,1.28; stroke-dashoffset: 0; stroke: #b0b0b0; stroke-opacity: 0.5; stroke-width: 0.8"/>
     </g>
     <g id="line2d_4">
      <g>
       <use xlink:href="#mc9290ce319" x="159.499834" y="298.44375" style="stroke: #000000; stroke-width: 0.8"/>
      </g>
     </g>
     <g id="text_2">
      <!-- 20 -->
      <g transform="translate(153.137334 313.042187) scale(0.1 -0.1)">
       <defs>
        <path id="DejaVuSans-32" d="M 1228 531 
L 3431 531 
L 3431 0 
L 469 0 
L 469 531 
Q 828 903 1448 1529 
Q 2069 2156 2228 2338 
Q 2531 2678 2651 2914 
Q 2772 3150 2772 3378 
Q 2772 3750 2511 3984 
Q 2250 4219 1831 4219 
Q 1534 4219 1204 4116 
Q 875 4013 500 3803 
L 500 4441 
Q 881 4594 1212 4672 
Q 1544 4750 1819 4750 
Q 2544 4750 2975 4387 
Q 3406 4025 3406 3419 
Q 3406 3131 3298 2873 
Q 3191 2616 2906 2266 
Q 2828 2175 2409 1742 
Q 1991 1309 1228 531 
z
" transform="scale(0.015625)"/>
       </defs>
       <use xlink:href="#DejaVuSans-32"/>
       <use xlink:href="#DejaVuSans-30" transform="translate(63.623047 0)"/>
      </g>
     </g>
    </g>
    <g id="xtick_3">
     <g id="line2d_5">
      <path d="M 247.12623 298.44375 
L 247.12623 28.237 
" clip-path="url(#p6c02edd190)" style="fill: none; stroke-dasharray: 2.96,1.28; stroke-dashoffset: 0; stroke: #b0b0b0; stroke-opacity: 0.5; stroke-width: 0.8"/>
     </g>
     <g id="line2d_6">
      <g>
       <use xlink:href="#mc9290ce319" x="247.12623" y="298.44375" style="stroke: #000000; stroke-width: 0.8"/>
      </g>
     </g>
     <g id="text_3">
      <!-- 40 -->
      <g transform="translate(240.76373 313.042187) scale(0.1 -0.1)">
       <defs>
        <path id="DejaVuSans-34" d="M 2419 4116 
L 825 1625 
L 2419 1625 
L 2419 4116 
z
M 2253 4666 
L 3047 4666 
L 3047 1625 
L 3713 1625 
L 3713 1100 
L 3047 1100 
L 3047 0 
L 2419 0 
L 2419 1100 
L 313 1100 
L 313 1709 
L 2253 4666 
z
" transform="scale(0.015625)"/>
       </defs>
       <use xlink:href="#DejaVuSans-34"/>
       <use xlink:href="#DejaVuSans-30" transform="translate(63.623047 0)"/>
      </g>
     </g>
    </g>
    <g id="xtick_4">
     <g id="line2d_7">
      <path d="M 334.752626 298.44375 
L 334.752626 28.237 
" clip-path="url(#p6c02edd190)" style="fill: none; stroke-dasharray: 2.96,1.28; stroke-dashoffset: 0; stroke: #b0b0b0; stroke-opacity: 0.5; stroke-width: 0.8"/>
     </g>
     <g id="line2d_8">
      <g>
       <use xlink:href="#mc9290ce319" x="334.752626" y="298.44375" style="stroke: #000000; stroke-width: 0.8"/>
      </g>
     </g>
     <g id="text_4">
      <!-- 60 -->
      <g transform="translate(328.390126 313.042187) scale(0.1 -0.1)">
       <defs>
        <path id="DejaVuSans-36" d="M 2113 2584 
Q 1688 2584 1439 2293 
Q 1191 2003 1191 1497 
Q 1191 994 1439 701 
Q 1688 409 2113 409 
Q 2538 409 2786 701 
Q 3034 994 3034 1497 
Q 3034 2003 2786 2293 
Q 2538 2584 2113 2584 
z
M 3366 4563 
L 3366 3988 
Q 3128 4100 2886 4159 
Q 2644 4219 2406 4219 
Q 1781 4219 1451 3797 
Q 1122 3375 1075 2522 
Q 1259 2794 1537 2939 
Q 1816 3084 2150 3084 
Q 2853 3084 3261 2657 
Q 3669 2231 3669 1497 
Q 3669 778 3244 343 
Q 2819 -91 2113 -91 
Q 1303 -91 875 529 
Q 447 1150 447 2328 
Q 447 3434 972 4092 
Q 1497 4750 2381 4750 
Q 2619 4750 2861 4703 
Q 3103 4656 3366 4563 
z
" transform="scale(0.015625)"/>
       </defs>
       <use xlink:href="#DejaVuSans-36"/>
       <use xlink:href="#DejaVuSans-30" transform="translate(63.623047 0)"/>
      </g>
     </g>
    </g>
    <g id="xtick_5">
     <g id="line2d_9">
      <path d="M 422.379022 298.44375 
L 422.379022 28.237 
" clip-path="url(#p6c02edd190)" style="fill: none; stroke-dasharray: 2.96,1.28; stroke-dashoffset: 0; stroke: #b0b0b0; stroke-opacity: 0.5; stroke-width: 0.8"/>
     </g>
     <g id="line2d_10">
      <g>
       <use xlink:href="#mc9290ce319" x="422.379022" y="298.44375" style="stroke: #000000; stroke-width: 0.8"/>
      </g>
     </g>
     <g id="text_5">
      <!-- 80 -->
      <g transform="translate(416.016522 313.042187) scale(0.1 -0.1)">
       <defs>
        <path id="DejaVuSans-38" d="M 2034 2216 
Q 1584 2216 1326 1975 
Q 1069 1734 1069 1313 
Q 1069 891 1326 650 
Q 1584 409 2034 409 
Q 2484 409 2743 651 
Q 3003 894 3003 1313 
Q 3003 1734 2745 1975 
Q 2488 2216 2034 2216 
z
M 1403 2484 
Q 997 2584 770 2862 
Q 544 3141 544 3541 
Q 544 4100 942 4425 
Q 1341 4750 2034 4750 
Q 2731 4750 3128 4425 
Q 3525 4100 3525 3541 
Q 3525 3141 3298 2862 
Q 3072 2584 2669 2484 
Q 3125 2378 3379 2068 
Q 3634 1759 3634 1313 
Q 3634 634 3220 271 
Q 2806 -91 2034 -91 
Q 1263 -91 848 271 
Q 434 634 434 1313 
Q 434 1759 690 2068 
Q 947 2378 1403 2484 
z
M 1172 3481 
Q 1172 3119 1398 2916 
Q 1625 2713 2034 2713 
Q 2441 2713 2670 2916 
Q 2900 3119 2900 3481 
Q 2900 3844 2670 4047 
Q 2441 4250 2034 4250 
Q 1625 4250 1398 4047 
Q 1172 3844 1172 3481 
z
" transform="scale(0.015625)"/>
       </defs>
       <use xlink:href="#DejaVuSans-38"/>
       <use xlink:href="#DejaVuSans-30" transform="translate(63.623047 0)"/>
      </g>
     </g>
    </g>
    <g id="xtick_6">
     <g id="line2d_11">
      <path d="M 510.005419 298.44375 
L 510.005419 28.237 
" clip-path="url(#p6c02edd190)" style="fill: none; stroke-dasharray: 2.96,1.28; stroke-dashoffset: 0; stroke: #b0b0b0; stroke-opacity: 0.5; stroke-width: 0.8"/>
     </g>
     <g id="line2d_12">
      <g>
       <use xlink:href="#mc9290ce319" x="510.005419" y="298.44375" style="stroke: #000000; stroke-width: 0.8"/>
      </g>
     </g>
     <g id="text_6">
      <!-- 100 -->
      <g transform="translate(500.461669 313.042187) scale(0.1 -0.1)">
       <defs>
        <path id="DejaVuSans-31" d="M 794 531 
L 1825 531 
L 1825 4091 
L 703 3866 
L 703 4441 
L 1819 4666 
L 2450 4666 
L 2450 531 
L 3481 531 
L 3481 0 
L 794 0 
L 794 531 
z
" transform="scale(0.015625)"/>
       </defs>
       <use xlink:href="#DejaVuSans-31"/>
       <use xlink:href="#DejaVuSans-30" transform="translate(63.623047 0)"/>
       <use xlink:href="#DejaVuSans-30" transform="translate(127.246094 0)"/>
      </g>
     </g>
    </g>
    <g id="text_7">
     <!-- X (m) -->
     <g transform="translate(275.384375 326.720312) scale(0.1 -0.1)">
      <defs>
       <path id="DejaVuSans-58" d="M 403 4666 
L 1081 4666 
L 2241 2931 
L 3406 4666 
L 4084 4666 
L 2584 2425 
L 4184 0 
L 3506 0 
L 2194 1984 
L 872 0 
L 191 0 
L 1856 2491 
L 403 4666 
z
" transform="scale(0.015625)"/>
       <path id="DejaVuSans-20" transform="scale(0.015625)"/>
       <path id="DejaVuSans-28" d="M 1984 4856 
Q 1566 4138 1362 3434 
Q 1159 2731 1159 2009 
Q 1159 1288 1364 580 
Q 1569 -128 1984 -844 
L 1484 -844 
Q 1016 -109 783 600 
Q 550 1309 550 2009 
Q 550 2706 781 3412 
Q 1013 4119 1484 4856 
L 1984 4856 
z
" transform="scale(0.015625)"/>
       <path id="DejaVuSans-6d" d="M 3328 2828 
Q 3544 3216 3844 3400 
Q 4144 3584 4550 3584 
Q 5097 3584 5394 3201 
Q 5691 2819 5691 2113 
L 5691 0 
L 5113 0 
L 5113 2094 
Q 5113 2597 4934 2840 
Q 4756 3084 4391 3084 
Q 3944 3084 3684 2787 
Q 3425 2491 3425 1978 
L 3425 0 
L 2847 0 
L 2847 2094 
Q 2847 2600 2669 2842 
Q 2491 3084 2119 3084 
Q 1678 3084 1418 2786 
Q 1159 2488 1159 1978 
L 1159 0 
L 581 0 
L 581 3500 
L 1159 3500 
L 1159 2956 
Q 1356 3278 1631 3431 
Q 1906 3584 2284 3584 
Q 2666 3584 2933 3390 
Q 3200 3197 3328 2828 
z
" transform="scale(0.015625)"/>
       <path id="DejaVuSans-29" d="M 513 4856 
L 1013 4856 
Q 1481 4119 1714 3412 
Q 1947 2706 1947 2009 
Q 1947 1309 1714 600 
Q 1481 -109 1013 -844 
L 513 -844 
Q 928 -128 1133 580 
Q 1338 1288 1338 2009 
Q 1338 2731 1133 3434 
Q 928 4138 513 4856 
z
" transform="scale(0.015625)"/>
      </defs>
      <use xlink:href="#DejaVuSans-58"/>
      <use xlink:href="#DejaVuSans-20" transform="translate(68.505859 0)"/>
      <use xlink:href="#DejaVuSans-28" transform="translate(100.292969 0)"/>
      <use xlink:href="#DejaVuSans-6d" transform="translate(139.306641 0)"/>
      <use xlink:href="#DejaVuSans-29" transform="translate(236.71875 0)"/>
     </g>
    </g>
   </g>
   <g id="matplotlib.axis_2">
    <g id="ytick_1">
     <g id="line2d_13">
      <path d="M 50.14375 276.437443 
L 528.196875 276.437443 
" clip-path="url(#p6c02edd190)" style="fill: none; stroke-dasharray: 2.96,1.28; stroke-dashoffset: 0; stroke: #b0b0b0; stroke-opacity: 0.5; stroke-width: 0.8"/>
     </g>
     <g id="line2d_14">
      <defs>
       <path id="m2a44af9204" d="M 0 0 
L -3.5 0 
" style="stroke: #000000; stroke-width: 0.8"/>
      </defs>
      <g>
       <use xlink:href="#m2a44af9204" x="50.14375" y="276.437443" style="stroke: #000000; stroke-width: 0.8"/>
      </g>
     </g>
     <g id="text_8">
      <!-- −20 -->
      <g transform="translate(22.039063 280.236661) scale(0.1 -0.1)">
       <defs>
        <path id="DejaVuSans-2212" d="M 678 2272 
L 4684 2272 
L 4684 1741 
L 678 1741 
L 678 2272 
z
" transform="scale(0.015625)"/>
       </defs>
       <use xlink:href="#DejaVuSans-2212"/>
       <use xlink:href="#DejaVuSans-32" transform="translate(83.789062 0)"/>
       <use xlink:href="#DejaVuSans-30" transform="translate(147.412109 0)"/>
      </g>
     </g>
    </g>
    <g id="ytick_2">
     <g id="line2d_15">
      <path d="M 50.14375 232.624244 
L 528.196875 232.624244 
" clip-path="url(#p6c02edd190)" style="fill: none; stroke-dasharray: 2.96,1.28; stroke-dashoffset: 0; stroke: #b0b0b0; stroke-opacity: 0.5; stroke-width: 0.8"/>
     </g>
     <g id="line2d_16">
      <g>
       <use xlink:href="#m2a44af9204" x="50.14375" y="232.624244" style="stroke: #000000; stroke-width: 0.8"/>
      </g>
     </g>
     <g id="text_9">
      <!-- −10 -->
      <g transform="translate(22.039063 236.423463) scale(0.1 -0.1)">
       <use xlink:href="#DejaVuSans-2212"/>
       <use xlink:href="#DejaVuSans-31" transform="translate(83.789062 0)"/>
       <use xlink:href="#DejaVuSans-30" transform="translate(147.412109 0)"/>
      </g>
     </g>
    </g>
    <g id="ytick_3">
     <g id="line2d_17">
      <path d="M 50.14375 188.811046 
L 528.196875 188.811046 
" clip-path="url(#p6c02edd190)" style="fill: none; stroke-dasharray: 2.96,1.28; stroke-dashoffset: 0; stroke: #b0b0b0; stroke-opacity: 0.5; stroke-width: 0.8"/>
     </g>
     <g id="line2d_18">
      <g>
       <use xlink:href="#m2a44af9204" x="50.14375" y="188.811046" style="stroke: #000000; stroke-width: 0.8"/>
      </g>
     </g>
     <g id="text_10">
      <!-- 0 -->
      <g transform="translate(36.78125 192.610265) scale(0.1 -0.1)">
       <use xlink:href="#DejaVuSans-30"/>
      </g>
     </g>
    </g>
    <g id="ytick_4">
     <g id="line2d_19">
      <path d="M 50.14375 144.997848 
L 528.196875 144.997848 
" clip-path="url(#p6c02edd190)" style="fill: none; stroke-dasharray: 2.96,1.28; stroke-dashoffset: 0; stroke: #b0b0b0; stroke-opacity: 0.5; stroke-width: 0.8"/>
     </g>
     <g id="line2d_20">
      <g>
       <use xlink:href="#m2a44af9204" x="50.14375" y="144.997848" style="stroke: #000000; stroke-width: 0.8"/>
      </g>
     </g>
     <g id="text_11">
      <!-- 10 -->
      <g transform="translate(30.41875 148.797067) scale(0.1 -0.1)">
       <use xlink:href="#DejaVuSans-31"/>
       <use xlink:href="#DejaVuSans-30" transform="translate(63.623047 0)"/>
      </g>
     </g>
    </g>
    <g id="ytick_5">
     <g id="line2d_21">
      <path d="M 50.14375 101.18465 
L 528.196875 101.18465 
" clip-path="url(#p6c02edd190)" style="fill: none; stroke-dasharray: 2.96,1.28; stroke-dashoffset: 0; stroke: #b0b0b0; stroke-opacity: 0.5; stroke-width: 0.8"/>
     </g>
     <g id="line2d_22">
      <g>
       <use xlink:href="#m2a44af9204" x="50.14375" y="101.18465" style="stroke: #000000; stroke-width: 0.8"/>
      </g>
     </g>
     <g id="text_12">
      <!-- 20 -->
      <g transform="translate(30.41875 104.983869) scale(0.1 -0.1)">
       <use xlink:href="#DejaVuSans-32"/>
       <use xlink:href="#DejaVuSans-30" transform="translate(63.623047 0)"/>
      </g>
     </g>
    </g>
    <g id="ytick_6">
     <g id="line2d_23">
      <path d="M 50.14375 57.371452 
L 528.196875 57.371452 
" clip-path="url(#p6c02edd190)" style="fill: none; stroke-dasharray: 2.96,1.28; stroke-dashoffset: 0; stroke: #b0b0b0; stroke-opacity: 0.5; stroke-width: 0.8"/>
     </g>
     <g id="line2d_24">
      <g>
       <use xlink:href="#m2a44af9204" x="50.14375" y="57.371452" style="stroke: #000000; stroke-width: 0.8"/>
      </g>
     </g>
     <g id="text_13">
      <!-- 30 -->
      <g transform="translate(30.41875 61.170671) scale(0.1 -0.1)">
       <defs>
        <path id="DejaVuSans-33" d="M 2597 2516 
Q 3050 2419 3304 2112 
Q 3559 1806 3559 1356 
Q 3559 666 3084 287 
Q 2609 -91 1734 -91 
Q 1441 -91 1130 -33 
Q 819 25 488 141 
L 488 750 
Q 750 597 1062 519 
Q 1375 441 1716 441 
Q 2309 441 2620 675 
Q 2931 909 2931 1356 
Q 2931 1769 2642 2001 
Q 2353 2234 1838 2234 
L 1294 2234 
L 1294 2753 
L 1863 2753 
Q 2328 2753 2575 2939 
Q 2822 3125 2822 3475 
Q 2822 3834 2567 4026 
Q 2313 4219 1838 4219 
Q 1578 4219 1281 4162 
Q 984 4106 628 3988 
L 628 4550 
Q 988 4650 1302 4700 
Q 1616 4750 1894 4750 
Q 2613 4750 3031 4423 
Q 3450 4097 3450 3541 
Q 3450 3153 3228 2886 
Q 3006 2619 2597 2516 
z
" transform="scale(0.015625)"/>
       </defs>
       <use xlink:href="#DejaVuSans-33"/>
       <use xlink:href="#DejaVuSans-30" transform="translate(63.623047 0)"/>
      </g>
     </g>
    </g>
    <g id="text_14">
     <!-- Y (m) -->
     <g transform="translate(15.959375 176.755219) rotate(-90) scale(0.1 -0.1)">
      <defs>
       <path id="DejaVuSans-59" d="M -13 4666 
L 666 4666 
L 1959 2747 
L 3244 4666 
L 3922 4666 
L 2272 2222 
L 2272 0 
L 1638 0 
L 1638 2222 
L -13 4666 
z
" transform="scale(0.015625)"/>
      </defs>
      <use xlink:href="#DejaVuSans-59"/>
      <use xlink:href="#DejaVuSans-20" transform="translate(61.083984 0)"/>
      <use xlink:href="#DejaVuSans-28" transform="translate(92.871094 0)"/>
      <use xlink:href="#DejaVuSans-6d" transform="translate(131.884766 0)"/>
      <use xlink:href="#DejaVuSans-29" transform="translate(229.296875 0)"/>
     </g>
    </g>
   </g>
   <g id="line2d_25">
    <path d="M 71.873437 188.811046 
L 76.254749 188.803743 
L 80.636011 188.781845 
L 85.017178 188.745357 
L 89.3982 188.694306 
L 93.779024 188.628718 
L 98.159613 188.548636 
L 102.539907 188.454105 
L 106.919873 188.345181 
L 111.299458 188.221921 
L 115.678613 188.084396 
L 120.057304 187.932688 
L 124.435483 187.766873 
L 128.813109 187.587046 
L 133.190144 187.393308 
L 137.566544 187.185756 
L 141.942269 186.964504 
L 146.317292 186.729665 
L 150.691567 186.481371 
L 155.065066 186.219741 
L 159.437755 185.944914 
L 163.809607 185.657031 
L 168.180586 185.356235 
L 172.550673 185.042673 
L 176.91983 184.716506 
L 181.288045 184.377887 
L 185.655288 184.026987 
L 190.021545 183.663973 
L 194.386785 183.289015 
L 198.751004 182.902289 
L 203.114181 182.503983 
L 207.476302 182.094273 
L 211.837354 181.673351 
L 216.197328 181.241405 
L 220.556215 180.798633 
L 224.914012 180.345228 
L 229.270709 179.881391 
L 233.626301 179.407328 
L 237.980794 178.923236 
L 242.334188 178.429325 
L 246.686477 177.925806 
L 251.037666 177.412889 
L 255.387765 176.890781 
L 259.736781 176.359699 
L 264.084715 175.819859 
L 268.431576 175.271476 
L 272.777385 174.714768 
L 277.122143 174.149945 
L 281.465871 173.577237 
L 285.808578 172.996852 
L 290.150282 172.409015 
L 294.491005 171.81394 
L 298.830755 171.21185 
L 303.169558 170.60296 
L 307.507433 169.98749 
L 311.8444 169.365658 
L 316.180483 168.737679 
L 320.515698 168.103768 
L 324.850077 167.464139 
L 329.18364 166.819007 
L 333.516411 166.168578 
L 337.848419 165.513067 
L 342.179682 164.852684 
L 346.510231 164.187626 
L 350.840092 163.518108 
L 355.169292 162.844318 
L 359.49786 162.166466 
L 363.825816 161.484746 
L 368.153193 160.79935 
L 372.480018 160.110466 
L 376.806313 159.418283 
L 381.132112 158.722985 
L 385.457434 158.024752 
L 389.782314 157.323763 
L 394.106773 156.620184 
L 398.430838 155.914191 
L 402.754535 155.205947 
L 407.07789 154.495612 
L 411.400925 153.783336 
L 415.723662 153.069273 
L 420.046132 152.353576 
L 424.368352 151.636376 
L 428.690344 150.917813 
L 433.012135 150.198019 
L 437.333738 149.477117 
L 441.655178 148.755229 
L 445.976469 148.03246 
L 450.297633 147.308924 
L 454.618688 146.584723 
L 458.939642 145.859947 
L 463.260517 145.134686 
L 467.581327 144.409021 
L 471.902075 143.683027 
L 476.222783 142.956771 
L 480.543457 142.230309 
L 484.864109 141.503702 
L 489.184738 140.776985 
L 493.505355 140.050203 
L 497.825967 139.323386 
L 502.14658 138.596547 
L 506.467187 137.869704 
" clip-path="url(#p6c02edd190)" style="fill: none; stroke: #1f77b4; stroke-width: 1.5; stroke-linecap: square"/>
   </g>
   <g id="patch_3">
    <path d="M 50.14375 298.44375 
L 50.14375 28.237 
" style="fill: none; stroke: #000000; stroke-width: 0.8; stroke-linejoin: miter; stroke-linecap: square"/>
   </g>
   <g id="patch_4">
    <path d="M 528.196875 298.44375 
L 528.196875 28.237 
" style="fill: none; stroke: #000000; stroke-width: 0.8; stroke-linejoin: miter; stroke-linecap: square"/>
   </g>
   <g id="patch_5">
    <path d="M 50.14375 298.44375 
L 528.196875 298.44375 
" style="fill: none; stroke: #000000; stroke-width: 0.8; stroke-linejoin: miter; stroke-linecap: square"/>
   </g>
   <g id="patch_6">
    <path d="M 50.14375 28.237 
L 528.196875 28.237 
" style="fill: none; stroke: #000000; stroke-width: 0.8; stroke-linejoin: miter; stroke-linecap: square"/>
   </g>
   <g id="text_15">
    <!-- Horizontal — BlossCurve -->
    <g transform="translate(239.932187 13.27875) scale(0.08 -0.08)">
     <defs>
      <path id="DejaVuSans-48" d="M 628 4666 
L 1259 4666 
L 1259 2753 
L 3553 2753 
L 3553 4666 
L 4184 4666 
L 4184 0 
L 3553 0 
L 3553 2222 
L 1259 2222 
L 1259 0 
L 628 0 
L 628 4666 
z
" transform="scale(0.015625)"/>
      <path id="DejaVuSans-6f" d="M 1959 3097 
Q 1497 3097 1228 2736 
Q 959 2375 959 1747 
Q 959 1119 1226 758 
Q 1494 397 1959 397 
Q 2419 397 2687 759 
Q 2956 1122 2956 1747 
Q 2956 2369 2687 2733 
Q 2419 3097 1959 3097 
z
M 1959 3584 
Q 2709 3584 3137 3096 
Q 3566 2609 3566 1747 
Q 3566 888 3137 398 
Q 2709 -91 1959 -91 
Q 1206 -91 779 398 
Q 353 888 353 1747 
Q 353 2609 779 3096 
Q 1206 3584 1959 3584 
z
" transform="scale(0.015625)"/>
      <path id="DejaVuSans-72" d="M 2631 2963 
Q 2534 3019 2420 3045 
Q 2306 3072 2169 3072 
Q 1681 3072 1420 2755 
Q 1159 2438 1159 1844 
L 1159 0 
L 581 0 
L 581 3500 
L 1159 3500 
L 1159 2956 
Q 1341 3275 1631 3429 
Q 1922 3584 2338 3584 
Q 2397 3584 2469 3576 
Q 2541 3569 2628 3553 
L 2631 2963 
z
" transform="scale(0.015625)"/>
      <path id="DejaVuSans-69" d="M 603 3500 
L 1178 3500 
L 1178 0 
L 603 0 
L 603 3500 
z
M 603 4863 
L 1178 4863 
L 1178 4134 
L 603 4134 
L 603 4863 
z
" transform="scale(0.015625)"/>
      <path id="DejaVuSans-7a" d="M 353 3500 
L 3084 3500 
L 3084 2975 
L 922 459 
L 3084 459 
L 3084 0 
L 275 0 
L 275 525 
L 2438 3041 
L 353 3041 
L 353 3500 
z
" transform="scale(0.015625)"/>
      <path id="DejaVuSans-6e" d="M 3513 2113 
L 3513 0 
L 2938 0 
L 2938 2094 
Q 2938 2591 2744 2837 
Q 2550 3084 2163 3084 
Q 1697 3084 1428 2787 
Q 1159 2491 1159 1978 
L 1159 0 
L 581 0 
L 581 3500 
L 1159 3500 
L 1159 2956 
Q 1366 3272 1645 3428 
Q 1925 3584 2291 3584 
Q 2894 3584 3203 3211 
Q 3513 2838 3513 2113 
z
" transform="scale(0.015625)"/>
      <path id="DejaVuSans-74" d="M 1172 4494 
L 1172 3500 
L 2356 3500 
L 2356 3053 
L 1172 3053 
L 1172 1153 
Q 1172 725 1289 603 
Q 1406 481 1766 481 
L 2356 481 
L 2356 0 
L 1766 0 
Q 1100 0 847 248 
Q 594 497 594 1153 
L 594 3053 
L 172 3053 
L 172 3500 
L 594 3500 
L 594 4494 
L 1172 4494 
z
" transform="scale(0.015625)"/>
      <path id="DejaVuSans-61" d="M 2194 1759 
Q 1497 1759 1228 1600 
Q 959 1441 959 1056 
Q 959 750 1161 570 
Q 1363 391 1709 391 
Q 2188 391 2477 730 
Q 2766 1069 2766 1631 
L 2766 1759 
L 2194 1759 
z
M 3341 1997 
L 3341 0 
L 2766 0 
L 2766 531 
Q 2569 213 2275 61 
Q 1981 -91 1556 -91 
Q 1019 -91 701 211 
Q 384 513 384 1019 
Q 384 1609 779 1909 
Q 1175 2209 1959 2209 
L 2766 2209 
L 2766 2266 
Q 2766 2663 2505 2880 
Q 2244 3097 1772 3097 
Q 1472 3097 1187 3025 
Q 903 2953 641 2809 
L 641 3341 
Q 956 3463 1253 3523 
Q 1550 3584 1831 3584 
Q 2591 3584 2966 3190 
Q 3341 2797 3341 1997 
z
" transform="scale(0.015625)"/>
      <path id="DejaVuSans-6c" d="M 603 4863 
L 1178 4863 
L 1178 0 
L 603 0 
L 603 4863 
z
" transform="scale(0.015625)"/>
      <path id="DejaVuSans-2014" d="M 313 1978 
L 6088 1978 
L 6088 1528 
L 313 1528 
L 313 1978 
z
" transform="scale(0.015625)"/>
      <path id="DejaVuSans-42" d="M 1259 2228 
L 1259 519 
L 2272 519 
Q 2781 519 3026 730 
Q 3272 941 3272 1375 
Q 3272 1813 3026 2020 
Q 2781 2228 2272 2228 
L 1259 2228 
z
M 1259 4147 
L 1259 2741 
L 2194 2741 
Q 2656 2741 2882 2914 
Q 3109 3088 3109 3444 
Q 3109 3797 2882 3972 
Q 2656 4147 2194 4147 
L 1259 4147 
z
M 628 4666 
L 2241 4666 
Q 2963 4666 3353 4366 
Q 3744 4066 3744 3513 
Q 3744 3084 3544 2831 
Q 3344 2578 2956 2516 
Q 3422 2416 3680 2098 
Q 3938 1781 3938 1306 
Q 3938 681 3513 340 
Q 3088 0 2303 0 
L 628 0 
L 628 4666 
z
" transform="scale(0.015625)"/>
      <path id="DejaVuSans-73" d="M 2834 3397 
L 2834 2853 
Q 2591 2978 2328 3040 
Q 2066 3103 1784 3103 
Q 1356 3103 1142 2972 
Q 928 2841 928 2578 
Q 928 2378 1081 2264 
Q 1234 2150 1697 2047 
L 1894 2003 
Q 2506 1872 2764 1633 
Q 3022 1394 3022 966 
Q 3022 478 2636 193 
Q 2250 -91 1575 -91 
Q 1294 -91 989 -36 
Q 684 19 347 128 
L 347 722 
Q 666 556 975 473 
Q 1284 391 1588 391 
Q 1994 391 2212 530 
Q 2431 669 2431 922 
Q 2431 1156 2273 1281 
Q 2116 1406 1581 1522 
L 1381 1569 
Q 847 1681 609 1914 
Q 372 2147 372 2553 
Q 372 3047 722 3315 
Q 1072 3584 1716 3584 
Q 2034 3584 2315 3537 
Q 2597 3491 2834 3397 
z
" transform="scale(0.015625)"/>
      <path id="DejaVuSans-43" d="M 4122 4306 
L 4122 3641 
Q 3803 3938 3442 4084 
Q 3081 4231 2675 4231 
Q 1875 4231 1450 3742 
Q 1025 3253 1025 2328 
Q 1025 1406 1450 917 
Q 1875 428 2675 428 
Q 3081 428 3442 575 
Q 3803 722 4122 1019 
L 4122 359 
Q 3791 134 3420 21 
Q 3050 -91 2638 -91 
Q 1578 -91 968 557 
Q 359 1206 359 2328 
Q 359 3453 968 4101 
Q 1578 4750 2638 4750 
Q 3056 4750 3426 4639 
Q 3797 4528 4122 4306 
z
" transform="scale(0.015625)"/>
      <path id="DejaVuSans-75" d="M 544 1381 
L 544 3500 
L 1119 3500 
L 1119 1403 
Q 1119 906 1312 657 
Q 1506 409 1894 409 
Q 2359 409 2629 706 
Q 2900 1003 2900 1516 
L 2900 3500 
L 3475 3500 
L 3475 0 
L 2900 0 
L 2900 538 
Q 2691 219 2414 64 
Q 2138 -91 1772 -91 
Q 1169 -91 856 284 
Q 544 659 544 1381 
z
M 1991 3584 
L 1991 3584 
z
" transform="scale(0.015625)"/>
      <path id="DejaVuSans-76" d="M 191 3500 
L 800 3500 
L 1894 563 
L 2988 3500 
L 3597 3500 
L 2284 0 
L 1503 0 
L 191 3500 
z
" transform="scale(0.015625)"/>
      <path id="DejaVuSans-65" d="M 3597 1894 
L 3597 1613 
L 953 1613 
Q 991 1019 1311 708 
Q 1631 397 2203 397 
Q 2534 397 2845 478 
Q 3156 559 3463 722 
L 3463 178 
Q 3153 47 2828 -22 
Q 2503 -91 2169 -91 
Q 1331 -91 842 396 
Q 353 884 353 1716 
Q 353 2575 817 3079 
Q 1281 3584 2069 3584 
Q 2775 3584 3186 3129 
Q 3597 2675 3597 1894 
z
M 3022 2063 
Q 3016 2534 2758 2815 
Q 2500 3097 2075 3097 
Q 1594 3097 1305 2825 
Q 1016 2553 972 2059 
L 3022 2063 
z
" transform="scale(0.015625)"/>
     </defs>
     <use xlink:href="#DejaVuSans-48"/>
     <use xlink:href="#DejaVuSans-6f" transform="translate(75.195312 0)"/>
     <use xlink:href="#DejaVuSans-72" transform="translate(136.376953 0)"/>
     <use xlink:href="#DejaVuSans-69" transform="translate(177.490234 0)"/>
     <use xlink:href="#DejaVuSans-7a" transform="translate(205.273438 0)"/>
     <use xlink:href="#DejaVuSans-6f" transform="translate(257.763672 0)"/>
     <use xlink:href="#DejaVuSans-6e" transform="translate(318.945312 0)"/>
     <use xlink:href="#DejaVuSans-74" transform="translate(382.324219 0)"/>
     <use xlink:href="#DejaVuSans-61" transform="translate(421.533203 0)"/>
     <use xlink:href="#DejaVuSans-6c" transform="translate(482.8125 0)"/>
     <use xlink:href="#DejaVuSans-20" transform="translate(510.595703 0)"/>
     <use xlink:href="#DejaVuSans-2014" transform="translate(542.382812 0)"/>
     <use xlink:href="#DejaVuSans-20" transform="translate(642.382812 0)"/>
     <use xlink:href="#DejaVuSans-42" transform="translate(674.169922 0)"/>
     <use xlink:href="#DejaVuSans-6c" transform="translate(742.773438 0)"/>
     <use xlink:href="#DejaVuSans-6f" transform="translate(770.556641 0)"/>
     <use xlink:href="#DejaVuSans-73" transform="translate(831.738281 0)"/>
     <use xlink:href="#DejaVuSans-73" transform="translate(883.837891 0)"/>
     <use xlink:href="#DejaVuSans-43" transform="translate(935.9375 0)"/>
     <use xlink:href="#DejaVuSans-75" transform="translate(1005.761719 0)"/>
     <use xlink:href="#DejaVuSans-72" transform="translate(1069.140625 0)"/>
     <use xlink:href="#DejaVuSans-76" transform="translate(1110.253906 0)"/>
     <use xlink:href="#DejaVuSans-65" transform="translate(1169.433594 0)"/>
    </g>
    <!-- Horizontal_BlossCurve_100.0_300_inf_1_Meter -->
    <g transform="translate(196.202812 22.237) scale(0.08 -0.08)">
     <defs>
      <path id="DejaVuSans-5f" d="M 3263 -1063 
L 3263 -1509 
L -63 -1509 
L -63 -1063 
L 3263 -1063 
z
" transform="scale(0.015625)"/>
      <path id="DejaVuSans-2e" d="M 684 794 
L 1344 794 
L 1344 0 
L 684 0 
L 684 794 
z
" transform="scale(0.015625)"/>
      <path id="DejaVuSans-66" d="M 2375 4863 
L 2375 4384 
L 1825 4384 
Q 1516 4384 1395 4259 
Q 1275 4134 1275 3809 
L 1275 3500 
L 2222 3500 
L 2222 3053 
L 1275 3053 
L 1275 0 
L 697 0 
L 697 3053 
L 147 3053 
L 147 3500 
L 697 3500 
L 697 3744 
Q 697 4328 969 4595 
Q 1241 4863 1831 4863 
L 2375 4863 
z
" transform="scale(0.015625)"/>
      <path id="DejaVuSans-4d" d="M 628 4666 
L 1569 4666 
L 2759 1491 
L 3956 4666 
L 4897 4666 
L 4897 0 
L 4281 0 
L 4281 4097 
L 3078 897 
L 2444 897 
L 1241 4097 
L 1241 0 
L 628 0 
L 628 4666 
z
" transform="scale(0.015625)"/>
     </defs>
     <use xlink:href="#DejaVuSans-48"/>
     <use xlink:href="#DejaVuSans-6f" transform="translate(75.195312 0)"/>
     <use xlink:href="#DejaVuSans-72" transform="translate(136.376953 0)"/>
     <use xlink:href="#DejaVuSans-69" transform="translate(177.490234 0)"/>
     <use xlink:href="#DejaVuSans-7a" transform="translate(205.273438 0)"/>
     <use xlink:href="#DejaVuSans-6f" transform="translate(257.763672 0)"/>
     <use xlink:href="#DejaVuSans-6e" transform="translate(318.945312 0)"/>
     <use xlink:href="#DejaVuSans-74" transform="translate(382.324219 0)"/>
     <use xlink:href="#DejaVuSans-61" transform="translate(421.533203 0)"/>
     <use xlink:href="#DejaVuSans-6c" transform="translate(482.8125 0)"/>
     <use xlink:href="#DejaVuSans-5f" transform="translate(510.595703 0)"/>
     <use xlink:href="#DejaVuSans-42" transform="translate(560.595703 0)"/>
     <use xlink:href="#DejaVuSans-6c" transform="translate(629.199219 0)"/>
     <use xlink:href="#DejaVuSans-6f" transform="translate(656.982422 0)"/>
     <use xlink:href="#DejaVuSans-73" transform="translate(718.164062 0)"/>
     <use xlink:href="#DejaVuSans-73" transform="translate(770.263672 0)"/>
     <use xlink:href="#DejaVuSans-43" transform="translate(822.363281 0)"/>
     <use xlink:href="#DejaVuSans-75" transform="translate(892.1875 0)"/>
     <use xlink:href="#DejaVuSans-72" transform="translate(955.566406 0)"/>
     <use xlink:href="#DejaVuSans-76" transform="translate(996.679688 0)"/>
     <use xlink:href="#DejaVuSans-65" transform="translate(1055.859375 0)"/>
     <use xlink:href="#DejaVuSans-5f" transform="translate(1117.382812 0)"/>
     <use xlink:href="#DejaVuSans-31" transform="translate(1167.382812 0)"/>
     <use xlink:href="#DejaVuSans-30" transform="translate(1231.005859 0)"/>
     <use xlink:href="#DejaVuSans-30" transform="translate(1294.628906 0)"/>
     <use xlink:href="#DejaVuSans-2e" transform="translate(1358.251953 0)"/>
     <use xlink:href="#DejaVuSans-30" transform="translate(1390.039062 0)"/>
     <use xlink:href="#DejaVuSans-5f" transform="translate(1453.662109 0)"/>
     <use xlink:href="#DejaVuSans-33" transform="translate(1503.662109 0)"/>
     <use xlink:href="#DejaVuSans-30" transform="translate(1567.285156 0)"/>
     <use xlink:href="#DejaVuSans-30" transform="translate(1630.908203 0)"/>
     <use xlink:href="#DejaVuSans-5f" transform="translate(1694.53125 0)"/>
     <use xlink:href="#DejaVuSans-69" transform="translate(1744.53125 0)"/>
     <use xlink:href="#DejaVuSans-6e" transform="translate(1772.314453 0)"/>
     <use xlink:href="#DejaVuSans-66" transform="translate(1835.693359 0)"/>
     <use xlink:href="#DejaVuSans-5f" transform="translate(1870.898438 0)"/>
     <use xlink:href="#DejaVuSans-31" transform="translate(1920.898438 0)"/>
     <use xlink:href="#DejaVuSans-5f" transform="translate(1984.521484 0)"/>
     <use xlink:href="#DejaVuSans-4d" transform="translate(2034.521484 0)"/>
     <use xlink:href="#DejaVuSans-65" transform="translate(2120.800781 0)"/>
     <use xlink:href="#DejaVuSans-74" transform="translate(2182.324219 0)"/>
     <use xlink:href="#DejaVuSans-65" transform="translate(2221.533203 0)"/>
     <use xlink:href="#DejaVuSans-72" transform="translate(2283.056641 0)"/>
    </g>
   </g>
  </g>
  <g id="axes_2">
   <g id="patch_7">
    <path d="M 50.14375 630.84375 
L 528.196875 630.84375 
L 528.196875 360.637 
L 50.14375 360.637 
z
" style="fill: #ffffff"/>
   </g>
   <g id="matplotlib.axis_3">
    <g id="xtick_7">
     <g id="line2d_26">
      <path d="M 71.873437 630.84375 
L 71.873437 360.637 
" clip-path="url(#p56635aad80)" style="fill: none; stroke-dasharray: 2.96,1.28; stroke-dashoffset: 0; stroke: #b0b0b0; stroke-opacity: 0.5; stroke-width: 0.8"/>
     </g>
     <g id="line2d_27">
      <g>
       <use xlink:href="#mc9290ce319" x="71.873437" y="630.84375" style="stroke: #000000; stroke-width: 0.8"/>
      </g>
     </g>
     <g id="text_16">
      <!-- 0 -->
      <g transform="translate(68.692187 645.442188) scale(0.1 -0.1)">
       <use xlink:href="#DejaVuSans-30"/>
      </g>
     </g>
    </g>
    <g id="xtick_8">
     <g id="line2d_28">
      <path d="M 158.792187 630.84375 
L 158.792187 360.637 
" clip-path="url(#p56635aad80)" style="fill: none; stroke-dasharray: 2.96,1.28; stroke-dashoffset: 0; stroke: #b0b0b0; stroke-opacity: 0.5; stroke-width: 0.8"/>
     </g>
     <g id="line2d_29">
      <g>
       <use xlink:href="#mc9290ce319" x="158.792187" y="630.84375" style="stroke: #000000; stroke-width: 0.8"/>
      </g>
     </g>
     <g id="text_17">
      <!-- 20 -->
      <g transform="translate(152.429687 645.442188) scale(0.1 -0.1)">
       <use xlink:href="#DejaVuSans-32"/>
       <use xlink:href="#DejaVuSans-30" transform="translate(63.623047 0)"/>
      </g>
     </g>
    </g>
    <g id="xtick_9">
     <g id="line2d_30">
      <path d="M 245.710937 630.84375 
L 245.710937 360.637 
" clip-path="url(#p56635aad80)" style="fill: none; stroke-dasharray: 2.96,1.28; stroke-dashoffset: 0; stroke: #b0b0b0; stroke-opacity: 0.5; stroke-width: 0.8"/>
     </g>
     <g id="line2d_31">
      <g>
       <use xlink:href="#mc9290ce319" x="245.710937" y="630.84375" style="stroke: #000000; stroke-width: 0.8"/>
      </g>
     </g>
     <g id="text_18">
      <!-- 40 -->
      <g transform="translate(239.348437 645.442188) scale(0.1 -0.1)">
       <use xlink:href="#DejaVuSans-34"/>
       <use xlink:href="#DejaVuSans-30" transform="translate(63.623047 0)"/>
      </g>
     </g>
    </g>
    <g id="xtick_10">
     <g id="line2d_32">
      <path d="M 332.629687 630.84375 
L 332.629687 360.637 
" clip-path="url(#p56635aad80)" style="fill: none; stroke-dasharray: 2.96,1.28; stroke-dashoffset: 0; stroke: #b0b0b0; stroke-opacity: 0.5; stroke-width: 0.8"/>
     </g>
     <g id="line2d_33">
      <g>
       <use xlink:href="#mc9290ce319" x="332.629687" y="630.84375" style="stroke: #000000; stroke-width: 0.8"/>
      </g>
     </g>
     <g id="text_19">
      <!-- 60 -->
      <g transform="translate(326.267187 645.442188) scale(0.1 -0.1)">
       <use xlink:href="#DejaVuSans-36"/>
       <use xlink:href="#DejaVuSans-30" transform="translate(63.623047 0)"/>
      </g>
     </g>
    </g>
    <g id="xtick_11">
     <g id="line2d_34">
      <path d="M 419.548437 630.84375 
L 419.548437 360.637 
" clip-path="url(#p56635aad80)" style="fill: none; stroke-dasharray: 2.96,1.28; stroke-dashoffset: 0; stroke: #b0b0b0; stroke-opacity: 0.5; stroke-width: 0.8"/>
     </g>
     <g id="line2d_35">
      <g>
       <use xlink:href="#mc9290ce319" x="419.548437" y="630.84375" style="stroke: #000000; stroke-width: 0.8"/>
      </g>
     </g>
     <g id="text_20">
      <!-- 80 -->
      <g transform="translate(413.185937 645.442188) scale(0.1 -0.1)">
       <use xlink:href="#DejaVuSans-38"/>
       <use xlink:href="#DejaVuSans-30" transform="translate(63.623047 0)"/>
      </g>
     </g>
    </g>
    <g id="xtick_12">
     <g id="line2d_36">
      <path d="M 506.467187 630.84375 
L 506.467187 360.637 
" clip-path="url(#p56635aad80)" style="fill: none; stroke-dasharray: 2.96,1.28; stroke-dashoffset: 0; stroke: #b0b0b0; stroke-opacity: 0.5; stroke-width: 0.8"/>
     </g>
     <g id="line2d_37">
      <g>
       <use xlink:href="#mc9290ce319" x="506.467187" y="630.84375" style="stroke: #000000; stroke-width: 0.8"/>
      </g>
     </g>
     <g id="text_21">
      <!-- 100 -->
      <g transform="translate(496.923437 645.442188) scale(0.1 -0.1)">
       <use xlink:href="#DejaVuSans-31"/>
       <use xlink:href="#DejaVuSans-30" transform="translate(63.623047 0)"/>
       <use xlink:href="#DejaVuSans-30" transform="translate(127.246094 0)"/>
      </g>
     </g>
    </g>
    <g id="text_22">
     <!-- Distance Along (m) -->
     <g transform="translate(241.146094 659.120313) scale(0.1 -0.1)">
      <defs>
       <path id="DejaVuSans-44" d="M 1259 4147 
L 1259 519 
L 2022 519 
Q 2988 519 3436 956 
Q 3884 1394 3884 2338 
Q 3884 3275 3436 3711 
Q 2988 4147 2022 4147 
L 1259 4147 
z
M 628 4666 
L 1925 4666 
Q 3281 4666 3915 4102 
Q 4550 3538 4550 2338 
Q 4550 1131 3912 565 
Q 3275 0 1925 0 
L 628 0 
L 628 4666 
z
" transform="scale(0.015625)"/>
       <path id="DejaVuSans-63" d="M 3122 3366 
L 3122 2828 
Q 2878 2963 2633 3030 
Q 2388 3097 2138 3097 
Q 1578 3097 1268 2742 
Q 959 2388 959 1747 
Q 959 1106 1268 751 
Q 1578 397 2138 397 
Q 2388 397 2633 464 
Q 2878 531 3122 666 
L 3122 134 
Q 2881 22 2623 -34 
Q 2366 -91 2075 -91 
Q 1284 -91 818 406 
Q 353 903 353 1747 
Q 353 2603 823 3093 
Q 1294 3584 2113 3584 
Q 2378 3584 2631 3529 
Q 2884 3475 3122 3366 
z
" transform="scale(0.015625)"/>
       <path id="DejaVuSans-41" d="M 2188 4044 
L 1331 1722 
L 3047 1722 
L 2188 4044 
z
M 1831 4666 
L 2547 4666 
L 4325 0 
L 3669 0 
L 3244 1197 
L 1141 1197 
L 716 0 
L 50 0 
L 1831 4666 
z
" transform="scale(0.015625)"/>
       <path id="DejaVuSans-67" d="M 2906 1791 
Q 2906 2416 2648 2759 
Q 2391 3103 1925 3103 
Q 1463 3103 1205 2759 
Q 947 2416 947 1791 
Q 947 1169 1205 825 
Q 1463 481 1925 481 
Q 2391 481 2648 825 
Q 2906 1169 2906 1791 
z
M 3481 434 
Q 3481 -459 3084 -895 
Q 2688 -1331 1869 -1331 
Q 1566 -1331 1297 -1286 
Q 1028 -1241 775 -1147 
L 775 -588 
Q 1028 -725 1275 -790 
Q 1522 -856 1778 -856 
Q 2344 -856 2625 -561 
Q 2906 -266 2906 331 
L 2906 616 
Q 2728 306 2450 153 
Q 2172 0 1784 0 
Q 1141 0 747 490 
Q 353 981 353 1791 
Q 353 2603 747 3093 
Q 1141 3584 1784 3584 
Q 2172 3584 2450 3431 
Q 2728 3278 2906 2969 
L 2906 3500 
L 3481 3500 
L 3481 434 
z
" transform="scale(0.015625)"/>
      </defs>
      <use xlink:href="#DejaVuSans-44"/>
      <use xlink:href="#DejaVuSans-69" transform="translate(77.001953 0)"/>
      <use xlink:href="#DejaVuSans-73" transform="translate(104.785156 0)"/>
      <use xlink:href="#DejaVuSans-74" transform="translate(156.884766 0)"/>
      <use xlink:href="#DejaVuSans-61" transform="translate(196.09375 0)"/>
      <use xlink:href="#DejaVuSans-6e" transform="translate(257.373047 0)"/>
      <use xlink:href="#DejaVuSans-63" transform="translate(320.751953 0)"/>
      <use xlink:href="#DejaVuSans-65" transform="translate(375.732422 0)"/>
      <use xlink:href="#DejaVuSans-20" transform="translate(437.255859 0)"/>
      <use xlink:href="#DejaVuSans-41" transform="translate(469.042969 0)"/>
      <use xlink:href="#DejaVuSans-6c" transform="translate(537.451172 0)"/>
      <use xlink:href="#DejaVuSans-6f" transform="translate(565.234375 0)"/>
      <use xlink:href="#DejaVuSans-6e" transform="translate(626.416016 0)"/>
      <use xlink:href="#DejaVuSans-67" transform="translate(689.794922 0)"/>
      <use xlink:href="#DejaVuSans-20" transform="translate(753.271484 0)"/>
      <use xlink:href="#DejaVuSans-28" transform="translate(785.058594 0)"/>
      <use xlink:href="#DejaVuSans-6d" transform="translate(824.072266 0)"/>
      <use xlink:href="#DejaVuSans-29" transform="translate(921.484375 0)"/>
     </g>
    </g>
   </g>
   <g id="matplotlib.axis_4">
    <g id="ytick_7">
     <g id="line2d_38">
      <path d="M 50.14375 618.561625 
L 528.196875 618.561625 
" clip-path="url(#p56635aad80)" style="fill: none; stroke-dasharray: 2.96,1.28; stroke-dashoffset: 0; stroke: #b0b0b0; stroke-opacity: 0.5; stroke-width: 0.8"/>
     </g>
     <g id="line2d_39">
      <g>
       <use xlink:href="#m2a44af9204" x="50.14375" y="618.561625" style="stroke: #000000; stroke-width: 0.8"/>
      </g>
     </g>
     <g id="text_23">
      <!-- 0.00 -->
      <g transform="translate(20.878125 622.360844) scale(0.1 -0.1)">
       <use xlink:href="#DejaVuSans-30"/>
       <use xlink:href="#DejaVuSans-2e" transform="translate(63.623047 0)"/>
       <use xlink:href="#DejaVuSans-30" transform="translate(95.410156 0)"/>
       <use xlink:href="#DejaVuSans-30" transform="translate(159.033203 0)"/>
      </g>
     </g>
    </g>
    <g id="ytick_8">
     <g id="line2d_40">
      <path d="M 50.14375 587.856313 
L 528.196875 587.856313 
" clip-path="url(#p56635aad80)" style="fill: none; stroke-dasharray: 2.96,1.28; stroke-dashoffset: 0; stroke: #b0b0b0; stroke-opacity: 0.5; stroke-width: 0.8"/>
     </g>
     <g id="line2d_41">
      <g>
       <use xlink:href="#m2a44af9204" x="50.14375" y="587.856313" style="stroke: #000000; stroke-width: 0.8"/>
      </g>
     </g>
     <g id="text_24">
      <!-- 0.01 -->
      <g transform="translate(20.878125 591.655531) scale(0.1 -0.1)">
       <use xlink:href="#DejaVuSans-30"/>
       <use xlink:href="#DejaVuSans-2e" transform="translate(63.623047 0)"/>
       <use xlink:href="#DejaVuSans-30" transform="translate(95.410156 0)"/>
       <use xlink:href="#DejaVuSans-31" transform="translate(159.033203 0)"/>
      </g>
     </g>
    </g>
    <g id="ytick_9">
     <g id="line2d_42">
      <path d="M 50.14375 557.151 
L 528.196875 557.151 
" clip-path="url(#p56635aad80)" style="fill: none; stroke-dasharray: 2.96,1.28; stroke-dashoffset: 0; stroke: #b0b0b0; stroke-opacity: 0.5; stroke-width: 0.8"/>
     </g>
     <g id="line2d_43">
      <g>
       <use xlink:href="#m2a44af9204" x="50.14375" y="557.151" style="stroke: #000000; stroke-width: 0.8"/>
      </g>
     </g>
     <g id="text_25">
      <!-- 0.02 -->
      <g transform="translate(20.878125 560.950219) scale(0.1 -0.1)">
       <use xlink:href="#DejaVuSans-30"/>
       <use xlink:href="#DejaVuSans-2e" transform="translate(63.623047 0)"/>
       <use xlink:href="#DejaVuSans-30" transform="translate(95.410156 0)"/>
       <use xlink:href="#DejaVuSans-32" transform="translate(159.033203 0)"/>
      </g>
     </g>
    </g>
    <g id="ytick_10">
     <g id="line2d_44">
      <path d="M 50.14375 526.445688 
L 528.196875 526.445688 
" clip-path="url(#p56635aad80)" style="fill: none; stroke-dasharray: 2.96,1.28; stroke-dashoffset: 0; stroke: #b0b0b0; stroke-opacity: 0.5; stroke-width: 0.8"/>
     </g>
     <g id="line2d_45">
      <g>
       <use xlink:href="#m2a44af9204" x="50.14375" y="526.445688" style="stroke: #000000; stroke-width: 0.8"/>
      </g>
     </g>
     <g id="text_26">
      <!-- 0.03 -->
      <g transform="translate(20.878125 530.244906) scale(0.1 -0.1)">
       <use xlink:href="#DejaVuSans-30"/>
       <use xlink:href="#DejaVuSans-2e" transform="translate(63.623047 0)"/>
       <use xlink:href="#DejaVuSans-30" transform="translate(95.410156 0)"/>
       <use xlink:href="#DejaVuSans-33" transform="translate(159.033203 0)"/>
      </g>
     </g>
    </g>
    <g id="ytick_11">
     <g id="line2d_46">
      <path d="M 50.14375 495.740375 
L 528.196875 495.740375 
" clip-path="url(#p56635aad80)" style="fill: none; stroke-dasharray: 2.96,1.28; stroke-dashoffset: 0; stroke: #b0b0b0; stroke-opacity: 0.5; stroke-width: 0.8"/>
     </g>
     <g id="line2d_47">
      <g>
       <use xlink:href="#m2a44af9204" x="50.14375" y="495.740375" style="stroke: #000000; stroke-width: 0.8"/>
      </g>
     </g>
     <g id="text_27">
      <!-- 0.04 -->
      <g transform="translate(20.878125 499.539594) scale(0.1 -0.1)">
       <use xlink:href="#DejaVuSans-30"/>
       <use xlink:href="#DejaVuSans-2e" transform="translate(63.623047 0)"/>
       <use xlink:href="#DejaVuSans-30" transform="translate(95.410156 0)"/>
       <use xlink:href="#DejaVuSans-34" transform="translate(159.033203 0)"/>
      </g>
     </g>
    </g>
    <g id="ytick_12">
     <g id="line2d_48">
      <path d="M 50.14375 465.035063 
L 528.196875 465.035063 
" clip-path="url(#p56635aad80)" style="fill: none; stroke-dasharray: 2.96,1.28; stroke-dashoffset: 0; stroke: #b0b0b0; stroke-opacity: 0.5; stroke-width: 0.8"/>
     </g>
     <g id="line2d_49">
      <g>
       <use xlink:href="#m2a44af9204" x="50.14375" y="465.035063" style="stroke: #000000; stroke-width: 0.8"/>
      </g>
     </g>
     <g id="text_28">
      <!-- 0.05 -->
      <g transform="translate(20.878125 468.834281) scale(0.1 -0.1)">
       <defs>
        <path id="DejaVuSans-35" d="M 691 4666 
L 3169 4666 
L 3169 4134 
L 1269 4134 
L 1269 2991 
Q 1406 3038 1543 3061 
Q 1681 3084 1819 3084 
Q 2600 3084 3056 2656 
Q 3513 2228 3513 1497 
Q 3513 744 3044 326 
Q 2575 -91 1722 -91 
Q 1428 -91 1123 -41 
Q 819 9 494 109 
L 494 744 
Q 775 591 1075 516 
Q 1375 441 1709 441 
Q 2250 441 2565 725 
Q 2881 1009 2881 1497 
Q 2881 1984 2565 2268 
Q 2250 2553 1709 2553 
Q 1456 2553 1204 2497 
Q 953 2441 691 2322 
L 691 4666 
z
" transform="scale(0.015625)"/>
       </defs>
       <use xlink:href="#DejaVuSans-30"/>
       <use xlink:href="#DejaVuSans-2e" transform="translate(63.623047 0)"/>
       <use xlink:href="#DejaVuSans-30" transform="translate(95.410156 0)"/>
       <use xlink:href="#DejaVuSans-35" transform="translate(159.033203 0)"/>
      </g>
     </g>
    </g>
    <g id="ytick_13">
     <g id="line2d_50">
      <path d="M 50.14375 434.32975 
L 528.196875 434.32975 
" clip-path="url(#p56635aad80)" style="fill: none; stroke-dasharray: 2.96,1.28; stroke-dashoffset: 0; stroke: #b0b0b0; stroke-opacity: 0.5; stroke-width: 0.8"/>
     </g>
     <g id="line2d_51">
      <g>
       <use xlink:href="#m2a44af9204" x="50.14375" y="434.32975" style="stroke: #000000; stroke-width: 0.8"/>
      </g>
     </g>
     <g id="text_29">
      <!-- 0.06 -->
      <g transform="translate(20.878125 438.128969) scale(0.1 -0.1)">
       <use xlink:href="#DejaVuSans-30"/>
       <use xlink:href="#DejaVuSans-2e" transform="translate(63.623047 0)"/>
       <use xlink:href="#DejaVuSans-30" transform="translate(95.410156 0)"/>
       <use xlink:href="#DejaVuSans-36" transform="translate(159.033203 0)"/>
      </g>
     </g>
    </g>
    <g id="ytick_14">
     <g id="line2d_52">
      <path d="M 50.14375 403.624437 
L 528.196875 403.624437 
" clip-path="url(#p56635aad80)" style="fill: none; stroke-dasharray: 2.96,1.28; stroke-dashoffset: 0; stroke: #b0b0b0; stroke-opacity: 0.5; stroke-width: 0.8"/>
     </g>
     <g id="line2d_53">
      <g>
       <use xlink:href="#m2a44af9204" x="50.14375" y="403.624437" style="stroke: #000000; stroke-width: 0.8"/>
      </g>
     </g>
     <g id="text_30">
      <!-- 0.07 -->
      <g transform="translate(20.878125 407.423656) scale(0.1 -0.1)">
       <defs>
        <path id="DejaVuSans-37" d="M 525 4666 
L 3525 4666 
L 3525 4397 
L 1831 0 
L 1172 0 
L 2766 4134 
L 525 4134 
L 525 4666 
z
" transform="scale(0.015625)"/>
       </defs>
       <use xlink:href="#DejaVuSans-30"/>
       <use xlink:href="#DejaVuSans-2e" transform="translate(63.623047 0)"/>
       <use xlink:href="#DejaVuSans-30" transform="translate(95.410156 0)"/>
       <use xlink:href="#DejaVuSans-37" transform="translate(159.033203 0)"/>
      </g>
     </g>
    </g>
    <g id="ytick_15">
     <g id="line2d_54">
      <path d="M 50.14375 372.919125 
L 528.196875 372.919125 
" clip-path="url(#p56635aad80)" style="fill: none; stroke-dasharray: 2.96,1.28; stroke-dashoffset: 0; stroke: #b0b0b0; stroke-opacity: 0.5; stroke-width: 0.8"/>
     </g>
     <g id="line2d_55">
      <g>
       <use xlink:href="#m2a44af9204" x="50.14375" y="372.919125" style="stroke: #000000; stroke-width: 0.8"/>
      </g>
     </g>
     <g id="text_31">
      <!-- 0.08 -->
      <g transform="translate(20.878125 376.718344) scale(0.1 -0.1)">
       <use xlink:href="#DejaVuSans-30"/>
       <use xlink:href="#DejaVuSans-2e" transform="translate(63.623047 0)"/>
       <use xlink:href="#DejaVuSans-30" transform="translate(95.410156 0)"/>
       <use xlink:href="#DejaVuSans-38" transform="translate(159.033203 0)"/>
      </g>
     </g>
    </g>
    <g id="text_32">
     <!-- Centerline Deviating Elevation (m) -->
     <g transform="translate(14.798438 582.388813) rotate(-90) scale(0.1 -0.1)">
      <defs>
       <path id="DejaVuSans-45" d="M 628 4666 
L 3578 4666 
L 3578 4134 
L 1259 4134 
L 1259 2753 
L 3481 2753 
L 3481 2222 
L 1259 2222 
L 1259 531 
L 3634 531 
L 3634 0 
L 628 0 
L 628 4666 
z
" transform="scale(0.015625)"/>
      </defs>
      <use xlink:href="#DejaVuSans-43"/>
      <use xlink:href="#DejaVuSans-65" transform="translate(69.824219 0)"/>
      <use xlink:href="#DejaVuSans-6e" transform="translate(131.347656 0)"/>
      <use xlink:href="#DejaVuSans-74" transform="translate(194.726562 0)"/>
      <use xlink:href="#DejaVuSans-65" transform="translate(233.935547 0)"/>
      <use xlink:href="#DejaVuSans-72" transform="translate(295.458984 0)"/>
      <use xlink:href="#DejaVuSans-6c" transform="translate(336.572266 0)"/>
      <use xlink:href="#DejaVuSans-69" transform="translate(364.355469 0)"/>
      <use xlink:href="#DejaVuSans-6e" transform="translate(392.138672 0)"/>
      <use xlink:href="#DejaVuSans-65" transform="translate(455.517578 0)"/>
      <use xlink:href="#DejaVuSans-20" transform="translate(517.041016 0)"/>
      <use xlink:href="#DejaVuSans-44" transform="translate(548.828125 0)"/>
      <use xlink:href="#DejaVuSans-65" transform="translate(625.830078 0)"/>
      <use xlink:href="#DejaVuSans-76" transform="translate(687.353516 0)"/>
      <use xlink:href="#DejaVuSans-69" transform="translate(746.533203 0)"/>
      <use xlink:href="#DejaVuSans-61" transform="translate(774.316406 0)"/>
      <use xlink:href="#DejaVuSans-74" transform="translate(835.595703 0)"/>
      <use xlink:href="#DejaVuSans-69" transform="translate(874.804688 0)"/>
      <use xlink:href="#DejaVuSans-6e" transform="translate(902.587891 0)"/>
      <use xlink:href="#DejaVuSans-67" transform="translate(965.966797 0)"/>
      <use xlink:href="#DejaVuSans-20" transform="translate(1029.443359 0)"/>
      <use xlink:href="#DejaVuSans-45" transform="translate(1061.230469 0)"/>
      <use xlink:href="#DejaVuSans-6c" transform="translate(1124.414062 0)"/>
      <use xlink:href="#DejaVuSans-65" transform="translate(1152.197266 0)"/>
      <use xlink:href="#DejaVuSans-76" transform="translate(1213.720703 0)"/>
      <use xlink:href="#DejaVuSans-61" transform="translate(1272.900391 0)"/>
      <use xlink:href="#DejaVuSans-74" transform="translate(1334.179688 0)"/>
      <use xlink:href="#DejaVuSans-69" transform="translate(1373.388672 0)"/>
      <use xlink:href="#DejaVuSans-6f" transform="translate(1401.171875 0)"/>
      <use xlink:href="#DejaVuSans-6e" transform="translate(1462.353516 0)"/>
      <use xlink:href="#DejaVuSans-20" transform="translate(1525.732422 0)"/>
      <use xlink:href="#DejaVuSans-28" transform="translate(1557.519531 0)"/>
      <use xlink:href="#DejaVuSans-6d" transform="translate(1596.533203 0)"/>
      <use xlink:href="#DejaVuSans-29" transform="translate(1693.945312 0)"/>
     </g>
    </g>
   </g>
   <g id="line2d_56">
    <path d="M 71.873437 372.919125 
L 76.219375 372.992818 
L 80.565312 373.210825 
L 84.91125 373.570078 
L 89.257187 374.067504 
L 93.603125 374.700033 
L 97.949062 375.464595 
L 102.295 376.361191 
L 106.640937 377.383677 
L 110.986875 378.528986 
L 115.332812 379.797115 
L 119.67875 381.181925 
L 124.024687 382.683414 
L 128.370625 384.292373 
L 132.716562 386.014941 
L 137.0625 387.841907 
L 141.408437 389.773271 
L 145.754375 391.802892 
L 150.100312 393.93077 
L 154.44625 396.153835 
L 158.792187 398.465945 
L 163.138125 400.8671 
L 167.484062 403.354231 
L 171.83 405.924265 
L 176.175937 408.574134 
L 180.521875 411.300766 
L 184.867812 414.10109 
L 189.21375 416.972037 
L 193.559687 419.910535 
L 197.905625 422.913515 
L 202.251562 425.977905 
L 206.5975 429.100635 
L 210.943437 432.281706 
L 215.289375 435.514975 
L 219.635312 438.797373 
L 223.98125 442.128899 
L 228.327187 445.503413 
L 232.673125 448.920915 
L 237.019062 452.372192 
L 241.365 455.863386 
L 245.710937 459.385285 
L 250.056875 462.93789 
L 254.402812 466.515059 
L 258.74875 470.116792 
L 263.094687 473.740019 
L 267.440625 477.378598 
L 271.786562 481.03253 
L 276.1325 484.698745 
L 280.478437 488.374171 
L 284.824375 492.055738 
L 289.170312 495.740375 
L 293.51625 499.425013 
L 297.862187 503.106579 
L 302.208125 506.782005 
L 306.554062 510.44822 
L 310.9 514.102152 
L 315.245937 517.740731 
L 319.591875 521.363958 
L 323.937812 524.965691 
L 328.28375 528.54286 
L 332.629687 532.095465 
L 336.975625 535.617364 
L 341.321562 539.108558 
L 345.6675 542.559836 
L 350.013437 545.977337 
L 354.359375 549.351851 
L 358.705312 552.683377 
L 363.05125 555.965775 
L 367.397187 559.199044 
L 371.743125 562.380115 
L 376.089062 565.502845 
L 380.435 568.567235 
L 384.780937 571.570215 
L 389.126875 574.508713 
L 393.472812 577.37966 
L 397.81875 580.179984 
L 402.164687 582.906616 
L 406.510625 585.556485 
L 410.856562 588.126519 
L 415.2025 590.61365 
L 419.548437 593.014805 
L 423.894375 595.326915 
L 428.240312 597.54998 
L 432.58625 599.677858 
L 436.932187 601.707479 
L 441.278125 603.638843 
L 445.624062 605.465809 
L 449.97 607.188377 
L 454.315937 608.797336 
L 458.661875 610.298825 
L 463.007812 611.683635 
L 467.35375 612.951764 
L 471.699687 614.097073 
L 476.045625 615.119559 
L 480.391562 616.016155 
L 484.7375 616.780717 
L 489.083437 617.413246 
L 493.429375 617.910672 
L 497.775312 618.269925 
L 502.12125 618.487932 
L 506.467187 618.561625 
" clip-path="url(#p56635aad80)" style="fill: none; stroke: #ff7f0e; stroke-width: 1.5; stroke-linecap: square"/>
   </g>
   <g id="patch_8">
    <path d="M 50.14375 630.84375 
L 50.14375 360.637 
" style="fill: none; stroke: #000000; stroke-width: 0.8; stroke-linejoin: miter; stroke-linecap: square"/>
   </g>
   <g id="patch_9">
    <path d="M 528.196875 630.84375 
L 528.196875 360.637 
" style="fill: none; stroke: #000000; stroke-width: 0.8; stroke-linejoin: miter; stroke-linecap: square"/>
   </g>
   <g id="patch_10">
    <path d="M 50.14375 630.84375 
L 528.196875 630.84375 
" style="fill: none; stroke: #000000; stroke-width: 0.8; stroke-linejoin: miter; stroke-linecap: square"/>
   </g>
   <g id="patch_11">
    <path d="M 50.14375 360.637 
L 528.196875 360.637 
" style="fill: none; stroke: #000000; stroke-width: 0.8; stroke-linejoin: miter; stroke-linecap: square"/>
   </g>
   <g id="text_33">
    <!-- Cant — BlossCurve -->
    <g transform="translate(251.008437 345.67875) scale(0.08 -0.08)">
     <use xlink:href="#DejaVuSans-43"/>
     <use xlink:href="#DejaVuSans-61" transform="translate(69.824219 0)"/>
     <use xlink:href="#DejaVuSans-6e" transform="translate(131.103516 0)"/>
     <use xlink:href="#DejaVuSans-74" transform="translate(194.482422 0)"/>
     <use xlink:href="#DejaVuSans-20" transform="translate(233.691406 0)"/>
     <use xlink:href="#DejaVuSans-2014" transform="translate(265.478516 0)"/>
     <use xlink:href="#DejaVuSans-20" transform="translate(365.478516 0)"/>
     <use xlink:href="#DejaVuSans-42" transform="translate(397.265625 0)"/>
     <use xlink:href="#DejaVuSans-6c" transform="translate(465.869141 0)"/>
     <use xlink:href="#DejaVuSans-6f" transform="translate(493.652344 0)"/>
     <use xlink:href="#DejaVuSans-73" transform="translate(554.833984 0)"/>
     <use xlink:href="#DejaVuSans-73" transform="translate(606.933594 0)"/>
     <use xlink:href="#DejaVuSans-43" transform="translate(659.033203 0)"/>
     <use xlink:href="#DejaVuSans-75" transform="translate(728.857422 0)"/>
     <use xlink:href="#DejaVuSans-72" transform="translate(792.236328 0)"/>
     <use xlink:href="#DejaVuSans-76" transform="translate(833.349609 0)"/>
     <use xlink:href="#DejaVuSans-65" transform="translate(892.529297 0)"/>
    </g>
    <!-- Cant_BlossCurve_100.0_300_inf_1_Meter -->
    <g transform="translate(207.279062 354.637) scale(0.08 -0.08)">
     <use xlink:href="#DejaVuSans-43"/>
     <use xlink:href="#DejaVuSans-61" transform="translate(69.824219 0)"/>
     <use xlink:href="#DejaVuSans-6e" transform="translate(131.103516 0)"/>
     <use xlink:href="#DejaVuSans-74" transform="translate(194.482422 0)"/>
     <use xlink:href="#DejaVuSans-5f" transform="translate(233.691406 0)"/>
     <use xlink:href="#DejaVuSans-42" transform="translate(283.691406 0)"/>
     <use xlink:href="#DejaVuSans-6c" transform="translate(352.294922 0)"/>
     <use xlink:href="#DejaVuSans-6f" transform="translate(380.078125 0)"/>
     <use xlink:href="#DejaVuSans-73" transform="translate(441.259766 0)"/>
     <use xlink:href="#DejaVuSans-73" transform="translate(493.359375 0)"/>
     <use xlink:href="#DejaVuSans-43" transform="translate(545.458984 0)"/>
     <use xlink:href="#DejaVuSans-75" transform="translate(615.283203 0)"/>
     <use xlink:href="#DejaVuSans-72" transform="translate(678.662109 0)"/>
     <use xlink:href="#DejaVuSans-76" transform="translate(719.775391 0)"/>
     <use xlink:href="#DejaVuSans-65" transform="translate(778.955078 0)"/>
     <use xlink:href="#DejaVuSans-5f" transform="translate(840.478516 0)"/>
     <use xlink:href="#DejaVuSans-31" transform="translate(890.478516 0)"/>
     <use xlink:href="#DejaVuSans-30" transform="translate(954.101562 0)"/>
     <use xlink:href="#DejaVuSans-30" transform="translate(1017.724609 0)"/>
     <use xlink:href="#DejaVuSans-2e" transform="translate(1081.347656 0)"/>
     <use xlink:href="#DejaVuSans-30" transform="translate(1113.134766 0)"/>
     <use xlink:href="#DejaVuSans-5f" transform="translate(1176.757812 0)"/>
     <use xlink:href="#DejaVuSans-33" transform="translate(1226.757812 0)"/>
     <use xlink:href="#DejaVuSans-30" transform="translate(1290.380859 0)"/>
     <use xlink:href="#DejaVuSans-30" transform="translate(1354.003906 0)"/>
     <use xlink:href="#DejaVuSans-5f" transform="translate(1417.626953 0)"/>
     <use xlink:href="#DejaVuSans-69" transform="translate(1467.626953 0)"/>
     <use xlink:href="#DejaVuSans-6e" transform="translate(1495.410156 0)"/>
     <use xlink:href="#DejaVuSans-66" transform="translate(1558.789062 0)"/>
     <use xlink:href="#DejaVuSans-5f" transform="translate(1593.994141 0)"/>
     <use xlink:href="#DejaVuSans-31" transform="translate(1643.994141 0)"/>
     <use xlink:href="#DejaVuSans-5f" transform="translate(1707.617188 0)"/>
     <use xlink:href="#DejaVuSans-4d" transform="translate(1757.617188 0)"/>
     <use xlink:href="#DejaVuSans-65" transform="translate(1843.896484 0)"/>
     <use xlink:href="#DejaVuSans-74" transform="translate(1905.419922 0)"/>
     <use xlink:href="#DejaVuSans-65" transform="translate(1944.628906 0)"/>
     <use xlink:href="#DejaVuSans-72" transform="translate(2006.152344 0)"/>
    </g>
   </g>
  </g>
  <g id="axes_3">
   <g id="patch_12">
    <path d="M 50.14375 963.24375 
L 528.196875 963.24375 
L 528.196875 693.037 
L 50.14375 693.037 
z
" style="fill: #ffffff"/>
   </g>
   <g id="axes_4">
    <g id="patch_13">
     <path d="M 528.196875 963.24375 
L 528.196875 963.24375 
L 528.196875 693.037 
L 528.196875 693.037 
z
" style="fill: #ffffff"/>
    </g>
    <g id="matplotlib.axis_5"/>
    <g id="matplotlib.axis_6">
     <g id="ytick_16">
      <g id="line2d_57">
       <defs>
        <path id="m3e605db776" d="M 0 0 
L 3.5 0 
" style="stroke: #000000; stroke-width: 0.8"/>
       </defs>
       <g>
        <use xlink:href="#m3e605db776" x="528.196875" y="946.196149" style="stroke: #000000; stroke-width: 0.8"/>
       </g>
      </g>
      <g id="text_34">
       <!-- 84 -->
       <g transform="translate(535.196875 949.995368) scale(0.1 -0.1)">
        <use xlink:href="#DejaVuSans-38"/>
        <use xlink:href="#DejaVuSans-34" transform="translate(63.623047 0)"/>
       </g>
      </g>
     </g>
     <g id="ytick_17">
      <g id="line2d_58">
       <g>
        <use xlink:href="#m3e605db776" x="528.196875" y="907.520631" style="stroke: #000000; stroke-width: 0.8"/>
       </g>
      </g>
      <g id="text_35">
       <!-- 85 -->
       <g transform="translate(535.196875 911.319849) scale(0.1 -0.1)">
        <use xlink:href="#DejaVuSans-38"/>
        <use xlink:href="#DejaVuSans-35" transform="translate(63.623047 0)"/>
       </g>
      </g>
     </g>
     <g id="ytick_18">
      <g id="line2d_59">
       <g>
        <use xlink:href="#m3e605db776" x="528.196875" y="868.845112" style="stroke: #000000; stroke-width: 0.8"/>
       </g>
      </g>
      <g id="text_36">
       <!-- 86 -->
       <g transform="translate(535.196875 872.644331) scale(0.1 -0.1)">
        <use xlink:href="#DejaVuSans-38"/>
        <use xlink:href="#DejaVuSans-36" transform="translate(63.623047 0)"/>
       </g>
      </g>
     </g>
     <g id="ytick_19">
      <g id="line2d_60">
       <g>
        <use xlink:href="#m3e605db776" x="528.196875" y="830.169594" style="stroke: #000000; stroke-width: 0.8"/>
       </g>
      </g>
      <g id="text_37">
       <!-- 87 -->
       <g transform="translate(535.196875 833.968812) scale(0.1 -0.1)">
        <use xlink:href="#DejaVuSans-38"/>
        <use xlink:href="#DejaVuSans-37" transform="translate(63.623047 0)"/>
       </g>
      </g>
     </g>
     <g id="ytick_20">
      <g id="line2d_61">
       <g>
        <use xlink:href="#m3e605db776" x="528.196875" y="791.494075" style="stroke: #000000; stroke-width: 0.8"/>
       </g>
      </g>
      <g id="text_38">
       <!-- 88 -->
       <g transform="translate(535.196875 795.293294) scale(0.1 -0.1)">
        <use xlink:href="#DejaVuSans-38"/>
        <use xlink:href="#DejaVuSans-38" transform="translate(63.623047 0)"/>
       </g>
      </g>
     </g>
     <g id="ytick_21">
      <g id="line2d_62">
       <g>
        <use xlink:href="#m3e605db776" x="528.196875" y="752.818556" style="stroke: #000000; stroke-width: 0.8"/>
       </g>
      </g>
      <g id="text_39">
       <!-- 89 -->
       <g transform="translate(535.196875 756.617775) scale(0.1 -0.1)">
        <defs>
         <path id="DejaVuSans-39" d="M 703 97 
L 703 672 
Q 941 559 1184 500 
Q 1428 441 1663 441 
Q 2288 441 2617 861 
Q 2947 1281 2994 2138 
Q 2813 1869 2534 1725 
Q 2256 1581 1919 1581 
Q 1219 1581 811 2004 
Q 403 2428 403 3163 
Q 403 3881 828 4315 
Q 1253 4750 1959 4750 
Q 2769 4750 3195 4129 
Q 3622 3509 3622 2328 
Q 3622 1225 3098 567 
Q 2575 -91 1691 -91 
Q 1453 -91 1209 -44 
Q 966 3 703 97 
z
M 1959 2075 
Q 2384 2075 2632 2365 
Q 2881 2656 2881 3163 
Q 2881 3666 2632 3958 
Q 2384 4250 1959 4250 
Q 1534 4250 1286 3958 
Q 1038 3666 1038 3163 
Q 1038 2656 1286 2365 
Q 1534 2075 1959 2075 
z
" transform="scale(0.015625)"/>
        </defs>
        <use xlink:href="#DejaVuSans-38"/>
        <use xlink:href="#DejaVuSans-39" transform="translate(63.623047 0)"/>
       </g>
      </g>
     </g>
     <g id="ytick_22">
      <g id="line2d_63">
       <g>
        <use xlink:href="#m3e605db776" x="528.196875" y="714.143038" style="stroke: #000000; stroke-width: 0.8"/>
       </g>
      </g>
      <g id="text_40">
       <!-- 90 -->
       <g transform="translate(535.196875 717.942257) scale(0.1 -0.1)">
        <use xlink:href="#DejaVuSans-39"/>
        <use xlink:href="#DejaVuSans-30" transform="translate(63.623047 0)"/>
       </g>
      </g>
     </g>
     <g id="text_41">
      <!-- φ (deg) -->
      <g transform="translate(559.520313 846.354438) rotate(-90) scale(0.1 -0.1)">
       <defs>
        <path id="DejaVuSans-3c6" d="M 2591 3034 
Q 2388 3034 2388 2581 
L 2388 438 
Q 2684 438 2981 763 
Q 3247 1053 3247 1750 
Q 3247 2400 2978 2750 
Q 2759 3034 2591 3034 
z
M 2591 3525 
Q 3028 3525 3425 3113 
Q 3853 2672 3853 1750 
Q 3853 903 3425 400 
Q 3022 -75 2388 -75 
L 2388 -1331 
L 1816 -1331 
L 1816 -78 
Q 1194 -78 775 400 
Q 350 888 350 1747 
Q 350 2641 775 3097 
Q 1094 3438 1613 3525 
L 1613 3016 
Q 1406 2944 1225 2700 
Q 956 2341 956 1747 
Q 956 1116 1225 756 
Q 1466 434 1816 434 
L 1816 2581 
Q 1816 3525 2591 3525 
z
" transform="scale(0.015625)"/>
        <path id="DejaVuSans-64" d="M 2906 2969 
L 2906 4863 
L 3481 4863 
L 3481 0 
L 2906 0 
L 2906 525 
Q 2725 213 2448 61 
Q 2172 -91 1784 -91 
Q 1150 -91 751 415 
Q 353 922 353 1747 
Q 353 2572 751 3078 
Q 1150 3584 1784 3584 
Q 2172 3584 2448 3432 
Q 2725 3281 2906 2969 
z
M 947 1747 
Q 947 1113 1208 752 
Q 1469 391 1925 391 
Q 2381 391 2643 752 
Q 2906 1113 2906 1747 
Q 2906 2381 2643 2742 
Q 2381 3103 1925 3103 
Q 1469 3103 1208 2742 
Q 947 2381 947 1747 
z
" transform="scale(0.015625)"/>
       </defs>
       <use xlink:href="#DejaVuSans-3c6"/>
       <use xlink:href="#DejaVuSans-20" transform="translate(65.966797 0)"/>
       <use xlink:href="#DejaVuSans-28" transform="translate(97.753906 0)"/>
       <use xlink:href="#DejaVuSans-64" transform="translate(136.767578 0)"/>
       <use xlink:href="#DejaVuSans-65" transform="translate(200.244141 0)"/>
       <use xlink:href="#DejaVuSans-67" transform="translate(261.767578 0)"/>
       <use xlink:href="#DejaVuSans-29" transform="translate(325.244141 0)"/>
      </g>
     </g>
    </g>
    <g id="patch_14">
     <path d="M 528.196875 963.24375 
L 528.196875 693.037 
" style="fill: none; stroke: #000000; stroke-width: 0.8; stroke-linejoin: miter; stroke-linecap: square"/>
    </g>
   </g>
   <g id="matplotlib.axis_7">
    <g id="xtick_13">
     <g id="line2d_64">
      <path d="M 71.873437 963.24375 
L 71.873437 693.037 
" clip-path="url(#pb9a75a96eb)" style="fill: none; stroke-dasharray: 2.96,1.28; stroke-dashoffset: 0; stroke: #b0b0b0; stroke-opacity: 0.5; stroke-width: 0.8"/>
     </g>
     <g id="line2d_65">
      <g>
       <use xlink:href="#mc9290ce319" x="71.873437" y="963.24375" style="stroke: #000000; stroke-width: 0.8"/>
      </g>
     </g>
     <g id="text_42">
      <!-- 0 -->
      <g transform="translate(68.692187 977.842188) scale(0.1 -0.1)">
       <use xlink:href="#DejaVuSans-30"/>
      </g>
     </g>
    </g>
    <g id="xtick_14">
     <g id="line2d_66">
      <path d="M 158.792187 963.24375 
L 158.792187 693.037 
" clip-path="url(#pb9a75a96eb)" style="fill: none; stroke-dasharray: 2.96,1.28; stroke-dashoffset: 0; stroke: #b0b0b0; stroke-opacity: 0.5; stroke-width: 0.8"/>
     </g>
     <g id="line2d_67">
      <g>
       <use xlink:href="#mc9290ce319" x="158.792187" y="963.24375" style="stroke: #000000; stroke-width: 0.8"/>
      </g>
     </g>
     <g id="text_43">
      <!-- 20 -->
      <g transform="translate(152.429687 977.842188) scale(0.1 -0.1)">
       <use xlink:href="#DejaVuSans-32"/>
       <use xlink:href="#DejaVuSans-30" transform="translate(63.623047 0)"/>
      </g>
     </g>
    </g>
    <g id="xtick_15">
     <g id="line2d_68">
      <path d="M 245.710937 963.24375 
L 245.710937 693.037 
" clip-path="url(#pb9a75a96eb)" style="fill: none; stroke-dasharray: 2.96,1.28; stroke-dashoffset: 0; stroke: #b0b0b0; stroke-opacity: 0.5; stroke-width: 0.8"/>
     </g>
     <g id="line2d_69">
      <g>
       <use xlink:href="#mc9290ce319" x="245.710937" y="963.24375" style="stroke: #000000; stroke-width: 0.8"/>
      </g>
     </g>
     <g id="text_44">
      <!-- 40 -->
      <g transform="translate(239.348437 977.842188) scale(0.1 -0.1)">
       <use xlink:href="#DejaVuSans-34"/>
       <use xlink:href="#DejaVuSans-30" transform="translate(63.623047 0)"/>
      </g>
     </g>
    </g>
    <g id="xtick_16">
     <g id="line2d_70">
      <path d="M 332.629687 963.24375 
L 332.629687 693.037 
" clip-path="url(#pb9a75a96eb)" style="fill: none; stroke-dasharray: 2.96,1.28; stroke-dashoffset: 0; stroke: #b0b0b0; stroke-opacity: 0.5; stroke-width: 0.8"/>
     </g>
     <g id="line2d_71">
      <g>
       <use xlink:href="#mc9290ce319" x="332.629687" y="963.24375" style="stroke: #000000; stroke-width: 0.8"/>
      </g>
     </g>
     <g id="text_45">
      <!-- 60 -->
      <g transform="translate(326.267187 977.842188) scale(0.1 -0.1)">
       <use xlink:href="#DejaVuSans-36"/>
       <use xlink:href="#DejaVuSans-30" transform="translate(63.623047 0)"/>
      </g>
     </g>
    </g>
    <g id="xtick_17">
     <g id="line2d_72">
      <path d="M 419.548437 963.24375 
L 419.548437 693.037 
" clip-path="url(#pb9a75a96eb)" style="fill: none; stroke-dasharray: 2.96,1.28; stroke-dashoffset: 0; stroke: #b0b0b0; stroke-opacity: 0.5; stroke-width: 0.8"/>
     </g>
     <g id="line2d_73">
      <g>
       <use xlink:href="#mc9290ce319" x="419.548437" y="963.24375" style="stroke: #000000; stroke-width: 0.8"/>
      </g>
     </g>
     <g id="text_46">
      <!-- 80 -->
      <g transform="translate(413.185937 977.842188) scale(0.1 -0.1)">
       <use xlink:href="#DejaVuSans-38"/>
       <use xlink:href="#DejaVuSans-30" transform="translate(63.623047 0)"/>
      </g>
     </g>
    </g>
    <g id="xtick_18">
     <g id="line2d_74">
      <path d="M 506.467187 963.24375 
L 506.467187 693.037 
" clip-path="url(#pb9a75a96eb)" style="fill: none; stroke-dasharray: 2.96,1.28; stroke-dashoffset: 0; stroke: #b0b0b0; stroke-opacity: 0.5; stroke-width: 0.8"/>
     </g>
     <g id="line2d_75">
      <g>
       <use xlink:href="#mc9290ce319" x="506.467187" y="963.24375" style="stroke: #000000; stroke-width: 0.8"/>
      </g>
     </g>
     <g id="text_47">
      <!-- 100 -->
      <g transform="translate(496.923437 977.842188) scale(0.1 -0.1)">
       <use xlink:href="#DejaVuSans-31"/>
       <use xlink:href="#DejaVuSans-30" transform="translate(63.623047 0)"/>
       <use xlink:href="#DejaVuSans-30" transform="translate(127.246094 0)"/>
      </g>
     </g>
    </g>
    <g id="text_48">
     <!-- Distance Along (m) -->
     <g transform="translate(241.146094 991.520313) scale(0.1 -0.1)">
      <use xlink:href="#DejaVuSans-44"/>
      <use xlink:href="#DejaVuSans-69" transform="translate(77.001953 0)"/>
      <use xlink:href="#DejaVuSans-73" transform="translate(104.785156 0)"/>
      <use xlink:href="#DejaVuSans-74" transform="translate(156.884766 0)"/>
      <use xlink:href="#DejaVuSans-61" transform="translate(196.09375 0)"/>
      <use xlink:href="#DejaVuSans-6e" transform="translate(257.373047 0)"/>
      <use xlink:href="#DejaVuSans-63" transform="translate(320.751953 0)"/>
      <use xlink:href="#DejaVuSans-65" transform="translate(375.732422 0)"/>
      <use xlink:href="#DejaVuSans-20" transform="translate(437.255859 0)"/>
      <use xlink:href="#DejaVuSans-41" transform="translate(469.042969 0)"/>
      <use xlink:href="#DejaVuSans-6c" transform="translate(537.451172 0)"/>
      <use xlink:href="#DejaVuSans-6f" transform="translate(565.234375 0)"/>
      <use xlink:href="#DejaVuSans-6e" transform="translate(626.416016 0)"/>
      <use xlink:href="#DejaVuSans-67" transform="translate(689.794922 0)"/>
      <use xlink:href="#DejaVuSans-20" transform="translate(753.271484 0)"/>
      <use xlink:href="#DejaVuSans-28" transform="translate(785.058594 0)"/>
      <use xlink:href="#DejaVuSans-6d" transform="translate(824.072266 0)"/>
      <use xlink:href="#DejaVuSans-29" transform="translate(921.484375 0)"/>
     </g>
    </g>
   </g>
   <g id="matplotlib.axis_8">
    <g id="ytick_23">
     <g id="line2d_76">
      <path d="M 50.14375 959.661492 
L 528.196875 959.661492 
" clip-path="url(#pb9a75a96eb)" style="fill: none; stroke-dasharray: 2.96,1.28; stroke-dashoffset: 0; stroke: #b0b0b0; stroke-opacity: 0.5; stroke-width: 0.8"/>
     </g>
     <g id="line2d_77">
      <g>
       <use xlink:href="#m2a44af9204" x="50.14375" y="959.661492" style="stroke: #000000; stroke-width: 0.8"/>
      </g>
     </g>
     <g id="text_49">
      <!-- 1.46 -->
      <g transform="translate(20.878125 963.46071) scale(0.1 -0.1)">
       <use xlink:href="#DejaVuSans-31"/>
       <use xlink:href="#DejaVuSans-2e" transform="translate(63.623047 0)"/>
       <use xlink:href="#DejaVuSans-34" transform="translate(95.410156 0)"/>
       <use xlink:href="#DejaVuSans-36" transform="translate(159.033203 0)"/>
      </g>
     </g>
    </g>
    <g id="ytick_24">
     <g id="line2d_78">
      <path d="M 50.14375 915.342612 
L 528.196875 915.342612 
" clip-path="url(#pb9a75a96eb)" style="fill: none; stroke-dasharray: 2.96,1.28; stroke-dashoffset: 0; stroke: #b0b0b0; stroke-opacity: 0.5; stroke-width: 0.8"/>
     </g>
     <g id="line2d_79">
      <g>
       <use xlink:href="#m2a44af9204" x="50.14375" y="915.342612" style="stroke: #000000; stroke-width: 0.8"/>
      </g>
     </g>
     <g id="text_50">
      <!-- 1.48 -->
      <g transform="translate(20.878125 919.141831) scale(0.1 -0.1)">
       <use xlink:href="#DejaVuSans-31"/>
       <use xlink:href="#DejaVuSans-2e" transform="translate(63.623047 0)"/>
       <use xlink:href="#DejaVuSans-34" transform="translate(95.410156 0)"/>
       <use xlink:href="#DejaVuSans-38" transform="translate(159.033203 0)"/>
      </g>
     </g>
    </g>
    <g id="ytick_25">
     <g id="line2d_80">
      <path d="M 50.14375 871.023732 
L 528.196875 871.023732 
" clip-path="url(#pb9a75a96eb)" style="fill: none; stroke-dasharray: 2.96,1.28; stroke-dashoffset: 0; stroke: #b0b0b0; stroke-opacity: 0.5; stroke-width: 0.8"/>
     </g>
     <g id="line2d_81">
      <g>
       <use xlink:href="#m2a44af9204" x="50.14375" y="871.023732" style="stroke: #000000; stroke-width: 0.8"/>
      </g>
     </g>
     <g id="text_51">
      <!-- 1.50 -->
      <g transform="translate(20.878125 874.822951) scale(0.1 -0.1)">
       <use xlink:href="#DejaVuSans-31"/>
       <use xlink:href="#DejaVuSans-2e" transform="translate(63.623047 0)"/>
       <use xlink:href="#DejaVuSans-35" transform="translate(95.410156 0)"/>
       <use xlink:href="#DejaVuSans-30" transform="translate(159.033203 0)"/>
      </g>
     </g>
    </g>
    <g id="ytick_26">
     <g id="line2d_82">
      <path d="M 50.14375 826.704853 
L 528.196875 826.704853 
" clip-path="url(#pb9a75a96eb)" style="fill: none; stroke-dasharray: 2.96,1.28; stroke-dashoffset: 0; stroke: #b0b0b0; stroke-opacity: 0.5; stroke-width: 0.8"/>
     </g>
     <g id="line2d_83">
      <g>
       <use xlink:href="#m2a44af9204" x="50.14375" y="826.704853" style="stroke: #000000; stroke-width: 0.8"/>
      </g>
     </g>
     <g id="text_52">
      <!-- 1.52 -->
      <g transform="translate(20.878125 830.504071) scale(0.1 -0.1)">
       <use xlink:href="#DejaVuSans-31"/>
       <use xlink:href="#DejaVuSans-2e" transform="translate(63.623047 0)"/>
       <use xlink:href="#DejaVuSans-35" transform="translate(95.410156 0)"/>
       <use xlink:href="#DejaVuSans-32" transform="translate(159.033203 0)"/>
      </g>
     </g>
    </g>
    <g id="ytick_27">
     <g id="line2d_84">
      <path d="M 50.14375 782.385973 
L 528.196875 782.385973 
" clip-path="url(#pb9a75a96eb)" style="fill: none; stroke-dasharray: 2.96,1.28; stroke-dashoffset: 0; stroke: #b0b0b0; stroke-opacity: 0.5; stroke-width: 0.8"/>
     </g>
     <g id="line2d_85">
      <g>
       <use xlink:href="#m2a44af9204" x="50.14375" y="782.385973" style="stroke: #000000; stroke-width: 0.8"/>
      </g>
     </g>
     <g id="text_53">
      <!-- 1.54 -->
      <g transform="translate(20.878125 786.185192) scale(0.1 -0.1)">
       <use xlink:href="#DejaVuSans-31"/>
       <use xlink:href="#DejaVuSans-2e" transform="translate(63.623047 0)"/>
       <use xlink:href="#DejaVuSans-35" transform="translate(95.410156 0)"/>
       <use xlink:href="#DejaVuSans-34" transform="translate(159.033203 0)"/>
      </g>
     </g>
    </g>
    <g id="ytick_28">
     <g id="line2d_86">
      <path d="M 50.14375 738.067093 
L 528.196875 738.067093 
" clip-path="url(#pb9a75a96eb)" style="fill: none; stroke-dasharray: 2.96,1.28; stroke-dashoffset: 0; stroke: #b0b0b0; stroke-opacity: 0.5; stroke-width: 0.8"/>
     </g>
     <g id="line2d_87">
      <g>
       <use xlink:href="#m2a44af9204" x="50.14375" y="738.067093" style="stroke: #000000; stroke-width: 0.8"/>
      </g>
     </g>
     <g id="text_54">
      <!-- 1.56 -->
      <g transform="translate(20.878125 741.866312) scale(0.1 -0.1)">
       <use xlink:href="#DejaVuSans-31"/>
       <use xlink:href="#DejaVuSans-2e" transform="translate(63.623047 0)"/>
       <use xlink:href="#DejaVuSans-35" transform="translate(95.410156 0)"/>
       <use xlink:href="#DejaVuSans-36" transform="translate(159.033203 0)"/>
      </g>
     </g>
    </g>
    <g id="ytick_29">
     <g id="line2d_88">
      <path d="M 50.14375 693.748214 
L 528.196875 693.748214 
" clip-path="url(#pb9a75a96eb)" style="fill: none; stroke-dasharray: 2.96,1.28; stroke-dashoffset: 0; stroke: #b0b0b0; stroke-opacity: 0.5; stroke-width: 0.8"/>
     </g>
     <g id="line2d_89">
      <g>
       <use xlink:href="#m2a44af9204" x="50.14375" y="693.748214" style="stroke: #000000; stroke-width: 0.8"/>
      </g>
     </g>
     <g id="text_55">
      <!-- 1.58 -->
      <g transform="translate(20.878125 697.547432) scale(0.1 -0.1)">
       <use xlink:href="#DejaVuSans-31"/>
       <use xlink:href="#DejaVuSans-2e" transform="translate(63.623047 0)"/>
       <use xlink:href="#DejaVuSans-35" transform="translate(95.410156 0)"/>
       <use xlink:href="#DejaVuSans-38" transform="translate(159.033203 0)"/>
      </g>
     </g>
    </g>
    <g id="text_56">
     <!-- φ (rad) -->
     <g transform="translate(14.798438 845.223188) rotate(-90) scale(0.1 -0.1)">
      <use xlink:href="#DejaVuSans-3c6"/>
      <use xlink:href="#DejaVuSans-20" transform="translate(65.966797 0)"/>
      <use xlink:href="#DejaVuSans-28" transform="translate(97.753906 0)"/>
      <use xlink:href="#DejaVuSans-72" transform="translate(136.767578 0)"/>
      <use xlink:href="#DejaVuSans-61" transform="translate(177.880859 0)"/>
      <use xlink:href="#DejaVuSans-64" transform="translate(239.160156 0)"/>
      <use xlink:href="#DejaVuSans-29" transform="translate(302.636719 0)"/>
     </g>
    </g>
   </g>
   <g id="line2d_90">
    <path d="M 71.873437 950.961625 
L 76.219375 950.888207 
L 80.565312 950.669683 
L 84.91125 950.310933 
L 89.257187 949.813924 
L 93.603125 949.181095 
L 97.949062 948.414414 
L 102.295 947.518757 
L 106.640937 946.49586 
L 110.986875 945.350597 
L 115.332812 944.082965 
L 119.67875 942.697143 
L 124.024687 941.197995 
L 128.370625 939.585293 
L 132.716562 937.865651 
L 137.0625 936.037088 
L 141.408437 934.108642 
L 145.754375 932.077665 
L 150.100312 929.949008 
L 154.44625 927.727075 
L 158.792187 925.414282 
L 163.138125 923.012409 
L 167.484062 920.524081 
L 171.83 917.955912 
L 176.175937 915.305693 
L 180.521875 912.580039 
L 184.867812 909.779148 
L 189.21375 906.909439 
L 193.559687 903.971298 
L 197.905625 900.966731 
L 202.251562 897.90236 
L 206.5975 894.778547 
L 210.943437 891.597129 
L 215.289375 888.364908 
L 219.635312 885.082053 
L 223.98125 881.750592 
L 228.327187 878.377317 
L 232.673125 874.960009 
L 237.019062 871.505291 
L 241.365 868.01773 
L 245.710937 864.494953 
L 250.056875 860.943733 
L 254.402812 857.366126 
L 258.74875 853.764485 
L 263.094687 850.141145 
L 267.440625 846.500247 
L 271.786562 842.846476 
L 276.1325 839.179815 
L 280.478437 835.504429 
L 284.824375 831.822892 
L 289.170312 828.139375 
L 293.51625 824.456201 
L 297.862187 820.773356 
L 302.208125 817.099579 
L 306.554062 813.432854 
L 310.9 809.777397 
L 315.245937 806.137819 
L 319.591875 802.516137 
L 323.937812 798.914737 
L 328.28375 795.335649 
L 332.629687 791.785675 
L 336.975625 788.262431 
L 341.321562 784.772705 
L 345.6675 781.318558 
L 350.013437 777.902333 
L 354.359375 774.528321 
L 358.705312 771.198794 
L 363.05125 767.913742 
L 367.397187 764.682018 
L 371.743125 761.501349 
L 376.089062 758.376207 
L 380.435 755.313231 
L 384.780937 752.3079 
L 389.126875 749.37137 
L 393.472812 746.499199 
L 397.81875 743.700176 
L 402.164687 740.974335 
L 406.510625 738.32391 
L 410.856562 735.755492 
L 415.2025 733.266867 
L 419.548437 730.864702 
L 423.894375 728.551205 
L 428.240312 726.33079 
L 432.58625 724.201239 
L 436.932187 722.171424 
L 441.278125 720.241325 
L 445.624062 718.415381 
L 449.97 716.693591 
L 454.315937 715.080382 
L 458.661875 713.582404 
L 463.007812 712.19744 
L 467.35375 710.929918 
L 471.699687 709.784273 
L 476.045625 708.760504 
L 480.391562 707.86526 
L 484.7375 707.09854 
L 489.083437 706.466993 
L 493.429375 705.9684 
L 497.775312 705.60942 
L 502.12125 705.392251 
L 506.467187 705.319125 
" clip-path="url(#pb9a75a96eb)" style="fill: none; stroke: #2ca02c; stroke-width: 1.5; stroke-linecap: square"/>
   </g>
   <g id="patch_15">
    <path d="M 50.14375 963.24375 
L 50.14375 693.037 
" style="fill: none; stroke: #000000; stroke-width: 0.8; stroke-linejoin: miter; stroke-linecap: square"/>
   </g>
   <g id="patch_16">
    <path d="M 528.196875 963.24375 
L 528.196875 693.037 
" style="fill: none; stroke: #000000; stroke-width: 0.8; stroke-linejoin: miter; stroke-linecap: square"/>
   </g>
   <g id="patch_17">
    <path d="M 50.14375 963.24375 
L 528.196875 963.24375 
" style="fill: none; stroke: #000000; stroke-width: 0.8; stroke-linejoin: miter; stroke-linecap: square"/>
   </g>
   <g id="patch_18">
    <path d="M 50.14375 693.037 
L 528.196875 693.037 
" style="fill: none; stroke: #000000; stroke-width: 0.8; stroke-linejoin: miter; stroke-linecap: square"/>
   </g>
   <g id="text_57">
    <!-- Cross-slope angle — BlossCurve -->
    <g transform="translate(224.937812 678.07875) scale(0.08 -0.08)">
     <defs>
      <path id="DejaVuSans-2d" d="M 313 2009 
L 1997 2009 
L 1997 1497 
L 313 1497 
L 313 2009 
z
" transform="scale(0.015625)"/>
      <path id="DejaVuSans-70" d="M 1159 525 
L 1159 -1331 
L 581 -1331 
L 581 3500 
L 1159 3500 
L 1159 2969 
Q 1341 3281 1617 3432 
Q 1894 3584 2278 3584 
Q 2916 3584 3314 3078 
Q 3713 2572 3713 1747 
Q 3713 922 3314 415 
Q 2916 -91 2278 -91 
Q 1894 -91 1617 61 
Q 1341 213 1159 525 
z
M 3116 1747 
Q 3116 2381 2855 2742 
Q 2594 3103 2138 3103 
Q 1681 3103 1420 2742 
Q 1159 2381 1159 1747 
Q 1159 1113 1420 752 
Q 1681 391 2138 391 
Q 2594 391 2855 752 
Q 3116 1113 3116 1747 
z
" transform="scale(0.015625)"/>
     </defs>
     <use xlink:href="#DejaVuSans-43"/>
     <use xlink:href="#DejaVuSans-72" transform="translate(69.824219 0)"/>
     <use xlink:href="#DejaVuSans-6f" transform="translate(108.6875 0)"/>
     <use xlink:href="#DejaVuSans-73" transform="translate(169.869141 0)"/>
     <use xlink:href="#DejaVuSans-73" transform="translate(221.96875 0)"/>
     <use xlink:href="#DejaVuSans-2d" transform="translate(274.068359 0)"/>
     <use xlink:href="#DejaVuSans-73" transform="translate(310.152344 0)"/>
     <use xlink:href="#DejaVuSans-6c" transform="translate(362.251953 0)"/>
     <use xlink:href="#DejaVuSans-6f" transform="translate(390.035156 0)"/>
     <use xlink:href="#DejaVuSans-70" transform="translate(451.216797 0)"/>
     <use xlink:href="#DejaVuSans-65" transform="translate(514.693359 0)"/>
     <use xlink:href="#DejaVuSans-20" transform="translate(576.216797 0)"/>
     <use xlink:href="#DejaVuSans-61" transform="translate(608.003906 0)"/>
     <use xlink:href="#DejaVuSans-6e" transform="translate(669.283203 0)"/>
     <use xlink:href="#DejaVuSans-67" transform="translate(732.662109 0)"/>
     <use xlink:href="#DejaVuSans-6c" transform="translate(796.138672 0)"/>
     <use xlink:href="#DejaVuSans-65" transform="translate(823.921875 0)"/>
     <use xlink:href="#DejaVuSans-20" transform="translate(885.445312 0)"/>
     <use xlink:href="#DejaVuSans-2014" transform="translate(917.232422 0)"/>
     <use xlink:href="#DejaVuSans-20" transform="translate(1017.232422 0)"/>
     <use xlink:href="#DejaVuSans-42" transform="translate(1049.019531 0)"/>
     <use xlink:href="#DejaVuSans-6c" transform="translate(1117.623047 0)"/>
     <use xlink:href="#DejaVuSans-6f" transform="translate(1145.40625 0)"/>
     <use xlink:href="#DejaVuSans-73" transform="translate(1206.587891 0)"/>
     <use xlink:href="#DejaVuSans-73" transform="translate(1258.6875 0)"/>
     <use xlink:href="#DejaVuSans-43" transform="translate(1310.787109 0)"/>
     <use xlink:href="#DejaVuSans-75" transform="translate(1380.611328 0)"/>
     <use xlink:href="#DejaVuSans-72" transform="translate(1443.990234 0)"/>
     <use xlink:href="#DejaVuSans-76" transform="translate(1485.103516 0)"/>
     <use xlink:href="#DejaVuSans-65" transform="translate(1544.283203 0)"/>
    </g>
    <!-- Cant_BlossCurve_100.0_300_inf_1_Meter -->
    <g transform="translate(207.279062 687.037) scale(0.08 -0.08)">
     <use xlink:href="#DejaVuSans-43"/>
     <use xlink:href="#DejaVuSans-61" transform="translate(69.824219 0)"/>
     <use xlink:href="#DejaVuSans-6e" transform="translate(131.103516 0)"/>
     <use xlink:href="#DejaVuSans-74" transform="translate(194.482422 0)"/>
     <use xlink:href="#DejaVuSans-5f" transform="translate(233.691406 0)"/>
     <use xlink:href="#DejaVuSans-42" transform="translate(283.691406 0)"/>
     <use xlink:href="#DejaVuSans-6c" transform="translate(352.294922 0)"/>
     <use xlink:href="#DejaVuSans-6f" transform="translate(380.078125 0)"/>
     <use xlink:href="#DejaVuSans-73" transform="translate(441.259766 0)"/>
     <use xlink:href="#DejaVuSans-73" transform="translate(493.359375 0)"/>
     <use xlink:href="#DejaVuSans-43" transform="translate(545.458984 0)"/>
     <use xlink:href="#DejaVuSans-75" transform="translate(615.283203 0)"/>
     <use xlink:href="#DejaVuSans-72" transform="translate(678.662109 0)"/>
     <use xlink:href="#DejaVuSans-76" transform="translate(719.775391 0)"/>
     <use xlink:href="#DejaVuSans-65" transform="translate(778.955078 0)"/>
     <use xlink:href="#DejaVuSans-5f" transform="translate(840.478516 0)"/>
     <use xlink:href="#DejaVuSans-31" transform="translate(890.478516 0)"/>
     <use xlink:href="#DejaVuSans-30" transform="translate(954.101562 0)"/>
     <use xlink:href="#DejaVuSans-30" transform="translate(1017.724609 0)"/>
     <use xlink:href="#DejaVuSans-2e" transform="translate(1081.347656 0)"/>
     <use xlink:href="#DejaVuSans-30" transform="translate(1113.134766 0)"/>
     <use xlink:href="#DejaVuSans-5f" transform="translate(1176.757812 0)"/>
     <use xlink:href="#DejaVuSans-33" transform="translate(1226.757812 0)"/>
     <use xlink:href="#DejaVuSans-30" transform="translate(1290.380859 0)"/>
     <use xlink:href="#DejaVuSans-30" transform="translate(1354.003906 0)"/>
     <use xlink:href="#DejaVuSans-5f" transform="translate(1417.626953 0)"/>
     <use xlink:href="#DejaVuSans-69" transform="translate(1467.626953 0)"/>
     <use xlink:href="#DejaVuSans-6e" transform="translate(1495.410156 0)"/>
     <use xlink:href="#DejaVuSans-66" transform="translate(1558.789062 0)"/>
     <use xlink:href="#DejaVuSans-5f" transform="translate(1593.994141 0)"/>
     <use xlink:href="#DejaVuSans-31" transform="translate(1643.994141 0)"/>
     <use xlink:href="#DejaVuSans-5f" transform="translate(1707.617188 0)"/>
     <use xlink:href="#DejaVuSans-4d" transform="translate(1757.617188 0)"/>
     <use xlink:href="#DejaVuSans-65" transform="translate(1843.896484 0)"/>
     <use xlink:href="#DejaVuSans-74" transform="translate(1905.419922 0)"/>
     <use xlink:href="#DejaVuSans-65" transform="translate(1944.628906 0)"/>
     <use xlink:href="#DejaVuSans-72" transform="translate(2006.152344 0)"/>
    </g>
   </g>
  </g>
 </g>
 <defs>
  <clipPath id="p6c02edd190">
   <rect x="50.14375" y="28.237" width="478.053125" height="270.20675"/>
  </clipPath>
  <clipPath id="p56635aad80">
   <rect x="50.14375" y="360.637" width="478.053125" height="270.20675"/>
  </clipPath>
  <clipPath id="pb9a75a96eb">
   <rect x="50.14375" y="693.037" width="478.053125" height="270.20675"/>
  </clipPath>
 </defs>
</svg>
