<?xml version="1.0" encoding="utf-8" standalone="no"?>
<!DOCTYPE svg PUBLIC "-//W3C//DTD SVG 1.1//EN"
  "http://www.w3.org/Graphics/SVG/1.1/DTD/svg11.dtd">
<svg xmlns:xlink="http://www.w3.org/1999/xlink" width="568.8pt" height="1000.8pt" viewBox="0 0 568.8 1000.8" xmlns="http://www.w3.org/2000/svg" version="1.1">
 <metadata>
  <rdf:RDF xmlns:dc="http://purl.org/dc/elements/1.1/" xmlns:cc="http://creativecommons.org/ns#" xmlns:rdf="http://www.w3.org/1999/02/22-rdf-syntax-ns#">
   <cc:Work>
    <dc:type rdf:resource="http://purl.org/dc/dcmitype/StillImage"/>
    <dc:date>2026-05-16T19:22:06.211747</dc:date>
    <dc:format>image/svg+xml</dc:format>
    <dc:creator>
     <cc:Agent>
      <dc:title>Matplotlib v3.10.9, https://matplotlib.org/</dc:title>
     </cc:Agent>
    </dc:creator>
   </cc:Work>
  </rdf:RDF>
 </metadata>
 <defs>
  <style type="text/css">*{stroke-linejoin: round; stroke-linecap: butt}</style>
 </defs>
 <g id="figure_1">
  <g id="patch_1">
   <path d="M 0 1000.8 
L 568.8 1000.8 
L 568.8 0 
L 0 0 
z
" style="fill: #ffffff"/>
  </g>
  <g id="axes_1">
   <g id="patch_2">
    <path d="M 50.14375 298.44375 
L 518.65625 298.44375 
L 518.65625 28.237 
L 50.14375 28.237 
z
" style="fill: #ffffff"/>
   </g>
   <g id="matplotlib.axis_1">
    <g id="xtick_1">
     <g id="line2d_1">
      <path d="M 71.439773 298.44375 
L 71.439773 28.237 
" clip-path="url(#p6062c03b00)" style="fill: none; stroke-dasharray: 2.96,1.28; stroke-dashoffset: 0; stroke: #b0b0b0; stroke-opacity: 0.5; stroke-width: 0.8"/>
     </g>
     <g id="line2d_2">
      <defs>
       <path id="m89a2cd56ca" d="M 0 0 
L 0 3.5 
" style="stroke: #000000; stroke-width: 0.8"/>
      </defs>
      <g>
       <use xlink:href="#m89a2cd56ca" x="71.439773" y="298.44375" style="stroke: #000000; stroke-width: 0.8"/>
      </g>
     </g>
     <g id="text_1">
      <!-- 0 -->
      <g transform="translate(68.258523 313.042187) scale(0.1 -0.1)">
       <defs>
        <path id="DejaVuSans-30" d="M 2034 4250 
Q 1547 4250 1301 3770 
Q 1056 3291 1056 2328 
Q 1056 1369 1301 889 
Q 1547 409 2034 409 
Q 2525 409 2770 889 
Q 3016 1369 3016 2328 
Q 3016 3291 2770 3770 
Q 2525 4250 2034 4250 
z
M 2034 4750 
Q 2819 4750 3233 4129 
Q 3647 3509 3647 2328 
Q 3647 1150 3233 529 
Q 2819 -91 2034 -91 
Q 1250 -91 836 529 
Q 422 1150 422 2328 
Q 422 3509 836 4129 
Q 1250 4750 2034 4750 
z
" transform="scale(0.015625)"/>
       </defs>
       <use xlink:href="#DejaVuSans-30"/>
      </g>
     </g>
    </g>
    <g id="xtick_2">
     <g id="line2d_3">
      <path d="M 157.359703 298.44375 
L 157.359703 28.237 
" clip-path="url(#p6062c03b00)" style="fill: none; stroke-dasharray: 2.96,1.28; stroke-dashoffset: 0; stroke: #b0b0b0; stroke-opacity: 0.5; stroke-width: 0.8"/>
     </g>
     <g id="line2d_4">
      <g>
       <use xlink:href="#m89a2cd56ca" x="157.359703" y="298.44375" style="stroke: #000000; stroke-width: 0.8"/>
      </g>
     </g>
     <g id="text_2">
      <!-- 20 -->
      <g transform="translate(150.997203 313.042187) scale(0.1 -0.1)">
       <defs>
        <path id="DejaVuSans-32" d="M 1228 531 
L 3431 531 
L 3431 0 
L 469 0 
L 469 531 
Q 828 903 1448 1529 
Q 2069 2156 2228 2338 
Q 2531 2678 2651 2914 
Q 2772 3150 2772 3378 
Q 2772 3750 2511 3984 
Q 2250 4219 1831 4219 
Q 1534 4219 1204 4116 
Q 875 4013 500 3803 
L 500 4441 
Q 881 4594 1212 4672 
Q 1544 4750 1819 4750 
Q 2544 4750 2975 4387 
Q 3406 4025 3406 3419 
Q 3406 3131 3298 2873 
Q 3191 2616 2906 2266 
Q 2828 2175 2409 1742 
Q 1991 1309 1228 531 
z
" transform="scale(0.015625)"/>
       </defs>
       <use xlink:href="#DejaVuSans-32"/>
       <use xlink:href="#DejaVuSans-30" transform="translate(63.623047 0)"/>
      </g>
     </g>
    </g>
    <g id="xtick_3">
     <g id="line2d_5">
      <path d="M 243.279634 298.44375 
L 243.279634 28.237 
" clip-path="url(#p6062c03b00)" style="fill: none; stroke-dasharray: 2.96,1.28; stroke-dashoffset: 0; stroke: #b0b0b0; stroke-opacity: 0.5; stroke-width: 0.8"/>
     </g>
     <g id="line2d_6">
      <g>
       <use xlink:href="#m89a2cd56ca" x="243.279634" y="298.44375" style="stroke: #000000; stroke-width: 0.8"/>
      </g>
     </g>
     <g id="text_3">
      <!-- 40 -->
      <g transform="translate(236.917134 313.042187) scale(0.1 -0.1)">
       <defs>
        <path id="DejaVuSans-34" d="M 2419 4116 
L 825 1625 
L 2419 1625 
L 2419 4116 
z
M 2253 4666 
L 3047 4666 
L 3047 1625 
L 3713 1625 
L 3713 1100 
L 3047 1100 
L 3047 0 
L 2419 0 
L 2419 1100 
L 313 1100 
L 313 1709 
L 2253 4666 
z
" transform="scale(0.015625)"/>
       </defs>
       <use xlink:href="#DejaVuSans-34"/>
       <use xlink:href="#DejaVuSans-30" transform="translate(63.623047 0)"/>
      </g>
     </g>
    </g>
    <g id="xtick_4">
     <g id="line2d_7">
      <path d="M 329.199565 298.44375 
L 329.199565 28.237 
" clip-path="url(#p6062c03b00)" style="fill: none; stroke-dasharray: 2.96,1.28; stroke-dashoffset: 0; stroke: #b0b0b0; stroke-opacity: 0.5; stroke-width: 0.8"/>
     </g>
     <g id="line2d_8">
      <g>
       <use xlink:href="#m89a2cd56ca" x="329.199565" y="298.44375" style="stroke: #000000; stroke-width: 0.8"/>
      </g>
     </g>
     <g id="text_4">
      <!-- 60 -->
      <g transform="translate(322.837065 313.042187) scale(0.1 -0.1)">
       <defs>
        <path id="DejaVuSans-36" d="M 2113 2584 
Q 1688 2584 1439 2293 
Q 1191 2003 1191 1497 
Q 1191 994 1439 701 
Q 1688 409 2113 409 
Q 2538 409 2786 701 
Q 3034 994 3034 1497 
Q 3034 2003 2786 2293 
Q 2538 2584 2113 2584 
z
M 3366 4563 
L 3366 3988 
Q 3128 4100 2886 4159 
Q 2644 4219 2406 4219 
Q 1781 4219 1451 3797 
Q 1122 3375 1075 2522 
Q 1259 2794 1537 2939 
Q 1816 3084 2150 3084 
Q 2853 3084 3261 2657 
Q 3669 2231 3669 1497 
Q 3669 778 3244 343 
Q 2819 -91 2113 -91 
Q 1303 -91 875 529 
Q 447 1150 447 2328 
Q 447 3434 972 4092 
Q 1497 4750 2381 4750 
Q 2619 4750 2861 4703 
Q 3103 4656 3366 4563 
z
" transform="scale(0.015625)"/>
       </defs>
       <use xlink:href="#DejaVuSans-36"/>
       <use xlink:href="#DejaVuSans-30" transform="translate(63.623047 0)"/>
      </g>
     </g>
    </g>
    <g id="xtick_5">
     <g id="line2d_9">
      <path d="M 415.119495 298.44375 
L 415.119495 28.237 
" clip-path="url(#p6062c03b00)" style="fill: none; stroke-dasharray: 2.96,1.28; stroke-dashoffset: 0; stroke: #b0b0b0; stroke-opacity: 0.5; stroke-width: 0.8"/>
     </g>
     <g id="line2d_10">
      <g>
       <use xlink:href="#m89a2cd56ca" x="415.119495" y="298.44375" style="stroke: #000000; stroke-width: 0.8"/>
      </g>
     </g>
     <g id="text_5">
      <!-- 80 -->
      <g transform="translate(408.756995 313.042187) scale(0.1 -0.1)">
       <defs>
        <path id="DejaVuSans-38" d="M 2034 2216 
Q 1584 2216 1326 1975 
Q 1069 1734 1069 1313 
Q 1069 891 1326 650 
Q 1584 409 2034 409 
Q 2484 409 2743 651 
Q 3003 894 3003 1313 
Q 3003 1734 2745 1975 
Q 2488 2216 2034 2216 
z
M 1403 2484 
Q 997 2584 770 2862 
Q 544 3141 544 3541 
Q 544 4100 942 4425 
Q 1341 4750 2034 4750 
Q 2731 4750 3128 4425 
Q 3525 4100 3525 3541 
Q 3525 3141 3298 2862 
Q 3072 2584 2669 2484 
Q 3125 2378 3379 2068 
Q 3634 1759 3634 1313 
Q 3634 634 3220 271 
Q 2806 -91 2034 -91 
Q 1263 -91 848 271 
Q 434 634 434 1313 
Q 434 1759 690 2068 
Q 947 2378 1403 2484 
z
M 1172 3481 
Q 1172 3119 1398 2916 
Q 1625 2713 2034 2713 
Q 2441 2713 2670 2916 
Q 2900 3119 2900 3481 
Q 2900 3844 2670 4047 
Q 2441 4250 2034 4250 
Q 1625 4250 1398 4047 
Q 1172 3844 1172 3481 
z
" transform="scale(0.015625)"/>
       </defs>
       <use xlink:href="#DejaVuSans-38"/>
       <use xlink:href="#DejaVuSans-30" transform="translate(63.623047 0)"/>
      </g>
     </g>
    </g>
    <g id="xtick_6">
     <g id="line2d_11">
      <path d="M 501.039426 298.44375 
L 501.039426 28.237 
" clip-path="url(#p6062c03b00)" style="fill: none; stroke-dasharray: 2.96,1.28; stroke-dashoffset: 0; stroke: #b0b0b0; stroke-opacity: 0.5; stroke-width: 0.8"/>
     </g>
     <g id="line2d_12">
      <g>
       <use xlink:href="#m89a2cd56ca" x="501.039426" y="298.44375" style="stroke: #000000; stroke-width: 0.8"/>
      </g>
     </g>
     <g id="text_6">
      <!-- 100 -->
      <g transform="translate(491.495676 313.042187) scale(0.1 -0.1)">
       <defs>
        <path id="DejaVuSans-31" d="M 794 531 
L 1825 531 
L 1825 4091 
L 703 3866 
L 703 4441 
L 1819 4666 
L 2450 4666 
L 2450 531 
L 3481 531 
L 3481 0 
L 794 0 
L 794 531 
z
" transform="scale(0.015625)"/>
       </defs>
       <use xlink:href="#DejaVuSans-31"/>
       <use xlink:href="#DejaVuSans-30" transform="translate(63.623047 0)"/>
       <use xlink:href="#DejaVuSans-30" transform="translate(127.246094 0)"/>
      </g>
     </g>
    </g>
    <g id="text_7">
     <!-- X (m) -->
     <g transform="translate(270.614062 326.720312) scale(0.1 -0.1)">
      <defs>
       <path id="DejaVuSans-58" d="M 403 4666 
L 1081 4666 
L 2241 2931 
L 3406 4666 
L 4084 4666 
L 2584 2425 
L 4184 0 
L 3506 0 
L 2194 1984 
L 872 0 
L 191 0 
L 1856 2491 
L 403 4666 
z
" transform="scale(0.015625)"/>
       <path id="DejaVuSans-20" transform="scale(0.015625)"/>
       <path id="DejaVuSans-28" d="M 1984 4856 
Q 1566 4138 1362 3434 
Q 1159 2731 1159 2009 
Q 1159 1288 1364 580 
Q 1569 -128 1984 -844 
L 1484 -844 
Q 1016 -109 783 600 
Q 550 1309 550 2009 
Q 550 2706 781 3412 
Q 1013 4119 1484 4856 
L 1984 4856 
z
" transform="scale(0.015625)"/>
       <path id="DejaVuSans-6d" d="M 3328 2828 
Q 3544 3216 3844 3400 
Q 4144 3584 4550 3584 
Q 5097 3584 5394 3201 
Q 5691 2819 5691 2113 
L 5691 0 
L 5113 0 
L 5113 2094 
Q 5113 2597 4934 2840 
Q 4756 3084 4391 3084 
Q 3944 3084 3684 2787 
Q 3425 2491 3425 1978 
L 3425 0 
L 2847 0 
L 2847 2094 
Q 2847 2600 2669 2842 
Q 2491 3084 2119 3084 
Q 1678 3084 1418 2786 
Q 1159 2488 1159 1978 
L 1159 0 
L 581 0 
L 581 3500 
L 1159 3500 
L 1159 2956 
Q 1356 3278 1631 3431 
Q 1906 3584 2284 3584 
Q 2666 3584 2933 3390 
Q 3200 3197 3328 2828 
z
" transform="scale(0.015625)"/>
       <path id="DejaVuSans-29" d="M 513 4856 
L 1013 4856 
Q 1481 4119 1714 3412 
Q 1947 2706 1947 2009 
Q 1947 1309 1714 600 
Q 1481 -109 1013 -844 
L 513 -844 
Q 928 -128 1133 580 
Q 1338 1288 1338 2009 
Q 1338 2731 1133 3434 
Q 928 4138 513 4856 
z
" transform="scale(0.015625)"/>
      </defs>
      <use xlink:href="#DejaVuSans-58"/>
      <use xlink:href="#DejaVuSans-20" transform="translate(68.505859 0)"/>
      <use xlink:href="#DejaVuSans-28" transform="translate(100.292969 0)"/>
      <use xlink:href="#DejaVuSans-6d" transform="translate(139.306641 0)"/>
      <use xlink:href="#DejaVuSans-29" transform="translate(236.71875 0)"/>
     </g>
    </g>
   </g>
   <g id="matplotlib.axis_2">
    <g id="ytick_1">
     <g id="line2d_13">
      <path d="M 50.14375 266.457339 
L 518.65625 266.457339 
" clip-path="url(#p6062c03b00)" style="fill: none; stroke-dasharray: 2.96,1.28; stroke-dashoffset: 0; stroke: #b0b0b0; stroke-opacity: 0.5; stroke-width: 0.8"/>
     </g>
     <g id="line2d_14">
      <defs>
       <path id="m2ec470766d" d="M 0 0 
L -3.5 0 
" style="stroke: #000000; stroke-width: 0.8"/>
      </defs>
      <g>
       <use xlink:href="#m2ec470766d" x="50.14375" y="266.457339" style="stroke: #000000; stroke-width: 0.8"/>
      </g>
     </g>
     <g id="text_8">
      <!-- −30 -->
      <g transform="translate(22.039063 270.256557) scale(0.1 -0.1)">
       <defs>
        <path id="DejaVuSans-2212" d="M 678 2272 
L 4684 2272 
L 4684 1741 
L 678 1741 
L 678 2272 
z
" transform="scale(0.015625)"/>
        <path id="DejaVuSans-33" d="M 2597 2516 
Q 3050 2419 3304 2112 
Q 3559 1806 3559 1356 
Q 3559 666 3084 287 
Q 2609 -91 1734 -91 
Q 1441 -91 1130 -33 
Q 819 25 488 141 
L 488 750 
Q 750 597 1062 519 
Q 1375 441 1716 441 
Q 2309 441 2620 675 
Q 2931 909 2931 1356 
Q 2931 1769 2642 2001 
Q 2353 2234 1838 2234 
L 1294 2234 
L 1294 2753 
L 1863 2753 
Q 2328 2753 2575 2939 
Q 2822 3125 2822 3475 
Q 2822 3834 2567 4026 
Q 2313 4219 1838 4219 
Q 1578 4219 1281 4162 
Q 984 4106 628 3988 
L 628 4550 
Q 988 4650 1302 4700 
Q 1616 4750 1894 4750 
Q 2613 4750 3031 4423 
Q 3450 4097 3450 3541 
Q 3450 3153 3228 2886 
Q 3006 2619 2597 2516 
z
" transform="scale(0.015625)"/>
       </defs>
       <use xlink:href="#DejaVuSans-2212"/>
       <use xlink:href="#DejaVuSans-33" transform="translate(83.789062 0)"/>
       <use xlink:href="#DejaVuSans-30" transform="translate(147.412109 0)"/>
      </g>
     </g>
    </g>
    <g id="ytick_2">
     <g id="line2d_15">
      <path d="M 50.14375 223.497373 
L 518.65625 223.497373 
" clip-path="url(#p6062c03b00)" style="fill: none; stroke-dasharray: 2.96,1.28; stroke-dashoffset: 0; stroke: #b0b0b0; stroke-opacity: 0.5; stroke-width: 0.8"/>
     </g>
     <g id="line2d_16">
      <g>
       <use xlink:href="#m2ec470766d" x="50.14375" y="223.497373" style="stroke: #000000; stroke-width: 0.8"/>
      </g>
     </g>
     <g id="text_9">
      <!-- −20 -->
      <g transform="translate(22.039063 227.296592) scale(0.1 -0.1)">
       <use xlink:href="#DejaVuSans-2212"/>
       <use xlink:href="#DejaVuSans-32" transform="translate(83.789062 0)"/>
       <use xlink:href="#DejaVuSans-30" transform="translate(147.412109 0)"/>
      </g>
     </g>
    </g>
    <g id="ytick_3">
     <g id="line2d_17">
      <path d="M 50.14375 180.537408 
L 518.65625 180.537408 
" clip-path="url(#p6062c03b00)" style="fill: none; stroke-dasharray: 2.96,1.28; stroke-dashoffset: 0; stroke: #b0b0b0; stroke-opacity: 0.5; stroke-width: 0.8"/>
     </g>
     <g id="line2d_18">
      <g>
       <use xlink:href="#m2ec470766d" x="50.14375" y="180.537408" style="stroke: #000000; stroke-width: 0.8"/>
      </g>
     </g>
     <g id="text_10">
      <!-- −10 -->
      <g transform="translate(22.039063 184.336627) scale(0.1 -0.1)">
       <use xlink:href="#DejaVuSans-2212"/>
       <use xlink:href="#DejaVuSans-31" transform="translate(83.789062 0)"/>
       <use xlink:href="#DejaVuSans-30" transform="translate(147.412109 0)"/>
      </g>
     </g>
    </g>
    <g id="ytick_4">
     <g id="line2d_19">
      <path d="M 50.14375 137.577443 
L 518.65625 137.577443 
" clip-path="url(#p6062c03b00)" style="fill: none; stroke-dasharray: 2.96,1.28; stroke-dashoffset: 0; stroke: #b0b0b0; stroke-opacity: 0.5; stroke-width: 0.8"/>
     </g>
     <g id="line2d_20">
      <g>
       <use xlink:href="#m2ec470766d" x="50.14375" y="137.577443" style="stroke: #000000; stroke-width: 0.8"/>
      </g>
     </g>
     <g id="text_11">
      <!-- 0 -->
      <g transform="translate(36.78125 141.376661) scale(0.1 -0.1)">
       <use xlink:href="#DejaVuSans-30"/>
      </g>
     </g>
    </g>
    <g id="ytick_5">
     <g id="line2d_21">
      <path d="M 50.14375 94.617477 
L 518.65625 94.617477 
" clip-path="url(#p6062c03b00)" style="fill: none; stroke-dasharray: 2.96,1.28; stroke-dashoffset: 0; stroke: #b0b0b0; stroke-opacity: 0.5; stroke-width: 0.8"/>
     </g>
     <g id="line2d_22">
      <g>
       <use xlink:href="#m2ec470766d" x="50.14375" y="94.617477" style="stroke: #000000; stroke-width: 0.8"/>
      </g>
     </g>
     <g id="text_12">
      <!-- 10 -->
      <g transform="translate(30.41875 98.416696) scale(0.1 -0.1)">
       <use xlink:href="#DejaVuSans-31"/>
       <use xlink:href="#DejaVuSans-30" transform="translate(63.623047 0)"/>
      </g>
     </g>
    </g>
    <g id="ytick_6">
     <g id="line2d_23">
      <path d="M 50.14375 51.657512 
L 518.65625 51.657512 
" clip-path="url(#p6062c03b00)" style="fill: none; stroke-dasharray: 2.96,1.28; stroke-dashoffset: 0; stroke: #b0b0b0; stroke-opacity: 0.5; stroke-width: 0.8"/>
     </g>
     <g id="line2d_24">
      <g>
       <use xlink:href="#m2ec470766d" x="50.14375" y="51.657512" style="stroke: #000000; stroke-width: 0.8"/>
      </g>
     </g>
     <g id="text_13">
      <!-- 20 -->
      <g transform="translate(30.41875 55.456731) scale(0.1 -0.1)">
       <use xlink:href="#DejaVuSans-32"/>
       <use xlink:href="#DejaVuSans-30" transform="translate(63.623047 0)"/>
      </g>
     </g>
    </g>
    <g id="text_14">
     <!-- Y (m) -->
     <g transform="translate(15.959375 176.755219) rotate(-90) scale(0.1 -0.1)">
      <defs>
       <path id="DejaVuSans-59" d="M -13 4666 
L 666 4666 
L 1959 2747 
L 3244 4666 
L 3922 4666 
L 2272 2222 
L 2272 0 
L 1638 0 
L 1638 2222 
L -13 4666 
z
" transform="scale(0.015625)"/>
      </defs>
      <use xlink:href="#DejaVuSans-59"/>
      <use xlink:href="#DejaVuSans-20" transform="translate(61.083984 0)"/>
      <use xlink:href="#DejaVuSans-28" transform="translate(92.871094 0)"/>
      <use xlink:href="#DejaVuSans-6d" transform="translate(131.884766 0)"/>
      <use xlink:href="#DejaVuSans-29" transform="translate(229.296875 0)"/>
     </g>
    </g>
   </g>
   <g id="line2d_25">
    <path d="M 71.439773 137.577443 
L 75.735761 137.584604 
L 80.031701 137.606084 
L 84.327548 137.641883 
L 88.623248 137.692 
L 92.918763 137.756435 
L 97.214034 137.835185 
L 101.509021 137.92825 
L 105.803672 138.035615 
L 110.097942 138.157282 
L 114.391786 138.293237 
L 118.685154 138.44346 
L 122.977997 138.607941 
L 127.270273 138.786654 
L 131.561935 138.979566 
L 135.852935 139.18665 
L 140.143231 139.407859 
L 144.432779 139.643155 
L 148.721533 139.892474 
L 153.009453 140.155754 
L 157.296496 140.432927 
L 161.582625 140.723912 
L 165.8678 141.028619 
L 170.151982 141.346948 
L 174.435143 141.678792 
L 178.717242 142.024027 
L 182.998254 142.382528 
L 187.278145 142.754153 
L 191.556888 143.138752 
L 195.834464 143.536157 
L 200.110845 143.946202 
L 204.38601 144.368704 
L 208.659951 144.803468 
L 212.932646 145.25029 
L 217.204086 145.708957 
L 221.474264 146.179239 
L 225.74317 146.660911 
L 230.010804 147.15373 
L 234.277167 147.65744 
L 238.542263 148.171783 
L 242.806091 148.696491 
L 247.068669 149.231296 
L 251.330005 149.775908 
L 255.590113 150.330044 
L 259.849009 150.893412 
L 264.106711 151.465712 
L 268.363249 152.046643 
L 272.61864 152.635903 
L 276.872914 153.23318 
L 281.126096 153.838163 
L 285.378222 154.450549 
L 289.629321 155.070019 
L 293.879428 155.696263 
L 298.128576 156.328969 
L 302.376802 156.967836 
L 306.624146 157.612544 
L 310.870644 158.262804 
L 315.116339 158.918308 
L 319.36126 159.578762 
L 323.60546 160.243881 
L 327.848968 160.913373 
L 332.091827 161.586964 
L 336.334077 162.264387 
L 340.575754 162.945371 
L 344.8169 163.629667 
L 349.057551 164.317031 
L 353.297747 165.007213 
L 357.537513 165.699998 
L 361.776893 166.395159 
L 366.015916 167.092485 
L 370.254616 167.791788 
L 374.493021 168.492869 
L 378.731159 169.195552 
L 382.969056 169.899674 
L 387.206743 170.605073 
L 391.444246 171.311609 
L 395.681576 172.019139 
L 399.918765 172.72754 
L 404.155824 173.436701 
L 408.392772 174.146516 
L 412.62963 174.856885 
L 416.866411 175.567726 
L 421.103123 176.278963 
L 425.339779 176.990526 
L 429.576392 177.70236 
L 433.812966 178.414408 
L 438.049514 179.126629 
L 442.286037 179.838978 
L 446.522547 180.551435 
L 450.75904 181.263968 
L 454.995524 181.976554 
L 459.232004 182.689178 
L 463.468475 183.401832 
L 467.70495 184.1145 
L 471.941417 184.82718 
L 476.177888 185.539864 
L 480.414355 186.252553 
L 484.650822 186.965241 
L 488.887293 187.67793 
L 493.12376 188.390619 
L 497.360227 189.103307 
" clip-path="url(#p6062c03b00)" style="fill: none; stroke: #1f77b4; stroke-width: 1.5; stroke-linecap: square"/>
   </g>
   <g id="patch_3">
    <path d="M 50.14375 298.44375 
L 50.14375 28.237 
" style="fill: none; stroke: #000000; stroke-width: 0.8; stroke-linejoin: miter; stroke-linecap: square"/>
   </g>
   <g id="patch_4">
    <path d="M 518.65625 298.44375 
L 518.65625 28.237 
" style="fill: none; stroke: #000000; stroke-width: 0.8; stroke-linejoin: miter; stroke-linecap: square"/>
   </g>
   <g id="patch_5">
    <path d="M 50.14375 298.44375 
L 518.65625 298.44375 
" style="fill: none; stroke: #000000; stroke-width: 0.8; stroke-linejoin: miter; stroke-linecap: square"/>
   </g>
   <g id="patch_6">
    <path d="M 50.14375 28.237 
L 518.65625 28.237 
" style="fill: none; stroke: #000000; stroke-width: 0.8; stroke-linejoin: miter; stroke-linecap: square"/>
   </g>
   <g id="text_15">
    <!-- Horizontal — VienneseBend -->
    <g transform="translate(228.85875 13.27875) scale(0.08 -0.08)">
     <defs>
      <path id="DejaVuSans-48" d="M 628 4666 
L 1259 4666 
L 1259 2753 
L 3553 2753 
L 3553 4666 
L 4184 4666 
L 4184 0 
L 3553 0 
L 3553 2222 
L 1259 2222 
L 1259 0 
L 628 0 
L 628 4666 
z
" transform="scale(0.015625)"/>
      <path id="DejaVuSans-6f" d="M 1959 3097 
Q 1497 3097 1228 2736 
Q 959 2375 959 1747 
Q 959 1119 1226 758 
Q 1494 397 1959 397 
Q 2419 397 2687 759 
Q 2956 1122 2956 1747 
Q 2956 2369 2687 2733 
Q 2419 3097 1959 3097 
z
M 1959 3584 
Q 2709 3584 3137 3096 
Q 3566 2609 3566 1747 
Q 3566 888 3137 398 
Q 2709 -91 1959 -91 
Q 1206 -91 779 398 
Q 353 888 353 1747 
Q 353 2609 779 3096 
Q 1206 3584 1959 3584 
z
" transform="scale(0.015625)"/>
      <path id="DejaVuSans-72" d="M 2631 2963 
Q 2534 3019 2420 3045 
Q 2306 3072 2169 3072 
Q 1681 3072 1420 2755 
Q 1159 2438 1159 1844 
L 1159 0 
L 581 0 
L 581 3500 
L 1159 3500 
L 1159 2956 
Q 1341 3275 1631 3429 
Q 1922 3584 2338 3584 
Q 2397 3584 2469 3576 
Q 2541 3569 2628 3553 
L 2631 2963 
z
" transform="scale(0.015625)"/>
      <path id="DejaVuSans-69" d="M 603 3500 
L 1178 3500 
L 1178 0 
L 603 0 
L 603 3500 
z
M 603 4863 
L 1178 4863 
L 1178 4134 
L 603 4134 
L 603 4863 
z
" transform="scale(0.015625)"/>
      <path id="DejaVuSans-7a" d="M 353 3500 
L 3084 3500 
L 3084 2975 
L 922 459 
L 3084 459 
L 3084 0 
L 275 0 
L 275 525 
L 2438 3041 
L 353 3041 
L 353 3500 
z
" transform="scale(0.015625)"/>
      <path id="DejaVuSans-6e" d="M 3513 2113 
L 3513 0 
L 2938 0 
L 2938 2094 
Q 2938 2591 2744 2837 
Q 2550 3084 2163 3084 
Q 1697 3084 1428 2787 
Q 1159 2491 1159 1978 
L 1159 0 
L 581 0 
L 581 3500 
L 1159 3500 
L 1159 2956 
Q 1366 3272 1645 3428 
Q 1925 3584 2291 3584 
Q 2894 3584 3203 3211 
Q 3513 2838 3513 2113 
z
" transform="scale(0.015625)"/>
      <path id="DejaVuSans-74" d="M 1172 4494 
L 1172 3500 
L 2356 3500 
L 2356 3053 
L 1172 3053 
L 1172 1153 
Q 1172 725 1289 603 
Q 1406 481 1766 481 
L 2356 481 
L 2356 0 
L 1766 0 
Q 1100 0 847 248 
Q 594 497 594 1153 
L 594 3053 
L 172 3053 
L 172 3500 
L 594 3500 
L 594 4494 
L 1172 4494 
z
" transform="scale(0.015625)"/>
      <path id="DejaVuSans-61" d="M 2194 1759 
Q 1497 1759 1228 1600 
Q 959 1441 959 1056 
Q 959 750 1161 570 
Q 1363 391 1709 391 
Q 2188 391 2477 730 
Q 2766 1069 2766 1631 
L 2766 1759 
L 2194 1759 
z
M 3341 1997 
L 3341 0 
L 2766 0 
L 2766 531 
Q 2569 213 2275 61 
Q 1981 -91 1556 -91 
Q 1019 -91 701 211 
Q 384 513 384 1019 
Q 384 1609 779 1909 
Q 1175 2209 1959 2209 
L 2766 2209 
L 2766 2266 
Q 2766 2663 2505 2880 
Q 2244 3097 1772 3097 
Q 1472 3097 1187 3025 
Q 903 2953 641 2809 
L 641 3341 
Q 956 3463 1253 3523 
Q 1550 3584 1831 3584 
Q 2591 3584 2966 3190 
Q 3341 2797 3341 1997 
z
" transform="scale(0.015625)"/>
      <path id="DejaVuSans-6c" d="M 603 4863 
L 1178 4863 
L 1178 0 
L 603 0 
L 603 4863 
z
" transform="scale(0.015625)"/>
      <path id="DejaVuSans-2014" d="M 313 1978 
L 6088 1978 
L 6088 1528 
L 313 1528 
L 313 1978 
z
" transform="scale(0.015625)"/>
      <path id="DejaVuSans-56" d="M 1831 0 
L 50 4666 
L 709 4666 
L 2188 738 
L 3669 4666 
L 4325 4666 
L 2547 0 
L 1831 0 
z
" transform="scale(0.015625)"/>
      <path id="DejaVuSans-65" d="M 3597 1894 
L 3597 1613 
L 953 1613 
Q 991 1019 1311 708 
Q 1631 397 2203 397 
Q 2534 397 2845 478 
Q 3156 559 3463 722 
L 3463 178 
Q 3153 47 2828 -22 
Q 2503 -91 2169 -91 
Q 1331 -91 842 396 
Q 353 884 353 1716 
Q 353 2575 817 3079 
Q 1281 3584 2069 3584 
Q 2775 3584 3186 3129 
Q 3597 2675 3597 1894 
z
M 3022 2063 
Q 3016 2534 2758 2815 
Q 2500 3097 2075 3097 
Q 1594 3097 1305 2825 
Q 1016 2553 972 2059 
L 3022 2063 
z
" transform="scale(0.015625)"/>
      <path id="DejaVuSans-73" d="M 2834 3397 
L 2834 2853 
Q 2591 2978 2328 3040 
Q 2066 3103 1784 3103 
Q 1356 3103 1142 2972 
Q 928 2841 928 2578 
Q 928 2378 1081 2264 
Q 1234 2150 1697 2047 
L 1894 2003 
Q 2506 1872 2764 1633 
Q 3022 1394 3022 966 
Q 3022 478 2636 193 
Q 2250 -91 1575 -91 
Q 1294 -91 989 -36 
Q 684 19 347 128 
L 347 722 
Q 666 556 975 473 
Q 1284 391 1588 391 
Q 1994 391 2212 530 
Q 2431 669 2431 922 
Q 2431 1156 2273 1281 
Q 2116 1406 1581 1522 
L 1381 1569 
Q 847 1681 609 1914 
Q 372 2147 372 2553 
Q 372 3047 722 3315 
Q 1072 3584 1716 3584 
Q 2034 3584 2315 3537 
Q 2597 3491 2834 3397 
z
" transform="scale(0.015625)"/>
      <path id="DejaVuSans-42" d="M 1259 2228 
L 1259 519 
L 2272 519 
Q 2781 519 3026 730 
Q 3272 941 3272 1375 
Q 3272 1813 3026 2020 
Q 2781 2228 2272 2228 
L 1259 2228 
z
M 1259 4147 
L 1259 2741 
L 2194 2741 
Q 2656 2741 2882 2914 
Q 3109 3088 3109 3444 
Q 3109 3797 2882 3972 
Q 2656 4147 2194 4147 
L 1259 4147 
z
M 628 4666 
L 2241 4666 
Q 2963 4666 3353 4366 
Q 3744 4066 3744 3513 
Q 3744 3084 3544 2831 
Q 3344 2578 2956 2516 
Q 3422 2416 3680 2098 
Q 3938 1781 3938 1306 
Q 3938 681 3513 340 
Q 3088 0 2303 0 
L 628 0 
L 628 4666 
z
" transform="scale(0.015625)"/>
      <path id="DejaVuSans-64" d="M 2906 2969 
L 2906 4863 
L 3481 4863 
L 3481 0 
L 2906 0 
L 2906 525 
Q 2725 213 2448 61 
Q 2172 -91 1784 -91 
Q 1150 -91 751 415 
Q 353 922 353 1747 
Q 353 2572 751 3078 
Q 1150 3584 1784 3584 
Q 2172 3584 2448 3432 
Q 2725 3281 2906 2969 
z
M 947 1747 
Q 947 1113 1208 752 
Q 1469 391 1925 391 
Q 2381 391 2643 752 
Q 2906 1113 2906 1747 
Q 2906 2381 2643 2742 
Q 2381 3103 1925 3103 
Q 1469 3103 1208 2742 
Q 947 2381 947 1747 
z
" transform="scale(0.015625)"/>
     </defs>
     <use xlink:href="#DejaVuSans-48"/>
     <use xlink:href="#DejaVuSans-6f" transform="translate(75.195312 0)"/>
     <use xlink:href="#DejaVuSans-72" transform="translate(136.376953 0)"/>
     <use xlink:href="#DejaVuSans-69" transform="translate(177.490234 0)"/>
     <use xlink:href="#DejaVuSans-7a" transform="translate(205.273438 0)"/>
     <use xlink:href="#DejaVuSans-6f" transform="translate(257.763672 0)"/>
     <use xlink:href="#DejaVuSans-6e" transform="translate(318.945312 0)"/>
     <use xlink:href="#DejaVuSans-74" transform="translate(382.324219 0)"/>
     <use xlink:href="#DejaVuSans-61" transform="translate(421.533203 0)"/>
     <use xlink:href="#DejaVuSans-6c" transform="translate(482.8125 0)"/>
     <use xlink:href="#DejaVuSans-20" transform="translate(510.595703 0)"/>
     <use xlink:href="#DejaVuSans-2014" transform="translate(542.382812 0)"/>
     <use xlink:href="#DejaVuSans-20" transform="translate(642.382812 0)"/>
     <use xlink:href="#DejaVuSans-56" transform="translate(674.169922 0)"/>
     <use xlink:href="#DejaVuSans-69" transform="translate(740.328125 0)"/>
     <use xlink:href="#DejaVuSans-65" transform="translate(768.111328 0)"/>
     <use xlink:href="#DejaVuSans-6e" transform="translate(829.634766 0)"/>
     <use xlink:href="#DejaVuSans-6e" transform="translate(893.013672 0)"/>
     <use xlink:href="#DejaVuSans-65" transform="translate(956.392578 0)"/>
     <use xlink:href="#DejaVuSans-73" transform="translate(1017.916016 0)"/>
     <use xlink:href="#DejaVuSans-65" transform="translate(1070.015625 0)"/>
     <use xlink:href="#DejaVuSans-42" transform="translate(1131.539062 0)"/>
     <use xlink:href="#DejaVuSans-65" transform="translate(1200.142578 0)"/>
     <use xlink:href="#DejaVuSans-6e" transform="translate(1261.666016 0)"/>
     <use xlink:href="#DejaVuSans-64" transform="translate(1325.044922 0)"/>
    </g>
    <!-- Horizontal_VienneseBend_100.0_-300_-inf_1_Meter -->
    <g transform="translate(182.243125 22.237) scale(0.08 -0.08)">
     <defs>
      <path id="DejaVuSans-5f" d="M 3263 -1063 
L 3263 -1509 
L -63 -1509 
L -63 -1063 
L 3263 -1063 
z
" transform="scale(0.015625)"/>
      <path id="DejaVuSans-2e" d="M 684 794 
L 1344 794 
L 1344 0 
L 684 0 
L 684 794 
z
" transform="scale(0.015625)"/>
      <path id="DejaVuSans-2d" d="M 313 2009 
L 1997 2009 
L 1997 1497 
L 313 1497 
L 313 2009 
z
" transform="scale(0.015625)"/>
      <path id="DejaVuSans-66" d="M 2375 4863 
L 2375 4384 
L 1825 4384 
Q 1516 4384 1395 4259 
Q 1275 4134 1275 3809 
L 1275 3500 
L 2222 3500 
L 2222 3053 
L 1275 3053 
L 1275 0 
L 697 0 
L 697 3053 
L 147 3053 
L 147 3500 
L 697 3500 
L 697 3744 
Q 697 4328 969 4595 
Q 1241 4863 1831 4863 
L 2375 4863 
z
" transform="scale(0.015625)"/>
      <path id="DejaVuSans-4d" d="M 628 4666 
L 1569 4666 
L 2759 1491 
L 3956 4666 
L 4897 4666 
L 4897 0 
L 4281 0 
L 4281 4097 
L 3078 897 
L 2444 897 
L 1241 4097 
L 1241 0 
L 628 0 
L 628 4666 
z
" transform="scale(0.015625)"/>
     </defs>
     <use xlink:href="#DejaVuSans-48"/>
     <use xlink:href="#DejaVuSans-6f" transform="translate(75.195312 0)"/>
     <use xlink:href="#DejaVuSans-72" transform="translate(136.376953 0)"/>
     <use xlink:href="#DejaVuSans-69" transform="translate(177.490234 0)"/>
     <use xlink:href="#DejaVuSans-7a" transform="translate(205.273438 0)"/>
     <use xlink:href="#DejaVuSans-6f" transform="translate(257.763672 0)"/>
     <use xlink:href="#DejaVuSans-6e" transform="translate(318.945312 0)"/>
     <use xlink:href="#DejaVuSans-74" transform="translate(382.324219 0)"/>
     <use xlink:href="#DejaVuSans-61" transform="translate(421.533203 0)"/>
     <use xlink:href="#DejaVuSans-6c" transform="translate(482.8125 0)"/>
     <use xlink:href="#DejaVuSans-5f" transform="translate(510.595703 0)"/>
     <use xlink:href="#DejaVuSans-56" transform="translate(560.595703 0)"/>
     <use xlink:href="#DejaVuSans-69" transform="translate(626.753906 0)"/>
     <use xlink:href="#DejaVuSans-65" transform="translate(654.537109 0)"/>
     <use xlink:href="#DejaVuSans-6e" transform="translate(716.060547 0)"/>
     <use xlink:href="#DejaVuSans-6e" transform="translate(779.439453 0)"/>
     <use xlink:href="#DejaVuSans-65" transform="translate(842.818359 0)"/>
     <use xlink:href="#DejaVuSans-73" transform="translate(904.341797 0)"/>
     <use xlink:href="#DejaVuSans-65" transform="translate(956.441406 0)"/>
     <use xlink:href="#DejaVuSans-42" transform="translate(1017.964844 0)"/>
     <use xlink:href="#DejaVuSans-65" transform="translate(1086.568359 0)"/>
     <use xlink:href="#DejaVuSans-6e" transform="translate(1148.091797 0)"/>
     <use xlink:href="#DejaVuSans-64" transform="translate(1211.470703 0)"/>
     <use xlink:href="#DejaVuSans-5f" transform="translate(1274.947266 0)"/>
     <use xlink:href="#DejaVuSans-31" transform="translate(1324.947266 0)"/>
     <use xlink:href="#DejaVuSans-30" transform="translate(1388.570312 0)"/>
     <use xlink:href="#DejaVuSans-30" transform="translate(1452.193359 0)"/>
     <use xlink:href="#DejaVuSans-2e" transform="translate(1515.816406 0)"/>
     <use xlink:href="#DejaVuSans-30" transform="translate(1547.603516 0)"/>
     <use xlink:href="#DejaVuSans-5f" transform="translate(1611.226562 0)"/>
     <use xlink:href="#DejaVuSans-2d" transform="translate(1661.226562 0)"/>
     <use xlink:href="#DejaVuSans-33" transform="translate(1697.310547 0)"/>
     <use xlink:href="#DejaVuSans-30" transform="translate(1760.933594 0)"/>
     <use xlink:href="#DejaVuSans-30" transform="translate(1824.556641 0)"/>
     <use xlink:href="#DejaVuSans-5f" transform="translate(1888.179688 0)"/>
     <use xlink:href="#DejaVuSans-2d" transform="translate(1938.179688 0)"/>
     <use xlink:href="#DejaVuSans-69" transform="translate(1974.263672 0)"/>
     <use xlink:href="#DejaVuSans-6e" transform="translate(2002.046875 0)"/>
     <use xlink:href="#DejaVuSans-66" transform="translate(2065.425781 0)"/>
     <use xlink:href="#DejaVuSans-5f" transform="translate(2100.630859 0)"/>
     <use xlink:href="#DejaVuSans-31" transform="translate(2150.630859 0)"/>
     <use xlink:href="#DejaVuSans-5f" transform="translate(2214.253906 0)"/>
     <use xlink:href="#DejaVuSans-4d" transform="translate(2264.253906 0)"/>
     <use xlink:href="#DejaVuSans-65" transform="translate(2350.533203 0)"/>
     <use xlink:href="#DejaVuSans-74" transform="translate(2412.056641 0)"/>
     <use xlink:href="#DejaVuSans-65" transform="translate(2451.265625 0)"/>
     <use xlink:href="#DejaVuSans-72" transform="translate(2512.789062 0)"/>
    </g>
   </g>
  </g>
  <g id="axes_2">
   <g id="patch_7">
    <path d="M 50.14375 630.84375 
L 518.65625 630.84375 
L 518.65625 360.637 
L 50.14375 360.637 
z
" style="fill: #ffffff"/>
   </g>
   <g id="matplotlib.axis_3">
    <g id="xtick_7">
     <g id="line2d_26">
      <path d="M 71.439773 630.84375 
L 71.439773 360.637 
" clip-path="url(#p6817efb2a2)" style="fill: none; stroke-dasharray: 2.96,1.28; stroke-dashoffset: 0; stroke: #b0b0b0; stroke-opacity: 0.5; stroke-width: 0.8"/>
     </g>
     <g id="line2d_27">
      <g>
       <use xlink:href="#m89a2cd56ca" x="71.439773" y="630.84375" style="stroke: #000000; stroke-width: 0.8"/>
      </g>
     </g>
     <g id="text_16">
      <!-- 0 -->
      <g transform="translate(68.258523 645.442188) scale(0.1 -0.1)">
       <use xlink:href="#DejaVuSans-30"/>
      </g>
     </g>
    </g>
    <g id="xtick_8">
     <g id="line2d_28">
      <path d="M 136.35018 630.84375 
L 136.35018 360.637 
" clip-path="url(#p6817efb2a2)" style="fill: none; stroke-dasharray: 2.96,1.28; stroke-dashoffset: 0; stroke: #b0b0b0; stroke-opacity: 0.5; stroke-width: 0.8"/>
     </g>
     <g id="line2d_29">
      <g>
       <use xlink:href="#m89a2cd56ca" x="136.35018" y="630.84375" style="stroke: #000000; stroke-width: 0.8"/>
      </g>
     </g>
     <g id="text_17">
      <!-- 50 -->
      <g transform="translate(129.98768 645.442188) scale(0.1 -0.1)">
       <defs>
        <path id="DejaVuSans-35" d="M 691 4666 
L 3169 4666 
L 3169 4134 
L 1269 4134 
L 1269 2991 
Q 1406 3038 1543 3061 
Q 1681 3084 1819 3084 
Q 2600 3084 3056 2656 
Q 3513 2228 3513 1497 
Q 3513 744 3044 326 
Q 2575 -91 1722 -91 
Q 1428 -91 1123 -41 
Q 819 9 494 109 
L 494 744 
Q 775 591 1075 516 
Q 1375 441 1709 441 
Q 2250 441 2565 725 
Q 2881 1009 2881 1497 
Q 2881 1984 2565 2268 
Q 2250 2553 1709 2553 
Q 1456 2553 1204 2497 
Q 953 2441 691 2322 
L 691 4666 
z
" transform="scale(0.015625)"/>
       </defs>
       <use xlink:href="#DejaVuSans-35"/>
       <use xlink:href="#DejaVuSans-30" transform="translate(63.623047 0)"/>
      </g>
     </g>
    </g>
    <g id="xtick_9">
     <g id="line2d_30">
      <path d="M 201.260587 630.84375 
L 201.260587 360.637 
" clip-path="url(#p6817efb2a2)" style="fill: none; stroke-dasharray: 2.96,1.28; stroke-dashoffset: 0; stroke: #b0b0b0; stroke-opacity: 0.5; stroke-width: 0.8"/>
     </g>
     <g id="line2d_31">
      <g>
       <use xlink:href="#m89a2cd56ca" x="201.260587" y="630.84375" style="stroke: #000000; stroke-width: 0.8"/>
      </g>
     </g>
     <g id="text_18">
      <!-- 100 -->
      <g transform="translate(191.716837 645.442188) scale(0.1 -0.1)">
       <use xlink:href="#DejaVuSans-31"/>
       <use xlink:href="#DejaVuSans-30" transform="translate(63.623047 0)"/>
       <use xlink:href="#DejaVuSans-30" transform="translate(127.246094 0)"/>
      </g>
     </g>
    </g>
    <g id="xtick_10">
     <g id="line2d_32">
      <path d="M 266.170994 630.84375 
L 266.170994 360.637 
" clip-path="url(#p6817efb2a2)" style="fill: none; stroke-dasharray: 2.96,1.28; stroke-dashoffset: 0; stroke: #b0b0b0; stroke-opacity: 0.5; stroke-width: 0.8"/>
     </g>
     <g id="line2d_33">
      <g>
       <use xlink:href="#m89a2cd56ca" x="266.170994" y="630.84375" style="stroke: #000000; stroke-width: 0.8"/>
      </g>
     </g>
     <g id="text_19">
      <!-- 150 -->
      <g transform="translate(256.627244 645.442188) scale(0.1 -0.1)">
       <use xlink:href="#DejaVuSans-31"/>
       <use xlink:href="#DejaVuSans-35" transform="translate(63.623047 0)"/>
       <use xlink:href="#DejaVuSans-30" transform="translate(127.246094 0)"/>
      </g>
     </g>
    </g>
    <g id="xtick_11">
     <g id="line2d_34">
      <path d="M 331.081401 630.84375 
L 331.081401 360.637 
" clip-path="url(#p6817efb2a2)" style="fill: none; stroke-dasharray: 2.96,1.28; stroke-dashoffset: 0; stroke: #b0b0b0; stroke-opacity: 0.5; stroke-width: 0.8"/>
     </g>
     <g id="line2d_35">
      <g>
       <use xlink:href="#m89a2cd56ca" x="331.081401" y="630.84375" style="stroke: #000000; stroke-width: 0.8"/>
      </g>
     </g>
     <g id="text_20">
      <!-- 200 -->
      <g transform="translate(321.537651 645.442188) scale(0.1 -0.1)">
       <use xlink:href="#DejaVuSans-32"/>
       <use xlink:href="#DejaVuSans-30" transform="translate(63.623047 0)"/>
       <use xlink:href="#DejaVuSans-30" transform="translate(127.246094 0)"/>
      </g>
     </g>
    </g>
    <g id="xtick_12">
     <g id="line2d_36">
      <path d="M 395.991808 630.84375 
L 395.991808 360.637 
" clip-path="url(#p6817efb2a2)" style="fill: none; stroke-dasharray: 2.96,1.28; stroke-dashoffset: 0; stroke: #b0b0b0; stroke-opacity: 0.5; stroke-width: 0.8"/>
     </g>
     <g id="line2d_37">
      <g>
       <use xlink:href="#m89a2cd56ca" x="395.991808" y="630.84375" style="stroke: #000000; stroke-width: 0.8"/>
      </g>
     </g>
     <g id="text_21">
      <!-- 250 -->
      <g transform="translate(386.448058 645.442188) scale(0.1 -0.1)">
       <use xlink:href="#DejaVuSans-32"/>
       <use xlink:href="#DejaVuSans-35" transform="translate(63.623047 0)"/>
       <use xlink:href="#DejaVuSans-30" transform="translate(127.246094 0)"/>
      </g>
     </g>
    </g>
    <g id="xtick_13">
     <g id="line2d_38">
      <path d="M 460.902216 630.84375 
L 460.902216 360.637 
" clip-path="url(#p6817efb2a2)" style="fill: none; stroke-dasharray: 2.96,1.28; stroke-dashoffset: 0; stroke: #b0b0b0; stroke-opacity: 0.5; stroke-width: 0.8"/>
     </g>
     <g id="line2d_39">
      <g>
       <use xlink:href="#m89a2cd56ca" x="460.902216" y="630.84375" style="stroke: #000000; stroke-width: 0.8"/>
      </g>
     </g>
     <g id="text_22">
      <!-- 300 -->
      <g transform="translate(451.358466 645.442188) scale(0.1 -0.1)">
       <use xlink:href="#DejaVuSans-33"/>
       <use xlink:href="#DejaVuSans-30" transform="translate(63.623047 0)"/>
       <use xlink:href="#DejaVuSans-30" transform="translate(127.246094 0)"/>
      </g>
     </g>
    </g>
    <g id="text_23">
     <!-- Distance Along (US survey ft) -->
     <g transform="translate(210.777344 659.120313) scale(0.1 -0.1)">
      <defs>
       <path id="DejaVuSans-44" d="M 1259 4147 
L 1259 519 
L 2022 519 
Q 2988 519 3436 956 
Q 3884 1394 3884 2338 
Q 3884 3275 3436 3711 
Q 2988 4147 2022 4147 
L 1259 4147 
z
M 628 4666 
L 1925 4666 
Q 3281 4666 3915 4102 
Q 4550 3538 4550 2338 
Q 4550 1131 3912 565 
Q 3275 0 1925 0 
L 628 0 
L 628 4666 
z
" transform="scale(0.015625)"/>
       <path id="DejaVuSans-63" d="M 3122 3366 
L 3122 2828 
Q 2878 2963 2633 3030 
Q 2388 3097 2138 3097 
Q 1578 3097 1268 2742 
Q 959 2388 959 1747 
Q 959 1106 1268 751 
Q 1578 397 2138 397 
Q 2388 397 2633 464 
Q 2878 531 3122 666 
L 3122 134 
Q 2881 22 2623 -34 
Q 2366 -91 2075 -91 
Q 1284 -91 818 406 
Q 353 903 353 1747 
Q 353 2603 823 3093 
Q 1294 3584 2113 3584 
Q 2378 3584 2631 3529 
Q 2884 3475 3122 3366 
z
" transform="scale(0.015625)"/>
       <path id="DejaVuSans-41" d="M 2188 4044 
L 1331 1722 
L 3047 1722 
L 2188 4044 
z
M 1831 4666 
L 2547 4666 
L 4325 0 
L 3669 0 
L 3244 1197 
L 1141 1197 
L 716 0 
L 50 0 
L 1831 4666 
z
" transform="scale(0.015625)"/>
       <path id="DejaVuSans-67" d="M 2906 1791 
Q 2906 2416 2648 2759 
Q 2391 3103 1925 3103 
Q 1463 3103 1205 2759 
Q 947 2416 947 1791 
Q 947 1169 1205 825 
Q 1463 481 1925 481 
Q 2391 481 2648 825 
Q 2906 1169 2906 1791 
z
M 3481 434 
Q 3481 -459 3084 -895 
Q 2688 -1331 1869 -1331 
Q 1566 -1331 1297 -1286 
Q 1028 -1241 775 -1147 
L 775 -588 
Q 1028 -725 1275 -790 
Q 1522 -856 1778 -856 
Q 2344 -856 2625 -561 
Q 2906 -266 2906 331 
L 2906 616 
Q 2728 306 2450 153 
Q 2172 0 1784 0 
Q 1141 0 747 490 
Q 353 981 353 1791 
Q 353 2603 747 3093 
Q 1141 3584 1784 3584 
Q 2172 3584 2450 3431 
Q 2728 3278 2906 2969 
L 2906 3500 
L 3481 3500 
L 3481 434 
z
" transform="scale(0.015625)"/>
       <path id="DejaVuSans-55" d="M 556 4666 
L 1191 4666 
L 1191 1831 
Q 1191 1081 1462 751 
Q 1734 422 2344 422 
Q 2950 422 3222 751 
Q 3494 1081 3494 1831 
L 3494 4666 
L 4128 4666 
L 4128 1753 
Q 4128 841 3676 375 
Q 3225 -91 2344 -91 
Q 1459 -91 1007 375 
Q 556 841 556 1753 
L 556 4666 
z
" transform="scale(0.015625)"/>
       <path id="DejaVuSans-53" d="M 3425 4513 
L 3425 3897 
Q 3066 4069 2747 4153 
Q 2428 4238 2131 4238 
Q 1616 4238 1336 4038 
Q 1056 3838 1056 3469 
Q 1056 3159 1242 3001 
Q 1428 2844 1947 2747 
L 2328 2669 
Q 3034 2534 3370 2195 
Q 3706 1856 3706 1288 
Q 3706 609 3251 259 
Q 2797 -91 1919 -91 
Q 1588 -91 1214 -16 
Q 841 59 441 206 
L 441 856 
Q 825 641 1194 531 
Q 1563 422 1919 422 
Q 2459 422 2753 634 
Q 3047 847 3047 1241 
Q 3047 1584 2836 1778 
Q 2625 1972 2144 2069 
L 1759 2144 
Q 1053 2284 737 2584 
Q 422 2884 422 3419 
Q 422 4038 858 4394 
Q 1294 4750 2059 4750 
Q 2388 4750 2728 4690 
Q 3069 4631 3425 4513 
z
" transform="scale(0.015625)"/>
       <path id="DejaVuSans-75" d="M 544 1381 
L 544 3500 
L 1119 3500 
L 1119 1403 
Q 1119 906 1312 657 
Q 1506 409 1894 409 
Q 2359 409 2629 706 
Q 2900 1003 2900 1516 
L 2900 3500 
L 3475 3500 
L 3475 0 
L 2900 0 
L 2900 538 
Q 2691 219 2414 64 
Q 2138 -91 1772 -91 
Q 1169 -91 856 284 
Q 544 659 544 1381 
z
M 1991 3584 
L 1991 3584 
z
" transform="scale(0.015625)"/>
       <path id="DejaVuSans-76" d="M 191 3500 
L 800 3500 
L 1894 563 
L 2988 3500 
L 3597 3500 
L 2284 0 
L 1503 0 
L 191 3500 
z
" transform="scale(0.015625)"/>
       <path id="DejaVuSans-79" d="M 2059 -325 
Q 1816 -950 1584 -1140 
Q 1353 -1331 966 -1331 
L 506 -1331 
L 506 -850 
L 844 -850 
Q 1081 -850 1212 -737 
Q 1344 -625 1503 -206 
L 1606 56 
L 191 3500 
L 800 3500 
L 1894 763 
L 2988 3500 
L 3597 3500 
L 2059 -325 
z
" transform="scale(0.015625)"/>
      </defs>
      <use xlink:href="#DejaVuSans-44"/>
      <use xlink:href="#DejaVuSans-69" transform="translate(77.001953 0)"/>
      <use xlink:href="#DejaVuSans-73" transform="translate(104.785156 0)"/>
      <use xlink:href="#DejaVuSans-74" transform="translate(156.884766 0)"/>
      <use xlink:href="#DejaVuSans-61" transform="translate(196.09375 0)"/>
      <use xlink:href="#DejaVuSans-6e" transform="translate(257.373047 0)"/>
      <use xlink:href="#DejaVuSans-63" transform="translate(320.751953 0)"/>
      <use xlink:href="#DejaVuSans-65" transform="translate(375.732422 0)"/>
      <use xlink:href="#DejaVuSans-20" transform="translate(437.255859 0)"/>
      <use xlink:href="#DejaVuSans-41" transform="translate(469.042969 0)"/>
      <use xlink:href="#DejaVuSans-6c" transform="translate(537.451172 0)"/>
      <use xlink:href="#DejaVuSans-6f" transform="translate(565.234375 0)"/>
      <use xlink:href="#DejaVuSans-6e" transform="translate(626.416016 0)"/>
      <use xlink:href="#DejaVuSans-67" transform="translate(689.794922 0)"/>
      <use xlink:href="#DejaVuSans-20" transform="translate(753.271484 0)"/>
      <use xlink:href="#DejaVuSans-28" transform="translate(785.058594 0)"/>
      <use xlink:href="#DejaVuSans-55" transform="translate(824.072266 0)"/>
      <use xlink:href="#DejaVuSans-53" transform="translate(897.265625 0)"/>
      <use xlink:href="#DejaVuSans-20" transform="translate(960.742188 0)"/>
      <use xlink:href="#DejaVuSans-73" transform="translate(992.529297 0)"/>
      <use xlink:href="#DejaVuSans-75" transform="translate(1044.628906 0)"/>
      <use xlink:href="#DejaVuSans-72" transform="translate(1108.007812 0)"/>
      <use xlink:href="#DejaVuSans-76" transform="translate(1149.121094 0)"/>
      <use xlink:href="#DejaVuSans-65" transform="translate(1208.300781 0)"/>
      <use xlink:href="#DejaVuSans-79" transform="translate(1269.824219 0)"/>
      <use xlink:href="#DejaVuSans-20" transform="translate(1329.003906 0)"/>
      <use xlink:href="#DejaVuSans-66" transform="translate(1360.791016 0)"/>
      <use xlink:href="#DejaVuSans-74" transform="translate(1394.246094 0)"/>
      <use xlink:href="#DejaVuSans-29" transform="translate(1433.455078 0)"/>
     </g>
    </g>
   </g>
   <g id="matplotlib.axis_4">
    <g id="ytick_7">
     <g id="line2d_40">
      <path d="M 50.14375 595.484108 
L 518.65625 595.484108 
" clip-path="url(#p6817efb2a2)" style="fill: none; stroke-dasharray: 2.96,1.28; stroke-dashoffset: 0; stroke: #b0b0b0; stroke-opacity: 0.5; stroke-width: 0.8"/>
     </g>
     <g id="line2d_41">
      <g>
       <use xlink:href="#m2ec470766d" x="50.14375" y="595.484108" style="stroke: #000000; stroke-width: 0.8"/>
      </g>
     </g>
     <g id="text_24">
      <!-- 0.06 -->
      <g transform="translate(20.878125 599.283327) scale(0.1 -0.1)">
       <use xlink:href="#DejaVuSans-30"/>
       <use xlink:href="#DejaVuSans-2e" transform="translate(63.623047 0)"/>
       <use xlink:href="#DejaVuSans-30" transform="translate(95.410156 0)"/>
       <use xlink:href="#DejaVuSans-36" transform="translate(159.033203 0)"/>
      </g>
     </g>
    </g>
    <g id="ytick_8">
     <g id="line2d_42">
      <path d="M 50.14375 552.700428 
L 518.65625 552.700428 
" clip-path="url(#p6817efb2a2)" style="fill: none; stroke-dasharray: 2.96,1.28; stroke-dashoffset: 0; stroke: #b0b0b0; stroke-opacity: 0.5; stroke-width: 0.8"/>
     </g>
     <g id="line2d_43">
      <g>
       <use xlink:href="#m2ec470766d" x="50.14375" y="552.700428" style="stroke: #000000; stroke-width: 0.8"/>
      </g>
     </g>
     <g id="text_25">
      <!-- 0.08 -->
      <g transform="translate(20.878125 556.499646) scale(0.1 -0.1)">
       <use xlink:href="#DejaVuSans-30"/>
       <use xlink:href="#DejaVuSans-2e" transform="translate(63.623047 0)"/>
       <use xlink:href="#DejaVuSans-30" transform="translate(95.410156 0)"/>
       <use xlink:href="#DejaVuSans-38" transform="translate(159.033203 0)"/>
      </g>
     </g>
    </g>
    <g id="ytick_9">
     <g id="line2d_44">
      <path d="M 50.14375 509.916747 
L 518.65625 509.916747 
" clip-path="url(#p6817efb2a2)" style="fill: none; stroke-dasharray: 2.96,1.28; stroke-dashoffset: 0; stroke: #b0b0b0; stroke-opacity: 0.5; stroke-width: 0.8"/>
     </g>
     <g id="line2d_45">
      <g>
       <use xlink:href="#m2ec470766d" x="50.14375" y="509.916747" style="stroke: #000000; stroke-width: 0.8"/>
      </g>
     </g>
     <g id="text_26">
      <!-- 0.10 -->
      <g transform="translate(20.878125 513.715966) scale(0.1 -0.1)">
       <use xlink:href="#DejaVuSans-30"/>
       <use xlink:href="#DejaVuSans-2e" transform="translate(63.623047 0)"/>
       <use xlink:href="#DejaVuSans-31" transform="translate(95.410156 0)"/>
       <use xlink:href="#DejaVuSans-30" transform="translate(159.033203 0)"/>
      </g>
     </g>
    </g>
    <g id="ytick_10">
     <g id="line2d_46">
      <path d="M 50.14375 467.133067 
L 518.65625 467.133067 
" clip-path="url(#p6817efb2a2)" style="fill: none; stroke-dasharray: 2.96,1.28; stroke-dashoffset: 0; stroke: #b0b0b0; stroke-opacity: 0.5; stroke-width: 0.8"/>
     </g>
     <g id="line2d_47">
      <g>
       <use xlink:href="#m2ec470766d" x="50.14375" y="467.133067" style="stroke: #000000; stroke-width: 0.8"/>
      </g>
     </g>
     <g id="text_27">
      <!-- 0.12 -->
      <g transform="translate(20.878125 470.932286) scale(0.1 -0.1)">
       <use xlink:href="#DejaVuSans-30"/>
       <use xlink:href="#DejaVuSans-2e" transform="translate(63.623047 0)"/>
       <use xlink:href="#DejaVuSans-31" transform="translate(95.410156 0)"/>
       <use xlink:href="#DejaVuSans-32" transform="translate(159.033203 0)"/>
      </g>
     </g>
    </g>
    <g id="ytick_11">
     <g id="line2d_48">
      <path d="M 50.14375 424.349387 
L 518.65625 424.349387 
" clip-path="url(#p6817efb2a2)" style="fill: none; stroke-dasharray: 2.96,1.28; stroke-dashoffset: 0; stroke: #b0b0b0; stroke-opacity: 0.5; stroke-width: 0.8"/>
     </g>
     <g id="line2d_49">
      <g>
       <use xlink:href="#m2ec470766d" x="50.14375" y="424.349387" style="stroke: #000000; stroke-width: 0.8"/>
      </g>
     </g>
     <g id="text_28">
      <!-- 0.14 -->
      <g transform="translate(20.878125 428.148606) scale(0.1 -0.1)">
       <use xlink:href="#DejaVuSans-30"/>
       <use xlink:href="#DejaVuSans-2e" transform="translate(63.623047 0)"/>
       <use xlink:href="#DejaVuSans-31" transform="translate(95.410156 0)"/>
       <use xlink:href="#DejaVuSans-34" transform="translate(159.033203 0)"/>
      </g>
     </g>
    </g>
    <g id="ytick_12">
     <g id="line2d_50">
      <path d="M 50.14375 381.565707 
L 518.65625 381.565707 
" clip-path="url(#p6817efb2a2)" style="fill: none; stroke-dasharray: 2.96,1.28; stroke-dashoffset: 0; stroke: #b0b0b0; stroke-opacity: 0.5; stroke-width: 0.8"/>
     </g>
     <g id="line2d_51">
      <g>
       <use xlink:href="#m2ec470766d" x="50.14375" y="381.565707" style="stroke: #000000; stroke-width: 0.8"/>
      </g>
     </g>
     <g id="text_29">
      <!-- 0.16 -->
      <g transform="translate(20.878125 385.364926) scale(0.1 -0.1)">
       <use xlink:href="#DejaVuSans-30"/>
       <use xlink:href="#DejaVuSans-2e" transform="translate(63.623047 0)"/>
       <use xlink:href="#DejaVuSans-31" transform="translate(95.410156 0)"/>
       <use xlink:href="#DejaVuSans-36" transform="translate(159.033203 0)"/>
      </g>
     </g>
    </g>
    <g id="text_30">
     <!-- Centerline Deviating Elevation (US survey ft) -->
     <g transform="translate(14.798438 607.98725) rotate(-90) scale(0.1 -0.1)">
      <defs>
       <path id="DejaVuSans-43" d="M 4122 4306 
L 4122 3641 
Q 3803 3938 3442 4084 
Q 3081 4231 2675 4231 
Q 1875 4231 1450 3742 
Q 1025 3253 1025 2328 
Q 1025 1406 1450 917 
Q 1875 428 2675 428 
Q 3081 428 3442 575 
Q 3803 722 4122 1019 
L 4122 359 
Q 3791 134 3420 21 
Q 3050 -91 2638 -91 
Q 1578 -91 968 557 
Q 359 1206 359 2328 
Q 359 3453 968 4101 
Q 1578 4750 2638 4750 
Q 3056 4750 3426 4639 
Q 3797 4528 4122 4306 
z
" transform="scale(0.015625)"/>
       <path id="DejaVuSans-45" d="M 628 4666 
L 3578 4666 
L 3578 4134 
L 1259 4134 
L 1259 2753 
L 3481 2753 
L 3481 2222 
L 1259 2222 
L 1259 531 
L 3634 531 
L 3634 0 
L 628 0 
L 628 4666 
z
" transform="scale(0.015625)"/>
      </defs>
      <use xlink:href="#DejaVuSans-43"/>
      <use xlink:href="#DejaVuSans-65" transform="translate(69.824219 0)"/>
      <use xlink:href="#DejaVuSans-6e" transform="translate(131.347656 0)"/>
      <use xlink:href="#DejaVuSans-74" transform="translate(194.726562 0)"/>
      <use xlink:href="#DejaVuSans-65" transform="translate(233.935547 0)"/>
      <use xlink:href="#DejaVuSans-72" transform="translate(295.458984 0)"/>
      <use xlink:href="#DejaVuSans-6c" transform="translate(336.572266 0)"/>
      <use xlink:href="#DejaVuSans-69" transform="translate(364.355469 0)"/>
      <use xlink:href="#DejaVuSans-6e" transform="translate(392.138672 0)"/>
      <use xlink:href="#DejaVuSans-65" transform="translate(455.517578 0)"/>
      <use xlink:href="#DejaVuSans-20" transform="translate(517.041016 0)"/>
      <use xlink:href="#DejaVuSans-44" transform="translate(548.828125 0)"/>
      <use xlink:href="#DejaVuSans-65" transform="translate(625.830078 0)"/>
      <use xlink:href="#DejaVuSans-76" transform="translate(687.353516 0)"/>
      <use xlink:href="#DejaVuSans-69" transform="translate(746.533203 0)"/>
      <use xlink:href="#DejaVuSans-61" transform="translate(774.316406 0)"/>
      <use xlink:href="#DejaVuSans-74" transform="translate(835.595703 0)"/>
      <use xlink:href="#DejaVuSans-69" transform="translate(874.804688 0)"/>
      <use xlink:href="#DejaVuSans-6e" transform="translate(902.587891 0)"/>
      <use xlink:href="#DejaVuSans-67" transform="translate(965.966797 0)"/>
      <use xlink:href="#DejaVuSans-20" transform="translate(1029.443359 0)"/>
      <use xlink:href="#DejaVuSans-45" transform="translate(1061.230469 0)"/>
      <use xlink:href="#DejaVuSans-6c" transform="translate(1124.414062 0)"/>
      <use xlink:href="#DejaVuSans-65" transform="translate(1152.197266 0)"/>
      <use xlink:href="#DejaVuSans-76" transform="translate(1213.720703 0)"/>
      <use xlink:href="#DejaVuSans-61" transform="translate(1272.900391 0)"/>
      <use xlink:href="#DejaVuSans-74" transform="translate(1334.179688 0)"/>
      <use xlink:href="#DejaVuSans-69" transform="translate(1373.388672 0)"/>
      <use xlink:href="#DejaVuSans-6f" transform="translate(1401.171875 0)"/>
      <use xlink:href="#DejaVuSans-6e" transform="translate(1462.353516 0)"/>
      <use xlink:href="#DejaVuSans-20" transform="translate(1525.732422 0)"/>
      <use xlink:href="#DejaVuSans-28" transform="translate(1557.519531 0)"/>
      <use xlink:href="#DejaVuSans-55" transform="translate(1596.533203 0)"/>
      <use xlink:href="#DejaVuSans-53" transform="translate(1669.726562 0)"/>
      <use xlink:href="#DejaVuSans-20" transform="translate(1733.203125 0)"/>
      <use xlink:href="#DejaVuSans-73" transform="translate(1764.990234 0)"/>
      <use xlink:href="#DejaVuSans-75" transform="translate(1817.089844 0)"/>
      <use xlink:href="#DejaVuSans-72" transform="translate(1880.46875 0)"/>
      <use xlink:href="#DejaVuSans-76" transform="translate(1921.582031 0)"/>
      <use xlink:href="#DejaVuSans-65" transform="translate(1980.761719 0)"/>
      <use xlink:href="#DejaVuSans-79" transform="translate(2042.285156 0)"/>
      <use xlink:href="#DejaVuSans-20" transform="translate(2101.464844 0)"/>
      <use xlink:href="#DejaVuSans-66" transform="translate(2133.251953 0)"/>
      <use xlink:href="#DejaVuSans-74" transform="translate(2166.707031 0)"/>
      <use xlink:href="#DejaVuSans-29" transform="translate(2205.916016 0)"/>
     </g>
    </g>
   </g>
   <g id="line2d_52">
    <path d="M 71.439773 372.919125 
L 75.698977 372.919125 
L 79.958182 372.921264 
L 84.217386 372.925543 
L 88.47659 372.940517 
L 92.735796 372.968326 
L 96.995 373.015388 
L 101.254204 373.094538 
L 105.51341 373.207915 
L 109.772614 373.370493 
L 114.031818 373.590829 
L 118.291023 373.87534 
L 122.550227 374.239002 
L 126.809431 374.68823 
L 131.068637 375.238 
L 135.327841 375.892591 
L 139.587045 376.666975 
L 143.84625 377.565433 
L 148.105455 378.600798 
L 152.364659 379.779488 
L 156.623864 381.110061 
L 160.883068 382.598933 
L 165.142272 384.252522 
L 169.401478 386.077246 
L 173.660682 388.075244 
L 177.919886 390.250794 
L 182.179091 392.610314 
L 186.438296 395.149525 
L 190.6975 397.876985 
L 194.956705 400.786275 
L 199.215909 403.879535 
L 203.475113 407.154626 
L 207.734319 410.609408 
L 211.993523 414.239603 
L 216.252727 418.040933 
L 220.511932 422.00912 
L 224.771137 426.137745 
L 229.030341 430.420391 
L 233.289546 434.846363 
L 237.54875 439.411382 
L 241.807954 444.104751 
L 246.06716 448.915776 
L 250.326364 453.835899 
L 254.585568 458.854425 
L 258.844773 463.960657 
L 263.103977 469.139622 
L 267.363182 474.382762 
L 271.622387 479.677242 
L 275.881591 485.010228 
L 280.140795 490.368884 
L 284.400001 495.740375 
L 288.659205 501.111866 
L 292.918409 506.470522 
L 297.177614 511.803508 
L 301.436818 517.095849 
L 305.696023 522.341128 
L 309.955228 527.520093 
L 314.214432 532.626325 
L 318.473636 537.642711 
L 322.732842 542.564974 
L 326.992046 547.375999 
L 331.25125 552.069368 
L 335.510455 556.634387 
L 339.769659 561.060359 
L 344.028863 565.343005 
L 348.288069 569.469491 
L 352.547273 573.437677 
L 356.806477 577.241147 
L 361.065683 580.871342 
L 365.324887 584.326124 
L 369.584091 587.601215 
L 373.843296 590.694475 
L 378.1025 593.603765 
L 382.361704 596.329086 
L 386.62091 598.870436 
L 390.880114 601.229956 
L 395.139318 603.405506 
L 399.398523 605.403504 
L 403.657728 607.228228 
L 407.916932 608.881817 
L 412.176137 610.370689 
L 416.435341 611.701262 
L 420.694545 612.879952 
L 424.953751 613.915317 
L 429.212955 614.813775 
L 433.472159 615.588159 
L 437.731364 616.24275 
L 441.990569 616.790381 
L 446.249773 617.241748 
L 450.508978 617.60541 
L 454.768182 617.889921 
L 459.027386 618.110257 
L 463.286592 618.270696 
L 467.545796 618.386212 
L 471.805 618.465362 
L 476.064205 618.512424 
L 480.323409 618.540233 
L 484.582614 618.553068 
L 488.841819 618.559486 
L 493.101023 618.559486 
L 497.360227 618.561625 
" clip-path="url(#p6817efb2a2)" style="fill: none; stroke: #ff7f0e; stroke-width: 1.5; stroke-linecap: square"/>
   </g>
   <g id="patch_8">
    <path d="M 50.14375 630.84375 
L 50.14375 360.637 
" style="fill: none; stroke: #000000; stroke-width: 0.8; stroke-linejoin: miter; stroke-linecap: square"/>
   </g>
   <g id="patch_9">
    <path d="M 518.65625 630.84375 
L 518.65625 360.637 
" style="fill: none; stroke: #000000; stroke-width: 0.8; stroke-linejoin: miter; stroke-linecap: square"/>
   </g>
   <g id="patch_10">
    <path d="M 50.14375 630.84375 
L 518.65625 630.84375 
" style="fill: none; stroke: #000000; stroke-width: 0.8; stroke-linejoin: miter; stroke-linecap: square"/>
   </g>
   <g id="patch_11">
    <path d="M 50.14375 360.637 
L 518.65625 360.637 
" style="fill: none; stroke: #000000; stroke-width: 0.8; stroke-linejoin: miter; stroke-linecap: square"/>
   </g>
   <g id="text_31">
    <!-- Cant — VienneseBend -->
    <g transform="translate(239.935 345.67875) scale(0.08 -0.08)">
     <use xlink:href="#DejaVuSans-43"/>
     <use xlink:href="#DejaVuSans-61" transform="translate(69.824219 0)"/>
     <use xlink:href="#DejaVuSans-6e" transform="translate(131.103516 0)"/>
     <use xlink:href="#DejaVuSans-74" transform="translate(194.482422 0)"/>
     <use xlink:href="#DejaVuSans-20" transform="translate(233.691406 0)"/>
     <use xlink:href="#DejaVuSans-2014" transform="translate(265.478516 0)"/>
     <use xlink:href="#DejaVuSans-20" transform="translate(365.478516 0)"/>
     <use xlink:href="#DejaVuSans-56" transform="translate(397.265625 0)"/>
     <use xlink:href="#DejaVuSans-69" transform="translate(463.423828 0)"/>
     <use xlink:href="#DejaVuSans-65" transform="translate(491.207031 0)"/>
     <use xlink:href="#DejaVuSans-6e" transform="translate(552.730469 0)"/>
     <use xlink:href="#DejaVuSans-6e" transform="translate(616.109375 0)"/>
     <use xlink:href="#DejaVuSans-65" transform="translate(679.488281 0)"/>
     <use xlink:href="#DejaVuSans-73" transform="translate(741.011719 0)"/>
     <use xlink:href="#DejaVuSans-65" transform="translate(793.111328 0)"/>
     <use xlink:href="#DejaVuSans-42" transform="translate(854.634766 0)"/>
     <use xlink:href="#DejaVuSans-65" transform="translate(923.238281 0)"/>
     <use xlink:href="#DejaVuSans-6e" transform="translate(984.761719 0)"/>
     <use xlink:href="#DejaVuSans-64" transform="translate(1048.140625 0)"/>
    </g>
    <!-- Cant_VienneseBend_100.0_-300_-inf_1_SurveyFoot -->
    <g transform="translate(182.371875 354.637) scale(0.08 -0.08)">
     <defs>
      <path id="DejaVuSans-46" d="M 628 4666 
L 3309 4666 
L 3309 4134 
L 1259 4134 
L 1259 2759 
L 3109 2759 
L 3109 2228 
L 1259 2228 
L 1259 0 
L 628 0 
L 628 4666 
z
" transform="scale(0.015625)"/>
     </defs>
     <use xlink:href="#DejaVuSans-43"/>
     <use xlink:href="#DejaVuSans-61" transform="translate(69.824219 0)"/>
     <use xlink:href="#DejaVuSans-6e" transform="translate(131.103516 0)"/>
     <use xlink:href="#DejaVuSans-74" transform="translate(194.482422 0)"/>
     <use xlink:href="#DejaVuSans-5f" transform="translate(233.691406 0)"/>
     <use xlink:href="#DejaVuSans-56" transform="translate(283.691406 0)"/>
     <use xlink:href="#DejaVuSans-69" transform="translate(349.849609 0)"/>
     <use xlink:href="#DejaVuSans-65" transform="translate(377.632812 0)"/>
     <use xlink:href="#DejaVuSans-6e" transform="translate(439.15625 0)"/>
     <use xlink:href="#DejaVuSans-6e" transform="translate(502.535156 0)"/>
     <use xlink:href="#DejaVuSans-65" transform="translate(565.914062 0)"/>
     <use xlink:href="#DejaVuSans-73" transform="translate(627.4375 0)"/>
     <use xlink:href="#DejaVuSans-65" transform="translate(679.537109 0)"/>
     <use xlink:href="#DejaVuSans-42" transform="translate(741.060547 0)"/>
     <use xlink:href="#DejaVuSans-65" transform="translate(809.664062 0)"/>
     <use xlink:href="#DejaVuSans-6e" transform="translate(871.1875 0)"/>
     <use xlink:href="#DejaVuSans-64" transform="translate(934.566406 0)"/>
     <use xlink:href="#DejaVuSans-5f" transform="translate(998.042969 0)"/>
     <use xlink:href="#DejaVuSans-31" transform="translate(1048.042969 0)"/>
     <use xlink:href="#DejaVuSans-30" transform="translate(1111.666016 0)"/>
     <use xlink:href="#DejaVuSans-30" transform="translate(1175.289062 0)"/>
     <use xlink:href="#DejaVuSans-2e" transform="translate(1238.912109 0)"/>
     <use xlink:href="#DejaVuSans-30" transform="translate(1270.699219 0)"/>
     <use xlink:href="#DejaVuSans-5f" transform="translate(1334.322266 0)"/>
     <use xlink:href="#DejaVuSans-2d" transform="translate(1384.322266 0)"/>
     <use xlink:href="#DejaVuSans-33" transform="translate(1420.40625 0)"/>
     <use xlink:href="#DejaVuSans-30" transform="translate(1484.029297 0)"/>
     <use xlink:href="#DejaVuSans-30" transform="translate(1547.652344 0)"/>
     <use xlink:href="#DejaVuSans-5f" transform="translate(1611.275391 0)"/>
     <use xlink:href="#DejaVuSans-2d" transform="translate(1661.275391 0)"/>
     <use xlink:href="#DejaVuSans-69" transform="translate(1697.359375 0)"/>
     <use xlink:href="#DejaVuSans-6e" transform="translate(1725.142578 0)"/>
     <use xlink:href="#DejaVuSans-66" transform="translate(1788.521484 0)"/>
     <use xlink:href="#DejaVuSans-5f" transform="translate(1823.726562 0)"/>
     <use xlink:href="#DejaVuSans-31" transform="translate(1873.726562 0)"/>
     <use xlink:href="#DejaVuSans-5f" transform="translate(1937.349609 0)"/>
     <use xlink:href="#DejaVuSans-53" transform="translate(1987.349609 0)"/>
     <use xlink:href="#DejaVuSans-75" transform="translate(2050.826172 0)"/>
     <use xlink:href="#DejaVuSans-72" transform="translate(2114.205078 0)"/>
     <use xlink:href="#DejaVuSans-76" transform="translate(2155.318359 0)"/>
     <use xlink:href="#DejaVuSans-65" transform="translate(2214.498047 0)"/>
     <use xlink:href="#DejaVuSans-79" transform="translate(2276.021484 0)"/>
     <use xlink:href="#DejaVuSans-46" transform="translate(2335.201172 0)"/>
     <use xlink:href="#DejaVuSans-6f" transform="translate(2389.095703 0)"/>
     <use xlink:href="#DejaVuSans-6f" transform="translate(2450.277344 0)"/>
     <use xlink:href="#DejaVuSans-74" transform="translate(2511.458984 0)"/>
    </g>
   </g>
  </g>
  <g id="axes_3">
   <g id="patch_12">
    <path d="M 50.14375 963.24375 
L 518.65625 963.24375 
L 518.65625 693.037 
L 50.14375 693.037 
z
" style="fill: #ffffff"/>
   </g>
   <g id="axes_4">
    <g id="patch_13">
     <path d="M 518.65625 963.24375 
L 518.65625 963.24375 
L 518.65625 693.037 
L 518.65625 693.037 
z
" style="fill: #ffffff"/>
    </g>
    <g id="matplotlib.axis_5"/>
    <g id="matplotlib.axis_6">
     <g id="ytick_13">
      <g id="line2d_53">
       <defs>
        <path id="m86a9beef8d" d="M 0 0 
L 3.5 0 
" style="stroke: #000000; stroke-width: 0.8"/>
       </defs>
       <g>
        <use xlink:href="#m86a9beef8d" x="518.65625" y="962.065293" style="stroke: #000000; stroke-width: 0.8"/>
       </g>
      </g>
      <g id="text_32">
       <!-- 86.0 -->
       <g transform="translate(525.65625 965.864512) scale(0.1 -0.1)">
        <use xlink:href="#DejaVuSans-38"/>
        <use xlink:href="#DejaVuSans-36" transform="translate(63.623047 0)"/>
        <use xlink:href="#DejaVuSans-2e" transform="translate(127.246094 0)"/>
        <use xlink:href="#DejaVuSans-30" transform="translate(159.033203 0)"/>
       </g>
      </g>
     </g>
     <g id="ytick_14">
      <g id="line2d_54">
       <g>
        <use xlink:href="#m86a9beef8d" x="518.65625" y="930.774319" style="stroke: #000000; stroke-width: 0.8"/>
       </g>
      </g>
      <g id="text_33">
       <!-- 86.5 -->
       <g transform="translate(525.65625 934.573538) scale(0.1 -0.1)">
        <use xlink:href="#DejaVuSans-38"/>
        <use xlink:href="#DejaVuSans-36" transform="translate(63.623047 0)"/>
        <use xlink:href="#DejaVuSans-2e" transform="translate(127.246094 0)"/>
        <use xlink:href="#DejaVuSans-35" transform="translate(159.033203 0)"/>
       </g>
      </g>
     </g>
     <g id="ytick_15">
      <g id="line2d_55">
       <g>
        <use xlink:href="#m86a9beef8d" x="518.65625" y="899.483345" style="stroke: #000000; stroke-width: 0.8"/>
       </g>
      </g>
      <g id="text_34">
       <!-- 87.0 -->
       <g transform="translate(525.65625 903.282564) scale(0.1 -0.1)">
        <defs>
         <path id="DejaVuSans-37" d="M 525 4666 
L 3525 4666 
L 3525 4397 
L 1831 0 
L 1172 0 
L 2766 4134 
L 525 4134 
L 525 4666 
z
" transform="scale(0.015625)"/>
        </defs>
        <use xlink:href="#DejaVuSans-38"/>
        <use xlink:href="#DejaVuSans-37" transform="translate(63.623047 0)"/>
        <use xlink:href="#DejaVuSans-2e" transform="translate(127.246094 0)"/>
        <use xlink:href="#DejaVuSans-30" transform="translate(159.033203 0)"/>
       </g>
      </g>
     </g>
     <g id="ytick_16">
      <g id="line2d_56">
       <g>
        <use xlink:href="#m86a9beef8d" x="518.65625" y="868.192371" style="stroke: #000000; stroke-width: 0.8"/>
       </g>
      </g>
      <g id="text_35">
       <!-- 87.5 -->
       <g transform="translate(525.65625 871.99159) scale(0.1 -0.1)">
        <use xlink:href="#DejaVuSans-38"/>
        <use xlink:href="#DejaVuSans-37" transform="translate(63.623047 0)"/>
        <use xlink:href="#DejaVuSans-2e" transform="translate(127.246094 0)"/>
        <use xlink:href="#DejaVuSans-35" transform="translate(159.033203 0)"/>
       </g>
      </g>
     </g>
     <g id="ytick_17">
      <g id="line2d_57">
       <g>
        <use xlink:href="#m86a9beef8d" x="518.65625" y="836.901397" style="stroke: #000000; stroke-width: 0.8"/>
       </g>
      </g>
      <g id="text_36">
       <!-- 88.0 -->
       <g transform="translate(525.65625 840.700616) scale(0.1 -0.1)">
        <use xlink:href="#DejaVuSans-38"/>
        <use xlink:href="#DejaVuSans-38" transform="translate(63.623047 0)"/>
        <use xlink:href="#DejaVuSans-2e" transform="translate(127.246094 0)"/>
        <use xlink:href="#DejaVuSans-30" transform="translate(159.033203 0)"/>
       </g>
      </g>
     </g>
     <g id="ytick_18">
      <g id="line2d_58">
       <g>
        <use xlink:href="#m86a9beef8d" x="518.65625" y="805.610423" style="stroke: #000000; stroke-width: 0.8"/>
       </g>
      </g>
      <g id="text_37">
       <!-- 88.5 -->
       <g transform="translate(525.65625 809.409642) scale(0.1 -0.1)">
        <use xlink:href="#DejaVuSans-38"/>
        <use xlink:href="#DejaVuSans-38" transform="translate(63.623047 0)"/>
        <use xlink:href="#DejaVuSans-2e" transform="translate(127.246094 0)"/>
        <use xlink:href="#DejaVuSans-35" transform="translate(159.033203 0)"/>
       </g>
      </g>
     </g>
     <g id="ytick_19">
      <g id="line2d_59">
       <g>
        <use xlink:href="#m86a9beef8d" x="518.65625" y="774.319449" style="stroke: #000000; stroke-width: 0.8"/>
       </g>
      </g>
      <g id="text_38">
       <!-- 89.0 -->
       <g transform="translate(525.65625 778.118668) scale(0.1 -0.1)">
        <defs>
         <path id="DejaVuSans-39" d="M 703 97 
L 703 672 
Q 941 559 1184 500 
Q 1428 441 1663 441 
Q 2288 441 2617 861 
Q 2947 1281 2994 2138 
Q 2813 1869 2534 1725 
Q 2256 1581 1919 1581 
Q 1219 1581 811 2004 
Q 403 2428 403 3163 
Q 403 3881 828 4315 
Q 1253 4750 1959 4750 
Q 2769 4750 3195 4129 
Q 3622 3509 3622 2328 
Q 3622 1225 3098 567 
Q 2575 -91 1691 -91 
Q 1453 -91 1209 -44 
Q 966 3 703 97 
z
M 1959 2075 
Q 2384 2075 2632 2365 
Q 2881 2656 2881 3163 
Q 2881 3666 2632 3958 
Q 2384 4250 1959 4250 
Q 1534 4250 1286 3958 
Q 1038 3666 1038 3163 
Q 1038 2656 1286 2365 
Q 1534 2075 1959 2075 
z
" transform="scale(0.015625)"/>
        </defs>
        <use xlink:href="#DejaVuSans-38"/>
        <use xlink:href="#DejaVuSans-39" transform="translate(63.623047 0)"/>
        <use xlink:href="#DejaVuSans-2e" transform="translate(127.246094 0)"/>
        <use xlink:href="#DejaVuSans-30" transform="translate(159.033203 0)"/>
       </g>
      </g>
     </g>
     <g id="ytick_20">
      <g id="line2d_60">
       <g>
        <use xlink:href="#m86a9beef8d" x="518.65625" y="743.028475" style="stroke: #000000; stroke-width: 0.8"/>
       </g>
      </g>
      <g id="text_39">
       <!-- 89.5 -->
       <g transform="translate(525.65625 746.827694) scale(0.1 -0.1)">
        <use xlink:href="#DejaVuSans-38"/>
        <use xlink:href="#DejaVuSans-39" transform="translate(63.623047 0)"/>
        <use xlink:href="#DejaVuSans-2e" transform="translate(127.246094 0)"/>
        <use xlink:href="#DejaVuSans-35" transform="translate(159.033203 0)"/>
       </g>
      </g>
     </g>
     <g id="ytick_21">
      <g id="line2d_61">
       <g>
        <use xlink:href="#m86a9beef8d" x="518.65625" y="711.737501" style="stroke: #000000; stroke-width: 0.8"/>
       </g>
      </g>
      <g id="text_40">
       <!-- 90.0 -->
       <g transform="translate(525.65625 715.53672) scale(0.1 -0.1)">
        <use xlink:href="#DejaVuSans-39"/>
        <use xlink:href="#DejaVuSans-30" transform="translate(63.623047 0)"/>
        <use xlink:href="#DejaVuSans-2e" transform="translate(127.246094 0)"/>
        <use xlink:href="#DejaVuSans-30" transform="translate(159.033203 0)"/>
       </g>
      </g>
     </g>
     <g id="text_41">
      <!-- φ (deg) -->
      <g transform="translate(559.520313 846.354438) rotate(-90) scale(0.1 -0.1)">
       <defs>
        <path id="DejaVuSans-3c6" d="M 2591 3034 
Q 2388 3034 2388 2581 
L 2388 438 
Q 2684 438 2981 763 
Q 3247 1053 3247 1750 
Q 3247 2400 2978 2750 
Q 2759 3034 2591 3034 
z
M 2591 3525 
Q 3028 3525 3425 3113 
Q 3853 2672 3853 1750 
Q 3853 903 3425 400 
Q 3022 -75 2388 -75 
L 2388 -1331 
L 1816 -1331 
L 1816 -78 
Q 1194 -78 775 400 
Q 350 888 350 1747 
Q 350 2641 775 3097 
Q 1094 3438 1613 3525 
L 1613 3016 
Q 1406 2944 1225 2700 
Q 956 2341 956 1747 
Q 956 1116 1225 756 
Q 1466 434 1816 434 
L 1816 2581 
Q 1816 3525 2591 3525 
z
" transform="scale(0.015625)"/>
       </defs>
       <use xlink:href="#DejaVuSans-3c6"/>
       <use xlink:href="#DejaVuSans-20" transform="translate(65.966797 0)"/>
       <use xlink:href="#DejaVuSans-28" transform="translate(97.753906 0)"/>
       <use xlink:href="#DejaVuSans-64" transform="translate(136.767578 0)"/>
       <use xlink:href="#DejaVuSans-65" transform="translate(200.244141 0)"/>
       <use xlink:href="#DejaVuSans-67" transform="translate(261.767578 0)"/>
       <use xlink:href="#DejaVuSans-29" transform="translate(325.244141 0)"/>
      </g>
     </g>
    </g>
    <g id="patch_14">
     <path d="M 518.65625 963.24375 
L 518.65625 693.037 
" style="fill: none; stroke: #000000; stroke-width: 0.8; stroke-linejoin: miter; stroke-linecap: square"/>
    </g>
   </g>
   <g id="matplotlib.axis_7">
    <g id="xtick_14">
     <g id="line2d_62">
      <path d="M 71.439773 963.24375 
L 71.439773 693.037 
" clip-path="url(#pb8e6dd4120)" style="fill: none; stroke-dasharray: 2.96,1.28; stroke-dashoffset: 0; stroke: #b0b0b0; stroke-opacity: 0.5; stroke-width: 0.8"/>
     </g>
     <g id="line2d_63">
      <g>
       <use xlink:href="#m89a2cd56ca" x="71.439773" y="963.24375" style="stroke: #000000; stroke-width: 0.8"/>
      </g>
     </g>
     <g id="text_42">
      <!-- 0 -->
      <g transform="translate(68.258523 977.842188) scale(0.1 -0.1)">
       <use xlink:href="#DejaVuSans-30"/>
      </g>
     </g>
    </g>
    <g id="xtick_15">
     <g id="line2d_64">
      <path d="M 136.35018 963.24375 
L 136.35018 693.037 
" clip-path="url(#pb8e6dd4120)" style="fill: none; stroke-dasharray: 2.96,1.28; stroke-dashoffset: 0; stroke: #b0b0b0; stroke-opacity: 0.5; stroke-width: 0.8"/>
     </g>
     <g id="line2d_65">
      <g>
       <use xlink:href="#m89a2cd56ca" x="136.35018" y="963.24375" style="stroke: #000000; stroke-width: 0.8"/>
      </g>
     </g>
     <g id="text_43">
      <!-- 50 -->
      <g transform="translate(129.98768 977.842188) scale(0.1 -0.1)">
       <use xlink:href="#DejaVuSans-35"/>
       <use xlink:href="#DejaVuSans-30" transform="translate(63.623047 0)"/>
      </g>
     </g>
    </g>
    <g id="xtick_16">
     <g id="line2d_66">
      <path d="M 201.260587 963.24375 
L 201.260587 693.037 
" clip-path="url(#pb8e6dd4120)" style="fill: none; stroke-dasharray: 2.96,1.28; stroke-dashoffset: 0; stroke: #b0b0b0; stroke-opacity: 0.5; stroke-width: 0.8"/>
     </g>
     <g id="line2d_67">
      <g>
       <use xlink:href="#m89a2cd56ca" x="201.260587" y="963.24375" style="stroke: #000000; stroke-width: 0.8"/>
      </g>
     </g>
     <g id="text_44">
      <!-- 100 -->
      <g transform="translate(191.716837 977.842188) scale(0.1 -0.1)">
       <use xlink:href="#DejaVuSans-31"/>
       <use xlink:href="#DejaVuSans-30" transform="translate(63.623047 0)"/>
       <use xlink:href="#DejaVuSans-30" transform="translate(127.246094 0)"/>
      </g>
     </g>
    </g>
    <g id="xtick_17">
     <g id="line2d_68">
      <path d="M 266.170994 963.24375 
L 266.170994 693.037 
" clip-path="url(#pb8e6dd4120)" style="fill: none; stroke-dasharray: 2.96,1.28; stroke-dashoffset: 0; stroke: #b0b0b0; stroke-opacity: 0.5; stroke-width: 0.8"/>
     </g>
     <g id="line2d_69">
      <g>
       <use xlink:href="#m89a2cd56ca" x="266.170994" y="963.24375" style="stroke: #000000; stroke-width: 0.8"/>
      </g>
     </g>
     <g id="text_45">
      <!-- 150 -->
      <g transform="translate(256.627244 977.842188) scale(0.1 -0.1)">
       <use xlink:href="#DejaVuSans-31"/>
       <use xlink:href="#DejaVuSans-35" transform="translate(63.623047 0)"/>
       <use xlink:href="#DejaVuSans-30" transform="translate(127.246094 0)"/>
      </g>
     </g>
    </g>
    <g id="xtick_18">
     <g id="line2d_70">
      <path d="M 331.081401 963.24375 
L 331.081401 693.037 
" clip-path="url(#pb8e6dd4120)" style="fill: none; stroke-dasharray: 2.96,1.28; stroke-dashoffset: 0; stroke: #b0b0b0; stroke-opacity: 0.5; stroke-width: 0.8"/>
     </g>
     <g id="line2d_71">
      <g>
       <use xlink:href="#m89a2cd56ca" x="331.081401" y="963.24375" style="stroke: #000000; stroke-width: 0.8"/>
      </g>
     </g>
     <g id="text_46">
      <!-- 200 -->
      <g transform="translate(321.537651 977.842188) scale(0.1 -0.1)">
       <use xlink:href="#DejaVuSans-32"/>
       <use xlink:href="#DejaVuSans-30" transform="translate(63.623047 0)"/>
       <use xlink:href="#DejaVuSans-30" transform="translate(127.246094 0)"/>
      </g>
     </g>
    </g>
    <g id="xtick_19">
     <g id="line2d_72">
      <path d="M 395.991808 963.24375 
L 395.991808 693.037 
" clip-path="url(#pb8e6dd4120)" style="fill: none; stroke-dasharray: 2.96,1.28; stroke-dashoffset: 0; stroke: #b0b0b0; stroke-opacity: 0.5; stroke-width: 0.8"/>
     </g>
     <g id="line2d_73">
      <g>
       <use xlink:href="#m89a2cd56ca" x="395.991808" y="963.24375" style="stroke: #000000; stroke-width: 0.8"/>
      </g>
     </g>
     <g id="text_47">
      <!-- 250 -->
      <g transform="translate(386.448058 977.842188) scale(0.1 -0.1)">
       <use xlink:href="#DejaVuSans-32"/>
       <use xlink:href="#DejaVuSans-35" transform="translate(63.623047 0)"/>
       <use xlink:href="#DejaVuSans-30" transform="translate(127.246094 0)"/>
      </g>
     </g>
    </g>
    <g id="xtick_20">
     <g id="line2d_74">
      <path d="M 460.902216 963.24375 
L 460.902216 693.037 
" clip-path="url(#pb8e6dd4120)" style="fill: none; stroke-dasharray: 2.96,1.28; stroke-dashoffset: 0; stroke: #b0b0b0; stroke-opacity: 0.5; stroke-width: 0.8"/>
     </g>
     <g id="line2d_75">
      <g>
       <use xlink:href="#m89a2cd56ca" x="460.902216" y="963.24375" style="stroke: #000000; stroke-width: 0.8"/>
      </g>
     </g>
     <g id="text_48">
      <!-- 300 -->
      <g transform="translate(451.358466 977.842188) scale(0.1 -0.1)">
       <use xlink:href="#DejaVuSans-33"/>
       <use xlink:href="#DejaVuSans-30" transform="translate(63.623047 0)"/>
       <use xlink:href="#DejaVuSans-30" transform="translate(127.246094 0)"/>
      </g>
     </g>
    </g>
    <g id="text_49">
     <!-- Distance Along (US survey ft) -->
     <g transform="translate(210.777344 991.520313) scale(0.1 -0.1)">
      <use xlink:href="#DejaVuSans-44"/>
      <use xlink:href="#DejaVuSans-69" transform="translate(77.001953 0)"/>
      <use xlink:href="#DejaVuSans-73" transform="translate(104.785156 0)"/>
      <use xlink:href="#DejaVuSans-74" transform="translate(156.884766 0)"/>
      <use xlink:href="#DejaVuSans-61" transform="translate(196.09375 0)"/>
      <use xlink:href="#DejaVuSans-6e" transform="translate(257.373047 0)"/>
      <use xlink:href="#DejaVuSans-63" transform="translate(320.751953 0)"/>
      <use xlink:href="#DejaVuSans-65" transform="translate(375.732422 0)"/>
      <use xlink:href="#DejaVuSans-20" transform="translate(437.255859 0)"/>
      <use xlink:href="#DejaVuSans-41" transform="translate(469.042969 0)"/>
      <use xlink:href="#DejaVuSans-6c" transform="translate(537.451172 0)"/>
      <use xlink:href="#DejaVuSans-6f" transform="translate(565.234375 0)"/>
      <use xlink:href="#DejaVuSans-6e" transform="translate(626.416016 0)"/>
      <use xlink:href="#DejaVuSans-67" transform="translate(689.794922 0)"/>
      <use xlink:href="#DejaVuSans-20" transform="translate(753.271484 0)"/>
      <use xlink:href="#DejaVuSans-28" transform="translate(785.058594 0)"/>
      <use xlink:href="#DejaVuSans-55" transform="translate(824.072266 0)"/>
      <use xlink:href="#DejaVuSans-53" transform="translate(897.265625 0)"/>
      <use xlink:href="#DejaVuSans-20" transform="translate(960.742188 0)"/>
      <use xlink:href="#DejaVuSans-73" transform="translate(992.529297 0)"/>
      <use xlink:href="#DejaVuSans-75" transform="translate(1044.628906 0)"/>
      <use xlink:href="#DejaVuSans-72" transform="translate(1108.007812 0)"/>
      <use xlink:href="#DejaVuSans-76" transform="translate(1149.121094 0)"/>
      <use xlink:href="#DejaVuSans-65" transform="translate(1208.300781 0)"/>
      <use xlink:href="#DejaVuSans-79" transform="translate(1269.824219 0)"/>
      <use xlink:href="#DejaVuSans-20" transform="translate(1329.003906 0)"/>
      <use xlink:href="#DejaVuSans-66" transform="translate(1360.791016 0)"/>
      <use xlink:href="#DejaVuSans-74" transform="translate(1394.246094 0)"/>
      <use xlink:href="#DejaVuSans-29" transform="translate(1433.455078 0)"/>
     </g>
    </g>
   </g>
   <g id="matplotlib.axis_8">
    <g id="ytick_22">
     <g id="line2d_76">
      <path d="M 50.14375 929.733765 
L 518.65625 929.733765 
" clip-path="url(#pb8e6dd4120)" style="fill: none; stroke-dasharray: 2.96,1.28; stroke-dashoffset: 0; stroke: #b0b0b0; stroke-opacity: 0.5; stroke-width: 0.8"/>
     </g>
     <g id="line2d_77">
      <g>
       <use xlink:href="#m2ec470766d" x="50.14375" y="929.733765" style="stroke: #000000; stroke-width: 0.8"/>
      </g>
     </g>
     <g id="text_50">
      <!-- 1.51 -->
      <g transform="translate(20.878125 933.532984) scale(0.1 -0.1)">
       <use xlink:href="#DejaVuSans-31"/>
       <use xlink:href="#DejaVuSans-2e" transform="translate(63.623047 0)"/>
       <use xlink:href="#DejaVuSans-35" transform="translate(95.410156 0)"/>
       <use xlink:href="#DejaVuSans-31" transform="translate(159.033203 0)"/>
      </g>
     </g>
    </g>
    <g id="ytick_23">
     <g id="line2d_78">
      <path d="M 50.14375 893.87695 
L 518.65625 893.87695 
" clip-path="url(#pb8e6dd4120)" style="fill: none; stroke-dasharray: 2.96,1.28; stroke-dashoffset: 0; stroke: #b0b0b0; stroke-opacity: 0.5; stroke-width: 0.8"/>
     </g>
     <g id="line2d_79">
      <g>
       <use xlink:href="#m2ec470766d" x="50.14375" y="893.87695" style="stroke: #000000; stroke-width: 0.8"/>
      </g>
     </g>
     <g id="text_51">
      <!-- 1.52 -->
      <g transform="translate(20.878125 897.676169) scale(0.1 -0.1)">
       <use xlink:href="#DejaVuSans-31"/>
       <use xlink:href="#DejaVuSans-2e" transform="translate(63.623047 0)"/>
       <use xlink:href="#DejaVuSans-35" transform="translate(95.410156 0)"/>
       <use xlink:href="#DejaVuSans-32" transform="translate(159.033203 0)"/>
      </g>
     </g>
    </g>
    <g id="ytick_24">
     <g id="line2d_80">
      <path d="M 50.14375 858.020135 
L 518.65625 858.020135 
" clip-path="url(#pb8e6dd4120)" style="fill: none; stroke-dasharray: 2.96,1.28; stroke-dashoffset: 0; stroke: #b0b0b0; stroke-opacity: 0.5; stroke-width: 0.8"/>
     </g>
     <g id="line2d_81">
      <g>
       <use xlink:href="#m2ec470766d" x="50.14375" y="858.020135" style="stroke: #000000; stroke-width: 0.8"/>
      </g>
     </g>
     <g id="text_52">
      <!-- 1.53 -->
      <g transform="translate(20.878125 861.819354) scale(0.1 -0.1)">
       <use xlink:href="#DejaVuSans-31"/>
       <use xlink:href="#DejaVuSans-2e" transform="translate(63.623047 0)"/>
       <use xlink:href="#DejaVuSans-35" transform="translate(95.410156 0)"/>
       <use xlink:href="#DejaVuSans-33" transform="translate(159.033203 0)"/>
      </g>
     </g>
    </g>
    <g id="ytick_25">
     <g id="line2d_82">
      <path d="M 50.14375 822.16332 
L 518.65625 822.16332 
" clip-path="url(#pb8e6dd4120)" style="fill: none; stroke-dasharray: 2.96,1.28; stroke-dashoffset: 0; stroke: #b0b0b0; stroke-opacity: 0.5; stroke-width: 0.8"/>
     </g>
     <g id="line2d_83">
      <g>
       <use xlink:href="#m2ec470766d" x="50.14375" y="822.16332" style="stroke: #000000; stroke-width: 0.8"/>
      </g>
     </g>
     <g id="text_53">
      <!-- 1.54 -->
      <g transform="translate(20.878125 825.962539) scale(0.1 -0.1)">
       <use xlink:href="#DejaVuSans-31"/>
       <use xlink:href="#DejaVuSans-2e" transform="translate(63.623047 0)"/>
       <use xlink:href="#DejaVuSans-35" transform="translate(95.410156 0)"/>
       <use xlink:href="#DejaVuSans-34" transform="translate(159.033203 0)"/>
      </g>
     </g>
    </g>
    <g id="ytick_26">
     <g id="line2d_84">
      <path d="M 50.14375 786.306505 
L 518.65625 786.306505 
" clip-path="url(#pb8e6dd4120)" style="fill: none; stroke-dasharray: 2.96,1.28; stroke-dashoffset: 0; stroke: #b0b0b0; stroke-opacity: 0.5; stroke-width: 0.8"/>
     </g>
     <g id="line2d_85">
      <g>
       <use xlink:href="#m2ec470766d" x="50.14375" y="786.306505" style="stroke: #000000; stroke-width: 0.8"/>
      </g>
     </g>
     <g id="text_54">
      <!-- 1.55 -->
      <g transform="translate(20.878125 790.105724) scale(0.1 -0.1)">
       <use xlink:href="#DejaVuSans-31"/>
       <use xlink:href="#DejaVuSans-2e" transform="translate(63.623047 0)"/>
       <use xlink:href="#DejaVuSans-35" transform="translate(95.410156 0)"/>
       <use xlink:href="#DejaVuSans-35" transform="translate(159.033203 0)"/>
      </g>
     </g>
    </g>
    <g id="ytick_27">
     <g id="line2d_86">
      <path d="M 50.14375 750.44969 
L 518.65625 750.44969 
" clip-path="url(#pb8e6dd4120)" style="fill: none; stroke-dasharray: 2.96,1.28; stroke-dashoffset: 0; stroke: #b0b0b0; stroke-opacity: 0.5; stroke-width: 0.8"/>
     </g>
     <g id="line2d_87">
      <g>
       <use xlink:href="#m2ec470766d" x="50.14375" y="750.44969" style="stroke: #000000; stroke-width: 0.8"/>
      </g>
     </g>
     <g id="text_55">
      <!-- 1.56 -->
      <g transform="translate(20.878125 754.248909) scale(0.1 -0.1)">
       <use xlink:href="#DejaVuSans-31"/>
       <use xlink:href="#DejaVuSans-2e" transform="translate(63.623047 0)"/>
       <use xlink:href="#DejaVuSans-35" transform="translate(95.410156 0)"/>
       <use xlink:href="#DejaVuSans-36" transform="translate(159.033203 0)"/>
      </g>
     </g>
    </g>
    <g id="ytick_28">
     <g id="line2d_88">
      <path d="M 50.14375 714.592875 
L 518.65625 714.592875 
" clip-path="url(#pb8e6dd4120)" style="fill: none; stroke-dasharray: 2.96,1.28; stroke-dashoffset: 0; stroke: #b0b0b0; stroke-opacity: 0.5; stroke-width: 0.8"/>
     </g>
     <g id="line2d_89">
      <g>
       <use xlink:href="#m2ec470766d" x="50.14375" y="714.592875" style="stroke: #000000; stroke-width: 0.8"/>
      </g>
     </g>
     <g id="text_56">
      <!-- 1.57 -->
      <g transform="translate(20.878125 718.392094) scale(0.1 -0.1)">
       <use xlink:href="#DejaVuSans-31"/>
       <use xlink:href="#DejaVuSans-2e" transform="translate(63.623047 0)"/>
       <use xlink:href="#DejaVuSans-35" transform="translate(95.410156 0)"/>
       <use xlink:href="#DejaVuSans-37" transform="translate(159.033203 0)"/>
      </g>
     </g>
    </g>
    <g id="text_57">
     <!-- φ (rad) -->
     <g transform="translate(14.798438 845.223188) rotate(-90) scale(0.1 -0.1)">
      <use xlink:href="#DejaVuSans-3c6"/>
      <use xlink:href="#DejaVuSans-20" transform="translate(65.966797 0)"/>
      <use xlink:href="#DejaVuSans-28" transform="translate(97.753906 0)"/>
      <use xlink:href="#DejaVuSans-72" transform="translate(136.767578 0)"/>
      <use xlink:href="#DejaVuSans-61" transform="translate(177.880859 0)"/>
      <use xlink:href="#DejaVuSans-64" transform="translate(239.160156 0)"/>
      <use xlink:href="#DejaVuSans-29" transform="translate(302.636719 0)"/>
     </g>
    </g>
   </g>
   <g id="line2d_90">
    <path d="M 71.439773 950.961625 
L 75.698977 950.961625 
L 79.958182 950.958047 
L 84.217386 950.95447 
L 88.47659 950.93992 
L 92.735796 950.911298 
L 96.995 950.864549 
L 101.254204 950.785361 
L 105.51341 950.670397 
L 109.772614 950.508683 
L 114.031818 950.289487 
L 118.291023 950.005653 
L 122.550227 949.642632 
L 126.809431 949.189928 
L 131.068637 948.643726 
L 135.327841 947.986137 
L 139.587045 947.213583 
L 143.84625 946.315095 
L 148.105455 945.280174 
L 152.364659 944.101663 
L 156.623864 942.768595 
L 160.883068 941.28097 
L 165.142272 939.628283 
L 169.401478 937.803146 
L 173.660682 935.805561 
L 177.919886 933.62837 
L 182.179091 931.271794 
L 186.438296 928.728453 
L 190.6975 926.005506 
L 194.956705 923.092429 
L 199.215909 919.999746 
L 203.475113 916.724294 
L 207.734319 913.269235 
L 211.993523 909.638554 
L 216.252727 905.839205 
L 220.511932 901.871382 
L 224.771137 897.742051 
L 229.030341 893.458745 
L 233.289546 889.032014 
L 237.54875 884.469194 
L 241.807954 879.773856 
L 246.06716 874.963902 
L 250.326364 870.042909 
L 254.585568 865.025512 
L 258.844773 859.918552 
L 263.103977 854.74009 
L 267.363182 849.497424 
L 271.622387 844.20115 
L 275.881591 838.869312 
L 280.140795 833.509184 
L 284.400001 828.138424 
L 288.659205 822.767901 
L 292.918409 817.408464 
L 297.177614 812.078013 
L 301.436818 806.783505 
L 305.696023 801.53956 
L 309.955228 796.360228 
L 314.214432 791.25293 
L 318.473636 786.235407 
L 322.732842 781.314827 
L 326.992046 776.502008 
L 331.25125 771.811213 
L 335.510455 767.246077 
L 339.769659 762.817238 
L 344.028863 758.535551 
L 348.288069 754.408126 
L 352.547273 750.442089 
L 356.806477 746.637477 
L 361.065683 743.008625 
L 365.324887 739.555494 
L 369.584091 736.278086 
L 373.843296 733.183592 
L 378.1025 730.27555 
L 382.361704 727.550412 
L 386.62091 725.00814 
L 390.880114 722.648751 
L 395.139318 720.47223 
L 399.398523 718.475002 
L 403.657728 716.653472 
L 407.916932 714.996884 
L 412.176137 713.508827 
L 416.435341 712.17854 
L 420.694545 710.99885 
L 424.953751 709.966174 
L 429.212955 709.066169 
L 433.472159 708.291662 
L 437.731364 707.635479 
L 441.990569 707.08687 
L 446.249773 706.63866 
L 450.508978 706.272921 
L 454.768182 705.989653 
L 459.027386 705.770926 
L 463.286592 705.605985 
L 467.545796 705.491238 
L 471.805 705.415938 
L 476.064205 705.365739 
L 480.323409 705.337053 
L 484.582614 705.326296 
L 488.841819 705.319125 
L 493.101023 705.319125 
L 497.360227 705.319125 
" clip-path="url(#pb8e6dd4120)" style="fill: none; stroke: #2ca02c; stroke-width: 1.5; stroke-linecap: square"/>
   </g>
   <g id="patch_15">
    <path d="M 50.14375 963.24375 
L 50.14375 693.037 
" style="fill: none; stroke: #000000; stroke-width: 0.8; stroke-linejoin: miter; stroke-linecap: square"/>
   </g>
   <g id="patch_16">
    <path d="M 518.65625 963.24375 
L 518.65625 693.037 
" style="fill: none; stroke: #000000; stroke-width: 0.8; stroke-linejoin: miter; stroke-linecap: square"/>
   </g>
   <g id="patch_17">
    <path d="M 50.14375 963.24375 
L 518.65625 963.24375 
" style="fill: none; stroke: #000000; stroke-width: 0.8; stroke-linejoin: miter; stroke-linecap: square"/>
   </g>
   <g id="patch_18">
    <path d="M 50.14375 693.037 
L 518.65625 693.037 
" style="fill: none; stroke: #000000; stroke-width: 0.8; stroke-linejoin: miter; stroke-linecap: square"/>
   </g>
   <g id="text_58">
    <!-- Cross-slope angle — VienneseBend -->
    <g transform="translate(213.864375 678.07875) scale(0.08 -0.08)">
     <defs>
      <path id="DejaVuSans-70" d="M 1159 525 
L 1159 -1331 
L 581 -1331 
L 581 3500 
L 1159 3500 
L 1159 2969 
Q 1341 3281 1617 3432 
Q 1894 3584 2278 3584 
Q 2916 3584 3314 3078 
Q 3713 2572 3713 1747 
Q 3713 922 3314 415 
Q 2916 -91 2278 -91 
Q 1894 -91 1617 61 
Q 1341 213 1159 525 
z
M 3116 1747 
Q 3116 2381 2855 2742 
Q 2594 3103 2138 3103 
Q 1681 3103 1420 2742 
Q 1159 2381 1159 1747 
Q 1159 1113 1420 752 
Q 1681 391 2138 391 
Q 2594 391 2855 752 
Q 3116 1113 3116 1747 
z
" transform="scale(0.015625)"/>
     </defs>
     <use xlink:href="#DejaVuSans-43"/>
     <use xlink:href="#DejaVuSans-72" transform="translate(69.824219 0)"/>
     <use xlink:href="#DejaVuSans-6f" transform="translate(108.6875 0)"/>
     <use xlink:href="#DejaVuSans-73" transform="translate(169.869141 0)"/>
     <use xlink:href="#DejaVuSans-73" transform="translate(221.96875 0)"/>
     <use xlink:href="#DejaVuSans-2d" transform="translate(274.068359 0)"/>
     <use xlink:href="#DejaVuSans-73" transform="translate(310.152344 0)"/>
     <use xlink:href="#DejaVuSans-6c" transform="translate(362.251953 0)"/>
     <use xlink:href="#DejaVuSans-6f" transform="translate(390.035156 0)"/>
     <use xlink:href="#DejaVuSans-70" transform="translate(451.216797 0)"/>
     <use xlink:href="#DejaVuSans-65" transform="translate(514.693359 0)"/>
     <use xlink:href="#DejaVuSans-20" transform="translate(576.216797 0)"/>
     <use xlink:href="#DejaVuSans-61" transform="translate(608.003906 0)"/>
     <use xlink:href="#DejaVuSans-6e" transform="translate(669.283203 0)"/>
     <use xlink:href="#DejaVuSans-67" transform="translate(732.662109 0)"/>
     <use xlink:href="#DejaVuSans-6c" transform="translate(796.138672 0)"/>
     <use xlink:href="#DejaVuSans-65" transform="translate(823.921875 0)"/>
     <use xlink:href="#DejaVuSans-20" transform="translate(885.445312 0)"/>
     <use xlink:href="#DejaVuSans-2014" transform="translate(917.232422 0)"/>
     <use xlink:href="#DejaVuSans-20" transform="translate(1017.232422 0)"/>
     <use xlink:href="#DejaVuSans-56" transform="translate(1049.019531 0)"/>
     <use xlink:href="#DejaVuSans-69" transform="translate(1115.177734 0)"/>
     <use xlink:href="#DejaVuSans-65" transform="translate(1142.960938 0)"/>
     <use xlink:href="#DejaVuSans-6e" transform="translate(1204.484375 0)"/>
     <use xlink:href="#DejaVuSans-6e" transform="translate(1267.863281 0)"/>
     <use xlink:href="#DejaVuSans-65" transform="translate(1331.242188 0)"/>
     <use xlink:href="#DejaVuSans-73" transform="translate(1392.765625 0)"/>
     <use xlink:href="#DejaVuSans-65" transform="translate(1444.865234 0)"/>
     <use xlink:href="#DejaVuSans-42" transform="translate(1506.388672 0)"/>
     <use xlink:href="#DejaVuSans-65" transform="translate(1574.992188 0)"/>
     <use xlink:href="#DejaVuSans-6e" transform="translate(1636.515625 0)"/>
     <use xlink:href="#DejaVuSans-64" transform="translate(1699.894531 0)"/>
    </g>
    <!-- Cant_VienneseBend_100.0_-300_-inf_1_SurveyFoot -->
    <g transform="translate(182.371875 687.037) scale(0.08 -0.08)">
     <use xlink:href="#DejaVuSans-43"/>
     <use xlink:href="#DejaVuSans-61" transform="translate(69.824219 0)"/>
     <use xlink:href="#DejaVuSans-6e" transform="translate(131.103516 0)"/>
     <use xlink:href="#DejaVuSans-74" transform="translate(194.482422 0)"/>
     <use xlink:href="#DejaVuSans-5f" transform="translate(233.691406 0)"/>
     <use xlink:href="#DejaVuSans-56" transform="translate(283.691406 0)"/>
     <use xlink:href="#DejaVuSans-69" transform="translate(349.849609 0)"/>
     <use xlink:href="#DejaVuSans-65" transform="translate(377.632812 0)"/>
     <use xlink:href="#DejaVuSans-6e" transform="translate(439.15625 0)"/>
     <use xlink:href="#DejaVuSans-6e" transform="translate(502.535156 0)"/>
     <use xlink:href="#DejaVuSans-65" transform="translate(565.914062 0)"/>
     <use xlink:href="#DejaVuSans-73" transform="translate(627.4375 0)"/>
     <use xlink:href="#DejaVuSans-65" transform="translate(679.537109 0)"/>
     <use xlink:href="#DejaVuSans-42" transform="translate(741.060547 0)"/>
     <use xlink:href="#DejaVuSans-65" transform="translate(809.664062 0)"/>
     <use xlink:href="#DejaVuSans-6e" transform="translate(871.1875 0)"/>
     <use xlink:href="#DejaVuSans-64" transform="translate(934.566406 0)"/>
     <use xlink:href="#DejaVuSans-5f" transform="translate(998.042969 0)"/>
     <use xlink:href="#DejaVuSans-31" transform="translate(1048.042969 0)"/>
     <use xlink:href="#DejaVuSans-30" transform="translate(1111.666016 0)"/>
     <use xlink:href="#DejaVuSans-30" transform="translate(1175.289062 0)"/>
     <use xlink:href="#DejaVuSans-2e" transform="translate(1238.912109 0)"/>
     <use xlink:href="#DejaVuSans-30" transform="translate(1270.699219 0)"/>
     <use xlink:href="#DejaVuSans-5f" transform="translate(1334.322266 0)"/>
     <use xlink:href="#DejaVuSans-2d" transform="translate(1384.322266 0)"/>
     <use xlink:href="#DejaVuSans-33" transform="translate(1420.40625 0)"/>
     <use xlink:href="#DejaVuSans-30" transform="translate(1484.029297 0)"/>
     <use xlink:href="#DejaVuSans-30" transform="translate(1547.652344 0)"/>
     <use xlink:href="#DejaVuSans-5f" transform="translate(1611.275391 0)"/>
     <use xlink:href="#DejaVuSans-2d" transform="translate(1661.275391 0)"/>
     <use xlink:href="#DejaVuSans-69" transform="translate(1697.359375 0)"/>
     <use xlink:href="#DejaVuSans-6e" transform="translate(1725.142578 0)"/>
     <use xlink:href="#DejaVuSans-66" transform="translate(1788.521484 0)"/>
     <use xlink:href="#DejaVuSans-5f" transform="translate(1823.726562 0)"/>
     <use xlink:href="#DejaVuSans-31" transform="translate(1873.726562 0)"/>
     <use xlink:href="#DejaVuSans-5f" transform="translate(1937.349609 0)"/>
     <use xlink:href="#DejaVuSans-53" transform="translate(1987.349609 0)"/>
     <use xlink:href="#DejaVuSans-75" transform="translate(2050.826172 0)"/>
     <use xlink:href="#DejaVuSans-72" transform="translate(2114.205078 0)"/>
     <use xlink:href="#DejaVuSans-76" transform="translate(2155.318359 0)"/>
     <use xlink:href="#DejaVuSans-65" transform="translate(2214.498047 0)"/>
     <use xlink:href="#DejaVuSans-79" transform="translate(2276.021484 0)"/>
     <use xlink:href="#DejaVuSans-46" transform="translate(2335.201172 0)"/>
     <use xlink:href="#DejaVuSans-6f" transform="translate(2389.095703 0)"/>
     <use xlink:href="#DejaVuSans-6f" transform="translate(2450.277344 0)"/>
     <use xlink:href="#DejaVuSans-74" transform="translate(2511.458984 0)"/>
    </g>
   </g>
  </g>
 </g>
 <defs>
  <clipPath id="p6062c03b00">
   <rect x="50.14375" y="28.237" width="468.5125" height="270.20675"/>
  </clipPath>
  <clipPath id="p6817efb2a2">
   <rect x="50.14375" y="360.637" width="468.5125" height="270.20675"/>
  </clipPath>
  <clipPath id="pb8e6dd4120">
   <rect x="50.14375" y="693.037" width="468.5125" height="270.20675"/>
  </clipPath>
 </defs>
</svg>
