<?xml version="1.0" encoding="utf-8" standalone="no"?>
<!DOCTYPE svg PUBLIC "-//W3C//DTD SVG 1.1//EN"
  "http://www.w3.org/Graphics/SVG/1.1/DTD/svg11.dtd">
<svg xmlns:xlink="http://www.w3.org/1999/xlink" width="584.64pt" height="688.162656pt" viewBox="0 0 584.64 688.162656" xmlns="http://www.w3.org/2000/svg" version="1.1">
 <metadata>
  <rdf:RDF xmlns:dc="http://purl.org/dc/elements/1.1/" xmlns:cc="http://creativecommons.org/ns#" xmlns:rdf="http://www.w3.org/1999/02/22-rdf-syntax-ns#">
   <cc:Work>
    <dc:type rdf:resource="http://purl.org/dc/dcmitype/StillImage"/>
    <dc:date>2026-05-16T19:59:53.861567</dc:date>
    <dc:format>image/svg+xml</dc:format>
    <dc:creator>
     <cc:Agent>
      <dc:title>Matplotlib v3.10.9, https://matplotlib.org/</dc:title>
     </cc:Agent>
    </dc:creator>
   </cc:Work>
  </rdf:RDF>
 </metadata>
 <defs>
  <style type="text/css">*{stroke-linejoin: round; stroke-linecap: butt}</style>
 </defs>
 <g id="figure_1">
  <g id="patch_1">
   <path d="M 0 688.162656 
L 584.64 688.162656 
L 584.64 0 
L 0 0 
z
" style="fill: #0b1929"/>
  </g>
  <g id="patch_2">
   <path d="M 7.2 630.947031 
L 577.44 630.947031 
L 577.44 60.707031 
L 7.2 60.707031 
z
" style="fill: #0b1929"/>
  </g>
  <g id="axes_1">
   <g id="line2d_1">
    <path d="M 131.260331 322.026773 
L 132.195637 321.502698 
" clip-path="url(#p4aadcd95c6)" style="fill: none; stroke: #4a90c4; stroke-opacity: 0.3; stroke-width: 1.1; stroke-linecap: square"/>
   </g>
   <g id="line2d_2">
    <path d="M 147.070416 327.994218 
L 148.004036 327.466282 
" clip-path="url(#p4aadcd95c6)" style="fill: none; stroke: #4a90c4; stroke-opacity: 0.3; stroke-width: 1.1; stroke-linecap: square"/>
   </g>
   <g id="line2d_3">
    <path d="M 162.997204 334.005712 
L 163.929087 333.473872 
" clip-path="url(#p4aadcd95c6)" style="fill: none; stroke: #4a90c4; stroke-opacity: 0.3; stroke-width: 1.1; stroke-linecap: square"/>
   </g>
   <g id="line2d_4">
    <path d="M 179.041991 340.061744 
L 179.972086 339.525957 
" clip-path="url(#p4aadcd95c6)" style="fill: none; stroke: #4a90c4; stroke-opacity: 0.3; stroke-width: 1.1; stroke-linecap: square"/>
   </g>
   <g id="line2d_5">
    <path d="M 195.206092 346.16281 
L 196.134347 345.623033 
" clip-path="url(#p4aadcd95c6)" style="fill: none; stroke: #4a90c4; stroke-opacity: 0.3; stroke-width: 1.1; stroke-linecap: square"/>
   </g>
   <g id="line2d_6">
    <path d="M 208.801125 350.522001 
L 209.703248 348.425807 
" clip-path="url(#p4aadcd95c6)" style="fill: none; stroke: #4a90c4; stroke-opacity: 0.318145; stroke-width: 1.1; stroke-linecap: square"/>
   </g>
   <g id="line2d_7">
    <path d="M 218.570124 352.10148 
L 219.410576 345.790764 
" clip-path="url(#p4aadcd95c6)" style="fill: none; stroke: #4a90c4; stroke-opacity: 0.367137; stroke-width: 1.1; stroke-linecap: square"/>
   </g>
   <g id="line2d_8">
    <path d="M 228.445373 353.658603 
L 229.232695 343.105789 
" clip-path="url(#p4aadcd95c6)" style="fill: none; stroke: #4a90c4; stroke-opacity: 0.416129; stroke-width: 1.1; stroke-linecap: square"/>
   </g>
   <g id="line2d_9">
    <path d="M 238.463635 355.170209 
L 239.206608 340.347866 
" clip-path="url(#p4aadcd95c6)" style="fill: none; stroke: #4a90c4; stroke-opacity: 0.465121; stroke-width: 1.1; stroke-linecap: square"/>
   </g>
   <g id="line2d_10">
    <path d="M 248.659877 356.612224 
L 249.367571 337.493287 
" clip-path="url(#p4aadcd95c6)" style="fill: none; stroke: #4a90c4; stroke-opacity: 0.514113; stroke-width: 1.1; stroke-linecap: square"/>
   </g>
   <g id="line2d_11">
    <path d="M 259.066473 357.959453 
L 259.748296 334.517461 
" clip-path="url(#p4aadcd95c6)" style="fill: none; stroke: #4a90c4; stroke-opacity: 0.563105; stroke-width: 1.1; stroke-linecap: square"/>
   </g>
   <g id="line2d_12">
    <path d="M 269.712338 359.185398 
L 270.378076 331.394743 
" clip-path="url(#p4aadcd95c6)" style="fill: none; stroke: #4a90c4; stroke-opacity: 0.612097; stroke-width: 1.1; stroke-linecap: square"/>
   </g>
   <g id="line2d_13">
    <path d="M 280.621985 360.262121 
L 281.28184 328.098322 
" clip-path="url(#p4aadcd95c6)" style="fill: none; stroke: #4a90c4; stroke-opacity: 0.661089; stroke-width: 1.1; stroke-linecap: square"/>
   </g>
   <g id="line2d_14">
    <path d="M 291.814507 361.160155 
L 292.479118 324.600155 
" clip-path="url(#p4aadcd95c6)" style="fill: none; stroke: #4a90c4; stroke-opacity: 0.710081; stroke-width: 1.1; stroke-linecap: square"/>
   </g>
   <g id="line2d_15">
    <path d="M 304.380698 362.494541 
L 305.062328 322.319398 
" clip-path="url(#p4aadcd95c6)" style="fill: none; stroke: #4a90c4; stroke-opacity: 0.75; stroke-width: 1.1; stroke-linecap: square"/>
   </g>
   <g id="line2d_16">
    <path d="M 322.175108 366.26483 
L 322.884003 326.003938 
" clip-path="url(#p4aadcd95c6)" style="fill: none; stroke: #4a90c4; stroke-opacity: 0.75; stroke-width: 1.1; stroke-linecap: square"/>
   </g>
   <g id="line2d_17">
    <path d="M 340.514667 369.489749 
L 341.251494 329.15553 
" clip-path="url(#p4aadcd95c6)" style="fill: none; stroke: #4a90c4; stroke-opacity: 0.75; stroke-width: 1.1; stroke-linecap: square"/>
   </g>
   <g id="line2d_18">
    <path d="M 359.305965 372.14915 
L 360.071221 331.754476 
" clip-path="url(#p4aadcd95c6)" style="fill: none; stroke: #4a90c4; stroke-opacity: 0.75; stroke-width: 1.1; stroke-linecap: square"/>
   </g>
   <g id="line2d_19">
    <path d="M 378.451797 374.22627 
L 379.245809 333.784386 
" clip-path="url(#p4aadcd95c6)" style="fill: none; stroke: #4a90c4; stroke-opacity: 0.75; stroke-width: 1.1; stroke-linecap: square"/>
   </g>
   <g id="line2d_20">
    <path d="M 397.851931 375.707925 
L 398.674844 335.232369 
" clip-path="url(#p4aadcd95c6)" style="fill: none; stroke: #4a90c4; stroke-opacity: 0.75; stroke-width: 1.1; stroke-linecap: square"/>
   </g>
   <g id="line2d_21">
    <path d="M 417.403908 376.584658 
L 418.255686 336.08918 
" clip-path="url(#p4aadcd95c6)" style="fill: none; stroke: #4a90c4; stroke-opacity: 0.75; stroke-width: 1.1; stroke-linecap: square"/>
   </g>
   <g id="line2d_22">
    <path d="M 437.003897 376.850856 
L 437.884318 336.349329 
" clip-path="url(#p4aadcd95c6)" style="fill: none; stroke: #4a90c4; stroke-opacity: 0.75; stroke-width: 1.1; stroke-linecap: square"/>
   </g>
   <g id="line2d_23">
    <path d="M 456.547557 376.50481 
L 457.456217 336.011147 
" clip-path="url(#p4aadcd95c6)" style="fill: none; stroke: #4a90c4; stroke-opacity: 0.75; stroke-width: 1.1; stroke-linecap: square"/>
   </g>
   <g id="line2d_24">
    <path d="M 476.644405 375.501684 
L 477.581727 335.030815 
" clip-path="url(#p4aadcd95c6)" style="fill: none; stroke: #4a90c4; stroke-opacity: 0.75; stroke-width: 1.1; stroke-linecap: square"/>
   </g>
   <g id="Path3DCollection_1">
    <defs>
     <path id="C0_0_2d70e3a89f" d="M 0 1.224745 
C 0.324806 1.224745 0.636353 1.095698 0.866025 0.866025 
C 1.095698 0.636353 1.224745 0.324806 1.224745 -0 
C 1.224745 -0.324806 1.095698 -0.636353 0.866025 -0.866025 
C 0.636353 -1.095698 0.324806 -1.224745 0 -1.224745 
C -0.324806 -1.224745 -0.636353 -1.095698 -0.866025 -0.866025 
C -1.095698 -0.636353 -1.224745 -0.324806 -1.224745 0 
C -1.224745 0.324806 -1.095698 0.636353 -0.866025 0.866025 
C -0.636353 1.095698 -0.324806 1.224745 0 1.224745 
z
"/>
    </defs>
    <g clip-path="url(#p4aadcd95c6)">
     <use xlink:href="#C0_0_2d70e3a89f" x="132.195637" y="321.502698" style="fill: #4a90c4; fill-opacity: 0.5; stroke: #4a90c4; stroke-opacity: 0.5"/>
    </g>
    <g clip-path="url(#p4aadcd95c6)">
     <use xlink:href="#C0_0_2d70e3a89f" x="131.260331" y="322.026773" style="fill: #4a90c4; fill-opacity: 0.5; stroke: #4a90c4; stroke-opacity: 0.5"/>
    </g>
   </g>
   <g id="Path3DCollection_2">
    <defs>
     <path id="C1_0_5f7aa5292a" d="M 0 1.224745 
C 0.324806 1.224745 0.636353 1.095698 0.866025 0.866025 
C 1.095698 0.636353 1.224745 0.324806 1.224745 -0 
C 1.224745 -0.324806 1.095698 -0.636353 0.866025 -0.866025 
C 0.636353 -1.095698 0.324806 -1.224745 0 -1.224745 
C -0.324806 -1.224745 -0.636353 -1.095698 -0.866025 -0.866025 
C -1.095698 -0.636353 -1.224745 -0.324806 -1.224745 0 
C -1.224745 0.324806 -1.095698 0.636353 -0.866025 0.866025 
C -0.636353 1.095698 -0.324806 1.224745 0 1.224745 
z
"/>
    </defs>
    <g clip-path="url(#p4aadcd95c6)">
     <use xlink:href="#C1_0_5f7aa5292a" x="148.004036" y="327.466282" style="fill: #4a90c4; fill-opacity: 0.5; stroke: #4a90c4; stroke-opacity: 0.5"/>
    </g>
    <g clip-path="url(#p4aadcd95c6)">
     <use xlink:href="#C1_0_5f7aa5292a" x="147.070416" y="327.994218" style="fill: #4a90c4; fill-opacity: 0.5; stroke: #4a90c4; stroke-opacity: 0.5"/>
    </g>
   </g>
   <g id="Path3DCollection_3">
    <defs>
     <path id="C2_0_8dbd40c6e7" d="M 0 1.224745 
C 0.324806 1.224745 0.636353 1.095698 0.866025 0.866025 
C 1.095698 0.636353 1.224745 0.324806 1.224745 -0 
C 1.224745 -0.324806 1.095698 -0.636353 0.866025 -0.866025 
C 0.636353 -1.095698 0.324806 -1.224745 0 -1.224745 
C -0.324806 -1.224745 -0.636353 -1.095698 -0.866025 -0.866025 
C -1.095698 -0.636353 -1.224745 -0.324806 -1.224745 0 
C -1.224745 0.324806 -1.095698 0.636353 -0.866025 0.866025 
C -0.636353 1.095698 -0.324806 1.224745 0 1.224745 
z
"/>
    </defs>
    <g clip-path="url(#p4aadcd95c6)">
     <use xlink:href="#C2_0_8dbd40c6e7" x="163.929087" y="333.473872" style="fill: #4a90c4; fill-opacity: 0.5; stroke: #4a90c4; stroke-opacity: 0.5"/>
    </g>
    <g clip-path="url(#p4aadcd95c6)">
     <use xlink:href="#C2_0_8dbd40c6e7" x="162.997204" y="334.005712" style="fill: #4a90c4; fill-opacity: 0.5; stroke: #4a90c4; stroke-opacity: 0.5"/>
    </g>
   </g>
   <g id="Path3DCollection_4">
    <defs>
     <path id="C3_0_aaca057178" d="M 0 1.224745 
C 0.324806 1.224745 0.636353 1.095698 0.866025 0.866025 
C 1.095698 0.636353 1.224745 0.324806 1.224745 -0 
C 1.224745 -0.324806 1.095698 -0.636353 0.866025 -0.866025 
C 0.636353 -1.095698 0.324806 -1.224745 0 -1.224745 
C -0.324806 -1.224745 -0.636353 -1.095698 -0.866025 -0.866025 
C -1.095698 -0.636353 -1.224745 -0.324806 -1.224745 0 
C -1.224745 0.324806 -1.095698 0.636353 -0.866025 0.866025 
C -0.636353 1.095698 -0.324806 1.224745 0 1.224745 
z
"/>
    </defs>
    <g clip-path="url(#p4aadcd95c6)">
     <use xlink:href="#C3_0_aaca057178" x="179.972086" y="339.525957" style="fill: #4a90c4; fill-opacity: 0.5; stroke: #4a90c4; stroke-opacity: 0.5"/>
    </g>
    <g clip-path="url(#p4aadcd95c6)">
     <use xlink:href="#C3_0_aaca057178" x="179.041991" y="340.061744" style="fill: #4a90c4; fill-opacity: 0.5; stroke: #4a90c4; stroke-opacity: 0.5"/>
    </g>
   </g>
   <g id="Path3DCollection_5">
    <defs>
     <path id="C4_0_551342b178" d="M 0 1.224745 
C 0.324806 1.224745 0.636353 1.095698 0.866025 0.866025 
C 1.095698 0.636353 1.224745 0.324806 1.224745 -0 
C 1.224745 -0.324806 1.095698 -0.636353 0.866025 -0.866025 
C 0.636353 -1.095698 0.324806 -1.224745 0 -1.224745 
C -0.324806 -1.224745 -0.636353 -1.095698 -0.866025 -0.866025 
C -1.095698 -0.636353 -1.224745 -0.324806 -1.224745 0 
C -1.224745 0.324806 -1.095698 0.636353 -0.866025 0.866025 
C -0.636353 1.095698 -0.324806 1.224745 0 1.224745 
z
"/>
    </defs>
    <g clip-path="url(#p4aadcd95c6)">
     <use xlink:href="#C4_0_551342b178" x="196.134347" y="345.623033" style="fill: #4a90c4; fill-opacity: 0.5; stroke: #4a90c4; stroke-opacity: 0.5"/>
    </g>
    <g clip-path="url(#p4aadcd95c6)">
     <use xlink:href="#C4_0_551342b178" x="195.206092" y="346.16281" style="fill: #4a90c4; fill-opacity: 0.5; stroke: #4a90c4; stroke-opacity: 0.5"/>
    </g>
   </g>
   <g id="Path3DCollection_6">
    <defs>
     <path id="C5_0_545854d757" d="M 0 1.224745 
C 0.324806 1.224745 0.636353 1.095698 0.866025 0.866025 
C 1.095698 0.636353 1.224745 0.324806 1.224745 -0 
C 1.224745 -0.324806 1.095698 -0.636353 0.866025 -0.866025 
C 0.636353 -1.095698 0.324806 -1.224745 0 -1.224745 
C -0.324806 -1.224745 -0.636353 -1.095698 -0.866025 -0.866025 
C -1.095698 -0.636353 -1.224745 -0.324806 -1.224745 0 
C -1.224745 0.324806 -1.095698 0.636353 -0.866025 0.866025 
C -0.636353 1.095698 -0.324806 1.224745 0 1.224745 
z
"/>
    </defs>
    <g clip-path="url(#p4aadcd95c6)">
     <use xlink:href="#C5_0_545854d757" x="209.703248" y="348.425807" style="fill: #4a90c4; fill-opacity: 0.518145; stroke: #4a90c4; stroke-opacity: 0.518145"/>
    </g>
    <g clip-path="url(#p4aadcd95c6)">
     <use xlink:href="#C5_0_545854d757" x="208.801125" y="350.522001" style="fill: #4a90c4; fill-opacity: 0.518145; stroke: #4a90c4; stroke-opacity: 0.518145"/>
    </g>
   </g>
   <g id="Path3DCollection_7">
    <defs>
     <path id="C6_0_7aafac1425" d="M 0 1.224745 
C 0.324806 1.224745 0.636353 1.095698 0.866025 0.866025 
C 1.095698 0.636353 1.224745 0.324806 1.224745 -0 
C 1.224745 -0.324806 1.095698 -0.636353 0.866025 -0.866025 
C 0.636353 -1.095698 0.324806 -1.224745 0 -1.224745 
C -0.324806 -1.224745 -0.636353 -1.095698 -0.866025 -0.866025 
C -1.095698 -0.636353 -1.224745 -0.324806 -1.224745 0 
C -1.224745 0.324806 -1.095698 0.636353 -0.866025 0.866025 
C -0.636353 1.095698 -0.324806 1.224745 0 1.224745 
z
"/>
    </defs>
    <g clip-path="url(#p4aadcd95c6)">
     <use xlink:href="#C6_0_7aafac1425" x="218.570124" y="352.10148" style="fill: #4a90c4; fill-opacity: 0.567137; stroke: #4a90c4; stroke-opacity: 0.567137"/>
    </g>
    <g clip-path="url(#p4aadcd95c6)">
     <use xlink:href="#C6_0_7aafac1425" x="219.410576" y="345.790764" style="fill: #4a90c4; fill-opacity: 0.567137; stroke: #4a90c4; stroke-opacity: 0.567137"/>
    </g>
   </g>
   <g id="Path3DCollection_8">
    <defs>
     <path id="C7_0_c88e887804" d="M 0 1.224745 
C 0.324806 1.224745 0.636353 1.095698 0.866025 0.866025 
C 1.095698 0.636353 1.224745 0.324806 1.224745 -0 
C 1.224745 -0.324806 1.095698 -0.636353 0.866025 -0.866025 
C 0.636353 -1.095698 0.324806 -1.224745 0 -1.224745 
C -0.324806 -1.224745 -0.636353 -1.095698 -0.866025 -0.866025 
C -1.095698 -0.636353 -1.224745 -0.324806 -1.224745 0 
C -1.224745 0.324806 -1.095698 0.636353 -0.866025 0.866025 
C -0.636353 1.095698 -0.324806 1.224745 0 1.224745 
z
"/>
    </defs>
    <g clip-path="url(#p4aadcd95c6)">
     <use xlink:href="#C7_0_c88e887804" x="228.445373" y="353.658603" style="fill: #4a90c4; fill-opacity: 0.616129; stroke: #4a90c4; stroke-opacity: 0.616129"/>
    </g>
    <g clip-path="url(#p4aadcd95c6)">
     <use xlink:href="#C7_0_c88e887804" x="229.232695" y="343.105789" style="fill: #4a90c4; fill-opacity: 0.616129; stroke: #4a90c4; stroke-opacity: 0.616129"/>
    </g>
   </g>
   <g id="line2d_25">
    <path d="M 131.728059 321.764693 
L 205.665998 349.66469 
L 236.598828 347.910652 
L 253.988791 346.692788 
L 268.849648 345.43197 
L 282.590987 344.042943 
L 295.520225 342.511315 
L 301.489693 341.723992 
L 311.903866 344.053985 
L 322.528413 346.199247 
L 333.344601 348.155107 
L 344.333139 349.917278 
L 355.474235 351.481876 
L 366.747644 352.845436 
L 378.132724 354.004922 
L 389.608495 354.957745 
L 401.153699 355.701771 
L 412.746858 356.235326 
L 424.366344 356.557212 
L 435.990435 356.666701 
L 447.597385 356.563548 
L 459.165484 356.247984 
L 470.673128 355.720722 
L 477.111554 355.331531 
L 477.111554 355.331531 
" clip-path="url(#p4aadcd95c6)" style="fill: none; stroke: #7ec8e3; stroke-width: 2.5; stroke-linecap: round"/>
   </g>
   <g id="Path3DCollection_9">
    <defs>
     <path id="C8_0_5a35deb27d" d="M 0 1.224745 
C 0.324806 1.224745 0.636353 1.095698 0.866025 0.866025 
C 1.095698 0.636353 1.224745 0.324806 1.224745 -0 
C 1.224745 -0.324806 1.095698 -0.636353 0.866025 -0.866025 
C 0.636353 -1.095698 0.324806 -1.224745 0 -1.224745 
C -0.324806 -1.224745 -0.636353 -1.095698 -0.866025 -0.866025 
C -1.095698 -0.636353 -1.224745 -0.324806 -1.224745 0 
C -1.224745 0.324806 -1.095698 0.636353 -0.866025 0.866025 
C -0.636353 1.095698 -0.324806 1.224745 0 1.224745 
z
"/>
    </defs>
    <g clip-path="url(#p4aadcd95c6)">
     <use xlink:href="#C8_0_5a35deb27d" x="238.463635" y="355.170209" style="fill: #4a90c4; fill-opacity: 0.665121; stroke: #4a90c4; stroke-opacity: 0.665121"/>
    </g>
    <g clip-path="url(#p4aadcd95c6)">
     <use xlink:href="#C8_0_5a35deb27d" x="239.206608" y="340.347866" style="fill: #4a90c4; fill-opacity: 0.665121; stroke: #4a90c4; stroke-opacity: 0.665121"/>
    </g>
   </g>
   <g id="Path3DCollection_10">
    <defs>
     <path id="C9_0_b9f09b8004" d="M 0 1.224745 
C 0.324806 1.224745 0.636353 1.095698 0.866025 0.866025 
C 1.095698 0.636353 1.224745 0.324806 1.224745 -0 
C 1.224745 -0.324806 1.095698 -0.636353 0.866025 -0.866025 
C 0.636353 -1.095698 0.324806 -1.224745 0 -1.224745 
C -0.324806 -1.224745 -0.636353 -1.095698 -0.866025 -0.866025 
C -1.095698 -0.636353 -1.224745 -0.324806 -1.224745 0 
C -1.224745 0.324806 -1.095698 0.636353 -0.866025 0.866025 
C -0.636353 1.095698 -0.324806 1.224745 0 1.224745 
z
"/>
    </defs>
    <g clip-path="url(#p4aadcd95c6)">
     <use xlink:href="#C9_0_b9f09b8004" x="248.659877" y="356.612224" style="fill: #4a90c4; fill-opacity: 0.714113; stroke: #4a90c4; stroke-opacity: 0.714113"/>
    </g>
    <g clip-path="url(#p4aadcd95c6)">
     <use xlink:href="#C9_0_b9f09b8004" x="249.367571" y="337.493287" style="fill: #4a90c4; fill-opacity: 0.714113; stroke: #4a90c4; stroke-opacity: 0.714113"/>
    </g>
   </g>
   <g id="Path3DCollection_11">
    <defs>
     <path id="Ca_0_b598a00693" d="M 0 1.224745 
C 0.324806 1.224745 0.636353 1.095698 0.866025 0.866025 
C 1.095698 0.636353 1.224745 0.324806 1.224745 -0 
C 1.224745 -0.324806 1.095698 -0.636353 0.866025 -0.866025 
C 0.636353 -1.095698 0.324806 -1.224745 0 -1.224745 
C -0.324806 -1.224745 -0.636353 -1.095698 -0.866025 -0.866025 
C -1.095698 -0.636353 -1.224745 -0.324806 -1.224745 0 
C -1.224745 0.324806 -1.095698 0.636353 -0.866025 0.866025 
C -0.636353 1.095698 -0.324806 1.224745 0 1.224745 
z
"/>
    </defs>
    <g clip-path="url(#p4aadcd95c6)">
     <use xlink:href="#Ca_0_b598a00693" x="259.066473" y="357.959453" style="fill: #4a90c4; fill-opacity: 0.763105; stroke: #4a90c4; stroke-opacity: 0.763105"/>
    </g>
    <g clip-path="url(#p4aadcd95c6)">
     <use xlink:href="#Ca_0_b598a00693" x="259.748296" y="334.517461" style="fill: #4a90c4; fill-opacity: 0.763105; stroke: #4a90c4; stroke-opacity: 0.763105"/>
    </g>
   </g>
   <g id="Path3DCollection_12">
    <defs>
     <path id="Cb_0_a2b28bf947" d="M 0 1.224745 
C 0.324806 1.224745 0.636353 1.095698 0.866025 0.866025 
C 1.095698 0.636353 1.224745 0.324806 1.224745 -0 
C 1.224745 -0.324806 1.095698 -0.636353 0.866025 -0.866025 
C 0.636353 -1.095698 0.324806 -1.224745 0 -1.224745 
C -0.324806 -1.224745 -0.636353 -1.095698 -0.866025 -0.866025 
C -1.095698 -0.636353 -1.224745 -0.324806 -1.224745 0 
C -1.224745 0.324806 -1.095698 0.636353 -0.866025 0.866025 
C -0.636353 1.095698 -0.324806 1.224745 0 1.224745 
z
"/>
    </defs>
    <g clip-path="url(#p4aadcd95c6)">
     <use xlink:href="#Cb_0_a2b28bf947" x="269.712338" y="359.185398" style="fill: #4a90c4; fill-opacity: 0.812097; stroke: #4a90c4; stroke-opacity: 0.812097"/>
    </g>
    <g clip-path="url(#p4aadcd95c6)">
     <use xlink:href="#Cb_0_a2b28bf947" x="270.378076" y="331.394743" style="fill: #4a90c4; fill-opacity: 0.812097; stroke: #4a90c4; stroke-opacity: 0.812097"/>
    </g>
   </g>
   <g id="Path3DCollection_13">
    <defs>
     <path id="Cc_0_2841bd3df8" d="M 0 1.224745 
C 0.324806 1.224745 0.636353 1.095698 0.866025 0.866025 
C 1.095698 0.636353 1.224745 0.324806 1.224745 -0 
C 1.224745 -0.324806 1.095698 -0.636353 0.866025 -0.866025 
C 0.636353 -1.095698 0.324806 -1.224745 0 -1.224745 
C -0.324806 -1.224745 -0.636353 -1.095698 -0.866025 -0.866025 
C -1.095698 -0.636353 -1.224745 -0.324806 -1.224745 0 
C -1.224745 0.324806 -1.095698 0.636353 -0.866025 0.866025 
C -0.636353 1.095698 -0.324806 1.224745 0 1.224745 
z
"/>
    </defs>
    <g clip-path="url(#p4aadcd95c6)">
     <use xlink:href="#Cc_0_2841bd3df8" x="280.621985" y="360.262121" style="fill: #4a90c4; fill-opacity: 0.861089; stroke: #4a90c4; stroke-opacity: 0.861089"/>
    </g>
    <g clip-path="url(#p4aadcd95c6)">
     <use xlink:href="#Cc_0_2841bd3df8" x="281.28184" y="328.098322" style="fill: #4a90c4; fill-opacity: 0.861089; stroke: #4a90c4; stroke-opacity: 0.861089"/>
    </g>
   </g>
   <g id="Path3DCollection_14">
    <defs>
     <path id="Cd_0_b4ed7aac0a" d="M 0 1.224745 
C 0.324806 1.224745 0.636353 1.095698 0.866025 0.866025 
C 1.095698 0.636353 1.224745 0.324806 1.224745 -0 
C 1.224745 -0.324806 1.095698 -0.636353 0.866025 -0.866025 
C 0.636353 -1.095698 0.324806 -1.224745 0 -1.224745 
C -0.324806 -1.224745 -0.636353 -1.095698 -0.866025 -0.866025 
C -1.095698 -0.636353 -1.224745 -0.324806 -1.224745 0 
C -1.224745 0.324806 -1.095698 0.636353 -0.866025 0.866025 
C -0.636353 1.095698 -0.324806 1.224745 0 1.224745 
z
"/>
    </defs>
    <g clip-path="url(#p4aadcd95c6)">
     <use xlink:href="#Cd_0_b4ed7aac0a" x="291.814507" y="361.160155" style="fill: #4a90c4; fill-opacity: 0.910081; stroke: #4a90c4; stroke-opacity: 0.910081"/>
    </g>
    <g clip-path="url(#p4aadcd95c6)">
     <use xlink:href="#Cd_0_b4ed7aac0a" x="292.479118" y="324.600155" style="fill: #4a90c4; fill-opacity: 0.910081; stroke: #4a90c4; stroke-opacity: 0.910081"/>
    </g>
   </g>
   <g id="Path3DCollection_15">
    <defs>
     <path id="Ce_0_bfabed301f" d="M 0 1.224745 
C 0.324806 1.224745 0.636353 1.095698 0.866025 0.866025 
C 1.095698 0.636353 1.224745 0.324806 1.224745 -0 
C 1.224745 -0.324806 1.095698 -0.636353 0.866025 -0.866025 
C 0.636353 -1.095698 0.324806 -1.224745 0 -1.224745 
C -0.324806 -1.224745 -0.636353 -1.095698 -0.866025 -0.866025 
C -1.095698 -0.636353 -1.224745 -0.324806 -1.224745 0 
C -1.224745 0.324806 -1.095698 0.636353 -0.866025 0.866025 
C -0.636353 1.095698 -0.324806 1.224745 0 1.224745 
z
"/>
    </defs>
    <g clip-path="url(#p4aadcd95c6)">
     <use xlink:href="#Ce_0_bfabed301f" x="304.380698" y="362.494541" style="fill: #4a90c4; fill-opacity: 0.95; stroke: #4a90c4; stroke-opacity: 0.95"/>
    </g>
    <g clip-path="url(#p4aadcd95c6)">
     <use xlink:href="#Ce_0_bfabed301f" x="305.062328" y="322.319398" style="fill: #4a90c4; fill-opacity: 0.95; stroke: #4a90c4; stroke-opacity: 0.95"/>
    </g>
   </g>
   <g id="Path3DCollection_16">
    <defs>
     <path id="Cf_0_29f8eeab0f" d="M 0 1.224745 
C 0.324806 1.224745 0.636353 1.095698 0.866025 0.866025 
C 1.095698 0.636353 1.224745 0.324806 1.224745 -0 
C 1.224745 -0.324806 1.095698 -0.636353 0.866025 -0.866025 
C 0.636353 -1.095698 0.324806 -1.224745 0 -1.224745 
C -0.324806 -1.224745 -0.636353 -1.095698 -0.866025 -0.866025 
C -1.095698 -0.636353 -1.224745 -0.324806 -1.224745 0 
C -1.224745 0.324806 -1.095698 0.636353 -0.866025 0.866025 
C -0.636353 1.095698 -0.324806 1.224745 0 1.224745 
z
"/>
    </defs>
    <g clip-path="url(#p4aadcd95c6)">
     <use xlink:href="#Cf_0_29f8eeab0f" x="322.175108" y="366.26483" style="fill: #4a90c4; fill-opacity: 0.95; stroke: #4a90c4; stroke-opacity: 0.95"/>
    </g>
    <g clip-path="url(#p4aadcd95c6)">
     <use xlink:href="#Cf_0_29f8eeab0f" x="322.884003" y="326.003938" style="fill: #4a90c4; fill-opacity: 0.95; stroke: #4a90c4; stroke-opacity: 0.95"/>
    </g>
   </g>
   <g id="Line3DCollection_1">
    <path d="M 373.974995 322.14812 
L 358.280983 351.84174 
" clip-path="url(#p4aadcd95c6)" style="fill: none; stroke: #6bcb77; stroke-width: 2.5"/>
    <path d="M 373.974995 322.14812 
L 370.567724 338.197422 
" clip-path="url(#p4aadcd95c6)" style="fill: none; stroke: #6bcb77; stroke-width: 2.5"/>
    <path d="M 373.974995 322.14812 
L 370.807339 318.506191 
" clip-path="url(#p4aadcd95c6)" style="fill: none; stroke: #6bcb77; stroke-width: 2.5"/>
   </g>
   <g id="Path3DCollection_17">
    <defs>
     <path id="C10_0_072f41bbe6" d="M 0 1.224745 
C 0.324806 1.224745 0.636353 1.095698 0.866025 0.866025 
C 1.095698 0.636353 1.224745 0.324806 1.224745 -0 
C 1.224745 -0.324806 1.095698 -0.636353 0.866025 -0.866025 
C 0.636353 -1.095698 0.324806 -1.224745 0 -1.224745 
C -0.324806 -1.224745 -0.636353 -1.095698 -0.866025 -0.866025 
C -1.095698 -0.636353 -1.224745 -0.324806 -1.224745 0 
C -1.224745 0.324806 -1.095698 0.636353 -0.866025 0.866025 
C -0.636353 1.095698 -0.324806 1.224745 0 1.224745 
z
"/>
    </defs>
    <g clip-path="url(#p4aadcd95c6)">
     <use xlink:href="#C10_0_072f41bbe6" x="340.514667" y="369.489749" style="fill: #4a90c4; fill-opacity: 0.95; stroke: #4a90c4; stroke-opacity: 0.95"/>
    </g>
    <g clip-path="url(#p4aadcd95c6)">
     <use xlink:href="#C10_0_072f41bbe6" x="341.251494" y="329.15553" style="fill: #4a90c4; fill-opacity: 0.95; stroke: #4a90c4; stroke-opacity: 0.95"/>
    </g>
   </g>
   <g id="Path3DCollection_18">
    <defs>
     <path id="C11_0_ecd3d59857" d="M 0 1.224745 
C 0.324806 1.224745 0.636353 1.095698 0.866025 0.866025 
C 1.095698 0.636353 1.224745 0.324806 1.224745 -0 
C 1.224745 -0.324806 1.095698 -0.636353 0.866025 -0.866025 
C 0.636353 -1.095698 0.324806 -1.224745 0 -1.224745 
C -0.324806 -1.224745 -0.636353 -1.095698 -0.866025 -0.866025 
C -1.095698 -0.636353 -1.224745 -0.324806 -1.224745 0 
C -1.224745 0.324806 -1.095698 0.636353 -0.866025 0.866025 
C -0.636353 1.095698 -0.324806 1.224745 0 1.224745 
z
"/>
    </defs>
    <g clip-path="url(#p4aadcd95c6)">
     <use xlink:href="#C11_0_ecd3d59857" x="359.305965" y="372.14915" style="fill: #4a90c4; fill-opacity: 0.95; stroke: #4a90c4; stroke-opacity: 0.95"/>
    </g>
    <g clip-path="url(#p4aadcd95c6)">
     <use xlink:href="#C11_0_ecd3d59857" x="360.071221" y="331.754476" style="fill: #4a90c4; fill-opacity: 0.95; stroke: #4a90c4; stroke-opacity: 0.95"/>
    </g>
   </g>
   <g id="text_1">
    <!-- RefDirection -->
    <g style="fill: #ff6b6b" transform="translate(431.38975 366.535204) scale(0.075 -0.075)">
     <defs>
      <path id="DejaVuSansMono-52" d="M 2375 2203 
Q 2619 2141 2791 1967 
Q 2963 1794 3219 1275 
L 3853 0 
L 3175 0 
L 2619 1178 
Q 2378 1681 2186 1826 
Q 1994 1972 1684 1972 
L 1081 1972 
L 1081 0 
L 447 0 
L 447 4666 
L 1747 4666 
Q 2516 4666 2925 4319 
Q 3334 3972 3334 3316 
Q 3334 2853 3082 2561 
Q 2831 2269 2375 2203 
z
M 1081 4147 
L 1081 2491 
L 1772 2491 
Q 2225 2491 2447 2694 
Q 2669 2897 2669 3316 
Q 2669 3719 2433 3933 
Q 2197 4147 1747 4147 
L 1081 4147 
z
" transform="scale(0.015625)"/>
      <path id="DejaVuSansMono-65" d="M 3475 1894 
L 3475 1613 
L 984 1613 
L 984 1594 
Q 984 1022 1282 709 
Q 1581 397 2125 397 
Q 2400 397 2700 484 
Q 3000 572 3341 750 
L 3341 178 
Q 3013 44 2708 -23 
Q 2403 -91 2119 -91 
Q 1303 -91 843 398 
Q 384 888 384 1747 
Q 384 2584 834 3084 
Q 1284 3584 2034 3584 
Q 2703 3584 3089 3131 
Q 3475 2678 3475 1894 
z
M 2900 2063 
Q 2888 2569 2661 2833 
Q 2434 3097 2009 3097 
Q 1594 3097 1325 2822 
Q 1056 2547 1006 2059 
L 2900 2063 
z
" transform="scale(0.015625)"/>
      <path id="DejaVuSansMono-66" d="M 3322 4863 
L 3322 4384 
L 2669 4384 
Q 2359 4384 2239 4257 
Q 2119 4131 2119 3809 
L 2119 3500 
L 3322 3500 
L 3322 3053 
L 2119 3053 
L 2119 0 
L 1544 0 
L 1544 3053 
L 609 3053 
L 609 3500 
L 1544 3500 
L 1544 3744 
Q 1544 4319 1808 4591 
Q 2072 4863 2631 4863 
L 3322 4863 
z
" transform="scale(0.015625)"/>
      <path id="DejaVuSansMono-44" d="M 1363 519 
Q 2159 519 2475 911 
Q 2791 1303 2791 2328 
Q 2791 3363 2477 3755 
Q 2163 4147 1363 4147 
L 1063 4147 
L 1063 519 
L 1363 519 
z
M 1375 4666 
Q 2444 4666 2950 4097 
Q 3456 3528 3456 2328 
Q 3456 1134 2950 567 
Q 2444 0 1375 0 
L 428 0 
L 428 4666 
L 1375 4666 
z
" transform="scale(0.015625)"/>
      <path id="DejaVuSansMono-69" d="M 800 3500 
L 2272 3500 
L 2272 447 
L 3413 447 
L 3413 0 
L 556 0 
L 556 447 
L 1697 447 
L 1697 3053 
L 800 3053 
L 800 3500 
z
M 1697 4863 
L 2272 4863 
L 2272 4134 
L 1697 4134 
L 1697 4863 
z
" transform="scale(0.015625)"/>
      <path id="DejaVuSansMono-72" d="M 3609 2778 
Q 3425 2922 3234 2987 
Q 3044 3053 2816 3053 
Q 2278 3053 1993 2715 
Q 1709 2378 1709 1741 
L 1709 0 
L 1131 0 
L 1131 3500 
L 1709 3500 
L 1709 2816 
Q 1853 3188 2151 3386 
Q 2450 3584 2859 3584 
Q 3072 3584 3256 3531 
Q 3441 3478 3609 3366 
L 3609 2778 
z
" transform="scale(0.015625)"/>
      <path id="DejaVuSansMono-63" d="M 3316 178 
Q 3084 44 2839 -23 
Q 2594 -91 2338 -91 
Q 1525 -91 1067 396 
Q 609 884 609 1747 
Q 609 2609 1067 3096 
Q 1525 3584 2338 3584 
Q 2591 3584 2831 3518 
Q 3072 3453 3316 3316 
L 3316 2713 
Q 3088 2916 2858 3006 
Q 2628 3097 2338 3097 
Q 1797 3097 1506 2747 
Q 1216 2397 1216 1747 
Q 1216 1100 1508 748 
Q 1800 397 2338 397 
Q 2638 397 2875 489 
Q 3113 581 3316 775 
L 3316 178 
z
" transform="scale(0.015625)"/>
      <path id="DejaVuSansMono-74" d="M 1919 4494 
L 1919 3500 
L 3225 3500 
L 3225 3053 
L 1919 3053 
L 1919 1153 
Q 1919 766 2066 612 
Q 2213 459 2578 459 
L 3225 459 
L 3225 0 
L 2522 0 
Q 1875 0 1609 259 
Q 1344 519 1344 1153 
L 1344 3053 
L 409 3053 
L 409 3500 
L 1344 3500 
L 1344 4494 
L 1919 4494 
z
" transform="scale(0.015625)"/>
      <path id="DejaVuSansMono-6f" d="M 1925 3097 
Q 1488 3097 1263 2756 
Q 1038 2416 1038 1747 
Q 1038 1081 1263 739 
Q 1488 397 1925 397 
Q 2366 397 2591 739 
Q 2816 1081 2816 1747 
Q 2816 2416 2591 2756 
Q 2366 3097 1925 3097 
z
M 1925 3584 
Q 2653 3584 3039 3112 
Q 3425 2641 3425 1747 
Q 3425 850 3040 379 
Q 2656 -91 1925 -91 
Q 1197 -91 812 379 
Q 428 850 428 1747 
Q 428 2641 812 3112 
Q 1197 3584 1925 3584 
z
" transform="scale(0.015625)"/>
      <path id="DejaVuSansMono-6e" d="M 3284 2169 
L 3284 0 
L 2706 0 
L 2706 2169 
Q 2706 2641 2540 2862 
Q 2375 3084 2022 3084 
Q 1619 3084 1401 2798 
Q 1184 2513 1184 1978 
L 1184 0 
L 609 0 
L 609 3500 
L 1184 3500 
L 1184 2975 
Q 1338 3275 1600 3429 
Q 1863 3584 2222 3584 
Q 2756 3584 3020 3232 
Q 3284 2881 3284 2169 
z
" transform="scale(0.015625)"/>
     </defs>
     <use xlink:href="#DejaVuSansMono-52"/>
     <use xlink:href="#DejaVuSansMono-65" transform="translate(60.205078 0)"/>
     <use xlink:href="#DejaVuSansMono-66" transform="translate(120.410156 0)"/>
     <use xlink:href="#DejaVuSansMono-44" transform="translate(180.615234 0)"/>
     <use xlink:href="#DejaVuSansMono-69" transform="translate(240.820312 0)"/>
     <use xlink:href="#DejaVuSansMono-72" transform="translate(301.025391 0)"/>
     <use xlink:href="#DejaVuSansMono-65" transform="translate(361.230469 0)"/>
     <use xlink:href="#DejaVuSansMono-63" transform="translate(421.435547 0)"/>
     <use xlink:href="#DejaVuSansMono-74" transform="translate(481.640625 0)"/>
     <use xlink:href="#DejaVuSansMono-69" transform="translate(541.845703 0)"/>
     <use xlink:href="#DejaVuSansMono-6f" transform="translate(602.050781 0)"/>
     <use xlink:href="#DejaVuSansMono-6e" transform="translate(662.255859 0)"/>
    </g>
   </g>
   <g id="text_2">
    <!-- Cross-track -->
    <g style="fill: #6bcb77" transform="translate(357.534878 308.356451) scale(0.075 -0.075)">
     <defs>
      <path id="DejaVuSansMono-43" d="M 3353 166 
Q 3113 38 2859 -26 
Q 2606 -91 2322 -91 
Q 1425 -91 929 543 
Q 434 1178 434 2328 
Q 434 3472 932 4111 
Q 1431 4750 2322 4750 
Q 2606 4750 2859 4686 
Q 3113 4622 3353 4494 
L 3353 3847 
Q 3122 4038 2856 4138 
Q 2591 4238 2322 4238 
Q 1706 4238 1400 3763 
Q 1094 3288 1094 2328 
Q 1094 1372 1400 897 
Q 1706 422 2322 422 
Q 2597 422 2861 522 
Q 3125 622 3353 813 
L 3353 166 
z
" transform="scale(0.015625)"/>
      <path id="DejaVuSansMono-73" d="M 3041 3378 
L 3041 2816 
Q 2794 2959 2544 3031 
Q 2294 3103 2034 3103 
Q 1644 3103 1451 2976 
Q 1259 2850 1259 2591 
Q 1259 2356 1403 2240 
Q 1547 2125 2119 2016 
L 2350 1972 
Q 2778 1891 2998 1647 
Q 3219 1403 3219 1013 
Q 3219 494 2850 201 
Q 2481 -91 1825 -91 
Q 1566 -91 1281 -36 
Q 997 19 666 128 
L 666 722 
Q 988 556 1281 473 
Q 1575 391 1838 391 
Q 2219 391 2428 545 
Q 2638 700 2638 978 
Q 2638 1378 1872 1531 
L 1847 1538 
L 1631 1581 
Q 1134 1678 906 1908 
Q 678 2138 678 2534 
Q 678 3038 1018 3311 
Q 1359 3584 1991 3584 
Q 2272 3584 2531 3532 
Q 2791 3481 3041 3378 
z
" transform="scale(0.015625)"/>
      <path id="DejaVuSansMono-2d" d="M 1113 2009 
L 2741 2009 
L 2741 1497 
L 1113 1497 
L 1113 2009 
z
" transform="scale(0.015625)"/>
      <path id="DejaVuSansMono-61" d="M 2194 1759 
L 2003 1759 
Q 1500 1759 1245 1582 
Q 991 1406 991 1056 
Q 991 741 1181 566 
Q 1372 391 1709 391 
Q 2184 391 2456 720 
Q 2728 1050 2731 1631 
L 2731 1759 
L 2194 1759 
z
M 3309 1997 
L 3309 0 
L 2731 0 
L 2731 519 
Q 2547 206 2267 57 
Q 1988 -91 1588 -91 
Q 1053 -91 734 211 
Q 416 513 416 1019 
Q 416 1603 808 1906 
Q 1200 2209 1959 2209 
L 2731 2209 
L 2731 2300 
Q 2728 2719 2518 2908 
Q 2309 3097 1850 3097 
Q 1556 3097 1256 3012 
Q 956 2928 672 2766 
L 672 3341 
Q 991 3463 1283 3523 
Q 1575 3584 1850 3584 
Q 2284 3584 2592 3456 
Q 2900 3328 3091 3072 
Q 3209 2916 3259 2686 
Q 3309 2456 3309 1997 
z
" transform="scale(0.015625)"/>
      <path id="DejaVuSansMono-6b" d="M 738 4863 
L 1331 4863 
L 1331 2047 
L 2841 3500 
L 3541 3500 
L 2163 2181 
L 3756 0 
L 3053 0 
L 1759 1806 
L 1331 1403 
L 1331 0 
L 738 0 
L 738 4863 
z
" transform="scale(0.015625)"/>
     </defs>
     <use xlink:href="#DejaVuSansMono-43"/>
     <use xlink:href="#DejaVuSansMono-72" transform="translate(60.205078 0)"/>
     <use xlink:href="#DejaVuSansMono-6f" transform="translate(120.410156 0)"/>
     <use xlink:href="#DejaVuSansMono-73" transform="translate(180.615234 0)"/>
     <use xlink:href="#DejaVuSansMono-73" transform="translate(240.820312 0)"/>
     <use xlink:href="#DejaVuSansMono-2d" transform="translate(301.025391 0)"/>
     <use xlink:href="#DejaVuSansMono-74" transform="translate(361.230469 0)"/>
     <use xlink:href="#DejaVuSansMono-72" transform="translate(421.435547 0)"/>
     <use xlink:href="#DejaVuSansMono-61" transform="translate(481.640625 0)"/>
     <use xlink:href="#DejaVuSansMono-63" transform="translate(541.845703 0)"/>
     <use xlink:href="#DejaVuSansMono-6b" transform="translate(602.050781 0)"/>
    </g>
   </g>
   <g id="text_3">
    <!-- Axis -->
    <g style="fill: #ffd93d" transform="translate(349.512607 75.402037) scale(0.075 -0.075)">
     <defs>
      <path id="DejaVuSansMono-41" d="M 1925 4109 
L 1259 1722 
L 2591 1722 
L 1925 4109 
z
M 1544 4666 
L 2309 4666 
L 3738 0 
L 3084 0 
L 2741 1216 
L 1106 1216 
L 769 0 
L 116 0 
L 1544 4666 
z
" transform="scale(0.015625)"/>
      <path id="DejaVuSansMono-78" d="M 3494 3500 
L 2241 1825 
L 3616 0 
L 2950 0 
L 1925 1403 
L 903 0 
L 238 0 
L 1613 1825 
L 359 3500 
L 997 3500 
L 1925 2234 
L 2847 3500 
L 3494 3500 
z
" transform="scale(0.015625)"/>
     </defs>
     <use xlink:href="#DejaVuSansMono-41"/>
     <use xlink:href="#DejaVuSansMono-78" transform="translate(60.205078 0)"/>
     <use xlink:href="#DejaVuSansMono-69" transform="translate(120.410156 0)"/>
     <use xlink:href="#DejaVuSansMono-73" transform="translate(180.615234 0)"/>
    </g>
   </g>
   <g id="Path3DCollection_19">
    <defs>
     <path id="C12_0_d2cad7fea9" d="M 0 1.224745 
C 0.324806 1.224745 0.636353 1.095698 0.866025 0.866025 
C 1.095698 0.636353 1.224745 0.324806 1.224745 -0 
C 1.224745 -0.324806 1.095698 -0.636353 0.866025 -0.866025 
C 0.636353 -1.095698 0.324806 -1.224745 0 -1.224745 
C -0.324806 -1.224745 -0.636353 -1.095698 -0.866025 -0.866025 
C -1.095698 -0.636353 -1.224745 -0.324806 -1.224745 0 
C -1.224745 0.324806 -1.095698 0.636353 -0.866025 0.866025 
C -0.636353 1.095698 -0.324806 1.224745 0 1.224745 
z
"/>
    </defs>
    <g clip-path="url(#p4aadcd95c6)">
     <use xlink:href="#C12_0_d2cad7fea9" x="378.451797" y="374.22627" style="fill: #4a90c4; fill-opacity: 0.95; stroke: #4a90c4; stroke-opacity: 0.95"/>
    </g>
    <g clip-path="url(#p4aadcd95c6)">
     <use xlink:href="#C12_0_d2cad7fea9" x="379.245809" y="333.784386" style="fill: #4a90c4; fill-opacity: 0.95; stroke: #4a90c4; stroke-opacity: 0.95"/>
    </g>
   </g>
   <g id="Path3DCollection_20">
    <defs>
     <path id="C13_0_5b19bf1bd7" d="M 0 1.224745 
C 0.324806 1.224745 0.636353 1.095698 0.866025 0.866025 
C 1.095698 0.636353 1.224745 0.324806 1.224745 -0 
C 1.224745 -0.324806 1.095698 -0.636353 0.866025 -0.866025 
C 0.636353 -1.095698 0.324806 -1.224745 0 -1.224745 
C -0.324806 -1.224745 -0.636353 -1.095698 -0.866025 -0.866025 
C -1.095698 -0.636353 -1.224745 -0.324806 -1.224745 0 
C -1.224745 0.324806 -1.095698 0.636353 -0.866025 0.866025 
C -0.636353 1.095698 -0.324806 1.224745 0 1.224745 
z
"/>
    </defs>
    <g clip-path="url(#p4aadcd95c6)">
     <use xlink:href="#C13_0_5b19bf1bd7" x="476.644405" y="375.501684" style="fill: #4a90c4; fill-opacity: 0.95; stroke: #4a90c4; stroke-opacity: 0.95"/>
    </g>
    <g clip-path="url(#p4aadcd95c6)">
     <use xlink:href="#C13_0_5b19bf1bd7" x="477.581727" y="335.030815" style="fill: #4a90c4; fill-opacity: 0.95; stroke: #4a90c4; stroke-opacity: 0.95"/>
    </g>
   </g>
   <g id="Path3DCollection_21">
    <defs>
     <path id="C14_0_220ad746fd" d="M 0 1.224745 
C 0.324806 1.224745 0.636353 1.095698 0.866025 0.866025 
C 1.095698 0.636353 1.224745 0.324806 1.224745 -0 
C 1.224745 -0.324806 1.095698 -0.636353 0.866025 -0.866025 
C 0.636353 -1.095698 0.324806 -1.224745 0 -1.224745 
C -0.324806 -1.224745 -0.636353 -1.095698 -0.866025 -0.866025 
C -1.095698 -0.636353 -1.224745 -0.324806 -1.224745 0 
C -1.224745 0.324806 -1.095698 0.636353 -0.866025 0.866025 
C -0.636353 1.095698 -0.324806 1.224745 0 1.224745 
z
"/>
    </defs>
    <g clip-path="url(#p4aadcd95c6)">
     <use xlink:href="#C14_0_220ad746fd" x="397.851931" y="375.707925" style="fill: #4a90c4; fill-opacity: 0.95; stroke: #4a90c4; stroke-opacity: 0.95"/>
    </g>
    <g clip-path="url(#p4aadcd95c6)">
     <use xlink:href="#C14_0_220ad746fd" x="398.674844" y="335.232369" style="fill: #4a90c4; fill-opacity: 0.95; stroke: #4a90c4; stroke-opacity: 0.95"/>
    </g>
   </g>
   <g id="Line3DCollection_2">
    <path d="M 422.751785 359.951414 
L 358.280983 351.84174 
" clip-path="url(#p4aadcd95c6)" style="fill: none; stroke: #ff6b6b; stroke-width: 2.5"/>
    <path d="M 422.751785 359.951414 
L 408.81079 368.178687 
" clip-path="url(#p4aadcd95c6)" style="fill: none; stroke: #ff6b6b; stroke-width: 2.5"/>
    <path d="M 422.751785 359.951414 
L 409.187091 348.229721 
" clip-path="url(#p4aadcd95c6)" style="fill: none; stroke: #ff6b6b; stroke-width: 2.5"/>
   </g>
   <g id="Path3DCollection_22">
    <defs>
     <path id="C15_0_bae282dff5" d="M 0 1.224745 
C 0.324806 1.224745 0.636353 1.095698 0.866025 0.866025 
C 1.095698 0.636353 1.224745 0.324806 1.224745 -0 
C 1.224745 -0.324806 1.095698 -0.636353 0.866025 -0.866025 
C 0.636353 -1.095698 0.324806 -1.224745 0 -1.224745 
C -0.324806 -1.224745 -0.636353 -1.095698 -0.866025 -0.866025 
C -1.095698 -0.636353 -1.224745 -0.324806 -1.224745 0 
C -1.224745 0.324806 -1.095698 0.636353 -0.866025 0.866025 
C -0.636353 1.095698 -0.324806 1.224745 0 1.224745 
z
"/>
    </defs>
    <g clip-path="url(#p4aadcd95c6)">
     <use xlink:href="#C15_0_bae282dff5" x="456.547557" y="376.50481" style="fill: #4a90c4; fill-opacity: 0.95; stroke: #4a90c4; stroke-opacity: 0.95"/>
    </g>
    <g clip-path="url(#p4aadcd95c6)">
     <use xlink:href="#C15_0_bae282dff5" x="457.456217" y="336.011147" style="fill: #4a90c4; fill-opacity: 0.95; stroke: #4a90c4; stroke-opacity: 0.95"/>
    </g>
   </g>
   <g id="Path3DCollection_23">
    <defs>
     <path id="C16_0_543066333a" d="M 0 1.224745 
C 0.324806 1.224745 0.636353 1.095698 0.866025 0.866025 
C 1.095698 0.636353 1.224745 0.324806 1.224745 -0 
C 1.224745 -0.324806 1.095698 -0.636353 0.866025 -0.866025 
C 0.636353 -1.095698 0.324806 -1.224745 0 -1.224745 
C -0.324806 -1.224745 -0.636353 -1.095698 -0.866025 -0.866025 
C -1.095698 -0.636353 -1.224745 -0.324806 -1.224745 0 
C -1.224745 0.324806 -1.095698 0.636353 -0.866025 0.866025 
C -0.636353 1.095698 -0.324806 1.224745 0 1.224745 
z
"/>
    </defs>
    <g clip-path="url(#p4aadcd95c6)">
     <use xlink:href="#C16_0_543066333a" x="417.403908" y="376.584658" style="fill: #4a90c4; fill-opacity: 0.95; stroke: #4a90c4; stroke-opacity: 0.95"/>
    </g>
    <g clip-path="url(#p4aadcd95c6)">
     <use xlink:href="#C16_0_543066333a" x="418.255686" y="336.08918" style="fill: #4a90c4; fill-opacity: 0.95; stroke: #4a90c4; stroke-opacity: 0.95"/>
    </g>
   </g>
   <g id="Path3DCollection_24">
    <defs>
     <path id="C17_0_9cd63b9797" d="M 0 1.224745 
C 0.324806 1.224745 0.636353 1.095698 0.866025 0.866025 
C 1.095698 0.636353 1.224745 0.324806 1.224745 -0 
C 1.224745 -0.324806 1.095698 -0.636353 0.866025 -0.866025 
C 0.636353 -1.095698 0.324806 -1.224745 0 -1.224745 
C -0.324806 -1.224745 -0.636353 -1.095698 -0.866025 -0.866025 
C -1.095698 -0.636353 -1.224745 -0.324806 -1.224745 0 
C -1.224745 0.324806 -1.095698 0.636353 -0.866025 0.866025 
C -0.636353 1.095698 -0.324806 1.224745 0 1.224745 
z
"/>
    </defs>
    <g clip-path="url(#p4aadcd95c6)">
     <use xlink:href="#C17_0_9cd63b9797" x="437.003897" y="376.850856" style="fill: #4a90c4; fill-opacity: 0.95; stroke: #4a90c4; stroke-opacity: 0.95"/>
    </g>
    <g clip-path="url(#p4aadcd95c6)">
     <use xlink:href="#C17_0_9cd63b9797" x="437.884318" y="336.349329" style="fill: #4a90c4; fill-opacity: 0.95; stroke: #4a90c4; stroke-opacity: 0.95"/>
    </g>
   </g>
   <g id="Line3DCollection_3">
    <path d="M 358.447013 175.399706 
L 358.280983 351.84174 
" clip-path="url(#p4aadcd95c6)" style="fill: none; stroke: #ffd93d; stroke-width: 2.5"/>
    <path d="M 358.447013 175.399706 
L 357.471109 216.512119 
" clip-path="url(#p4aadcd95c6)" style="fill: none; stroke: #ffd93d; stroke-width: 2.5"/>
    <path d="M 358.447013 175.399706 
L 359.34887 211.212066 
" clip-path="url(#p4aadcd95c6)" style="fill: none; stroke: #ffd93d; stroke-width: 2.5"/>
   </g>
  </g>
  <g id="line2d_26">
   <path d="M 35.28 92.387031 
L 549.36 92.387031 
" style="fill: none; stroke: #7ec8e3; stroke-opacity: 0.5; stroke-width: 0.8; stroke-linecap: square"/>
  </g>
  <g id="text_4">
   <!-- IFC 4x3 ADD 2 -->
   <g style="fill: #7ec8e3" transform="translate(241.448359 17.147031) scale(0.13 -0.13)">
    <defs>
     <path id="DejaVuSansMono-49" d="M 628 4666 
L 3219 4666 
L 3219 4134 
L 2241 4134 
L 2241 531 
L 3219 531 
L 3219 0 
L 628 0 
L 628 531 
L 1606 531 
L 1606 4134 
L 628 4134 
L 628 4666 
z
" transform="scale(0.015625)"/>
     <path id="DejaVuSansMono-46" d="M 728 4666 
L 3475 4666 
L 3475 4134 
L 1363 4134 
L 1363 2759 
L 3278 2759 
L 3278 2228 
L 1363 2228 
L 1363 0 
L 728 0 
L 728 4666 
z
" transform="scale(0.015625)"/>
     <path id="DejaVuSansMono-20" transform="scale(0.015625)"/>
     <path id="DejaVuSansMono-34" d="M 2297 4091 
L 825 1625 
L 2297 1625 
L 2297 4091 
z
M 2194 4666 
L 2925 4666 
L 2925 1625 
L 3547 1625 
L 3547 1113 
L 2925 1113 
L 2925 0 
L 2297 0 
L 2297 1113 
L 319 1113 
L 319 1709 
L 2194 4666 
z
" transform="scale(0.015625)"/>
     <path id="DejaVuSansMono-33" d="M 2425 2497 
Q 2884 2375 3128 2064 
Q 3372 1753 3372 1288 
Q 3372 644 2939 276 
Q 2506 -91 1741 -91 
Q 1419 -91 1084 -31 
Q 750 28 428 141 
L 428 769 
Q 747 603 1056 522 
Q 1366 441 1672 441 
Q 2191 441 2469 675 
Q 2747 909 2747 1350 
Q 2747 1756 2469 1995 
Q 2191 2234 1716 2234 
L 1234 2234 
L 1234 2753 
L 1716 2753 
Q 2150 2753 2394 2943 
Q 2638 3134 2638 3475 
Q 2638 3834 2411 4026 
Q 2184 4219 1766 4219 
Q 1488 4219 1191 4156 
Q 894 4094 569 3969 
L 569 4550 
Q 947 4650 1242 4700 
Q 1538 4750 1766 4750 
Q 2447 4750 2855 4408 
Q 3263 4066 3263 3500 
Q 3263 3116 3048 2859 
Q 2834 2603 2425 2497 
z
" transform="scale(0.015625)"/>
     <path id="DejaVuSansMono-32" d="M 1166 531 
L 3309 531 
L 3309 0 
L 475 0 
L 475 531 
Q 1059 1147 1496 1619 
Q 1934 2091 2100 2284 
Q 2413 2666 2522 2902 
Q 2631 3138 2631 3384 
Q 2631 3775 2401 3997 
Q 2172 4219 1772 4219 
Q 1488 4219 1175 4116 
Q 863 4013 513 3803 
L 513 4441 
Q 834 4594 1145 4672 
Q 1456 4750 1759 4750 
Q 2444 4750 2861 4386 
Q 3278 4022 3278 3431 
Q 3278 3131 3139 2831 
Q 3000 2531 2688 2169 
Q 2513 1966 2180 1606 
Q 1847 1247 1166 531 
z
" transform="scale(0.015625)"/>
    </defs>
    <use xlink:href="#DejaVuSansMono-49"/>
    <use xlink:href="#DejaVuSansMono-46" transform="translate(60.205078 0)"/>
    <use xlink:href="#DejaVuSansMono-43" transform="translate(120.410156 0)"/>
    <use xlink:href="#DejaVuSansMono-20" transform="translate(180.615234 0)"/>
    <use xlink:href="#DejaVuSansMono-34" transform="translate(240.820312 0)"/>
    <use xlink:href="#DejaVuSansMono-78" transform="translate(301.025391 0)"/>
    <use xlink:href="#DejaVuSansMono-33" transform="translate(361.230469 0)"/>
    <use xlink:href="#DejaVuSansMono-20" transform="translate(421.435547 0)"/>
    <use xlink:href="#DejaVuSansMono-41" transform="translate(481.640625 0)"/>
    <use xlink:href="#DejaVuSansMono-44" transform="translate(541.845703 0)"/>
    <use xlink:href="#DejaVuSansMono-44" transform="translate(602.050781 0)"/>
    <use xlink:href="#DejaVuSansMono-20" transform="translate(662.255859 0)"/>
    <use xlink:href="#DejaVuSansMono-32" transform="translate(722.460938 0)"/>
   </g>
  </g>
  <g id="text_5">
   <!-- Alignment Geometry -->
   <g style="fill: #e8f4f8" transform="translate(151.444687 48.827031) scale(0.26 -0.26)">
    <defs>
     <path id="DejaVuSansMono-Bold-41" d="M 1925 3822 
L 1491 1913 
L 2363 1913 
L 1925 3822 
z
M 1363 4666 
L 2491 4666 
L 3750 0 
L 2828 0 
L 2541 1153 
L 1306 1153 
L 1025 0 
L 103 0 
L 1363 4666 
z
" transform="scale(0.015625)"/>
     <path id="DejaVuSansMono-Bold-6c" d="M 1209 1459 
L 1209 4159 
L 281 4159 
L 281 4863 
L 2125 4863 
L 2125 1459 
Q 2125 1047 2253 875 
Q 2381 703 2688 703 
L 3419 703 
L 3419 0 
L 2431 0 
Q 1778 0 1493 337 
Q 1209 675 1209 1459 
z
" transform="scale(0.015625)"/>
     <path id="DejaVuSansMono-Bold-69" d="M 691 3500 
L 2503 3500 
L 2503 703 
L 3641 703 
L 3641 0 
L 447 0 
L 447 703 
L 1588 703 
L 1588 2797 
L 691 2797 
L 691 3500 
z
M 1588 5203 
L 2503 5203 
L 2503 4134 
L 1588 4134 
L 1588 5203 
z
" transform="scale(0.015625)"/>
     <path id="DejaVuSansMono-Bold-67" d="M 2509 1806 
Q 2509 2275 2331 2558 
Q 2153 2841 1863 2841 
Q 1575 2841 1398 2559 
Q 1222 2278 1222 1806 
Q 1222 1331 1398 1050 
Q 1575 769 1863 769 
Q 2153 769 2331 1051 
Q 2509 1334 2509 1806 
z
M 3425 263 
Q 3425 -578 3045 -951 
Q 2666 -1325 1813 -1325 
Q 1525 -1325 1244 -1283 
Q 963 -1241 672 -1153 
L 672 -313 
Q 931 -456 1200 -525 
Q 1469 -594 1753 -594 
Q 2141 -594 2325 -411 
Q 2509 -228 2509 159 
L 2509 538 
Q 2375 288 2153 166 
Q 1931 44 1613 44 
Q 1013 44 659 512 
Q 306 981 306 1784 
Q 306 2616 659 3103 
Q 1013 3591 1606 3591 
Q 1906 3591 2140 3450 
Q 2375 3309 2509 3053 
L 2509 3500 
L 3425 3500 
L 3425 263 
z
" transform="scale(0.015625)"/>
     <path id="DejaVuSansMono-Bold-6e" d="M 3347 2272 
L 3347 0 
L 2438 0 
L 2438 2131 
Q 2438 2513 2330 2677 
Q 2222 2841 1978 2841 
Q 1731 2841 1589 2619 
Q 1447 2397 1447 2003 
L 1447 0 
L 538 0 
L 538 3500 
L 1447 3500 
L 1447 2975 
Q 1544 3266 1778 3425 
Q 2013 3584 2344 3584 
Q 2841 3584 3094 3254 
Q 3347 2925 3347 2272 
z
" transform="scale(0.015625)"/>
     <path id="DejaVuSansMono-Bold-6d" d="M 2156 3150 
Q 2259 3372 2418 3478 
Q 2578 3584 2809 3584 
Q 3263 3584 3436 3271 
Q 3609 2959 3609 1972 
L 3609 0 
L 2859 0 
L 2859 2247 
Q 2859 2638 2800 2769 
Q 2741 2900 2584 2900 
Q 2428 2900 2365 2765 
Q 2303 2631 2303 2247 
L 2303 0 
L 1563 0 
L 1563 2247 
Q 1563 2631 1500 2765 
Q 1438 2900 1281 2900 
Q 1125 2900 1065 2769 
Q 1006 2638 1006 2247 
L 1006 0 
L 256 0 
L 256 3500 
L 922 3500 
L 922 3138 
Q 1000 3344 1172 3464 
Q 1344 3584 1556 3584 
Q 1769 3584 1944 3457 
Q 2119 3331 2156 3150 
z
" transform="scale(0.015625)"/>
     <path id="DejaVuSansMono-Bold-65" d="M 3444 172 
Q 3125 41 2794 -25 
Q 2463 -91 2094 -91 
Q 1216 -91 752 379 
Q 288 850 288 1734 
Q 288 2591 734 3087 
Q 1181 3584 1953 3584 
Q 2731 3584 3161 3123 
Q 3591 2663 3591 1825 
L 3591 1453 
L 1219 1453 
Q 1222 1041 1462 837 
Q 1703 634 2181 634 
Q 2497 634 2803 725 
Q 3109 816 3444 1013 
L 3444 172 
z
M 2669 2141 
Q 2663 2503 2483 2689 
Q 2303 2875 1953 2875 
Q 1638 2875 1450 2683 
Q 1263 2491 1228 2138 
L 2669 2141 
z
" transform="scale(0.015625)"/>
     <path id="DejaVuSansMono-Bold-74" d="M 2156 4494 
L 2156 3500 
L 3353 3500 
L 3353 2797 
L 2156 2797 
L 2156 1141 
Q 2156 906 2270 804 
Q 2384 703 2650 703 
L 3353 703 
L 3353 0 
L 2584 0 
Q 1797 0 1519 251 
Q 1241 503 1241 1184 
L 1241 2797 
L 347 2797 
L 347 3500 
L 1241 3500 
L 1241 4494 
L 2156 4494 
z
" transform="scale(0.015625)"/>
     <path id="DejaVuSansMono-Bold-20" transform="scale(0.015625)"/>
     <path id="DejaVuSansMono-Bold-47" d="M 2725 844 
L 2725 1734 
L 2094 1734 
L 2094 2509 
L 3531 2509 
L 3531 372 
Q 3266 144 2945 26 
Q 2625 -91 2259 -91 
Q 1353 -91 859 539 
Q 366 1169 366 2328 
Q 366 3506 864 4128 
Q 1363 4750 2303 4750 
Q 2584 4750 2856 4670 
Q 3128 4591 3366 4441 
L 3366 3419 
Q 3172 3669 2920 3795 
Q 2669 3922 2369 3922 
Q 1844 3922 1584 3526 
Q 1325 3131 1325 2328 
Q 1325 1550 1575 1144 
Q 1825 738 2303 738 
Q 2447 738 2553 764 
Q 2659 791 2725 844 
z
" transform="scale(0.015625)"/>
     <path id="DejaVuSansMono-Bold-6f" d="M 1925 2841 
Q 1597 2841 1409 2552 
Q 1222 2263 1222 1747 
Q 1222 1231 1409 942 
Q 1597 653 1925 653 
Q 2256 653 2443 942 
Q 2631 1231 2631 1747 
Q 2631 2263 2443 2552 
Q 2256 2841 1925 2841 
z
M 306 1747 
Q 306 2594 745 3089 
Q 1184 3584 1925 3584 
Q 2669 3584 3108 3089 
Q 3547 2594 3547 1747 
Q 3547 900 3108 404 
Q 2669 -91 1925 -91 
Q 1184 -91 745 404 
Q 306 900 306 1747 
z
" transform="scale(0.015625)"/>
     <path id="DejaVuSansMono-Bold-72" d="M 3597 2534 
Q 3447 2672 3245 2740 
Q 3044 2809 2803 2809 
Q 2513 2809 2295 2707 
Q 2078 2606 1959 2413 
Q 1884 2294 1854 2125 
Q 1825 1956 1825 1613 
L 1825 0 
L 909 0 
L 909 3500 
L 1825 3500 
L 1825 2956 
Q 1959 3256 2237 3420 
Q 2516 3584 2888 3584 
Q 3075 3584 3254 3539 
Q 3434 3494 3597 3406 
L 3597 2534 
z
" transform="scale(0.015625)"/>
     <path id="DejaVuSansMono-Bold-79" d="M 2222 -378 
Q 2038 -872 1780 -1098 
Q 1522 -1325 1153 -1325 
L 397 -1325 
L 397 -628 
L 769 -628 
Q 1050 -628 1181 -533 
Q 1313 -438 1447 -91 
L 1516 97 
L 184 3500 
L 1147 3500 
L 1947 1228 
L 2713 3500 
L 3675 3500 
L 2222 -378 
z
" transform="scale(0.015625)"/>
    </defs>
    <use xlink:href="#DejaVuSansMono-Bold-41"/>
    <use xlink:href="#DejaVuSansMono-Bold-6c" transform="translate(60.205078 0)"/>
    <use xlink:href="#DejaVuSansMono-Bold-69" transform="translate(120.410156 0)"/>
    <use xlink:href="#DejaVuSansMono-Bold-67" transform="translate(180.615234 0)"/>
    <use xlink:href="#DejaVuSansMono-Bold-6e" transform="translate(240.820312 0)"/>
    <use xlink:href="#DejaVuSansMono-Bold-6d" transform="translate(301.025391 0)"/>
    <use xlink:href="#DejaVuSansMono-Bold-65" transform="translate(361.230469 0)"/>
    <use xlink:href="#DejaVuSansMono-Bold-6e" transform="translate(421.435547 0)"/>
    <use xlink:href="#DejaVuSansMono-Bold-74" transform="translate(481.640625 0)"/>
    <use xlink:href="#DejaVuSansMono-Bold-20" transform="translate(541.845703 0)"/>
    <use xlink:href="#DejaVuSansMono-Bold-47" transform="translate(602.050781 0)"/>
    <use xlink:href="#DejaVuSansMono-Bold-65" transform="translate(662.255859 0)"/>
    <use xlink:href="#DejaVuSansMono-Bold-6f" transform="translate(722.460938 0)"/>
    <use xlink:href="#DejaVuSansMono-Bold-6d" transform="translate(782.666016 0)"/>
    <use xlink:href="#DejaVuSansMono-Bold-65" transform="translate(842.871094 0)"/>
    <use xlink:href="#DejaVuSansMono-Bold-74" transform="translate(903.076172 0)"/>
    <use xlink:href="#DejaVuSansMono-Bold-72" transform="translate(963.28125 0)"/>
    <use xlink:href="#DejaVuSansMono-Bold-79" transform="translate(1023.486328 0)"/>
   </g>
  </g>
  <g id="text_6">
   <!-- Implementation Guide -->
   <g style="fill: #e8f4f8" transform="translate(153.852812 80.507031) scale(0.23 -0.23)">
    <defs>
     <path id="DejaVuSansMono-Bold-49" d="M 538 3853 
L 538 4666 
L 3316 4666 
L 3316 3853 
L 2388 3853 
L 2388 813 
L 3316 813 
L 3316 0 
L 538 0 
L 538 813 
L 1466 813 
L 1466 3853 
L 538 3853 
z
" transform="scale(0.015625)"/>
     <path id="DejaVuSansMono-Bold-70" d="M 1381 494 
L 1381 -1331 
L 469 -1331 
L 469 3500 
L 1381 3500 
L 1381 2975 
Q 1525 3278 1759 3431 
Q 1994 3584 2309 3584 
Q 2909 3584 3240 3103 
Q 3572 2622 3572 1747 
Q 3572 859 3236 384 
Q 2900 -91 2278 -91 
Q 1997 -91 1773 54 
Q 1550 200 1381 494 
z
M 2656 1753 
Q 2656 2259 2487 2546 
Q 2319 2834 2022 2834 
Q 1725 2834 1553 2546 
Q 1381 2259 1381 1753 
Q 1381 1247 1553 959 
Q 1725 672 2022 672 
Q 2319 672 2487 959 
Q 2656 1247 2656 1753 
z
" transform="scale(0.015625)"/>
     <path id="DejaVuSansMono-Bold-61" d="M 2188 1644 
Q 1675 1644 1472 1512 
Q 1269 1381 1269 1063 
Q 1269 825 1409 684 
Q 1550 544 1791 544 
Q 2153 544 2353 817 
Q 2553 1091 2553 1581 
L 2553 1644 
L 2188 1644 
z
M 3463 1997 
L 3463 0 
L 2553 0 
L 2553 391 
Q 2388 159 2128 34 
Q 1869 -91 1556 -91 
Q 959 -91 626 225 
Q 294 541 294 1106 
Q 294 1719 691 2011 
Q 1088 2303 1919 2303 
L 2553 2303 
L 2553 2456 
Q 2553 2678 2392 2792 
Q 2231 2906 1919 2906 
Q 1591 2906 1283 2823 
Q 975 2741 641 2559 
L 641 3341 
Q 944 3466 1256 3525 
Q 1569 3584 1919 3584 
Q 2772 3584 3117 3237 
Q 3463 2891 3463 1997 
z
" transform="scale(0.015625)"/>
     <path id="DejaVuSansMono-Bold-75" d="M 500 1222 
L 500 3500 
L 1416 3500 
L 1416 1363 
Q 1416 984 1522 821 
Q 1628 659 1875 659 
Q 2122 659 2261 878 
Q 2400 1097 2400 1491 
L 2400 3500 
L 3316 3500 
L 3316 0 
L 2400 0 
L 2400 519 
Q 2303 228 2070 68 
Q 1838 -91 1509 -91 
Q 1009 -91 754 240 
Q 500 572 500 1222 
z
" transform="scale(0.015625)"/>
     <path id="DejaVuSansMono-Bold-64" d="M 2472 3003 
L 2472 4863 
L 3384 4863 
L 3384 0 
L 2472 0 
L 2472 519 
Q 2325 216 2092 62 
Q 1859 -91 1544 -91 
Q 944 -91 612 390 
Q 281 872 281 1747 
Q 281 2634 617 3109 
Q 953 3584 1575 3584 
Q 1856 3584 2079 3439 
Q 2303 3294 2472 3003 
z
M 1197 1741 
Q 1197 1234 1365 946 
Q 1534 659 1831 659 
Q 2128 659 2300 946 
Q 2472 1234 2472 1741 
Q 2472 2247 2300 2534 
Q 2128 2822 1831 2822 
Q 1534 2822 1365 2534 
Q 1197 2247 1197 1741 
z
" transform="scale(0.015625)"/>
    </defs>
    <use xlink:href="#DejaVuSansMono-Bold-49"/>
    <use xlink:href="#DejaVuSansMono-Bold-6d" transform="translate(60.205078 0)"/>
    <use xlink:href="#DejaVuSansMono-Bold-70" transform="translate(120.410156 0)"/>
    <use xlink:href="#DejaVuSansMono-Bold-6c" transform="translate(180.615234 0)"/>
    <use xlink:href="#DejaVuSansMono-Bold-65" transform="translate(240.820312 0)"/>
    <use xlink:href="#DejaVuSansMono-Bold-6d" transform="translate(301.025391 0)"/>
    <use xlink:href="#DejaVuSansMono-Bold-65" transform="translate(361.230469 0)"/>
    <use xlink:href="#DejaVuSansMono-Bold-6e" transform="translate(421.435547 0)"/>
    <use xlink:href="#DejaVuSansMono-Bold-74" transform="translate(481.640625 0)"/>
    <use xlink:href="#DejaVuSansMono-Bold-61" transform="translate(541.845703 0)"/>
    <use xlink:href="#DejaVuSansMono-Bold-74" transform="translate(602.050781 0)"/>
    <use xlink:href="#DejaVuSansMono-Bold-69" transform="translate(662.255859 0)"/>
    <use xlink:href="#DejaVuSansMono-Bold-6f" transform="translate(722.460938 0)"/>
    <use xlink:href="#DejaVuSansMono-Bold-6e" transform="translate(782.666016 0)"/>
    <use xlink:href="#DejaVuSansMono-Bold-20" transform="translate(842.871094 0)"/>
    <use xlink:href="#DejaVuSansMono-Bold-47" transform="translate(903.076172 0)"/>
    <use xlink:href="#DejaVuSansMono-Bold-75" transform="translate(963.28125 0)"/>
    <use xlink:href="#DejaVuSansMono-Bold-69" transform="translate(1023.486328 0)"/>
    <use xlink:href="#DejaVuSansMono-Bold-64" transform="translate(1083.691406 0)"/>
    <use xlink:href="#DejaVuSansMono-Bold-65" transform="translate(1143.896484 0)"/>
   </g>
  </g>
  <g id="text_7">
   <!-- Richard Brice, PE -->
   <g style="fill: #7ec8e3" transform="translate(230.912813 678.467031) scale(0.12 -0.12)">
    <defs>
     <path id="DejaVuSansMono-68" d="M 3284 2169 
L 3284 0 
L 2706 0 
L 2706 2169 
Q 2706 2641 2540 2862 
Q 2375 3084 2022 3084 
Q 1619 3084 1401 2798 
Q 1184 2513 1184 1978 
L 1184 0 
L 609 0 
L 609 4863 
L 1184 4863 
L 1184 2975 
Q 1338 3275 1600 3429 
Q 1863 3584 2222 3584 
Q 2756 3584 3020 3232 
Q 3284 2881 3284 2169 
z
" transform="scale(0.015625)"/>
     <path id="DejaVuSansMono-64" d="M 2681 3053 
L 2681 4863 
L 3256 4863 
L 3256 0 
L 2681 0 
L 2681 441 
Q 2538 181 2298 45 
Q 2059 -91 1747 -91 
Q 1113 -91 748 401 
Q 384 894 384 1759 
Q 384 2613 750 3098 
Q 1116 3584 1747 3584 
Q 2063 3584 2303 3448 
Q 2544 3313 2681 3053 
z
M 991 1747 
Q 991 1078 1203 737 
Q 1416 397 1831 397 
Q 2247 397 2464 740 
Q 2681 1084 2681 1747 
Q 2681 2413 2464 2755 
Q 2247 3097 1831 3097 
Q 1416 3097 1203 2756 
Q 991 2416 991 1747 
z
" transform="scale(0.015625)"/>
     <path id="DejaVuSansMono-42" d="M 1153 2228 
L 1153 519 
L 1900 519 
Q 2450 519 2684 711 
Q 2919 903 2919 1344 
Q 2919 1800 2672 2014 
Q 2425 2228 1900 2228 
L 1153 2228 
z
M 1153 4147 
L 1153 2741 
L 1888 2741 
Q 2344 2741 2548 2916 
Q 2753 3091 2753 3481 
Q 2753 3834 2551 3990 
Q 2350 4147 1888 4147 
L 1153 4147 
z
M 519 4666 
L 1900 4666 
Q 2616 4666 3003 4356 
Q 3391 4047 3391 3481 
Q 3391 3053 3186 2806 
Q 2981 2559 2572 2497 
Q 3031 2428 3292 2104 
Q 3553 1781 3553 1281 
Q 3553 647 3137 323 
Q 2722 0 1900 0 
L 519 0 
L 519 4666 
z
" transform="scale(0.015625)"/>
     <path id="DejaVuSansMono-2c" d="M 1569 947 
L 2356 947 
L 2356 300 
L 1741 -897 
L 1259 -897 
L 1569 300 
L 1569 947 
z
" transform="scale(0.015625)"/>
     <path id="DejaVuSansMono-50" d="M 1247 4147 
L 1247 2394 
L 1978 2394 
Q 2416 2394 2661 2625 
Q 2906 2856 2906 3272 
Q 2906 3688 2662 3917 
Q 2419 4147 1978 4147 
L 1247 4147 
z
M 616 4666 
L 1978 4666 
Q 2759 4666 3162 4311 
Q 3566 3956 3566 3272 
Q 3566 2581 3164 2228 
Q 2763 1875 1978 1875 
L 1247 1875 
L 1247 0 
L 616 0 
L 616 4666 
z
" transform="scale(0.015625)"/>
     <path id="DejaVuSansMono-45" d="M 616 4666 
L 3384 4666 
L 3384 4134 
L 1247 4134 
L 1247 2753 
L 3291 2753 
L 3291 2222 
L 1247 2222 
L 1247 531 
L 3444 531 
L 3444 0 
L 616 0 
L 616 4666 
z
" transform="scale(0.015625)"/>
    </defs>
    <use xlink:href="#DejaVuSansMono-52"/>
    <use xlink:href="#DejaVuSansMono-69" transform="translate(60.205078 0)"/>
    <use xlink:href="#DejaVuSansMono-63" transform="translate(120.410156 0)"/>
    <use xlink:href="#DejaVuSansMono-68" transform="translate(180.615234 0)"/>
    <use xlink:href="#DejaVuSansMono-61" transform="translate(240.820312 0)"/>
    <use xlink:href="#DejaVuSansMono-72" transform="translate(301.025391 0)"/>
    <use xlink:href="#DejaVuSansMono-64" transform="translate(361.230469 0)"/>
    <use xlink:href="#DejaVuSansMono-20" transform="translate(421.435547 0)"/>
    <use xlink:href="#DejaVuSansMono-42" transform="translate(481.640625 0)"/>
    <use xlink:href="#DejaVuSansMono-72" transform="translate(541.845703 0)"/>
    <use xlink:href="#DejaVuSansMono-69" transform="translate(602.050781 0)"/>
    <use xlink:href="#DejaVuSansMono-63" transform="translate(662.255859 0)"/>
    <use xlink:href="#DejaVuSansMono-65" transform="translate(722.460938 0)"/>
    <use xlink:href="#DejaVuSansMono-2c" transform="translate(782.666016 0)"/>
    <use xlink:href="#DejaVuSansMono-20" transform="translate(842.871094 0)"/>
    <use xlink:href="#DejaVuSansMono-50" transform="translate(903.076172 0)"/>
    <use xlink:href="#DejaVuSansMono-45" transform="translate(963.28125 0)"/>
   </g>
  </g>
 </g>
 <defs>
  <clipPath id="p4aadcd95c6">
   <rect x="7.2" y="60.707031" width="570.24" height="570.24"/>
  </clipPath>
 </defs>
</svg>
