<?xml version="1.0" encoding="utf-8" standalone="no"?>
<!DOCTYPE svg PUBLIC "-//W3C//DTD SVG 1.1//EN"
  "http://www.w3.org/Graphics/SVG/1.1/DTD/svg11.dtd">
<svg xmlns:xlink="http://www.w3.org/1999/xlink" width="460.8pt" height="345.6pt" viewBox="0 0 460.8 345.6" xmlns="http://www.w3.org/2000/svg" version="1.1">
 <metadata>
  <rdf:RDF xmlns:dc="http://purl.org/dc/elements/1.1/" xmlns:cc="http://creativecommons.org/ns#" xmlns:rdf="http://www.w3.org/1999/02/22-rdf-syntax-ns#">
   <cc:Work>
    <dc:type rdf:resource="http://purl.org/dc/dcmitype/StillImage"/>
    <dc:date>2026-05-05T10:51:10.728883</dc:date>
    <dc:format>image/svg+xml</dc:format>
    <dc:creator>
     <cc:Agent>
      <dc:title>Matplotlib v3.10.9, https://matplotlib.org/</dc:title>
     </cc:Agent>
    </dc:creator>
   </cc:Work>
  </rdf:RDF>
 </metadata>
 <defs>
  <style type="text/css">*{stroke-linejoin: round; stroke-linecap: butt}</style>
 </defs>
 <g id="figure_1">
  <g id="patch_1">
   <path d="M 0 345.6 
L 460.8 345.6 
L 460.8 0 
L 0 0 
z
" style="fill: #ffffff"/>
  </g>
  <g id="axes_1">
   <g id="patch_2">
    <path d="M 57.6 307.584 
L 414.72 307.584 
L 414.72 41.472 
L 57.6 41.472 
z
" style="fill: #ffffff"/>
   </g>
   <g id="matplotlib.axis_1">
    <g id="xtick_1">
     <g id="line2d_1">
      <path d="M 65.96285 307.584 
L 65.96285 41.472 
" clip-path="url(#p15e2fd8aae)" style="fill: none; stroke: #b0b0b0; stroke-width: 0.8; stroke-linecap: square"/>
     </g>
     <g id="line2d_2">
      <defs>
       <path id="mf609c7b6f9" d="M 0 0 
L 0 3.5 
" style="stroke: #000000; stroke-width: 0.8"/>
      </defs>
      <g>
       <use xlink:href="#mf609c7b6f9" x="65.96285" y="307.584" style="stroke: #000000; stroke-width: 0.8"/>
      </g>
     </g>
     <g id="text_1">
      <!-- −300 -->
      <g transform="translate(52.229256 322.182437) scale(0.1 -0.1)">
       <defs>
        <path id="DejaVuSans-2212" d="M 678 2272 
L 4684 2272 
L 4684 1741 
L 678 1741 
L 678 2272 
z
" transform="scale(0.015625)"/>
        <path id="DejaVuSans-33" d="M 2597 2516 
Q 3050 2419 3304 2112 
Q 3559 1806 3559 1356 
Q 3559 666 3084 287 
Q 2609 -91 1734 -91 
Q 1441 -91 1130 -33 
Q 819 25 488 141 
L 488 750 
Q 750 597 1062 519 
Q 1375 441 1716 441 
Q 2309 441 2620 675 
Q 2931 909 2931 1356 
Q 2931 1769 2642 2001 
Q 2353 2234 1838 2234 
L 1294 2234 
L 1294 2753 
L 1863 2753 
Q 2328 2753 2575 2939 
Q 2822 3125 2822 3475 
Q 2822 3834 2567 4026 
Q 2313 4219 1838 4219 
Q 1578 4219 1281 4162 
Q 984 4106 628 3988 
L 628 4550 
Q 988 4650 1302 4700 
Q 1616 4750 1894 4750 
Q 2613 4750 3031 4423 
Q 3450 4097 3450 3541 
Q 3450 3153 3228 2886 
Q 3006 2619 2597 2516 
z
" transform="scale(0.015625)"/>
        <path id="DejaVuSans-30" d="M 2034 4250 
Q 1547 4250 1301 3770 
Q 1056 3291 1056 2328 
Q 1056 1369 1301 889 
Q 1547 409 2034 409 
Q 2525 409 2770 889 
Q 3016 1369 3016 2328 
Q 3016 3291 2770 3770 
Q 2525 4250 2034 4250 
z
M 2034 4750 
Q 2819 4750 3233 4129 
Q 3647 3509 3647 2328 
Q 3647 1150 3233 529 
Q 2819 -91 2034 -91 
Q 1250 -91 836 529 
Q 422 1150 422 2328 
Q 422 3509 836 4129 
Q 1250 4750 2034 4750 
z
" transform="scale(0.015625)"/>
       </defs>
       <use xlink:href="#DejaVuSans-2212"/>
       <use xlink:href="#DejaVuSans-33" transform="translate(83.789062 0)"/>
       <use xlink:href="#DejaVuSans-30" transform="translate(147.412109 0)"/>
       <use xlink:href="#DejaVuSans-30" transform="translate(211.035156 0)"/>
      </g>
     </g>
    </g>
    <g id="xtick_2">
     <g id="line2d_3">
      <path d="M 122.695233 307.584 
L 122.695233 41.472 
" clip-path="url(#p15e2fd8aae)" style="fill: none; stroke: #b0b0b0; stroke-width: 0.8; stroke-linecap: square"/>
     </g>
     <g id="line2d_4">
      <g>
       <use xlink:href="#mf609c7b6f9" x="122.695233" y="307.584" style="stroke: #000000; stroke-width: 0.8"/>
      </g>
     </g>
     <g id="text_2">
      <!-- −200 -->
      <g transform="translate(108.961639 322.182437) scale(0.1 -0.1)">
       <defs>
        <path id="DejaVuSans-32" d="M 1228 531 
L 3431 531 
L 3431 0 
L 469 0 
L 469 531 
Q 828 903 1448 1529 
Q 2069 2156 2228 2338 
Q 2531 2678 2651 2914 
Q 2772 3150 2772 3378 
Q 2772 3750 2511 3984 
Q 2250 4219 1831 4219 
Q 1534 4219 1204 4116 
Q 875 4013 500 3803 
L 500 4441 
Q 881 4594 1212 4672 
Q 1544 4750 1819 4750 
Q 2544 4750 2975 4387 
Q 3406 4025 3406 3419 
Q 3406 3131 3298 2873 
Q 3191 2616 2906 2266 
Q 2828 2175 2409 1742 
Q 1991 1309 1228 531 
z
" transform="scale(0.015625)"/>
       </defs>
       <use xlink:href="#DejaVuSans-2212"/>
       <use xlink:href="#DejaVuSans-32" transform="translate(83.789062 0)"/>
       <use xlink:href="#DejaVuSans-30" transform="translate(147.412109 0)"/>
       <use xlink:href="#DejaVuSans-30" transform="translate(211.035156 0)"/>
      </g>
     </g>
    </g>
    <g id="xtick_3">
     <g id="line2d_5">
      <path d="M 179.427617 307.584 
L 179.427617 41.472 
" clip-path="url(#p15e2fd8aae)" style="fill: none; stroke: #b0b0b0; stroke-width: 0.8; stroke-linecap: square"/>
     </g>
     <g id="line2d_6">
      <g>
       <use xlink:href="#mf609c7b6f9" x="179.427617" y="307.584" style="stroke: #000000; stroke-width: 0.8"/>
      </g>
     </g>
     <g id="text_3">
      <!-- −100 -->
      <g transform="translate(165.694023 322.182437) scale(0.1 -0.1)">
       <defs>
        <path id="DejaVuSans-31" d="M 794 531 
L 1825 531 
L 1825 4091 
L 703 3866 
L 703 4441 
L 1819 4666 
L 2450 4666 
L 2450 531 
L 3481 531 
L 3481 0 
L 794 0 
L 794 531 
z
" transform="scale(0.015625)"/>
       </defs>
       <use xlink:href="#DejaVuSans-2212"/>
       <use xlink:href="#DejaVuSans-31" transform="translate(83.789062 0)"/>
       <use xlink:href="#DejaVuSans-30" transform="translate(147.412109 0)"/>
       <use xlink:href="#DejaVuSans-30" transform="translate(211.035156 0)"/>
      </g>
     </g>
    </g>
    <g id="xtick_4">
     <g id="line2d_7">
      <path d="M 236.16 307.584 
L 236.16 41.472 
" clip-path="url(#p15e2fd8aae)" style="fill: none; stroke: #b0b0b0; stroke-width: 0.8; stroke-linecap: square"/>
     </g>
     <g id="line2d_8">
      <g>
       <use xlink:href="#mf609c7b6f9" x="236.16" y="307.584" style="stroke: #000000; stroke-width: 0.8"/>
      </g>
     </g>
     <g id="text_4">
      <!-- 0 -->
      <g transform="translate(232.97875 322.182437) scale(0.1 -0.1)">
       <use xlink:href="#DejaVuSans-30"/>
      </g>
     </g>
    </g>
    <g id="xtick_5">
     <g id="line2d_9">
      <path d="M 292.892383 307.584 
L 292.892383 41.472 
" clip-path="url(#p15e2fd8aae)" style="fill: none; stroke: #b0b0b0; stroke-width: 0.8; stroke-linecap: square"/>
     </g>
     <g id="line2d_10">
      <g>
       <use xlink:href="#mf609c7b6f9" x="292.892383" y="307.584" style="stroke: #000000; stroke-width: 0.8"/>
      </g>
     </g>
     <g id="text_5">
      <!-- 100 -->
      <g transform="translate(283.348633 322.182437) scale(0.1 -0.1)">
       <use xlink:href="#DejaVuSans-31"/>
       <use xlink:href="#DejaVuSans-30" transform="translate(63.623047 0)"/>
       <use xlink:href="#DejaVuSans-30" transform="translate(127.246094 0)"/>
      </g>
     </g>
    </g>
    <g id="xtick_6">
     <g id="line2d_11">
      <path d="M 349.624767 307.584 
L 349.624767 41.472 
" clip-path="url(#p15e2fd8aae)" style="fill: none; stroke: #b0b0b0; stroke-width: 0.8; stroke-linecap: square"/>
     </g>
     <g id="line2d_12">
      <g>
       <use xlink:href="#mf609c7b6f9" x="349.624767" y="307.584" style="stroke: #000000; stroke-width: 0.8"/>
      </g>
     </g>
     <g id="text_6">
      <!-- 200 -->
      <g transform="translate(340.081017 322.182437) scale(0.1 -0.1)">
       <use xlink:href="#DejaVuSans-32"/>
       <use xlink:href="#DejaVuSans-30" transform="translate(63.623047 0)"/>
       <use xlink:href="#DejaVuSans-30" transform="translate(127.246094 0)"/>
      </g>
     </g>
    </g>
    <g id="xtick_7">
     <g id="line2d_13">
      <path d="M 406.35715 307.584 
L 406.35715 41.472 
" clip-path="url(#p15e2fd8aae)" style="fill: none; stroke: #b0b0b0; stroke-width: 0.8; stroke-linecap: square"/>
     </g>
     <g id="line2d_14">
      <g>
       <use xlink:href="#mf609c7b6f9" x="406.35715" y="307.584" style="stroke: #000000; stroke-width: 0.8"/>
      </g>
     </g>
     <g id="text_7">
      <!-- 300 -->
      <g transform="translate(396.8134 322.182437) scale(0.1 -0.1)">
       <use xlink:href="#DejaVuSans-33"/>
       <use xlink:href="#DejaVuSans-30" transform="translate(63.623047 0)"/>
       <use xlink:href="#DejaVuSans-30" transform="translate(127.246094 0)"/>
      </g>
     </g>
    </g>
    <g id="text_8">
     <!-- X -->
     <g transform="translate(232.735 335.860562) scale(0.1 -0.1)">
      <defs>
       <path id="DejaVuSans-58" d="M 403 4666 
L 1081 4666 
L 2241 2931 
L 3406 4666 
L 4084 4666 
L 2584 2425 
L 4184 0 
L 3506 0 
L 2194 1984 
L 872 0 
L 191 0 
L 1856 2491 
L 403 4666 
z
" transform="scale(0.015625)"/>
      </defs>
      <use xlink:href="#DejaVuSans-58"/>
     </g>
    </g>
   </g>
   <g id="matplotlib.axis_2">
    <g id="ytick_1">
     <g id="line2d_15">
      <path d="M 57.6 266.873495 
L 414.72 266.873495 
" clip-path="url(#p15e2fd8aae)" style="fill: none; stroke: #b0b0b0; stroke-width: 0.8; stroke-linecap: square"/>
     </g>
     <g id="line2d_16">
      <defs>
       <path id="m11cb3580bc" d="M 0 0 
L -3.5 0 
" style="stroke: #000000; stroke-width: 0.8"/>
      </defs>
      <g>
       <use xlink:href="#m11cb3580bc" x="57.6" y="266.873495" style="stroke: #000000; stroke-width: 0.8"/>
      </g>
     </g>
     <g id="text_9">
      <!-- −200 -->
      <g transform="translate(23.132812 270.672714) scale(0.1 -0.1)">
       <use xlink:href="#DejaVuSans-2212"/>
       <use xlink:href="#DejaVuSans-32" transform="translate(83.789062 0)"/>
       <use xlink:href="#DejaVuSans-30" transform="translate(147.412109 0)"/>
       <use xlink:href="#DejaVuSans-30" transform="translate(211.035156 0)"/>
      </g>
     </g>
    </g>
    <g id="ytick_2">
     <g id="line2d_17">
      <path d="M 57.6 220.700747 
L 414.72 220.700747 
" clip-path="url(#p15e2fd8aae)" style="fill: none; stroke: #b0b0b0; stroke-width: 0.8; stroke-linecap: square"/>
     </g>
     <g id="line2d_18">
      <g>
       <use xlink:href="#m11cb3580bc" x="57.6" y="220.700747" style="stroke: #000000; stroke-width: 0.8"/>
      </g>
     </g>
     <g id="text_10">
      <!-- −100 -->
      <g transform="translate(23.132812 224.499966) scale(0.1 -0.1)">
       <use xlink:href="#DejaVuSans-2212"/>
       <use xlink:href="#DejaVuSans-31" transform="translate(83.789062 0)"/>
       <use xlink:href="#DejaVuSans-30" transform="translate(147.412109 0)"/>
       <use xlink:href="#DejaVuSans-30" transform="translate(211.035156 0)"/>
      </g>
     </g>
    </g>
    <g id="ytick_3">
     <g id="line2d_19">
      <path d="M 57.6 174.528 
L 414.72 174.528 
" clip-path="url(#p15e2fd8aae)" style="fill: none; stroke: #b0b0b0; stroke-width: 0.8; stroke-linecap: square"/>
     </g>
     <g id="line2d_20">
      <g>
       <use xlink:href="#m11cb3580bc" x="57.6" y="174.528" style="stroke: #000000; stroke-width: 0.8"/>
      </g>
     </g>
     <g id="text_11">
      <!-- 0 -->
      <g transform="translate(44.2375 178.327219) scale(0.1 -0.1)">
       <use xlink:href="#DejaVuSans-30"/>
      </g>
     </g>
    </g>
    <g id="ytick_4">
     <g id="line2d_21">
      <path d="M 57.6 128.355253 
L 414.72 128.355253 
" clip-path="url(#p15e2fd8aae)" style="fill: none; stroke: #b0b0b0; stroke-width: 0.8; stroke-linecap: square"/>
     </g>
     <g id="line2d_22">
      <g>
       <use xlink:href="#m11cb3580bc" x="57.6" y="128.355253" style="stroke: #000000; stroke-width: 0.8"/>
      </g>
     </g>
     <g id="text_12">
      <!-- 100 -->
      <g transform="translate(31.5125 132.154471) scale(0.1 -0.1)">
       <use xlink:href="#DejaVuSans-31"/>
       <use xlink:href="#DejaVuSans-30" transform="translate(63.623047 0)"/>
       <use xlink:href="#DejaVuSans-30" transform="translate(127.246094 0)"/>
      </g>
     </g>
    </g>
    <g id="ytick_5">
     <g id="line2d_23">
      <path d="M 57.6 82.182505 
L 414.72 82.182505 
" clip-path="url(#p15e2fd8aae)" style="fill: none; stroke: #b0b0b0; stroke-width: 0.8; stroke-linecap: square"/>
     </g>
     <g id="line2d_24">
      <g>
       <use xlink:href="#m11cb3580bc" x="57.6" y="82.182505" style="stroke: #000000; stroke-width: 0.8"/>
      </g>
     </g>
     <g id="text_13">
      <!-- 200 -->
      <g transform="translate(31.5125 85.981724) scale(0.1 -0.1)">
       <use xlink:href="#DejaVuSans-32"/>
       <use xlink:href="#DejaVuSans-30" transform="translate(63.623047 0)"/>
       <use xlink:href="#DejaVuSans-30" transform="translate(127.246094 0)"/>
      </g>
     </g>
    </g>
    <g id="text_14">
     <!-- Y -->
     <g transform="translate(17.053125 177.581906) rotate(-90) scale(0.1 -0.1)">
      <defs>
       <path id="DejaVuSans-59" d="M -13 4666 
L 666 4666 
L 1959 2747 
L 3244 4666 
L 3922 4666 
L 2272 2222 
L 2272 0 
L 1638 0 
L 1638 2222 
L -13 4666 
z
" transform="scale(0.015625)"/>
      </defs>
      <use xlink:href="#DejaVuSans-59"/>
     </g>
    </g>
   </g>
   <g id="line2d_25">
    <path d="M 151.64886 101.40996 
L 154.630707 97.494138 
L 156.431865 93.126504 
L 156.969688 88.540065 
L 156.229155 83.97217 
L 154.260308 79.652084 
L 151.172488 75.789826 
L 147.125937 72.566753 
L 142.32145 70.128228 
L 136.988756 68.578572 
L 131.374326 67.978335 
L 125.729266 68.343839 
L 120.297864 69.648792 
L 115.30728 71.827721 
L 110.958756 74.780897 
L 107.420604 78.380384 
L 104.823139 82.47685 
L 103.255573 86.906748 
L 102.764846 91.499541 
L 103.356245 96.084645 
L 104.995617 100.497835 
L 107.612934 104.586896 
L 111.106932 108.216376 
L 115.350536 111.271325 
L 120.196778 113.659995 
L 125.484945 115.315483 
L 131.046687 116.196376 
L 136.711876 116.286469 
L 142.314031 115.593668 
L 147.695154 114.148189 
L 152.709875 112.000202 
L 157.228837 109.217058 
L 161.141294 105.880224 
L 164.356905 102.082072 
L 166.806769 97.92264 
L 168.443751 93.506456 
L 169.242148 88.939541 
L 169.196807 84.326645 
L 168.321751 79.768773 
L 166.648442 75.361057 
L 164.223745 71.190982 
L 161.1077 67.336974 
L 157.371184 63.867364 
L 153.09354 60.839698 
L 148.360236 58.300372 
L 143.260623 56.284577 
L 137.885827 54.816499 
L 132.326821 53.909751 
L 126.672705 53.568 
L 121.0092 53.785739 
L 115.417379 54.549176 
L 109.972636 55.837199 
L 104.743874 57.622397 
L 99.79292 59.872082 
L 95.174141 62.549318 
L 90.93425 65.613913 
L 87.112279 69.023359 
L 83.7397 72.733719 
L 80.84067 76.700434 
L 78.432381 80.87905 
L 76.525497 85.225864 
L 75.124651 89.698479 
L 74.228985 94.256275 
L 73.832727 98.860796 
L 73.925777 103.476053 
L 74.494292 108.068758 
L 75.521266 112.608484 
L 76.987086 117.067761 
L 78.870066 121.422121 
L 81.146942 125.65009 
L 83.793338 129.733138 
L 86.784186 133.655596 
L 90.094105 137.40454 
L 93.69774 140.96966 
L 97.570061 144.343098 
L 101.686611 147.51929 
L 106.02373 150.494788 
L 110.558729 153.268084 
L 115.270031 155.83943 
L 120.137287 158.210668 
L 125.141456 160.385055 
L 130.264856 162.367099 
L 135.491197 164.162412 
L 140.805594 165.777558 
L 146.194551 167.219922 
L 151.64594 168.497588 
L 157.148962 169.619226 
L 162.694095 170.593992 
L 168.273035 171.431441 
L 173.878626 172.141447 
L 185.146433 173.219837 
L 196.460308 173.912251 
L 207.796221 174.303563 
L 219.140473 174.479519 
L 264.523779 174.752437 
L 275.859692 175.143749 
L 287.173567 175.836163 
L 298.441374 176.914553 
L 304.046965 177.624559 
L 309.625905 178.462008 
L 315.171038 179.436774 
L 320.67406 180.558412 
L 326.125449 181.836078 
L 331.514406 183.278442 
L 336.828803 184.893588 
L 342.055144 186.688901 
L 347.178544 188.670945 
L 352.182713 190.845332 
L 357.049969 193.21657 
L 361.761271 195.787916 
L 366.29627 198.561212 
L 370.633389 201.53671 
L 374.749939 204.712902 
L 378.62226 208.08634 
L 382.225895 211.65146 
L 385.535814 215.400404 
L 388.526662 219.322862 
L 391.173058 223.40591 
L 393.449934 227.633879 
L 395.332914 231.988239 
L 396.798734 236.447516 
L 397.825708 240.987242 
L 398.394223 245.579947 
L 398.487273 250.195204 
L 398.091015 254.799725 
L 397.195349 259.357521 
L 395.794503 263.830136 
L 393.887619 268.17695 
L 391.47933 272.355566 
L 388.5803 276.322281 
L 385.207721 280.032641 
L 381.38575 283.442087 
L 377.145859 286.506682 
L 372.52708 289.183918 
L 367.576126 291.433603 
L 362.347364 293.218801 
L 356.902621 294.506824 
L 351.3108 295.270261 
L 345.647295 295.488 
L 339.993179 295.146249 
L 334.434173 294.239501 
L 329.059377 292.771423 
L 323.959764 290.755628 
L 319.22646 288.216302 
L 314.948816 285.188636 
L 311.2123 281.719026 
L 308.096255 277.865018 
L 305.671558 273.694943 
L 303.998249 269.287227 
L 303.123193 264.729355 
L 303.077852 260.116459 
L 303.876249 255.549544 
L 305.513231 251.13336 
L 307.963095 246.973928 
L 311.178706 243.175776 
L 315.091163 239.838942 
L 319.610125 237.055798 
L 324.624846 234.907811 
L 330.005969 233.462332 
L 335.608124 232.769531 
L 341.273313 232.859624 
L 346.835055 233.740517 
L 352.123222 235.396005 
L 356.969464 237.784675 
L 361.213068 240.839624 
L 364.707066 244.469104 
L 367.324383 248.558165 
L 368.963755 252.971355 
L 369.555154 257.556459 
L 369.064427 262.149252 
L 367.496861 266.57915 
L 364.899396 270.675616 
L 361.361244 274.275103 
L 357.01272 277.228279 
L 352.022136 279.407208 
L 346.590734 280.712161 
L 340.945674 281.077665 
L 335.331244 280.477428 
L 329.99855 278.927772 
L 325.194063 276.489247 
L 321.147512 273.266174 
L 318.059692 269.403916 
L 316.090845 265.08383 
L 315.350312 260.515935 
L 315.888135 255.929496 
L 317.689293 251.561862 
L 317.689293 251.561862 
" clip-path="url(#p15e2fd8aae)" style="fill: none; stroke: #ff0000; stroke-linecap: square"/>
   </g>
   <g id="line2d_26">
    <path d="M 155.57198 169.314154 
L 156.698037 169.533296 
L 157.825874 169.746288 
L 158.955415 169.953209 
L 160.086589 170.15414 
L 161.219322 170.349162 
L 162.353547 170.538357 
L 163.489196 170.721807 
L 164.626203 170.899595 
L 165.764506 171.071804 
L 166.904044 171.238518 
L 168.044757 171.399822 
L 169.186587 171.555799 
L 170.329479 171.706537 
L 171.47338 171.852119 
L 172.618238 171.992633 
L 173.764002 172.128164 
L 174.910624 172.2588 
L 176.058057 172.384628 
L 177.206258 172.505735 
L 178.355181 172.622209 
L 179.504787 172.734138 
L 180.655035 172.84161 
L 181.805886 172.944715 
L 182.957304 173.04354 
L 184.109253 173.138175 
L 185.261699 173.228709 
L 186.414611 173.315231 
L 187.567957 173.397832 
L 188.721708 173.476601 
L 189.875835 173.551628 
L 191.030312 173.623002 
L 192.185113 173.690816 
L 193.340214 173.755158 
L 194.495592 173.816119 
L 195.651224 173.87379 
L 196.807092 173.928261 
L 197.963173 173.979625 
L 199.119452 174.02797 
L 200.275909 174.073388 
L 201.43253 174.115971 
L 202.589298 174.15581 
L 203.7462 174.192994 
L 204.903221 174.227617 
L 206.060351 174.259769 
L 207.217576 174.289541 
L 208.374887 174.317024 
L 209.532273 174.342311 
L 210.689726 174.365492 
L 211.847238 174.386659 
" clip-path="url(#p15e2fd8aae)" style="fill: none; stroke: #0000ff; stroke-width: 3; stroke-linecap: square"/>
   </g>
   <g id="patch_3">
    <path d="M 57.6 307.584 
L 57.6 41.472 
" style="fill: none; stroke: #000000; stroke-width: 0.8; stroke-linejoin: miter; stroke-linecap: square"/>
   </g>
   <g id="patch_4">
    <path d="M 414.72 307.584 
L 414.72 41.472 
" style="fill: none; stroke: #000000; stroke-width: 0.8; stroke-linejoin: miter; stroke-linecap: square"/>
   </g>
   <g id="patch_5">
    <path d="M 57.6 307.584 
L 414.72 307.584 
" style="fill: none; stroke: #000000; stroke-width: 0.8; stroke-linejoin: miter; stroke-linecap: square"/>
   </g>
   <g id="patch_6">
    <path d="M 57.6 41.472 
L 414.72 41.472 
" style="fill: none; stroke: #000000; stroke-width: 0.8; stroke-linejoin: miter; stroke-linecap: square"/>
   </g>
   <g id="text_15">
    <!-- Start = -142.857 -->
    <g transform="translate(155.57198 153.728016) scale(0.1 -0.1)">
     <defs>
      <path id="DejaVuSans-53" d="M 3425 4513 
L 3425 3897 
Q 3066 4069 2747 4153 
Q 2428 4238 2131 4238 
Q 1616 4238 1336 4038 
Q 1056 3838 1056 3469 
Q 1056 3159 1242 3001 
Q 1428 2844 1947 2747 
L 2328 2669 
Q 3034 2534 3370 2195 
Q 3706 1856 3706 1288 
Q 3706 609 3251 259 
Q 2797 -91 1919 -91 
Q 1588 -91 1214 -16 
Q 841 59 441 206 
L 441 856 
Q 825 641 1194 531 
Q 1563 422 1919 422 
Q 2459 422 2753 634 
Q 3047 847 3047 1241 
Q 3047 1584 2836 1778 
Q 2625 1972 2144 2069 
L 1759 2144 
Q 1053 2284 737 2584 
Q 422 2884 422 3419 
Q 422 4038 858 4394 
Q 1294 4750 2059 4750 
Q 2388 4750 2728 4690 
Q 3069 4631 3425 4513 
z
" transform="scale(0.015625)"/>
      <path id="DejaVuSans-74" d="M 1172 4494 
L 1172 3500 
L 2356 3500 
L 2356 3053 
L 1172 3053 
L 1172 1153 
Q 1172 725 1289 603 
Q 1406 481 1766 481 
L 2356 481 
L 2356 0 
L 1766 0 
Q 1100 0 847 248 
Q 594 497 594 1153 
L 594 3053 
L 172 3053 
L 172 3500 
L 594 3500 
L 594 4494 
L 1172 4494 
z
" transform="scale(0.015625)"/>
      <path id="DejaVuSans-61" d="M 2194 1759 
Q 1497 1759 1228 1600 
Q 959 1441 959 1056 
Q 959 750 1161 570 
Q 1363 391 1709 391 
Q 2188 391 2477 730 
Q 2766 1069 2766 1631 
L 2766 1759 
L 2194 1759 
z
M 3341 1997 
L 3341 0 
L 2766 0 
L 2766 531 
Q 2569 213 2275 61 
Q 1981 -91 1556 -91 
Q 1019 -91 701 211 
Q 384 513 384 1019 
Q 384 1609 779 1909 
Q 1175 2209 1959 2209 
L 2766 2209 
L 2766 2266 
Q 2766 2663 2505 2880 
Q 2244 3097 1772 3097 
Q 1472 3097 1187 3025 
Q 903 2953 641 2809 
L 641 3341 
Q 956 3463 1253 3523 
Q 1550 3584 1831 3584 
Q 2591 3584 2966 3190 
Q 3341 2797 3341 1997 
z
" transform="scale(0.015625)"/>
      <path id="DejaVuSans-72" d="M 2631 2963 
Q 2534 3019 2420 3045 
Q 2306 3072 2169 3072 
Q 1681 3072 1420 2755 
Q 1159 2438 1159 1844 
L 1159 0 
L 581 0 
L 581 3500 
L 1159 3500 
L 1159 2956 
Q 1341 3275 1631 3429 
Q 1922 3584 2338 3584 
Q 2397 3584 2469 3576 
Q 2541 3569 2628 3553 
L 2631 2963 
z
" transform="scale(0.015625)"/>
      <path id="DejaVuSans-20" transform="scale(0.015625)"/>
      <path id="DejaVuSans-3d" d="M 678 2906 
L 4684 2906 
L 4684 2381 
L 678 2381 
L 678 2906 
z
M 678 1631 
L 4684 1631 
L 4684 1100 
L 678 1100 
L 678 1631 
z
" transform="scale(0.015625)"/>
      <path id="DejaVuSans-2d" d="M 313 2009 
L 1997 2009 
L 1997 1497 
L 313 1497 
L 313 2009 
z
" transform="scale(0.015625)"/>
      <path id="DejaVuSans-34" d="M 2419 4116 
L 825 1625 
L 2419 1625 
L 2419 4116 
z
M 2253 4666 
L 3047 4666 
L 3047 1625 
L 3713 1625 
L 3713 1100 
L 3047 1100 
L 3047 0 
L 2419 0 
L 2419 1100 
L 313 1100 
L 313 1709 
L 2253 4666 
z
" transform="scale(0.015625)"/>
      <path id="DejaVuSans-2e" d="M 684 794 
L 1344 794 
L 1344 0 
L 684 0 
L 684 794 
z
" transform="scale(0.015625)"/>
      <path id="DejaVuSans-38" d="M 2034 2216 
Q 1584 2216 1326 1975 
Q 1069 1734 1069 1313 
Q 1069 891 1326 650 
Q 1584 409 2034 409 
Q 2484 409 2743 651 
Q 3003 894 3003 1313 
Q 3003 1734 2745 1975 
Q 2488 2216 2034 2216 
z
M 1403 2484 
Q 997 2584 770 2862 
Q 544 3141 544 3541 
Q 544 4100 942 4425 
Q 1341 4750 2034 4750 
Q 2731 4750 3128 4425 
Q 3525 4100 3525 3541 
Q 3525 3141 3298 2862 
Q 3072 2584 2669 2484 
Q 3125 2378 3379 2068 
Q 3634 1759 3634 1313 
Q 3634 634 3220 271 
Q 2806 -91 2034 -91 
Q 1263 -91 848 271 
Q 434 634 434 1313 
Q 434 1759 690 2068 
Q 947 2378 1403 2484 
z
M 1172 3481 
Q 1172 3119 1398 2916 
Q 1625 2713 2034 2713 
Q 2441 2713 2670 2916 
Q 2900 3119 2900 3481 
Q 2900 3844 2670 4047 
Q 2441 4250 2034 4250 
Q 1625 4250 1398 4047 
Q 1172 3844 1172 3481 
z
" transform="scale(0.015625)"/>
      <path id="DejaVuSans-35" d="M 691 4666 
L 3169 4666 
L 3169 4134 
L 1269 4134 
L 1269 2991 
Q 1406 3038 1543 3061 
Q 1681 3084 1819 3084 
Q 2600 3084 3056 2656 
Q 3513 2228 3513 1497 
Q 3513 744 3044 326 
Q 2575 -91 1722 -91 
Q 1428 -91 1123 -41 
Q 819 9 494 109 
L 494 744 
Q 775 591 1075 516 
Q 1375 441 1709 441 
Q 2250 441 2565 725 
Q 2881 1009 2881 1497 
Q 2881 1984 2565 2268 
Q 2250 2553 1709 2553 
Q 1456 2553 1204 2497 
Q 953 2441 691 2322 
L 691 4666 
z
" transform="scale(0.015625)"/>
      <path id="DejaVuSans-37" d="M 525 4666 
L 3525 4666 
L 3525 4397 
L 1831 0 
L 1172 0 
L 2766 4134 
L 525 4134 
L 525 4666 
z
" transform="scale(0.015625)"/>
     </defs>
     <use xlink:href="#DejaVuSans-53"/>
     <use xlink:href="#DejaVuSans-74" transform="translate(63.476562 0)"/>
     <use xlink:href="#DejaVuSans-61" transform="translate(102.685547 0)"/>
     <use xlink:href="#DejaVuSans-72" transform="translate(163.964844 0)"/>
     <use xlink:href="#DejaVuSans-74" transform="translate(205.078125 0)"/>
     <use xlink:href="#DejaVuSans-20" transform="translate(244.287109 0)"/>
     <use xlink:href="#DejaVuSans-3d" transform="translate(276.074219 0)"/>
     <use xlink:href="#DejaVuSans-20" transform="translate(359.863281 0)"/>
     <use xlink:href="#DejaVuSans-2d" transform="translate(391.650391 0)"/>
     <use xlink:href="#DejaVuSans-31" transform="translate(427.734375 0)"/>
     <use xlink:href="#DejaVuSans-34" transform="translate(491.357422 0)"/>
     <use xlink:href="#DejaVuSans-32" transform="translate(554.980469 0)"/>
     <use xlink:href="#DejaVuSans-2e" transform="translate(618.603516 0)"/>
     <use xlink:href="#DejaVuSans-38" transform="translate(650.390625 0)"/>
     <use xlink:href="#DejaVuSans-35" transform="translate(714.013672 0)"/>
     <use xlink:href="#DejaVuSans-37" transform="translate(777.636719 0)"/>
    </g>
    <!-- R = 300 -->
    <g transform="translate(155.57198 164.925829) scale(0.1 -0.1)">
     <defs>
      <path id="DejaVuSans-52" d="M 2841 2188 
Q 3044 2119 3236 1894 
Q 3428 1669 3622 1275 
L 4263 0 
L 3584 0 
L 2988 1197 
Q 2756 1666 2539 1819 
Q 2322 1972 1947 1972 
L 1259 1972 
L 1259 0 
L 628 0 
L 628 4666 
L 2053 4666 
Q 2853 4666 3247 4331 
Q 3641 3997 3641 3322 
Q 3641 2881 3436 2590 
Q 3231 2300 2841 2188 
z
M 1259 4147 
L 1259 2491 
L 2053 2491 
Q 2509 2491 2742 2702 
Q 2975 2913 2975 3322 
Q 2975 3731 2742 3939 
Q 2509 4147 2053 4147 
L 1259 4147 
z
" transform="scale(0.015625)"/>
     </defs>
     <use xlink:href="#DejaVuSans-52"/>
     <use xlink:href="#DejaVuSans-20" transform="translate(69.482422 0)"/>
     <use xlink:href="#DejaVuSans-3d" transform="translate(101.269531 0)"/>
     <use xlink:href="#DejaVuSans-20" transform="translate(185.058594 0)"/>
     <use xlink:href="#DejaVuSans-33" transform="translate(216.845703 0)"/>
     <use xlink:href="#DejaVuSans-30" transform="translate(280.46875 0)"/>
     <use xlink:href="#DejaVuSans-30" transform="translate(344.091797 0)"/>
    </g>
   </g>
   <g id="text_16">
    <!-- Start + Length = -42.857 -->
    <g transform="translate(211.847238 184.293734) scale(0.1 -0.1)">
     <defs>
      <path id="DejaVuSans-2b" d="M 2944 4013 
L 2944 2272 
L 4684 2272 
L 4684 1741 
L 2944 1741 
L 2944 0 
L 2419 0 
L 2419 1741 
L 678 1741 
L 678 2272 
L 2419 2272 
L 2419 4013 
L 2944 4013 
z
" transform="scale(0.015625)"/>
      <path id="DejaVuSans-4c" d="M 628 4666 
L 1259 4666 
L 1259 531 
L 3531 531 
L 3531 0 
L 628 0 
L 628 4666 
z
" transform="scale(0.015625)"/>
      <path id="DejaVuSans-65" d="M 3597 1894 
L 3597 1613 
L 953 1613 
Q 991 1019 1311 708 
Q 1631 397 2203 397 
Q 2534 397 2845 478 
Q 3156 559 3463 722 
L 3463 178 
Q 3153 47 2828 -22 
Q 2503 -91 2169 -91 
Q 1331 -91 842 396 
Q 353 884 353 1716 
Q 353 2575 817 3079 
Q 1281 3584 2069 3584 
Q 2775 3584 3186 3129 
Q 3597 2675 3597 1894 
z
M 3022 2063 
Q 3016 2534 2758 2815 
Q 2500 3097 2075 3097 
Q 1594 3097 1305 2825 
Q 1016 2553 972 2059 
L 3022 2063 
z
" transform="scale(0.015625)"/>
      <path id="DejaVuSans-6e" d="M 3513 2113 
L 3513 0 
L 2938 0 
L 2938 2094 
Q 2938 2591 2744 2837 
Q 2550 3084 2163 3084 
Q 1697 3084 1428 2787 
Q 1159 2491 1159 1978 
L 1159 0 
L 581 0 
L 581 3500 
L 1159 3500 
L 1159 2956 
Q 1366 3272 1645 3428 
Q 1925 3584 2291 3584 
Q 2894 3584 3203 3211 
Q 3513 2838 3513 2113 
z
" transform="scale(0.015625)"/>
      <path id="DejaVuSans-67" d="M 2906 1791 
Q 2906 2416 2648 2759 
Q 2391 3103 1925 3103 
Q 1463 3103 1205 2759 
Q 947 2416 947 1791 
Q 947 1169 1205 825 
Q 1463 481 1925 481 
Q 2391 481 2648 825 
Q 2906 1169 2906 1791 
z
M 3481 434 
Q 3481 -459 3084 -895 
Q 2688 -1331 1869 -1331 
Q 1566 -1331 1297 -1286 
Q 1028 -1241 775 -1147 
L 775 -588 
Q 1028 -725 1275 -790 
Q 1522 -856 1778 -856 
Q 2344 -856 2625 -561 
Q 2906 -266 2906 331 
L 2906 616 
Q 2728 306 2450 153 
Q 2172 0 1784 0 
Q 1141 0 747 490 
Q 353 981 353 1791 
Q 353 2603 747 3093 
Q 1141 3584 1784 3584 
Q 2172 3584 2450 3431 
Q 2728 3278 2906 2969 
L 2906 3500 
L 3481 3500 
L 3481 434 
z
" transform="scale(0.015625)"/>
      <path id="DejaVuSans-68" d="M 3513 2113 
L 3513 0 
L 2938 0 
L 2938 2094 
Q 2938 2591 2744 2837 
Q 2550 3084 2163 3084 
Q 1697 3084 1428 2787 
Q 1159 2491 1159 1978 
L 1159 0 
L 581 0 
L 581 4863 
L 1159 4863 
L 1159 2956 
Q 1366 3272 1645 3428 
Q 1925 3584 2291 3584 
Q 2894 3584 3203 3211 
Q 3513 2838 3513 2113 
z
" transform="scale(0.015625)"/>
     </defs>
     <use xlink:href="#DejaVuSans-53"/>
     <use xlink:href="#DejaVuSans-74" transform="translate(63.476562 0)"/>
     <use xlink:href="#DejaVuSans-61" transform="translate(102.685547 0)"/>
     <use xlink:href="#DejaVuSans-72" transform="translate(163.964844 0)"/>
     <use xlink:href="#DejaVuSans-74" transform="translate(205.078125 0)"/>
     <use xlink:href="#DejaVuSans-20" transform="translate(244.287109 0)"/>
     <use xlink:href="#DejaVuSans-2b" transform="translate(276.074219 0)"/>
     <use xlink:href="#DejaVuSans-20" transform="translate(359.863281 0)"/>
     <use xlink:href="#DejaVuSans-4c" transform="translate(391.650391 0)"/>
     <use xlink:href="#DejaVuSans-65" transform="translate(445.613281 0)"/>
     <use xlink:href="#DejaVuSans-6e" transform="translate(507.136719 0)"/>
     <use xlink:href="#DejaVuSans-67" transform="translate(570.515625 0)"/>
     <use xlink:href="#DejaVuSans-74" transform="translate(633.992188 0)"/>
     <use xlink:href="#DejaVuSans-68" transform="translate(673.201172 0)"/>
     <use xlink:href="#DejaVuSans-20" transform="translate(736.580078 0)"/>
     <use xlink:href="#DejaVuSans-3d" transform="translate(768.367188 0)"/>
     <use xlink:href="#DejaVuSans-20" transform="translate(852.15625 0)"/>
     <use xlink:href="#DejaVuSans-2d" transform="translate(883.943359 0)"/>
     <use xlink:href="#DejaVuSans-34" transform="translate(920.027344 0)"/>
     <use xlink:href="#DejaVuSans-32" transform="translate(983.650391 0)"/>
     <use xlink:href="#DejaVuSans-2e" transform="translate(1047.273438 0)"/>
     <use xlink:href="#DejaVuSans-38" transform="translate(1079.060547 0)"/>
     <use xlink:href="#DejaVuSans-35" transform="translate(1142.683594 0)"/>
     <use xlink:href="#DejaVuSans-37" transform="translate(1206.306641 0)"/>
    </g>
    <!-- R = 1000 -->
    <g transform="translate(211.847238 195.491547) scale(0.1 -0.1)">
     <use xlink:href="#DejaVuSans-52"/>
     <use xlink:href="#DejaVuSans-20" transform="translate(69.482422 0)"/>
     <use xlink:href="#DejaVuSans-3d" transform="translate(101.269531 0)"/>
     <use xlink:href="#DejaVuSans-20" transform="translate(185.058594 0)"/>
     <use xlink:href="#DejaVuSans-31" transform="translate(216.845703 0)"/>
     <use xlink:href="#DejaVuSans-30" transform="translate(280.46875 0)"/>
     <use xlink:href="#DejaVuSans-30" transform="translate(344.091797 0)"/>
     <use xlink:href="#DejaVuSans-30" transform="translate(407.714844 0)"/>
    </g>
   </g>
   <g id="text_17">
    <!-- Clothoid Constant = -207.019667802706 -->
    <g transform="translate(207.793808 105.268879) scale(0.1 -0.1)">
     <defs>
      <path id="DejaVuSans-43" d="M 4122 4306 
L 4122 3641 
Q 3803 3938 3442 4084 
Q 3081 4231 2675 4231 
Q 1875 4231 1450 3742 
Q 1025 3253 1025 2328 
Q 1025 1406 1450 917 
Q 1875 428 2675 428 
Q 3081 428 3442 575 
Q 3803 722 4122 1019 
L 4122 359 
Q 3791 134 3420 21 
Q 3050 -91 2638 -91 
Q 1578 -91 968 557 
Q 359 1206 359 2328 
Q 359 3453 968 4101 
Q 1578 4750 2638 4750 
Q 3056 4750 3426 4639 
Q 3797 4528 4122 4306 
z
" transform="scale(0.015625)"/>
      <path id="DejaVuSans-6c" d="M 603 4863 
L 1178 4863 
L 1178 0 
L 603 0 
L 603 4863 
z
" transform="scale(0.015625)"/>
      <path id="DejaVuSans-6f" d="M 1959 3097 
Q 1497 3097 1228 2736 
Q 959 2375 959 1747 
Q 959 1119 1226 758 
Q 1494 397 1959 397 
Q 2419 397 2687 759 
Q 2956 1122 2956 1747 
Q 2956 2369 2687 2733 
Q 2419 3097 1959 3097 
z
M 1959 3584 
Q 2709 3584 3137 3096 
Q 3566 2609 3566 1747 
Q 3566 888 3137 398 
Q 2709 -91 1959 -91 
Q 1206 -91 779 398 
Q 353 888 353 1747 
Q 353 2609 779 3096 
Q 1206 3584 1959 3584 
z
" transform="scale(0.015625)"/>
      <path id="DejaVuSans-69" d="M 603 3500 
L 1178 3500 
L 1178 0 
L 603 0 
L 603 3500 
z
M 603 4863 
L 1178 4863 
L 1178 4134 
L 603 4134 
L 603 4863 
z
" transform="scale(0.015625)"/>
      <path id="DejaVuSans-64" d="M 2906 2969 
L 2906 4863 
L 3481 4863 
L 3481 0 
L 2906 0 
L 2906 525 
Q 2725 213 2448 61 
Q 2172 -91 1784 -91 
Q 1150 -91 751 415 
Q 353 922 353 1747 
Q 353 2572 751 3078 
Q 1150 3584 1784 3584 
Q 2172 3584 2448 3432 
Q 2725 3281 2906 2969 
z
M 947 1747 
Q 947 1113 1208 752 
Q 1469 391 1925 391 
Q 2381 391 2643 752 
Q 2906 1113 2906 1747 
Q 2906 2381 2643 2742 
Q 2381 3103 1925 3103 
Q 1469 3103 1208 2742 
Q 947 2381 947 1747 
z
" transform="scale(0.015625)"/>
      <path id="DejaVuSans-73" d="M 2834 3397 
L 2834 2853 
Q 2591 2978 2328 3040 
Q 2066 3103 1784 3103 
Q 1356 3103 1142 2972 
Q 928 2841 928 2578 
Q 928 2378 1081 2264 
Q 1234 2150 1697 2047 
L 1894 2003 
Q 2506 1872 2764 1633 
Q 3022 1394 3022 966 
Q 3022 478 2636 193 
Q 2250 -91 1575 -91 
Q 1294 -91 989 -36 
Q 684 19 347 128 
L 347 722 
Q 666 556 975 473 
Q 1284 391 1588 391 
Q 1994 391 2212 530 
Q 2431 669 2431 922 
Q 2431 1156 2273 1281 
Q 2116 1406 1581 1522 
L 1381 1569 
Q 847 1681 609 1914 
Q 372 2147 372 2553 
Q 372 3047 722 3315 
Q 1072 3584 1716 3584 
Q 2034 3584 2315 3537 
Q 2597 3491 2834 3397 
z
" transform="scale(0.015625)"/>
      <path id="DejaVuSans-39" d="M 703 97 
L 703 672 
Q 941 559 1184 500 
Q 1428 441 1663 441 
Q 2288 441 2617 861 
Q 2947 1281 2994 2138 
Q 2813 1869 2534 1725 
Q 2256 1581 1919 1581 
Q 1219 1581 811 2004 
Q 403 2428 403 3163 
Q 403 3881 828 4315 
Q 1253 4750 1959 4750 
Q 2769 4750 3195 4129 
Q 3622 3509 3622 2328 
Q 3622 1225 3098 567 
Q 2575 -91 1691 -91 
Q 1453 -91 1209 -44 
Q 966 3 703 97 
z
M 1959 2075 
Q 2384 2075 2632 2365 
Q 2881 2656 2881 3163 
Q 2881 3666 2632 3958 
Q 2384 4250 1959 4250 
Q 1534 4250 1286 3958 
Q 1038 3666 1038 3163 
Q 1038 2656 1286 2365 
Q 1534 2075 1959 2075 
z
" transform="scale(0.015625)"/>
      <path id="DejaVuSans-36" d="M 2113 2584 
Q 1688 2584 1439 2293 
Q 1191 2003 1191 1497 
Q 1191 994 1439 701 
Q 1688 409 2113 409 
Q 2538 409 2786 701 
Q 3034 994 3034 1497 
Q 3034 2003 2786 2293 
Q 2538 2584 2113 2584 
z
M 3366 4563 
L 3366 3988 
Q 3128 4100 2886 4159 
Q 2644 4219 2406 4219 
Q 1781 4219 1451 3797 
Q 1122 3375 1075 2522 
Q 1259 2794 1537 2939 
Q 1816 3084 2150 3084 
Q 2853 3084 3261 2657 
Q 3669 2231 3669 1497 
Q 3669 778 3244 343 
Q 2819 -91 2113 -91 
Q 1303 -91 875 529 
Q 447 1150 447 2328 
Q 447 3434 972 4092 
Q 1497 4750 2381 4750 
Q 2619 4750 2861 4703 
Q 3103 4656 3366 4563 
z
" transform="scale(0.015625)"/>
     </defs>
     <use xlink:href="#DejaVuSans-43"/>
     <use xlink:href="#DejaVuSans-6c" transform="translate(69.824219 0)"/>
     <use xlink:href="#DejaVuSans-6f" transform="translate(97.607422 0)"/>
     <use xlink:href="#DejaVuSans-74" transform="translate(158.789062 0)"/>
     <use xlink:href="#DejaVuSans-68" transform="translate(197.998047 0)"/>
     <use xlink:href="#DejaVuSans-6f" transform="translate(261.376953 0)"/>
     <use xlink:href="#DejaVuSans-69" transform="translate(322.558594 0)"/>
     <use xlink:href="#DejaVuSans-64" transform="translate(350.341797 0)"/>
     <use xlink:href="#DejaVuSans-20" transform="translate(413.818359 0)"/>
     <use xlink:href="#DejaVuSans-43" transform="translate(445.605469 0)"/>
     <use xlink:href="#DejaVuSans-6f" transform="translate(515.429688 0)"/>
     <use xlink:href="#DejaVuSans-6e" transform="translate(576.611328 0)"/>
     <use xlink:href="#DejaVuSans-73" transform="translate(639.990234 0)"/>
     <use xlink:href="#DejaVuSans-74" transform="translate(692.089844 0)"/>
     <use xlink:href="#DejaVuSans-61" transform="translate(731.298828 0)"/>
     <use xlink:href="#DejaVuSans-6e" transform="translate(792.578125 0)"/>
     <use xlink:href="#DejaVuSans-74" transform="translate(855.957031 0)"/>
     <use xlink:href="#DejaVuSans-20" transform="translate(895.166016 0)"/>
     <use xlink:href="#DejaVuSans-3d" transform="translate(926.953125 0)"/>
     <use xlink:href="#DejaVuSans-20" transform="translate(1010.742188 0)"/>
     <use xlink:href="#DejaVuSans-2d" transform="translate(1042.529297 0)"/>
     <use xlink:href="#DejaVuSans-32" transform="translate(1078.613281 0)"/>
     <use xlink:href="#DejaVuSans-30" transform="translate(1142.236328 0)"/>
     <use xlink:href="#DejaVuSans-37" transform="translate(1205.859375 0)"/>
     <use xlink:href="#DejaVuSans-2e" transform="translate(1269.482422 0)"/>
     <use xlink:href="#DejaVuSans-30" transform="translate(1301.269531 0)"/>
     <use xlink:href="#DejaVuSans-31" transform="translate(1364.892578 0)"/>
     <use xlink:href="#DejaVuSans-39" transform="translate(1428.515625 0)"/>
     <use xlink:href="#DejaVuSans-36" transform="translate(1492.138672 0)"/>
     <use xlink:href="#DejaVuSans-36" transform="translate(1555.761719 0)"/>
     <use xlink:href="#DejaVuSans-37" transform="translate(1619.384766 0)"/>
     <use xlink:href="#DejaVuSans-38" transform="translate(1683.007812 0)"/>
     <use xlink:href="#DejaVuSans-30" transform="translate(1746.630859 0)"/>
     <use xlink:href="#DejaVuSans-32" transform="translate(1810.253906 0)"/>
     <use xlink:href="#DejaVuSans-37" transform="translate(1873.876953 0)"/>
     <use xlink:href="#DejaVuSans-30" transform="translate(1937.5 0)"/>
     <use xlink:href="#DejaVuSans-36" transform="translate(2001.123047 0)"/>
    </g>
   </g>
   <g id="legend_1">
    <g id="patch_7">
     <path d="M 209.8825 78.82825 
L 407.72 78.82825 
Q 409.72 78.82825 409.72 76.82825 
L 409.72 48.472 
Q 409.72 46.472 407.72 46.472 
L 209.8825 46.472 
Q 207.8825 46.472 207.8825 48.472 
L 207.8825 76.82825 
Q 207.8825 78.82825 209.8825 78.82825 
z
" style="fill: #ffffff; opacity: 0.8; stroke: #cccccc; stroke-linejoin: miter"/>
    </g>
    <g id="line2d_27">
     <path d="M 211.8825 54.570437 
L 221.8825 54.570437 
L 231.8825 54.570437 
" style="fill: none; stroke: #ff0000; stroke-linecap: square"/>
    </g>
    <g id="text_18">
     <!-- IfcClothoid Parent Curve -->
     <g transform="translate(239.8825 58.070437) scale(0.1 -0.1)">
      <defs>
       <path id="DejaVuSans-49" d="M 628 4666 
L 1259 4666 
L 1259 0 
L 628 0 
L 628 4666 
z
" transform="scale(0.015625)"/>
       <path id="DejaVuSans-66" d="M 2375 4863 
L 2375 4384 
L 1825 4384 
Q 1516 4384 1395 4259 
Q 1275 4134 1275 3809 
L 1275 3500 
L 2222 3500 
L 2222 3053 
L 1275 3053 
L 1275 0 
L 697 0 
L 697 3053 
L 147 3053 
L 147 3500 
L 697 3500 
L 697 3744 
Q 697 4328 969 4595 
Q 1241 4863 1831 4863 
L 2375 4863 
z
" transform="scale(0.015625)"/>
       <path id="DejaVuSans-63" d="M 3122 3366 
L 3122 2828 
Q 2878 2963 2633 3030 
Q 2388 3097 2138 3097 
Q 1578 3097 1268 2742 
Q 959 2388 959 1747 
Q 959 1106 1268 751 
Q 1578 397 2138 397 
Q 2388 397 2633 464 
Q 2878 531 3122 666 
L 3122 134 
Q 2881 22 2623 -34 
Q 2366 -91 2075 -91 
Q 1284 -91 818 406 
Q 353 903 353 1747 
Q 353 2603 823 3093 
Q 1294 3584 2113 3584 
Q 2378 3584 2631 3529 
Q 2884 3475 3122 3366 
z
" transform="scale(0.015625)"/>
       <path id="DejaVuSans-50" d="M 1259 4147 
L 1259 2394 
L 2053 2394 
Q 2494 2394 2734 2622 
Q 2975 2850 2975 3272 
Q 2975 3691 2734 3919 
Q 2494 4147 2053 4147 
L 1259 4147 
z
M 628 4666 
L 2053 4666 
Q 2838 4666 3239 4311 
Q 3641 3956 3641 3272 
Q 3641 2581 3239 2228 
Q 2838 1875 2053 1875 
L 1259 1875 
L 1259 0 
L 628 0 
L 628 4666 
z
" transform="scale(0.015625)"/>
       <path id="DejaVuSans-75" d="M 544 1381 
L 544 3500 
L 1119 3500 
L 1119 1403 
Q 1119 906 1312 657 
Q 1506 409 1894 409 
Q 2359 409 2629 706 
Q 2900 1003 2900 1516 
L 2900 3500 
L 3475 3500 
L 3475 0 
L 2900 0 
L 2900 538 
Q 2691 219 2414 64 
Q 2138 -91 1772 -91 
Q 1169 -91 856 284 
Q 544 659 544 1381 
z
M 1991 3584 
L 1991 3584 
z
" transform="scale(0.015625)"/>
       <path id="DejaVuSans-76" d="M 191 3500 
L 800 3500 
L 1894 563 
L 2988 3500 
L 3597 3500 
L 2284 0 
L 1503 0 
L 191 3500 
z
" transform="scale(0.015625)"/>
      </defs>
      <use xlink:href="#DejaVuSans-49"/>
      <use xlink:href="#DejaVuSans-66" transform="translate(29.492188 0)"/>
      <use xlink:href="#DejaVuSans-63" transform="translate(64.697266 0)"/>
      <use xlink:href="#DejaVuSans-43" transform="translate(119.677734 0)"/>
      <use xlink:href="#DejaVuSans-6c" transform="translate(189.501953 0)"/>
      <use xlink:href="#DejaVuSans-6f" transform="translate(217.285156 0)"/>
      <use xlink:href="#DejaVuSans-74" transform="translate(278.466797 0)"/>
      <use xlink:href="#DejaVuSans-68" transform="translate(317.675781 0)"/>
      <use xlink:href="#DejaVuSans-6f" transform="translate(381.054688 0)"/>
      <use xlink:href="#DejaVuSans-69" transform="translate(442.236328 0)"/>
      <use xlink:href="#DejaVuSans-64" transform="translate(470.019531 0)"/>
      <use xlink:href="#DejaVuSans-20" transform="translate(533.496094 0)"/>
      <use xlink:href="#DejaVuSans-50" transform="translate(565.283203 0)"/>
      <use xlink:href="#DejaVuSans-61" transform="translate(621.085938 0)"/>
      <use xlink:href="#DejaVuSans-72" transform="translate(682.365234 0)"/>
      <use xlink:href="#DejaVuSans-65" transform="translate(721.228516 0)"/>
      <use xlink:href="#DejaVuSans-6e" transform="translate(782.751953 0)"/>
      <use xlink:href="#DejaVuSans-74" transform="translate(846.130859 0)"/>
      <use xlink:href="#DejaVuSans-20" transform="translate(885.339844 0)"/>
      <use xlink:href="#DejaVuSans-43" transform="translate(917.126953 0)"/>
      <use xlink:href="#DejaVuSans-75" transform="translate(986.951172 0)"/>
      <use xlink:href="#DejaVuSans-72" transform="translate(1050.330078 0)"/>
      <use xlink:href="#DejaVuSans-76" transform="translate(1091.443359 0)"/>
      <use xlink:href="#DejaVuSans-65" transform="translate(1150.623047 0)"/>
     </g>
    </g>
    <g id="line2d_28">
     <path d="M 211.8825 69.248562 
L 221.8825 69.248562 
L 231.8825 69.248562 
" style="fill: none; stroke: #0000ff; stroke-width: 3; stroke-linecap: square"/>
    </g>
    <g id="text_19">
     <!-- IfcCurveSegment Trimmed Curve -->
     <g transform="translate(239.8825 72.748562) scale(0.1 -0.1)">
      <defs>
       <path id="DejaVuSans-6d" d="M 3328 2828 
Q 3544 3216 3844 3400 
Q 4144 3584 4550 3584 
Q 5097 3584 5394 3201 
Q 5691 2819 5691 2113 
L 5691 0 
L 5113 0 
L 5113 2094 
Q 5113 2597 4934 2840 
Q 4756 3084 4391 3084 
Q 3944 3084 3684 2787 
Q 3425 2491 3425 1978 
L 3425 0 
L 2847 0 
L 2847 2094 
Q 2847 2600 2669 2842 
Q 2491 3084 2119 3084 
Q 1678 3084 1418 2786 
Q 1159 2488 1159 1978 
L 1159 0 
L 581 0 
L 581 3500 
L 1159 3500 
L 1159 2956 
Q 1356 3278 1631 3431 
Q 1906 3584 2284 3584 
Q 2666 3584 2933 3390 
Q 3200 3197 3328 2828 
z
" transform="scale(0.015625)"/>
       <path id="DejaVuSans-54" d="M -19 4666 
L 3928 4666 
L 3928 4134 
L 2272 4134 
L 2272 0 
L 1638 0 
L 1638 4134 
L -19 4134 
L -19 4666 
z
" transform="scale(0.015625)"/>
      </defs>
      <use xlink:href="#DejaVuSans-49"/>
      <use xlink:href="#DejaVuSans-66" transform="translate(29.492188 0)"/>
      <use xlink:href="#DejaVuSans-63" transform="translate(64.697266 0)"/>
      <use xlink:href="#DejaVuSans-43" transform="translate(119.677734 0)"/>
      <use xlink:href="#DejaVuSans-75" transform="translate(189.501953 0)"/>
      <use xlink:href="#DejaVuSans-72" transform="translate(252.880859 0)"/>
      <use xlink:href="#DejaVuSans-76" transform="translate(293.994141 0)"/>
      <use xlink:href="#DejaVuSans-65" transform="translate(353.173828 0)"/>
      <use xlink:href="#DejaVuSans-53" transform="translate(414.697266 0)"/>
      <use xlink:href="#DejaVuSans-65" transform="translate(478.173828 0)"/>
      <use xlink:href="#DejaVuSans-67" transform="translate(539.697266 0)"/>
      <use xlink:href="#DejaVuSans-6d" transform="translate(603.173828 0)"/>
      <use xlink:href="#DejaVuSans-65" transform="translate(700.585938 0)"/>
      <use xlink:href="#DejaVuSans-6e" transform="translate(762.109375 0)"/>
      <use xlink:href="#DejaVuSans-74" transform="translate(825.488281 0)"/>
      <use xlink:href="#DejaVuSans-20" transform="translate(864.697266 0)"/>
      <use xlink:href="#DejaVuSans-54" transform="translate(896.484375 0)"/>
      <use xlink:href="#DejaVuSans-72" transform="translate(942.818359 0)"/>
      <use xlink:href="#DejaVuSans-69" transform="translate(983.931641 0)"/>
      <use xlink:href="#DejaVuSans-6d" transform="translate(1011.714844 0)"/>
      <use xlink:href="#DejaVuSans-6d" transform="translate(1109.126953 0)"/>
      <use xlink:href="#DejaVuSans-65" transform="translate(1206.539062 0)"/>
      <use xlink:href="#DejaVuSans-64" transform="translate(1268.0625 0)"/>
      <use xlink:href="#DejaVuSans-20" transform="translate(1331.539062 0)"/>
      <use xlink:href="#DejaVuSans-43" transform="translate(1363.326172 0)"/>
      <use xlink:href="#DejaVuSans-75" transform="translate(1433.150391 0)"/>
      <use xlink:href="#DejaVuSans-72" transform="translate(1496.529297 0)"/>
      <use xlink:href="#DejaVuSans-76" transform="translate(1537.642578 0)"/>
      <use xlink:href="#DejaVuSans-65" transform="translate(1596.822266 0)"/>
     </g>
    </g>
   </g>
  </g>
 </g>
 <defs>
  <clipPath id="p15e2fd8aae">
   <rect x="57.6" y="41.472" width="357.12" height="266.112"/>
  </clipPath>
 </defs>
</svg>
