<?xml version="1.0" encoding="utf-8" standalone="no"?>
<!DOCTYPE svg PUBLIC "-//W3C//DTD SVG 1.1//EN"
  "http://www.w3.org/Graphics/SVG/1.1/DTD/svg11.dtd">
<svg xmlns:xlink="http://www.w3.org/1999/xlink" width="568.8pt" height="1000.8pt" viewBox="0 0 568.8 1000.8" xmlns="http://www.w3.org/2000/svg" version="1.1">
 <metadata>
  <rdf:RDF xmlns:dc="http://purl.org/dc/elements/1.1/" xmlns:cc="http://creativecommons.org/ns#" xmlns:rdf="http://www.w3.org/1999/02/22-rdf-syntax-ns#">
   <cc:Work>
    <dc:type rdf:resource="http://purl.org/dc/dcmitype/StillImage"/>
    <dc:date>2026-06-05T14:47:13.666164</dc:date>
    <dc:format>image/svg+xml</dc:format>
    <dc:creator>
     <cc:Agent>
      <dc:title>Matplotlib v3.10.9, https://matplotlib.org/</dc:title>
     </cc:Agent>
    </dc:creator>
   </cc:Work>
  </rdf:RDF>
 </metadata>
 <defs>
  <style type="text/css">*{stroke-linejoin: round; stroke-linecap: butt}</style>
 </defs>
 <g id="figure_1">
  <g id="patch_1">
   <path d="M 0 1000.8 
L 568.8 1000.8 
L 568.8 0 
L 0 0 
z
" style="fill: #ffffff"/>
  </g>
  <g id="axes_1">
   <g id="patch_2">
    <path d="M 55.345313 298.44375 
L 528.196875 298.44375 
L 528.196875 28.237 
L 55.345313 28.237 
z
" style="fill: #ffffff"/>
   </g>
   <g id="matplotlib.axis_1">
    <g id="xtick_1">
     <g id="line2d_1">
      <path d="M 76.838565 298.44375 
L 76.838565 28.237 
" clip-path="url(#p96b561581f)" style="fill: none; stroke-dasharray: 2.96,1.28; stroke-dashoffset: 0; stroke: #b0b0b0; stroke-opacity: 0.5; stroke-width: 0.8"/>
     </g>
     <g id="line2d_2">
      <defs>
       <path id="m318bdae5f8" d="M 0 0 
L 0 3.5 
" style="stroke: #000000; stroke-width: 0.8"/>
      </defs>
      <g>
       <use xlink:href="#m318bdae5f8" x="76.838565" y="298.44375" style="stroke: #000000; stroke-width: 0.8"/>
      </g>
     </g>
     <g id="text_1">
      <!-- 0 -->
      <g transform="translate(73.657315 313.042187) scale(0.1 -0.1)">
       <defs>
        <path id="DejaVuSans-30" d="M 2034 4250 
Q 1547 4250 1301 3770 
Q 1056 3291 1056 2328 
Q 1056 1369 1301 889 
Q 1547 409 2034 409 
Q 2525 409 2770 889 
Q 3016 1369 3016 2328 
Q 3016 3291 2770 3770 
Q 2525 4250 2034 4250 
z
M 2034 4750 
Q 2819 4750 3233 4129 
Q 3647 3509 3647 2328 
Q 3647 1150 3233 529 
Q 2819 -91 2034 -91 
Q 1250 -91 836 529 
Q 422 1150 422 2328 
Q 422 3509 836 4129 
Q 1250 4750 2034 4750 
z
" transform="scale(0.015625)"/>
       </defs>
       <use xlink:href="#DejaVuSans-30"/>
      </g>
     </g>
    </g>
    <g id="xtick_2">
     <g id="line2d_3">
      <path d="M 142.718616 298.44375 
L 142.718616 28.237 
" clip-path="url(#p96b561581f)" style="fill: none; stroke-dasharray: 2.96,1.28; stroke-dashoffset: 0; stroke: #b0b0b0; stroke-opacity: 0.5; stroke-width: 0.8"/>
     </g>
     <g id="line2d_4">
      <g>
       <use xlink:href="#m318bdae5f8" x="142.718616" y="298.44375" style="stroke: #000000; stroke-width: 0.8"/>
      </g>
     </g>
     <g id="text_2">
      <!-- 50 -->
      <g transform="translate(136.356116 313.042187) scale(0.1 -0.1)">
       <defs>
        <path id="DejaVuSans-35" d="M 691 4666 
L 3169 4666 
L 3169 4134 
L 1269 4134 
L 1269 2991 
Q 1406 3038 1543 3061 
Q 1681 3084 1819 3084 
Q 2600 3084 3056 2656 
Q 3513 2228 3513 1497 
Q 3513 744 3044 326 
Q 2575 -91 1722 -91 
Q 1428 -91 1123 -41 
Q 819 9 494 109 
L 494 744 
Q 775 591 1075 516 
Q 1375 441 1709 441 
Q 2250 441 2565 725 
Q 2881 1009 2881 1497 
Q 2881 1984 2565 2268 
Q 2250 2553 1709 2553 
Q 1456 2553 1204 2497 
Q 953 2441 691 2322 
L 691 4666 
z
" transform="scale(0.015625)"/>
       </defs>
       <use xlink:href="#DejaVuSans-35"/>
       <use xlink:href="#DejaVuSans-30" transform="translate(63.623047 0)"/>
      </g>
     </g>
    </g>
    <g id="xtick_3">
     <g id="line2d_5">
      <path d="M 208.598666 298.44375 
L 208.598666 28.237 
" clip-path="url(#p96b561581f)" style="fill: none; stroke-dasharray: 2.96,1.28; stroke-dashoffset: 0; stroke: #b0b0b0; stroke-opacity: 0.5; stroke-width: 0.8"/>
     </g>
     <g id="line2d_6">
      <g>
       <use xlink:href="#m318bdae5f8" x="208.598666" y="298.44375" style="stroke: #000000; stroke-width: 0.8"/>
      </g>
     </g>
     <g id="text_3">
      <!-- 100 -->
      <g transform="translate(199.054916 313.042187) scale(0.1 -0.1)">
       <defs>
        <path id="DejaVuSans-31" d="M 794 531 
L 1825 531 
L 1825 4091 
L 703 3866 
L 703 4441 
L 1819 4666 
L 2450 4666 
L 2450 531 
L 3481 531 
L 3481 0 
L 794 0 
L 794 531 
z
" transform="scale(0.015625)"/>
       </defs>
       <use xlink:href="#DejaVuSans-31"/>
       <use xlink:href="#DejaVuSans-30" transform="translate(63.623047 0)"/>
       <use xlink:href="#DejaVuSans-30" transform="translate(127.246094 0)"/>
      </g>
     </g>
    </g>
    <g id="xtick_4">
     <g id="line2d_7">
      <path d="M 274.478716 298.44375 
L 274.478716 28.237 
" clip-path="url(#p96b561581f)" style="fill: none; stroke-dasharray: 2.96,1.28; stroke-dashoffset: 0; stroke: #b0b0b0; stroke-opacity: 0.5; stroke-width: 0.8"/>
     </g>
     <g id="line2d_8">
      <g>
       <use xlink:href="#m318bdae5f8" x="274.478716" y="298.44375" style="stroke: #000000; stroke-width: 0.8"/>
      </g>
     </g>
     <g id="text_4">
      <!-- 150 -->
      <g transform="translate(264.934966 313.042187) scale(0.1 -0.1)">
       <use xlink:href="#DejaVuSans-31"/>
       <use xlink:href="#DejaVuSans-35" transform="translate(63.623047 0)"/>
       <use xlink:href="#DejaVuSans-30" transform="translate(127.246094 0)"/>
      </g>
     </g>
    </g>
    <g id="xtick_5">
     <g id="line2d_9">
      <path d="M 340.358767 298.44375 
L 340.358767 28.237 
" clip-path="url(#p96b561581f)" style="fill: none; stroke-dasharray: 2.96,1.28; stroke-dashoffset: 0; stroke: #b0b0b0; stroke-opacity: 0.5; stroke-width: 0.8"/>
     </g>
     <g id="line2d_10">
      <g>
       <use xlink:href="#m318bdae5f8" x="340.358767" y="298.44375" style="stroke: #000000; stroke-width: 0.8"/>
      </g>
     </g>
     <g id="text_5">
      <!-- 200 -->
      <g transform="translate(330.815017 313.042187) scale(0.1 -0.1)">
       <defs>
        <path id="DejaVuSans-32" d="M 1228 531 
L 3431 531 
L 3431 0 
L 469 0 
L 469 531 
Q 828 903 1448 1529 
Q 2069 2156 2228 2338 
Q 2531 2678 2651 2914 
Q 2772 3150 2772 3378 
Q 2772 3750 2511 3984 
Q 2250 4219 1831 4219 
Q 1534 4219 1204 4116 
Q 875 4013 500 3803 
L 500 4441 
Q 881 4594 1212 4672 
Q 1544 4750 1819 4750 
Q 2544 4750 2975 4387 
Q 3406 4025 3406 3419 
Q 3406 3131 3298 2873 
Q 3191 2616 2906 2266 
Q 2828 2175 2409 1742 
Q 1991 1309 1228 531 
z
" transform="scale(0.015625)"/>
       </defs>
       <use xlink:href="#DejaVuSans-32"/>
       <use xlink:href="#DejaVuSans-30" transform="translate(63.623047 0)"/>
       <use xlink:href="#DejaVuSans-30" transform="translate(127.246094 0)"/>
      </g>
     </g>
    </g>
    <g id="xtick_6">
     <g id="line2d_11">
      <path d="M 406.238817 298.44375 
L 406.238817 28.237 
" clip-path="url(#p96b561581f)" style="fill: none; stroke-dasharray: 2.96,1.28; stroke-dashoffset: 0; stroke: #b0b0b0; stroke-opacity: 0.5; stroke-width: 0.8"/>
     </g>
     <g id="line2d_12">
      <g>
       <use xlink:href="#m318bdae5f8" x="406.238817" y="298.44375" style="stroke: #000000; stroke-width: 0.8"/>
      </g>
     </g>
     <g id="text_6">
      <!-- 250 -->
      <g transform="translate(396.695067 313.042187) scale(0.1 -0.1)">
       <use xlink:href="#DejaVuSans-32"/>
       <use xlink:href="#DejaVuSans-35" transform="translate(63.623047 0)"/>
       <use xlink:href="#DejaVuSans-30" transform="translate(127.246094 0)"/>
      </g>
     </g>
    </g>
    <g id="xtick_7">
     <g id="line2d_13">
      <path d="M 472.118867 298.44375 
L 472.118867 28.237 
" clip-path="url(#p96b561581f)" style="fill: none; stroke-dasharray: 2.96,1.28; stroke-dashoffset: 0; stroke: #b0b0b0; stroke-opacity: 0.5; stroke-width: 0.8"/>
     </g>
     <g id="line2d_14">
      <g>
       <use xlink:href="#m318bdae5f8" x="472.118867" y="298.44375" style="stroke: #000000; stroke-width: 0.8"/>
      </g>
     </g>
     <g id="text_7">
      <!-- 300 -->
      <g transform="translate(462.575117 313.042187) scale(0.1 -0.1)">
       <defs>
        <path id="DejaVuSans-33" d="M 2597 2516 
Q 3050 2419 3304 2112 
Q 3559 1806 3559 1356 
Q 3559 666 3084 287 
Q 2609 -91 1734 -91 
Q 1441 -91 1130 -33 
Q 819 25 488 141 
L 488 750 
Q 750 597 1062 519 
Q 1375 441 1716 441 
Q 2309 441 2620 675 
Q 2931 909 2931 1356 
Q 2931 1769 2642 2001 
Q 2353 2234 1838 2234 
L 1294 2234 
L 1294 2753 
L 1863 2753 
Q 2328 2753 2575 2939 
Q 2822 3125 2822 3475 
Q 2822 3834 2567 4026 
Q 2313 4219 1838 4219 
Q 1578 4219 1281 4162 
Q 984 4106 628 3988 
L 628 4550 
Q 988 4650 1302 4700 
Q 1616 4750 1894 4750 
Q 2613 4750 3031 4423 
Q 3450 4097 3450 3541 
Q 3450 3153 3228 2886 
Q 3006 2619 2597 2516 
z
" transform="scale(0.015625)"/>
       </defs>
       <use xlink:href="#DejaVuSans-33"/>
       <use xlink:href="#DejaVuSans-30" transform="translate(63.623047 0)"/>
       <use xlink:href="#DejaVuSans-30" transform="translate(127.246094 0)"/>
      </g>
     </g>
    </g>
    <g id="text_8">
     <!-- X (ft) -->
     <g transform="translate(279.222656 326.720312) scale(0.1 -0.1)">
      <defs>
       <path id="DejaVuSans-58" d="M 403 4666 
L 1081 4666 
L 2241 2931 
L 3406 4666 
L 4084 4666 
L 2584 2425 
L 4184 0 
L 3506 0 
L 2194 1984 
L 872 0 
L 191 0 
L 1856 2491 
L 403 4666 
z
" transform="scale(0.015625)"/>
       <path id="DejaVuSans-20" transform="scale(0.015625)"/>
       <path id="DejaVuSans-28" d="M 1984 4856 
Q 1566 4138 1362 3434 
Q 1159 2731 1159 2009 
Q 1159 1288 1364 580 
Q 1569 -128 1984 -844 
L 1484 -844 
Q 1016 -109 783 600 
Q 550 1309 550 2009 
Q 550 2706 781 3412 
Q 1013 4119 1484 4856 
L 1984 4856 
z
" transform="scale(0.015625)"/>
       <path id="DejaVuSans-66" d="M 2375 4863 
L 2375 4384 
L 1825 4384 
Q 1516 4384 1395 4259 
Q 1275 4134 1275 3809 
L 1275 3500 
L 2222 3500 
L 2222 3053 
L 1275 3053 
L 1275 0 
L 697 0 
L 697 3053 
L 147 3053 
L 147 3500 
L 697 3500 
L 697 3744 
Q 697 4328 969 4595 
Q 1241 4863 1831 4863 
L 2375 4863 
z
" transform="scale(0.015625)"/>
       <path id="DejaVuSans-74" d="M 1172 4494 
L 1172 3500 
L 2356 3500 
L 2356 3053 
L 1172 3053 
L 1172 1153 
Q 1172 725 1289 603 
Q 1406 481 1766 481 
L 2356 481 
L 2356 0 
L 1766 0 
Q 1100 0 847 248 
Q 594 497 594 1153 
L 594 3053 
L 172 3053 
L 172 3500 
L 594 3500 
L 594 4494 
L 1172 4494 
z
" transform="scale(0.015625)"/>
       <path id="DejaVuSans-29" d="M 513 4856 
L 1013 4856 
Q 1481 4119 1714 3412 
Q 1947 2706 1947 2009 
Q 1947 1309 1714 600 
Q 1481 -109 1013 -844 
L 513 -844 
Q 928 -128 1133 580 
Q 1338 1288 1338 2009 
Q 1338 2731 1133 3434 
Q 928 4138 513 4856 
z
" transform="scale(0.015625)"/>
      </defs>
      <use xlink:href="#DejaVuSans-58"/>
      <use xlink:href="#DejaVuSans-20" transform="translate(68.505859 0)"/>
      <use xlink:href="#DejaVuSans-28" transform="translate(100.292969 0)"/>
      <use xlink:href="#DejaVuSans-66" transform="translate(139.306641 0)"/>
      <use xlink:href="#DejaVuSans-74" transform="translate(172.761719 0)"/>
      <use xlink:href="#DejaVuSans-29" transform="translate(211.970703 0)"/>
     </g>
    </g>
   </g>
   <g id="matplotlib.axis_2">
    <g id="ytick_1">
     <g id="line2d_15">
      <path d="M 55.345313 276.858175 
L 528.196875 276.858175 
" clip-path="url(#p96b561581f)" style="fill: none; stroke-dasharray: 2.96,1.28; stroke-dashoffset: 0; stroke: #b0b0b0; stroke-opacity: 0.5; stroke-width: 0.8"/>
     </g>
     <g id="line2d_16">
      <defs>
       <path id="mdbae1ffddb" d="M 0 0 
L -3.5 0 
" style="stroke: #000000; stroke-width: 0.8"/>
      </defs>
      <g>
       <use xlink:href="#mdbae1ffddb" x="55.345313" y="276.858175" style="stroke: #000000; stroke-width: 0.8"/>
      </g>
     </g>
     <g id="text_9">
      <!-- −100 -->
      <g transform="translate(20.878125 280.657394) scale(0.1 -0.1)">
       <defs>
        <path id="DejaVuSans-2212" d="M 678 2272 
L 4684 2272 
L 4684 1741 
L 678 1741 
L 678 2272 
z
" transform="scale(0.015625)"/>
       </defs>
       <use xlink:href="#DejaVuSans-2212"/>
       <use xlink:href="#DejaVuSans-31" transform="translate(83.789062 0)"/>
       <use xlink:href="#DejaVuSans-30" transform="translate(147.412109 0)"/>
       <use xlink:href="#DejaVuSans-30" transform="translate(211.035156 0)"/>
      </g>
     </g>
    </g>
    <g id="ytick_2">
     <g id="line2d_17">
      <path d="M 55.345313 243.91815 
L 528.196875 243.91815 
" clip-path="url(#p96b561581f)" style="fill: none; stroke-dasharray: 2.96,1.28; stroke-dashoffset: 0; stroke: #b0b0b0; stroke-opacity: 0.5; stroke-width: 0.8"/>
     </g>
     <g id="line2d_18">
      <g>
       <use xlink:href="#mdbae1ffddb" x="55.345313" y="243.91815" style="stroke: #000000; stroke-width: 0.8"/>
      </g>
     </g>
     <g id="text_10">
      <!-- −75 -->
      <g transform="translate(27.240625 247.717369) scale(0.1 -0.1)">
       <defs>
        <path id="DejaVuSans-37" d="M 525 4666 
L 3525 4666 
L 3525 4397 
L 1831 0 
L 1172 0 
L 2766 4134 
L 525 4134 
L 525 4666 
z
" transform="scale(0.015625)"/>
       </defs>
       <use xlink:href="#DejaVuSans-2212"/>
       <use xlink:href="#DejaVuSans-37" transform="translate(83.789062 0)"/>
       <use xlink:href="#DejaVuSans-35" transform="translate(147.412109 0)"/>
      </g>
     </g>
    </g>
    <g id="ytick_3">
     <g id="line2d_19">
      <path d="M 55.345313 210.978125 
L 528.196875 210.978125 
" clip-path="url(#p96b561581f)" style="fill: none; stroke-dasharray: 2.96,1.28; stroke-dashoffset: 0; stroke: #b0b0b0; stroke-opacity: 0.5; stroke-width: 0.8"/>
     </g>
     <g id="line2d_20">
      <g>
       <use xlink:href="#mdbae1ffddb" x="55.345313" y="210.978125" style="stroke: #000000; stroke-width: 0.8"/>
      </g>
     </g>
     <g id="text_11">
      <!-- −50 -->
      <g transform="translate(27.240625 214.777344) scale(0.1 -0.1)">
       <use xlink:href="#DejaVuSans-2212"/>
       <use xlink:href="#DejaVuSans-35" transform="translate(83.789062 0)"/>
       <use xlink:href="#DejaVuSans-30" transform="translate(147.412109 0)"/>
      </g>
     </g>
    </g>
    <g id="ytick_4">
     <g id="line2d_21">
      <path d="M 55.345313 178.0381 
L 528.196875 178.0381 
" clip-path="url(#p96b561581f)" style="fill: none; stroke-dasharray: 2.96,1.28; stroke-dashoffset: 0; stroke: #b0b0b0; stroke-opacity: 0.5; stroke-width: 0.8"/>
     </g>
     <g id="line2d_22">
      <g>
       <use xlink:href="#mdbae1ffddb" x="55.345313" y="178.0381" style="stroke: #000000; stroke-width: 0.8"/>
      </g>
     </g>
     <g id="text_12">
      <!-- −25 -->
      <g transform="translate(27.240625 181.837318) scale(0.1 -0.1)">
       <use xlink:href="#DejaVuSans-2212"/>
       <use xlink:href="#DejaVuSans-32" transform="translate(83.789062 0)"/>
       <use xlink:href="#DejaVuSans-35" transform="translate(147.412109 0)"/>
      </g>
     </g>
    </g>
    <g id="ytick_5">
     <g id="line2d_23">
      <path d="M 55.345313 145.098074 
L 528.196875 145.098074 
" clip-path="url(#p96b561581f)" style="fill: none; stroke-dasharray: 2.96,1.28; stroke-dashoffset: 0; stroke: #b0b0b0; stroke-opacity: 0.5; stroke-width: 0.8"/>
     </g>
     <g id="line2d_24">
      <g>
       <use xlink:href="#mdbae1ffddb" x="55.345313" y="145.098074" style="stroke: #000000; stroke-width: 0.8"/>
      </g>
     </g>
     <g id="text_13">
      <!-- 0 -->
      <g transform="translate(41.982813 148.897293) scale(0.1 -0.1)">
       <use xlink:href="#DejaVuSans-30"/>
      </g>
     </g>
    </g>
    <g id="ytick_6">
     <g id="line2d_25">
      <path d="M 55.345313 112.158049 
L 528.196875 112.158049 
" clip-path="url(#p96b561581f)" style="fill: none; stroke-dasharray: 2.96,1.28; stroke-dashoffset: 0; stroke: #b0b0b0; stroke-opacity: 0.5; stroke-width: 0.8"/>
     </g>
     <g id="line2d_26">
      <g>
       <use xlink:href="#mdbae1ffddb" x="55.345313" y="112.158049" style="stroke: #000000; stroke-width: 0.8"/>
      </g>
     </g>
     <g id="text_14">
      <!-- 25 -->
      <g transform="translate(35.620313 115.957268) scale(0.1 -0.1)">
       <use xlink:href="#DejaVuSans-32"/>
       <use xlink:href="#DejaVuSans-35" transform="translate(63.623047 0)"/>
      </g>
     </g>
    </g>
    <g id="ytick_7">
     <g id="line2d_27">
      <path d="M 55.345313 79.218024 
L 528.196875 79.218024 
" clip-path="url(#p96b561581f)" style="fill: none; stroke-dasharray: 2.96,1.28; stroke-dashoffset: 0; stroke: #b0b0b0; stroke-opacity: 0.5; stroke-width: 0.8"/>
     </g>
     <g id="line2d_28">
      <g>
       <use xlink:href="#mdbae1ffddb" x="55.345313" y="79.218024" style="stroke: #000000; stroke-width: 0.8"/>
      </g>
     </g>
     <g id="text_15">
      <!-- 50 -->
      <g transform="translate(35.620313 83.017243) scale(0.1 -0.1)">
       <use xlink:href="#DejaVuSans-35"/>
       <use xlink:href="#DejaVuSans-30" transform="translate(63.623047 0)"/>
      </g>
     </g>
    </g>
    <g id="ytick_8">
     <g id="line2d_29">
      <path d="M 55.345313 46.277999 
L 528.196875 46.277999 
" clip-path="url(#p96b561581f)" style="fill: none; stroke-dasharray: 2.96,1.28; stroke-dashoffset: 0; stroke: #b0b0b0; stroke-opacity: 0.5; stroke-width: 0.8"/>
     </g>
     <g id="line2d_30">
      <g>
       <use xlink:href="#mdbae1ffddb" x="55.345313" y="46.277999" style="stroke: #000000; stroke-width: 0.8"/>
      </g>
     </g>
     <g id="text_16">
      <!-- 75 -->
      <g transform="translate(35.620313 50.077218) scale(0.1 -0.1)">
       <use xlink:href="#DejaVuSans-37"/>
       <use xlink:href="#DejaVuSans-35" transform="translate(63.623047 0)"/>
      </g>
     </g>
    </g>
    <g id="text_17">
     <!-- Y (ft) -->
     <g transform="translate(14.798438 175.517719) rotate(-90) scale(0.1 -0.1)">
      <defs>
       <path id="DejaVuSans-59" d="M -13 4666 
L 666 4666 
L 1959 2747 
L 3244 4666 
L 3922 4666 
L 2272 2222 
L 2272 0 
L 1638 0 
L 1638 2222 
L -13 4666 
z
" transform="scale(0.015625)"/>
      </defs>
      <use xlink:href="#DejaVuSans-59"/>
      <use xlink:href="#DejaVuSans-20" transform="translate(61.083984 0)"/>
      <use xlink:href="#DejaVuSans-28" transform="translate(92.871094 0)"/>
      <use xlink:href="#DejaVuSans-66" transform="translate(131.884766 0)"/>
      <use xlink:href="#DejaVuSans-74" transform="translate(165.339844 0)"/>
      <use xlink:href="#DejaVuSans-29" transform="translate(204.548828 0)"/>
     </g>
    </g>
   </g>
   <g id="line2d_31">
    <path d="M 76.838565 145.098074 
L 81.161402 145.100237 
L 85.484235 145.106723 
L 89.80706 145.117545 
L 94.12987 145.13271 
L 98.452665 145.15224 
L 102.775436 145.176154 
L 107.09818 145.204481 
L 111.420895 145.237253 
L 115.743572 145.274505 
L 120.066207 145.316281 
L 124.388797 145.362628 
L 128.711334 145.413595 
L 133.033813 145.46924 
L 137.35623 145.529622 
L 141.678577 145.594806 
L 146.000845 145.664863 
L 150.323033 145.739866 
L 154.64513 145.819894 
L 158.967129 145.905029 
L 163.289022 145.995358 
L 167.610802 146.090974 
L 171.93246 146.191968 
L 176.253987 146.298442 
L 180.575372 146.410497 
L 184.896605 146.528241 
L 189.217677 146.651782 
L 193.538576 146.781235 
L 197.85929 146.916716 
L 202.179808 147.058346 
L 206.500114 147.206247 
L 210.820197 147.360547 
L 215.140041 147.521373 
L 219.459633 147.68886 
L 223.778957 147.863139 
L 228.097993 148.04435 
L 232.416729 148.232631 
L 236.735143 148.428124 
L 241.053218 148.630973 
L 245.370935 148.841322 
L 249.688272 149.059321 
L 254.00521 149.285117 
L 258.321722 149.51886 
L 262.637789 149.760703 
L 266.953386 150.0108 
L 271.268487 150.269301 
L 275.583068 150.536366 
L 279.897099 150.812146 
L 284.210553 151.096801 
L 288.523402 151.390484 
L 292.835617 151.693353 
L 297.147164 152.005563 
L 301.458015 152.327274 
L 305.768133 152.658639 
L 310.077484 152.999816 
L 314.386036 153.350958 
L 318.693751 153.71222 
L 323.000592 154.083758 
L 327.30652 154.465721 
L 331.611498 154.858261 
L 335.915484 155.261529 
L 340.218437 155.675673 
L 344.520315 156.100839 
L 348.821075 156.53717 
L 353.120672 156.984812 
L 357.41906 157.443904 
L 361.716196 157.914582 
L 366.012033 158.396986 
L 370.30652 158.891246 
L 374.59961 159.397494 
L 378.891256 159.915855 
L 383.181404 160.446455 
L 387.470007 160.989418 
L 391.75701 161.544858 
L 396.042364 162.112891 
L 400.326014 162.693629 
L 404.607906 163.287179 
L 408.887989 163.893645 
L 413.166208 164.513128 
L 417.442507 165.145722 
L 421.716833 165.79152 
L 425.989129 166.45061 
L 430.259341 167.123076 
L 434.52741 167.808996 
L 438.793284 168.508448 
L 443.056907 169.221498 
L 447.318221 169.948214 
L 451.57717 170.688657 
L 455.833701 171.442883 
L 460.087756 172.210945 
L 464.339283 172.992889 
L 468.588225 173.788759 
L 472.834528 174.598588 
L 477.078137 175.422413 
L 481.319 176.260258 
L 485.557067 177.112146 
L 489.792282 177.978096 
L 494.024594 178.858119 
L 498.253955 179.752223 
L 502.480313 180.660409 
L 506.703622 181.582676 
" clip-path="url(#p96b561581f)" style="fill: none; stroke: #1f77b4; stroke-width: 1.5; stroke-linecap: square"/>
   </g>
   <g id="patch_3">
    <path d="M 55.345313 298.44375 
L 55.345313 28.237 
" style="fill: none; stroke: #000000; stroke-width: 0.8; stroke-linejoin: miter; stroke-linecap: square"/>
   </g>
   <g id="patch_4">
    <path d="M 528.196875 298.44375 
L 528.196875 28.237 
" style="fill: none; stroke: #000000; stroke-width: 0.8; stroke-linejoin: miter; stroke-linecap: square"/>
   </g>
   <g id="patch_5">
    <path d="M 55.345313 298.44375 
L 528.196875 298.44375 
" style="fill: none; stroke: #000000; stroke-width: 0.8; stroke-linejoin: miter; stroke-linecap: square"/>
   </g>
   <g id="patch_6">
    <path d="M 55.345313 28.237 
L 528.196875 28.237 
" style="fill: none; stroke: #000000; stroke-width: 0.8; stroke-linejoin: miter; stroke-linecap: square"/>
   </g>
   <g id="text_18">
    <!-- Horizontal — CosineCurve -->
    <g transform="translate(239.571719 13.27875) scale(0.08 -0.08)">
     <defs>
      <path id="DejaVuSans-48" d="M 628 4666 
L 1259 4666 
L 1259 2753 
L 3553 2753 
L 3553 4666 
L 4184 4666 
L 4184 0 
L 3553 0 
L 3553 2222 
L 1259 2222 
L 1259 0 
L 628 0 
L 628 4666 
z
" transform="scale(0.015625)"/>
      <path id="DejaVuSans-6f" d="M 1959 3097 
Q 1497 3097 1228 2736 
Q 959 2375 959 1747 
Q 959 1119 1226 758 
Q 1494 397 1959 397 
Q 2419 397 2687 759 
Q 2956 1122 2956 1747 
Q 2956 2369 2687 2733 
Q 2419 3097 1959 3097 
z
M 1959 3584 
Q 2709 3584 3137 3096 
Q 3566 2609 3566 1747 
Q 3566 888 3137 398 
Q 2709 -91 1959 -91 
Q 1206 -91 779 398 
Q 353 888 353 1747 
Q 353 2609 779 3096 
Q 1206 3584 1959 3584 
z
" transform="scale(0.015625)"/>
      <path id="DejaVuSans-72" d="M 2631 2963 
Q 2534 3019 2420 3045 
Q 2306 3072 2169 3072 
Q 1681 3072 1420 2755 
Q 1159 2438 1159 1844 
L 1159 0 
L 581 0 
L 581 3500 
L 1159 3500 
L 1159 2956 
Q 1341 3275 1631 3429 
Q 1922 3584 2338 3584 
Q 2397 3584 2469 3576 
Q 2541 3569 2628 3553 
L 2631 2963 
z
" transform="scale(0.015625)"/>
      <path id="DejaVuSans-69" d="M 603 3500 
L 1178 3500 
L 1178 0 
L 603 0 
L 603 3500 
z
M 603 4863 
L 1178 4863 
L 1178 4134 
L 603 4134 
L 603 4863 
z
" transform="scale(0.015625)"/>
      <path id="DejaVuSans-7a" d="M 353 3500 
L 3084 3500 
L 3084 2975 
L 922 459 
L 3084 459 
L 3084 0 
L 275 0 
L 275 525 
L 2438 3041 
L 353 3041 
L 353 3500 
z
" transform="scale(0.015625)"/>
      <path id="DejaVuSans-6e" d="M 3513 2113 
L 3513 0 
L 2938 0 
L 2938 2094 
Q 2938 2591 2744 2837 
Q 2550 3084 2163 3084 
Q 1697 3084 1428 2787 
Q 1159 2491 1159 1978 
L 1159 0 
L 581 0 
L 581 3500 
L 1159 3500 
L 1159 2956 
Q 1366 3272 1645 3428 
Q 1925 3584 2291 3584 
Q 2894 3584 3203 3211 
Q 3513 2838 3513 2113 
z
" transform="scale(0.015625)"/>
      <path id="DejaVuSans-61" d="M 2194 1759 
Q 1497 1759 1228 1600 
Q 959 1441 959 1056 
Q 959 750 1161 570 
Q 1363 391 1709 391 
Q 2188 391 2477 730 
Q 2766 1069 2766 1631 
L 2766 1759 
L 2194 1759 
z
M 3341 1997 
L 3341 0 
L 2766 0 
L 2766 531 
Q 2569 213 2275 61 
Q 1981 -91 1556 -91 
Q 1019 -91 701 211 
Q 384 513 384 1019 
Q 384 1609 779 1909 
Q 1175 2209 1959 2209 
L 2766 2209 
L 2766 2266 
Q 2766 2663 2505 2880 
Q 2244 3097 1772 3097 
Q 1472 3097 1187 3025 
Q 903 2953 641 2809 
L 641 3341 
Q 956 3463 1253 3523 
Q 1550 3584 1831 3584 
Q 2591 3584 2966 3190 
Q 3341 2797 3341 1997 
z
" transform="scale(0.015625)"/>
      <path id="DejaVuSans-6c" d="M 603 4863 
L 1178 4863 
L 1178 0 
L 603 0 
L 603 4863 
z
" transform="scale(0.015625)"/>
      <path id="DejaVuSans-2014" d="M 313 1978 
L 6088 1978 
L 6088 1528 
L 313 1528 
L 313 1978 
z
" transform="scale(0.015625)"/>
      <path id="DejaVuSans-43" d="M 4122 4306 
L 4122 3641 
Q 3803 3938 3442 4084 
Q 3081 4231 2675 4231 
Q 1875 4231 1450 3742 
Q 1025 3253 1025 2328 
Q 1025 1406 1450 917 
Q 1875 428 2675 428 
Q 3081 428 3442 575 
Q 3803 722 4122 1019 
L 4122 359 
Q 3791 134 3420 21 
Q 3050 -91 2638 -91 
Q 1578 -91 968 557 
Q 359 1206 359 2328 
Q 359 3453 968 4101 
Q 1578 4750 2638 4750 
Q 3056 4750 3426 4639 
Q 3797 4528 4122 4306 
z
" transform="scale(0.015625)"/>
      <path id="DejaVuSans-73" d="M 2834 3397 
L 2834 2853 
Q 2591 2978 2328 3040 
Q 2066 3103 1784 3103 
Q 1356 3103 1142 2972 
Q 928 2841 928 2578 
Q 928 2378 1081 2264 
Q 1234 2150 1697 2047 
L 1894 2003 
Q 2506 1872 2764 1633 
Q 3022 1394 3022 966 
Q 3022 478 2636 193 
Q 2250 -91 1575 -91 
Q 1294 -91 989 -36 
Q 684 19 347 128 
L 347 722 
Q 666 556 975 473 
Q 1284 391 1588 391 
Q 1994 391 2212 530 
Q 2431 669 2431 922 
Q 2431 1156 2273 1281 
Q 2116 1406 1581 1522 
L 1381 1569 
Q 847 1681 609 1914 
Q 372 2147 372 2553 
Q 372 3047 722 3315 
Q 1072 3584 1716 3584 
Q 2034 3584 2315 3537 
Q 2597 3491 2834 3397 
z
" transform="scale(0.015625)"/>
      <path id="DejaVuSans-65" d="M 3597 1894 
L 3597 1613 
L 953 1613 
Q 991 1019 1311 708 
Q 1631 397 2203 397 
Q 2534 397 2845 478 
Q 3156 559 3463 722 
L 3463 178 
Q 3153 47 2828 -22 
Q 2503 -91 2169 -91 
Q 1331 -91 842 396 
Q 353 884 353 1716 
Q 353 2575 817 3079 
Q 1281 3584 2069 3584 
Q 2775 3584 3186 3129 
Q 3597 2675 3597 1894 
z
M 3022 2063 
Q 3016 2534 2758 2815 
Q 2500 3097 2075 3097 
Q 1594 3097 1305 2825 
Q 1016 2553 972 2059 
L 3022 2063 
z
" transform="scale(0.015625)"/>
      <path id="DejaVuSans-75" d="M 544 1381 
L 544 3500 
L 1119 3500 
L 1119 1403 
Q 1119 906 1312 657 
Q 1506 409 1894 409 
Q 2359 409 2629 706 
Q 2900 1003 2900 1516 
L 2900 3500 
L 3475 3500 
L 3475 0 
L 2900 0 
L 2900 538 
Q 2691 219 2414 64 
Q 2138 -91 1772 -91 
Q 1169 -91 856 284 
Q 544 659 544 1381 
z
M 1991 3584 
L 1991 3584 
z
" transform="scale(0.015625)"/>
      <path id="DejaVuSans-76" d="M 191 3500 
L 800 3500 
L 1894 563 
L 2988 3500 
L 3597 3500 
L 2284 0 
L 1503 0 
L 191 3500 
z
" transform="scale(0.015625)"/>
     </defs>
     <use xlink:href="#DejaVuSans-48"/>
     <use xlink:href="#DejaVuSans-6f" transform="translate(75.195312 0)"/>
     <use xlink:href="#DejaVuSans-72" transform="translate(136.376953 0)"/>
     <use xlink:href="#DejaVuSans-69" transform="translate(177.490234 0)"/>
     <use xlink:href="#DejaVuSans-7a" transform="translate(205.273438 0)"/>
     <use xlink:href="#DejaVuSans-6f" transform="translate(257.763672 0)"/>
     <use xlink:href="#DejaVuSans-6e" transform="translate(318.945312 0)"/>
     <use xlink:href="#DejaVuSans-74" transform="translate(382.324219 0)"/>
     <use xlink:href="#DejaVuSans-61" transform="translate(421.533203 0)"/>
     <use xlink:href="#DejaVuSans-6c" transform="translate(482.8125 0)"/>
     <use xlink:href="#DejaVuSans-20" transform="translate(510.595703 0)"/>
     <use xlink:href="#DejaVuSans-2014" transform="translate(542.382812 0)"/>
     <use xlink:href="#DejaVuSans-20" transform="translate(642.382812 0)"/>
     <use xlink:href="#DejaVuSans-43" transform="translate(674.169922 0)"/>
     <use xlink:href="#DejaVuSans-6f" transform="translate(743.994141 0)"/>
     <use xlink:href="#DejaVuSans-73" transform="translate(805.175781 0)"/>
     <use xlink:href="#DejaVuSans-69" transform="translate(857.275391 0)"/>
     <use xlink:href="#DejaVuSans-6e" transform="translate(885.058594 0)"/>
     <use xlink:href="#DejaVuSans-65" transform="translate(948.4375 0)"/>
     <use xlink:href="#DejaVuSans-43" transform="translate(1009.960938 0)"/>
     <use xlink:href="#DejaVuSans-75" transform="translate(1079.785156 0)"/>
     <use xlink:href="#DejaVuSans-72" transform="translate(1143.164062 0)"/>
     <use xlink:href="#DejaVuSans-76" transform="translate(1184.277344 0)"/>
     <use xlink:href="#DejaVuSans-65" transform="translate(1243.457031 0)"/>
    </g>
    <!-- Horizontal_CosineCurve_100.0_-1000_-300_IntlFoot -->
    <g transform="translate(188.948594 22.237) scale(0.08 -0.08)">
     <defs>
      <path id="DejaVuSans-5f" d="M 3263 -1063 
L 3263 -1509 
L -63 -1509 
L -63 -1063 
L 3263 -1063 
z
" transform="scale(0.015625)"/>
      <path id="DejaVuSans-2e" d="M 684 794 
L 1344 794 
L 1344 0 
L 684 0 
L 684 794 
z
" transform="scale(0.015625)"/>
      <path id="DejaVuSans-2d" d="M 313 2009 
L 1997 2009 
L 1997 1497 
L 313 1497 
L 313 2009 
z
" transform="scale(0.015625)"/>
      <path id="DejaVuSans-49" d="M 628 4666 
L 1259 4666 
L 1259 0 
L 628 0 
L 628 4666 
z
" transform="scale(0.015625)"/>
      <path id="DejaVuSans-46" d="M 628 4666 
L 3309 4666 
L 3309 4134 
L 1259 4134 
L 1259 2759 
L 3109 2759 
L 3109 2228 
L 1259 2228 
L 1259 0 
L 628 0 
L 628 4666 
z
" transform="scale(0.015625)"/>
     </defs>
     <use xlink:href="#DejaVuSans-48"/>
     <use xlink:href="#DejaVuSans-6f" transform="translate(75.195312 0)"/>
     <use xlink:href="#DejaVuSans-72" transform="translate(136.376953 0)"/>
     <use xlink:href="#DejaVuSans-69" transform="translate(177.490234 0)"/>
     <use xlink:href="#DejaVuSans-7a" transform="translate(205.273438 0)"/>
     <use xlink:href="#DejaVuSans-6f" transform="translate(257.763672 0)"/>
     <use xlink:href="#DejaVuSans-6e" transform="translate(318.945312 0)"/>
     <use xlink:href="#DejaVuSans-74" transform="translate(382.324219 0)"/>
     <use xlink:href="#DejaVuSans-61" transform="translate(421.533203 0)"/>
     <use xlink:href="#DejaVuSans-6c" transform="translate(482.8125 0)"/>
     <use xlink:href="#DejaVuSans-5f" transform="translate(510.595703 0)"/>
     <use xlink:href="#DejaVuSans-43" transform="translate(560.595703 0)"/>
     <use xlink:href="#DejaVuSans-6f" transform="translate(630.419922 0)"/>
     <use xlink:href="#DejaVuSans-73" transform="translate(691.601562 0)"/>
     <use xlink:href="#DejaVuSans-69" transform="translate(743.701172 0)"/>
     <use xlink:href="#DejaVuSans-6e" transform="translate(771.484375 0)"/>
     <use xlink:href="#DejaVuSans-65" transform="translate(834.863281 0)"/>
     <use xlink:href="#DejaVuSans-43" transform="translate(896.386719 0)"/>
     <use xlink:href="#DejaVuSans-75" transform="translate(966.210938 0)"/>
     <use xlink:href="#DejaVuSans-72" transform="translate(1029.589844 0)"/>
     <use xlink:href="#DejaVuSans-76" transform="translate(1070.703125 0)"/>
     <use xlink:href="#DejaVuSans-65" transform="translate(1129.882812 0)"/>
     <use xlink:href="#DejaVuSans-5f" transform="translate(1191.40625 0)"/>
     <use xlink:href="#DejaVuSans-31" transform="translate(1241.40625 0)"/>
     <use xlink:href="#DejaVuSans-30" transform="translate(1305.029297 0)"/>
     <use xlink:href="#DejaVuSans-30" transform="translate(1368.652344 0)"/>
     <use xlink:href="#DejaVuSans-2e" transform="translate(1432.275391 0)"/>
     <use xlink:href="#DejaVuSans-30" transform="translate(1464.0625 0)"/>
     <use xlink:href="#DejaVuSans-5f" transform="translate(1527.685547 0)"/>
     <use xlink:href="#DejaVuSans-2d" transform="translate(1577.685547 0)"/>
     <use xlink:href="#DejaVuSans-31" transform="translate(1613.769531 0)"/>
     <use xlink:href="#DejaVuSans-30" transform="translate(1677.392578 0)"/>
     <use xlink:href="#DejaVuSans-30" transform="translate(1741.015625 0)"/>
     <use xlink:href="#DejaVuSans-30" transform="translate(1804.638672 0)"/>
     <use xlink:href="#DejaVuSans-5f" transform="translate(1868.261719 0)"/>
     <use xlink:href="#DejaVuSans-2d" transform="translate(1918.261719 0)"/>
     <use xlink:href="#DejaVuSans-33" transform="translate(1954.345703 0)"/>
     <use xlink:href="#DejaVuSans-30" transform="translate(2017.96875 0)"/>
     <use xlink:href="#DejaVuSans-30" transform="translate(2081.591797 0)"/>
     <use xlink:href="#DejaVuSans-5f" transform="translate(2145.214844 0)"/>
     <use xlink:href="#DejaVuSans-49" transform="translate(2195.214844 0)"/>
     <use xlink:href="#DejaVuSans-6e" transform="translate(2224.707031 0)"/>
     <use xlink:href="#DejaVuSans-74" transform="translate(2288.085938 0)"/>
     <use xlink:href="#DejaVuSans-6c" transform="translate(2327.294922 0)"/>
     <use xlink:href="#DejaVuSans-46" transform="translate(2355.078125 0)"/>
     <use xlink:href="#DejaVuSans-6f" transform="translate(2408.972656 0)"/>
     <use xlink:href="#DejaVuSans-6f" transform="translate(2470.154297 0)"/>
     <use xlink:href="#DejaVuSans-74" transform="translate(2531.335938 0)"/>
    </g>
   </g>
  </g>
  <g id="axes_2">
   <g id="patch_7">
    <path d="M 55.345313 630.84375 
L 528.196875 630.84375 
L 528.196875 360.637 
L 55.345313 360.637 
z
" style="fill: #ffffff"/>
   </g>
   <g id="matplotlib.axis_3">
    <g id="xtick_8">
     <g id="line2d_32">
      <path d="M 76.838565 630.84375 
L 76.838565 360.637 
" clip-path="url(#pb0a6cef380)" style="fill: none; stroke-dasharray: 2.96,1.28; stroke-dashoffset: 0; stroke: #b0b0b0; stroke-opacity: 0.5; stroke-width: 0.8"/>
     </g>
     <g id="line2d_33">
      <g>
       <use xlink:href="#m318bdae5f8" x="76.838565" y="630.84375" style="stroke: #000000; stroke-width: 0.8"/>
      </g>
     </g>
     <g id="text_19">
      <!-- 0 -->
      <g transform="translate(73.657315 645.442188) scale(0.1 -0.1)">
       <use xlink:href="#DejaVuSans-30"/>
      </g>
     </g>
    </g>
    <g id="xtick_9">
     <g id="line2d_34">
      <path d="M 142.35 630.84375 
L 142.35 360.637 
" clip-path="url(#pb0a6cef380)" style="fill: none; stroke-dasharray: 2.96,1.28; stroke-dashoffset: 0; stroke: #b0b0b0; stroke-opacity: 0.5; stroke-width: 0.8"/>
     </g>
     <g id="line2d_35">
      <g>
       <use xlink:href="#m318bdae5f8" x="142.35" y="630.84375" style="stroke: #000000; stroke-width: 0.8"/>
      </g>
     </g>
     <g id="text_20">
      <!-- 50 -->
      <g transform="translate(135.9875 645.442188) scale(0.1 -0.1)">
       <use xlink:href="#DejaVuSans-35"/>
       <use xlink:href="#DejaVuSans-30" transform="translate(63.623047 0)"/>
      </g>
     </g>
    </g>
    <g id="xtick_10">
     <g id="line2d_36">
      <path d="M 207.861434 630.84375 
L 207.861434 360.637 
" clip-path="url(#pb0a6cef380)" style="fill: none; stroke-dasharray: 2.96,1.28; stroke-dashoffset: 0; stroke: #b0b0b0; stroke-opacity: 0.5; stroke-width: 0.8"/>
     </g>
     <g id="line2d_37">
      <g>
       <use xlink:href="#m318bdae5f8" x="207.861434" y="630.84375" style="stroke: #000000; stroke-width: 0.8"/>
      </g>
     </g>
     <g id="text_21">
      <!-- 100 -->
      <g transform="translate(198.317684 645.442188) scale(0.1 -0.1)">
       <use xlink:href="#DejaVuSans-31"/>
       <use xlink:href="#DejaVuSans-30" transform="translate(63.623047 0)"/>
       <use xlink:href="#DejaVuSans-30" transform="translate(127.246094 0)"/>
      </g>
     </g>
    </g>
    <g id="xtick_11">
     <g id="line2d_38">
      <path d="M 273.372869 630.84375 
L 273.372869 360.637 
" clip-path="url(#pb0a6cef380)" style="fill: none; stroke-dasharray: 2.96,1.28; stroke-dashoffset: 0; stroke: #b0b0b0; stroke-opacity: 0.5; stroke-width: 0.8"/>
     </g>
     <g id="line2d_39">
      <g>
       <use xlink:href="#m318bdae5f8" x="273.372869" y="630.84375" style="stroke: #000000; stroke-width: 0.8"/>
      </g>
     </g>
     <g id="text_22">
      <!-- 150 -->
      <g transform="translate(263.829119 645.442188) scale(0.1 -0.1)">
       <use xlink:href="#DejaVuSans-31"/>
       <use xlink:href="#DejaVuSans-35" transform="translate(63.623047 0)"/>
       <use xlink:href="#DejaVuSans-30" transform="translate(127.246094 0)"/>
      </g>
     </g>
    </g>
    <g id="xtick_12">
     <g id="line2d_40">
      <path d="M 338.884304 630.84375 
L 338.884304 360.637 
" clip-path="url(#pb0a6cef380)" style="fill: none; stroke-dasharray: 2.96,1.28; stroke-dashoffset: 0; stroke: #b0b0b0; stroke-opacity: 0.5; stroke-width: 0.8"/>
     </g>
     <g id="line2d_41">
      <g>
       <use xlink:href="#m318bdae5f8" x="338.884304" y="630.84375" style="stroke: #000000; stroke-width: 0.8"/>
      </g>
     </g>
     <g id="text_23">
      <!-- 200 -->
      <g transform="translate(329.340554 645.442188) scale(0.1 -0.1)">
       <use xlink:href="#DejaVuSans-32"/>
       <use xlink:href="#DejaVuSans-30" transform="translate(63.623047 0)"/>
       <use xlink:href="#DejaVuSans-30" transform="translate(127.246094 0)"/>
      </g>
     </g>
    </g>
    <g id="xtick_13">
     <g id="line2d_42">
      <path d="M 404.395738 630.84375 
L 404.395738 360.637 
" clip-path="url(#pb0a6cef380)" style="fill: none; stroke-dasharray: 2.96,1.28; stroke-dashoffset: 0; stroke: #b0b0b0; stroke-opacity: 0.5; stroke-width: 0.8"/>
     </g>
     <g id="line2d_43">
      <g>
       <use xlink:href="#m318bdae5f8" x="404.395738" y="630.84375" style="stroke: #000000; stroke-width: 0.8"/>
      </g>
     </g>
     <g id="text_24">
      <!-- 250 -->
      <g transform="translate(394.851988 645.442188) scale(0.1 -0.1)">
       <use xlink:href="#DejaVuSans-32"/>
       <use xlink:href="#DejaVuSans-35" transform="translate(63.623047 0)"/>
       <use xlink:href="#DejaVuSans-30" transform="translate(127.246094 0)"/>
      </g>
     </g>
    </g>
    <g id="xtick_14">
     <g id="line2d_44">
      <path d="M 469.907173 630.84375 
L 469.907173 360.637 
" clip-path="url(#pb0a6cef380)" style="fill: none; stroke-dasharray: 2.96,1.28; stroke-dashoffset: 0; stroke: #b0b0b0; stroke-opacity: 0.5; stroke-width: 0.8"/>
     </g>
     <g id="line2d_45">
      <g>
       <use xlink:href="#m318bdae5f8" x="469.907173" y="630.84375" style="stroke: #000000; stroke-width: 0.8"/>
      </g>
     </g>
     <g id="text_25">
      <!-- 300 -->
      <g transform="translate(460.363423 645.442188) scale(0.1 -0.1)">
       <use xlink:href="#DejaVuSans-33"/>
       <use xlink:href="#DejaVuSans-30" transform="translate(63.623047 0)"/>
       <use xlink:href="#DejaVuSans-30" transform="translate(127.246094 0)"/>
      </g>
     </g>
    </g>
    <g id="text_26">
     <!-- Distance Along (ft) -->
     <g transform="translate(244.984375 659.120313) scale(0.1 -0.1)">
      <defs>
       <path id="DejaVuSans-44" d="M 1259 4147 
L 1259 519 
L 2022 519 
Q 2988 519 3436 956 
Q 3884 1394 3884 2338 
Q 3884 3275 3436 3711 
Q 2988 4147 2022 4147 
L 1259 4147 
z
M 628 4666 
L 1925 4666 
Q 3281 4666 3915 4102 
Q 4550 3538 4550 2338 
Q 4550 1131 3912 565 
Q 3275 0 1925 0 
L 628 0 
L 628 4666 
z
" transform="scale(0.015625)"/>
       <path id="DejaVuSans-63" d="M 3122 3366 
L 3122 2828 
Q 2878 2963 2633 3030 
Q 2388 3097 2138 3097 
Q 1578 3097 1268 2742 
Q 959 2388 959 1747 
Q 959 1106 1268 751 
Q 1578 397 2138 397 
Q 2388 397 2633 464 
Q 2878 531 3122 666 
L 3122 134 
Q 2881 22 2623 -34 
Q 2366 -91 2075 -91 
Q 1284 -91 818 406 
Q 353 903 353 1747 
Q 353 2603 823 3093 
Q 1294 3584 2113 3584 
Q 2378 3584 2631 3529 
Q 2884 3475 3122 3366 
z
" transform="scale(0.015625)"/>
       <path id="DejaVuSans-41" d="M 2188 4044 
L 1331 1722 
L 3047 1722 
L 2188 4044 
z
M 1831 4666 
L 2547 4666 
L 4325 0 
L 3669 0 
L 3244 1197 
L 1141 1197 
L 716 0 
L 50 0 
L 1831 4666 
z
" transform="scale(0.015625)"/>
       <path id="DejaVuSans-67" d="M 2906 1791 
Q 2906 2416 2648 2759 
Q 2391 3103 1925 3103 
Q 1463 3103 1205 2759 
Q 947 2416 947 1791 
Q 947 1169 1205 825 
Q 1463 481 1925 481 
Q 2391 481 2648 825 
Q 2906 1169 2906 1791 
z
M 3481 434 
Q 3481 -459 3084 -895 
Q 2688 -1331 1869 -1331 
Q 1566 -1331 1297 -1286 
Q 1028 -1241 775 -1147 
L 775 -588 
Q 1028 -725 1275 -790 
Q 1522 -856 1778 -856 
Q 2344 -856 2625 -561 
Q 2906 -266 2906 331 
L 2906 616 
Q 2728 306 2450 153 
Q 2172 0 1784 0 
Q 1141 0 747 490 
Q 353 981 353 1791 
Q 353 2603 747 3093 
Q 1141 3584 1784 3584 
Q 2172 3584 2450 3431 
Q 2728 3278 2906 2969 
L 2906 3500 
L 3481 3500 
L 3481 434 
z
" transform="scale(0.015625)"/>
      </defs>
      <use xlink:href="#DejaVuSans-44"/>
      <use xlink:href="#DejaVuSans-69" transform="translate(77.001953 0)"/>
      <use xlink:href="#DejaVuSans-73" transform="translate(104.785156 0)"/>
      <use xlink:href="#DejaVuSans-74" transform="translate(156.884766 0)"/>
      <use xlink:href="#DejaVuSans-61" transform="translate(196.09375 0)"/>
      <use xlink:href="#DejaVuSans-6e" transform="translate(257.373047 0)"/>
      <use xlink:href="#DejaVuSans-63" transform="translate(320.751953 0)"/>
      <use xlink:href="#DejaVuSans-65" transform="translate(375.732422 0)"/>
      <use xlink:href="#DejaVuSans-20" transform="translate(437.255859 0)"/>
      <use xlink:href="#DejaVuSans-41" transform="translate(469.042969 0)"/>
      <use xlink:href="#DejaVuSans-6c" transform="translate(537.451172 0)"/>
      <use xlink:href="#DejaVuSans-6f" transform="translate(565.234375 0)"/>
      <use xlink:href="#DejaVuSans-6e" transform="translate(626.416016 0)"/>
      <use xlink:href="#DejaVuSans-67" transform="translate(689.794922 0)"/>
      <use xlink:href="#DejaVuSans-20" transform="translate(753.271484 0)"/>
      <use xlink:href="#DejaVuSans-28" transform="translate(785.058594 0)"/>
      <use xlink:href="#DejaVuSans-66" transform="translate(824.072266 0)"/>
      <use xlink:href="#DejaVuSans-74" transform="translate(857.527344 0)"/>
      <use xlink:href="#DejaVuSans-29" transform="translate(896.736328 0)"/>
     </g>
    </g>
   </g>
   <g id="matplotlib.axis_4">
    <g id="ytick_9">
     <g id="line2d_46">
      <path d="M 55.345313 618.561625 
L 528.196875 618.561625 
" clip-path="url(#pb0a6cef380)" style="fill: none; stroke-dasharray: 2.96,1.28; stroke-dashoffset: 0; stroke: #b0b0b0; stroke-opacity: 0.5; stroke-width: 0.8"/>
     </g>
     <g id="line2d_47">
      <g>
       <use xlink:href="#mdbae1ffddb" x="55.345313" y="618.561625" style="stroke: #000000; stroke-width: 0.8"/>
      </g>
     </g>
     <g id="text_27">
      <!-- 0.00 -->
      <g transform="translate(26.079688 622.360844) scale(0.1 -0.1)">
       <use xlink:href="#DejaVuSans-30"/>
       <use xlink:href="#DejaVuSans-2e" transform="translate(63.623047 0)"/>
       <use xlink:href="#DejaVuSans-30" transform="translate(95.410156 0)"/>
       <use xlink:href="#DejaVuSans-30" transform="translate(159.033203 0)"/>
      </g>
     </g>
    </g>
    <g id="ytick_10">
     <g id="line2d_48">
      <path d="M 55.345313 571.766695 
L 528.196875 571.766695 
" clip-path="url(#pb0a6cef380)" style="fill: none; stroke-dasharray: 2.96,1.28; stroke-dashoffset: 0; stroke: #b0b0b0; stroke-opacity: 0.5; stroke-width: 0.8"/>
     </g>
     <g id="line2d_49">
      <g>
       <use xlink:href="#mdbae1ffddb" x="55.345313" y="571.766695" style="stroke: #000000; stroke-width: 0.8"/>
      </g>
     </g>
     <g id="text_28">
      <!-- 0.05 -->
      <g transform="translate(26.079688 575.565913) scale(0.1 -0.1)">
       <use xlink:href="#DejaVuSans-30"/>
       <use xlink:href="#DejaVuSans-2e" transform="translate(63.623047 0)"/>
       <use xlink:href="#DejaVuSans-30" transform="translate(95.410156 0)"/>
       <use xlink:href="#DejaVuSans-35" transform="translate(159.033203 0)"/>
      </g>
     </g>
    </g>
    <g id="ytick_11">
     <g id="line2d_50">
      <path d="M 55.345313 524.971764 
L 528.196875 524.971764 
" clip-path="url(#pb0a6cef380)" style="fill: none; stroke-dasharray: 2.96,1.28; stroke-dashoffset: 0; stroke: #b0b0b0; stroke-opacity: 0.5; stroke-width: 0.8"/>
     </g>
     <g id="line2d_51">
      <g>
       <use xlink:href="#mdbae1ffddb" x="55.345313" y="524.971764" style="stroke: #000000; stroke-width: 0.8"/>
      </g>
     </g>
     <g id="text_29">
      <!-- 0.10 -->
      <g transform="translate(26.079688 528.770983) scale(0.1 -0.1)">
       <use xlink:href="#DejaVuSans-30"/>
       <use xlink:href="#DejaVuSans-2e" transform="translate(63.623047 0)"/>
       <use xlink:href="#DejaVuSans-31" transform="translate(95.410156 0)"/>
       <use xlink:href="#DejaVuSans-30" transform="translate(159.033203 0)"/>
      </g>
     </g>
    </g>
    <g id="ytick_12">
     <g id="line2d_52">
      <path d="M 55.345313 478.176834 
L 528.196875 478.176834 
" clip-path="url(#pb0a6cef380)" style="fill: none; stroke-dasharray: 2.96,1.28; stroke-dashoffset: 0; stroke: #b0b0b0; stroke-opacity: 0.5; stroke-width: 0.8"/>
     </g>
     <g id="line2d_53">
      <g>
       <use xlink:href="#mdbae1ffddb" x="55.345313" y="478.176834" style="stroke: #000000; stroke-width: 0.8"/>
      </g>
     </g>
     <g id="text_30">
      <!-- 0.15 -->
      <g transform="translate(26.079688 481.976053) scale(0.1 -0.1)">
       <use xlink:href="#DejaVuSans-30"/>
       <use xlink:href="#DejaVuSans-2e" transform="translate(63.623047 0)"/>
       <use xlink:href="#DejaVuSans-31" transform="translate(95.410156 0)"/>
       <use xlink:href="#DejaVuSans-35" transform="translate(159.033203 0)"/>
      </g>
     </g>
    </g>
    <g id="ytick_13">
     <g id="line2d_54">
      <path d="M 55.345313 431.381903 
L 528.196875 431.381903 
" clip-path="url(#pb0a6cef380)" style="fill: none; stroke-dasharray: 2.96,1.28; stroke-dashoffset: 0; stroke: #b0b0b0; stroke-opacity: 0.5; stroke-width: 0.8"/>
     </g>
     <g id="line2d_55">
      <g>
       <use xlink:href="#mdbae1ffddb" x="55.345313" y="431.381903" style="stroke: #000000; stroke-width: 0.8"/>
      </g>
     </g>
     <g id="text_31">
      <!-- 0.20 -->
      <g transform="translate(26.079688 435.181122) scale(0.1 -0.1)">
       <use xlink:href="#DejaVuSans-30"/>
       <use xlink:href="#DejaVuSans-2e" transform="translate(63.623047 0)"/>
       <use xlink:href="#DejaVuSans-32" transform="translate(95.410156 0)"/>
       <use xlink:href="#DejaVuSans-30" transform="translate(159.033203 0)"/>
      </g>
     </g>
    </g>
    <g id="ytick_14">
     <g id="line2d_56">
      <path d="M 55.345313 384.586973 
L 528.196875 384.586973 
" clip-path="url(#pb0a6cef380)" style="fill: none; stroke-dasharray: 2.96,1.28; stroke-dashoffset: 0; stroke: #b0b0b0; stroke-opacity: 0.5; stroke-width: 0.8"/>
     </g>
     <g id="line2d_57">
      <g>
       <use xlink:href="#mdbae1ffddb" x="55.345313" y="384.586973" style="stroke: #000000; stroke-width: 0.8"/>
      </g>
     </g>
     <g id="text_32">
      <!-- 0.25 -->
      <g transform="translate(26.079688 388.386192) scale(0.1 -0.1)">
       <use xlink:href="#DejaVuSans-30"/>
       <use xlink:href="#DejaVuSans-2e" transform="translate(63.623047 0)"/>
       <use xlink:href="#DejaVuSans-32" transform="translate(95.410156 0)"/>
       <use xlink:href="#DejaVuSans-35" transform="translate(159.033203 0)"/>
      </g>
     </g>
    </g>
    <g id="text_33">
     <!-- Centerline Deviating Elevation (ft) -->
     <g transform="translate(20 581.151313) rotate(-90) scale(0.1 -0.1)">
      <defs>
       <path id="DejaVuSans-45" d="M 628 4666 
L 3578 4666 
L 3578 4134 
L 1259 4134 
L 1259 2753 
L 3481 2753 
L 3481 2222 
L 1259 2222 
L 1259 531 
L 3634 531 
L 3634 0 
L 628 0 
L 628 4666 
z
" transform="scale(0.015625)"/>
      </defs>
      <use xlink:href="#DejaVuSans-43"/>
      <use xlink:href="#DejaVuSans-65" transform="translate(69.824219 0)"/>
      <use xlink:href="#DejaVuSans-6e" transform="translate(131.347656 0)"/>
      <use xlink:href="#DejaVuSans-74" transform="translate(194.726562 0)"/>
      <use xlink:href="#DejaVuSans-65" transform="translate(233.935547 0)"/>
      <use xlink:href="#DejaVuSans-72" transform="translate(295.458984 0)"/>
      <use xlink:href="#DejaVuSans-6c" transform="translate(336.572266 0)"/>
      <use xlink:href="#DejaVuSans-69" transform="translate(364.355469 0)"/>
      <use xlink:href="#DejaVuSans-6e" transform="translate(392.138672 0)"/>
      <use xlink:href="#DejaVuSans-65" transform="translate(455.517578 0)"/>
      <use xlink:href="#DejaVuSans-20" transform="translate(517.041016 0)"/>
      <use xlink:href="#DejaVuSans-44" transform="translate(548.828125 0)"/>
      <use xlink:href="#DejaVuSans-65" transform="translate(625.830078 0)"/>
      <use xlink:href="#DejaVuSans-76" transform="translate(687.353516 0)"/>
      <use xlink:href="#DejaVuSans-69" transform="translate(746.533203 0)"/>
      <use xlink:href="#DejaVuSans-61" transform="translate(774.316406 0)"/>
      <use xlink:href="#DejaVuSans-74" transform="translate(835.595703 0)"/>
      <use xlink:href="#DejaVuSans-69" transform="translate(874.804688 0)"/>
      <use xlink:href="#DejaVuSans-6e" transform="translate(902.587891 0)"/>
      <use xlink:href="#DejaVuSans-67" transform="translate(965.966797 0)"/>
      <use xlink:href="#DejaVuSans-20" transform="translate(1029.443359 0)"/>
      <use xlink:href="#DejaVuSans-45" transform="translate(1061.230469 0)"/>
      <use xlink:href="#DejaVuSans-6c" transform="translate(1124.414062 0)"/>
      <use xlink:href="#DejaVuSans-65" transform="translate(1152.197266 0)"/>
      <use xlink:href="#DejaVuSans-76" transform="translate(1213.720703 0)"/>
      <use xlink:href="#DejaVuSans-61" transform="translate(1272.900391 0)"/>
      <use xlink:href="#DejaVuSans-74" transform="translate(1334.179688 0)"/>
      <use xlink:href="#DejaVuSans-69" transform="translate(1373.388672 0)"/>
      <use xlink:href="#DejaVuSans-6f" transform="translate(1401.171875 0)"/>
      <use xlink:href="#DejaVuSans-6e" transform="translate(1462.353516 0)"/>
      <use xlink:href="#DejaVuSans-20" transform="translate(1525.732422 0)"/>
      <use xlink:href="#DejaVuSans-28" transform="translate(1557.519531 0)"/>
      <use xlink:href="#DejaVuSans-66" transform="translate(1596.533203 0)"/>
      <use xlink:href="#DejaVuSans-74" transform="translate(1629.988281 0)"/>
      <use xlink:href="#DejaVuSans-29" transform="translate(1669.197266 0)"/>
     </g>
    </g>
   </g>
   <g id="line2d_58">
    <path d="M 76.838565 618.561625 
L 81.137216 618.500792 
L 85.435867 618.319227 
L 89.734517 618.016932 
L 94.033168 617.59297 
L 98.331818 617.049213 
L 102.630468 616.385661 
L 106.929119 615.603249 
L 111.22777 614.702915 
L 115.52642 613.684657 
L 119.825071 612.550348 
L 124.123722 611.300924 
L 128.422372 609.936383 
L 132.721023 608.460471 
L 137.019674 606.872251 
L 141.318323 605.174531 
L 145.616974 603.369183 
L 149.915625 601.458078 
L 154.214275 599.442152 
L 158.512926 597.323278 
L 162.811577 595.105198 
L 167.110227 592.787913 
L 171.408878 590.376103 
L 175.707529 587.869766 
L 180.006178 585.273583 
L 184.304829 582.58849 
L 188.60348 579.817294 
L 192.90213 576.96374 
L 197.200781 574.029697 
L 201.499432 571.017976 
L 205.798082 567.933254 
L 210.096733 564.776468 
L 214.395384 561.551361 
L 218.694034 558.261678 
L 222.992684 554.910225 
L 227.291335 551.49981 
L 231.589985 548.035114 
L 235.888636 544.518943 
L 240.187287 540.954105 
L 244.485937 537.344344 
L 248.784588 533.694339 
L 253.083239 530.005963 
L 257.381889 526.28483 
L 261.680539 522.532812 
L 265.97919 518.75459 
L 270.27784 514.953905 
L 274.576491 511.133567 
L 278.875142 507.299191 
L 283.173792 503.452647 
L 287.472443 499.598617 
L 291.771094 495.739907 
L 296.069744 491.882133 
L 300.368395 488.028103 
L 304.667045 484.181559 
L 308.965695 480.346247 
L 313.264346 476.526845 
L 317.562997 472.72616 
L 321.861647 468.947938 
L 326.160298 465.19592 
L 330.458949 461.473851 
L 334.757599 457.786411 
L 339.05625 454.136406 
L 343.354899 450.526645 
L 347.65355 446.961807 
L 351.952201 443.445636 
L 356.250852 439.98094 
L 360.549502 436.570525 
L 364.848153 433.219072 
L 369.146804 429.929389 
L 373.445454 426.704282 
L 377.744105 423.547496 
L 382.042756 420.461838 
L 386.341405 417.451053 
L 390.640056 414.51701 
L 394.938707 411.663456 
L 399.237357 408.89226 
L 403.536008 406.207167 
L 407.834659 403.610984 
L 412.133309 401.104647 
L 416.43196 398.692837 
L 420.730611 396.375552 
L 425.02926 394.157472 
L 429.327911 392.038598 
L 433.626562 390.022672 
L 437.925212 388.111567 
L 442.223863 386.305283 
L 446.522514 384.608499 
L 450.821164 383.020279 
L 455.119815 381.543431 
L 459.418466 380.179826 
L 463.717116 378.930402 
L 468.015766 377.796093 
L 472.314417 376.777835 
L 476.613067 375.876565 
L 480.911718 375.094153 
L 485.210369 374.431537 
L 489.509019 373.88778 
L 493.80767 373.463818 
L 498.106321 373.161523 
L 502.404971 372.979958 
L 506.703622 372.919125 
" clip-path="url(#pb0a6cef380)" style="fill: none; stroke: #ff7f0e; stroke-width: 1.5; stroke-linecap: square"/>
   </g>
   <g id="patch_8">
    <path d="M 55.345313 630.84375 
L 55.345313 360.637 
" style="fill: none; stroke: #000000; stroke-width: 0.8; stroke-linejoin: miter; stroke-linecap: square"/>
   </g>
   <g id="patch_9">
    <path d="M 528.196875 630.84375 
L 528.196875 360.637 
" style="fill: none; stroke: #000000; stroke-width: 0.8; stroke-linejoin: miter; stroke-linecap: square"/>
   </g>
   <g id="patch_10">
    <path d="M 55.345313 630.84375 
L 528.196875 630.84375 
" style="fill: none; stroke: #000000; stroke-width: 0.8; stroke-linejoin: miter; stroke-linecap: square"/>
   </g>
   <g id="patch_11">
    <path d="M 55.345313 360.637 
L 528.196875 360.637 
" style="fill: none; stroke: #000000; stroke-width: 0.8; stroke-linejoin: miter; stroke-linecap: square"/>
   </g>
   <g id="text_34">
    <!-- Cant — CosineCurve -->
    <g transform="translate(250.647969 345.67875) scale(0.08 -0.08)">
     <use xlink:href="#DejaVuSans-43"/>
     <use xlink:href="#DejaVuSans-61" transform="translate(69.824219 0)"/>
     <use xlink:href="#DejaVuSans-6e" transform="translate(131.103516 0)"/>
     <use xlink:href="#DejaVuSans-74" transform="translate(194.482422 0)"/>
     <use xlink:href="#DejaVuSans-20" transform="translate(233.691406 0)"/>
     <use xlink:href="#DejaVuSans-2014" transform="translate(265.478516 0)"/>
     <use xlink:href="#DejaVuSans-20" transform="translate(365.478516 0)"/>
     <use xlink:href="#DejaVuSans-43" transform="translate(397.265625 0)"/>
     <use xlink:href="#DejaVuSans-6f" transform="translate(467.089844 0)"/>
     <use xlink:href="#DejaVuSans-73" transform="translate(528.271484 0)"/>
     <use xlink:href="#DejaVuSans-69" transform="translate(580.371094 0)"/>
     <use xlink:href="#DejaVuSans-6e" transform="translate(608.154297 0)"/>
     <use xlink:href="#DejaVuSans-65" transform="translate(671.533203 0)"/>
     <use xlink:href="#DejaVuSans-43" transform="translate(733.056641 0)"/>
     <use xlink:href="#DejaVuSans-75" transform="translate(802.880859 0)"/>
     <use xlink:href="#DejaVuSans-72" transform="translate(866.259766 0)"/>
     <use xlink:href="#DejaVuSans-76" transform="translate(907.373047 0)"/>
     <use xlink:href="#DejaVuSans-65" transform="translate(966.552734 0)"/>
    </g>
    <!-- Cant_CosineCurve_100.0_-1000_-300_IntlFoot -->
    <g transform="translate(200.024844 354.637) scale(0.08 -0.08)">
     <use xlink:href="#DejaVuSans-43"/>
     <use xlink:href="#DejaVuSans-61" transform="translate(69.824219 0)"/>
     <use xlink:href="#DejaVuSans-6e" transform="translate(131.103516 0)"/>
     <use xlink:href="#DejaVuSans-74" transform="translate(194.482422 0)"/>
     <use xlink:href="#DejaVuSans-5f" transform="translate(233.691406 0)"/>
     <use xlink:href="#DejaVuSans-43" transform="translate(283.691406 0)"/>
     <use xlink:href="#DejaVuSans-6f" transform="translate(353.515625 0)"/>
     <use xlink:href="#DejaVuSans-73" transform="translate(414.697266 0)"/>
     <use xlink:href="#DejaVuSans-69" transform="translate(466.796875 0)"/>
     <use xlink:href="#DejaVuSans-6e" transform="translate(494.580078 0)"/>
     <use xlink:href="#DejaVuSans-65" transform="translate(557.958984 0)"/>
     <use xlink:href="#DejaVuSans-43" transform="translate(619.482422 0)"/>
     <use xlink:href="#DejaVuSans-75" transform="translate(689.306641 0)"/>
     <use xlink:href="#DejaVuSans-72" transform="translate(752.685547 0)"/>
     <use xlink:href="#DejaVuSans-76" transform="translate(793.798828 0)"/>
     <use xlink:href="#DejaVuSans-65" transform="translate(852.978516 0)"/>
     <use xlink:href="#DejaVuSans-5f" transform="translate(914.501953 0)"/>
     <use xlink:href="#DejaVuSans-31" transform="translate(964.501953 0)"/>
     <use xlink:href="#DejaVuSans-30" transform="translate(1028.125 0)"/>
     <use xlink:href="#DejaVuSans-30" transform="translate(1091.748047 0)"/>
     <use xlink:href="#DejaVuSans-2e" transform="translate(1155.371094 0)"/>
     <use xlink:href="#DejaVuSans-30" transform="translate(1187.158203 0)"/>
     <use xlink:href="#DejaVuSans-5f" transform="translate(1250.78125 0)"/>
     <use xlink:href="#DejaVuSans-2d" transform="translate(1300.78125 0)"/>
     <use xlink:href="#DejaVuSans-31" transform="translate(1336.865234 0)"/>
     <use xlink:href="#DejaVuSans-30" transform="translate(1400.488281 0)"/>
     <use xlink:href="#DejaVuSans-30" transform="translate(1464.111328 0)"/>
     <use xlink:href="#DejaVuSans-30" transform="translate(1527.734375 0)"/>
     <use xlink:href="#DejaVuSans-5f" transform="translate(1591.357422 0)"/>
     <use xlink:href="#DejaVuSans-2d" transform="translate(1641.357422 0)"/>
     <use xlink:href="#DejaVuSans-33" transform="translate(1677.441406 0)"/>
     <use xlink:href="#DejaVuSans-30" transform="translate(1741.064453 0)"/>
     <use xlink:href="#DejaVuSans-30" transform="translate(1804.6875 0)"/>
     <use xlink:href="#DejaVuSans-5f" transform="translate(1868.310547 0)"/>
     <use xlink:href="#DejaVuSans-49" transform="translate(1918.310547 0)"/>
     <use xlink:href="#DejaVuSans-6e" transform="translate(1947.802734 0)"/>
     <use xlink:href="#DejaVuSans-74" transform="translate(2011.181641 0)"/>
     <use xlink:href="#DejaVuSans-6c" transform="translate(2050.390625 0)"/>
     <use xlink:href="#DejaVuSans-46" transform="translate(2078.173828 0)"/>
     <use xlink:href="#DejaVuSans-6f" transform="translate(2132.068359 0)"/>
     <use xlink:href="#DejaVuSans-6f" transform="translate(2193.25 0)"/>
     <use xlink:href="#DejaVuSans-74" transform="translate(2254.431641 0)"/>
    </g>
   </g>
  </g>
  <g id="axes_3">
   <g id="patch_12">
    <path d="M 55.345313 963.24375 
L 528.196875 963.24375 
L 528.196875 693.037 
L 55.345313 693.037 
z
" style="fill: #ffffff"/>
   </g>
   <g id="axes_4">
    <g id="patch_13">
     <path d="M 528.196875 963.24375 
L 528.196875 963.24375 
L 528.196875 693.037 
L 528.196875 693.037 
z
" style="fill: #ffffff"/>
    </g>
    <g id="matplotlib.axis_5"/>
    <g id="matplotlib.axis_6">
     <g id="ytick_15">
      <g id="line2d_59">
       <defs>
        <path id="me53eb11552" d="M 0 0 
L 3.5 0 
" style="stroke: #000000; stroke-width: 0.8"/>
       </defs>
       <g>
        <use xlink:href="#me53eb11552" x="528.196875" y="950.961625" style="stroke: #000000; stroke-width: 0.8"/>
       </g>
      </g>
      <g id="text_35">
       <!-- 90 -->
       <g transform="translate(535.196875 954.760844) scale(0.1 -0.1)">
        <defs>
         <path id="DejaVuSans-39" d="M 703 97 
L 703 672 
Q 941 559 1184 500 
Q 1428 441 1663 441 
Q 2288 441 2617 861 
Q 2947 1281 2994 2138 
Q 2813 1869 2534 1725 
Q 2256 1581 1919 1581 
Q 1219 1581 811 2004 
Q 403 2428 403 3163 
Q 403 3881 828 4315 
Q 1253 4750 1959 4750 
Q 2769 4750 3195 4129 
Q 3622 3509 3622 2328 
Q 3622 1225 3098 567 
Q 2575 -91 1691 -91 
Q 1453 -91 1209 -44 
Q 966 3 703 97 
z
M 1959 2075 
Q 2384 2075 2632 2365 
Q 2881 2656 2881 3163 
Q 2881 3666 2632 3958 
Q 2384 4250 1959 4250 
Q 1534 4250 1286 3958 
Q 1038 3666 1038 3163 
Q 1038 2656 1286 2365 
Q 1534 2075 1959 2075 
z
" transform="scale(0.015625)"/>
        </defs>
        <use xlink:href="#DejaVuSans-39"/>
        <use xlink:href="#DejaVuSans-30" transform="translate(63.623047 0)"/>
       </g>
      </g>
     </g>
     <g id="ytick_16">
      <g id="line2d_60">
       <g>
        <use xlink:href="#me53eb11552" x="528.196875" y="910.845048" style="stroke: #000000; stroke-width: 0.8"/>
       </g>
      </g>
      <g id="text_36">
       <!-- 91 -->
       <g transform="translate(535.196875 914.644267) scale(0.1 -0.1)">
        <use xlink:href="#DejaVuSans-39"/>
        <use xlink:href="#DejaVuSans-31" transform="translate(63.623047 0)"/>
       </g>
      </g>
     </g>
     <g id="ytick_17">
      <g id="line2d_61">
       <g>
        <use xlink:href="#me53eb11552" x="528.196875" y="870.728471" style="stroke: #000000; stroke-width: 0.8"/>
       </g>
      </g>
      <g id="text_37">
       <!-- 92 -->
       <g transform="translate(535.196875 874.52769) scale(0.1 -0.1)">
        <use xlink:href="#DejaVuSans-39"/>
        <use xlink:href="#DejaVuSans-32" transform="translate(63.623047 0)"/>
       </g>
      </g>
     </g>
     <g id="ytick_18">
      <g id="line2d_62">
       <g>
        <use xlink:href="#me53eb11552" x="528.196875" y="830.611894" style="stroke: #000000; stroke-width: 0.8"/>
       </g>
      </g>
      <g id="text_38">
       <!-- 93 -->
       <g transform="translate(535.196875 834.411113) scale(0.1 -0.1)">
        <use xlink:href="#DejaVuSans-39"/>
        <use xlink:href="#DejaVuSans-33" transform="translate(63.623047 0)"/>
       </g>
      </g>
     </g>
     <g id="ytick_19">
      <g id="line2d_63">
       <g>
        <use xlink:href="#me53eb11552" x="528.196875" y="790.495317" style="stroke: #000000; stroke-width: 0.8"/>
       </g>
      </g>
      <g id="text_39">
       <!-- 94 -->
       <g transform="translate(535.196875 794.294536) scale(0.1 -0.1)">
        <defs>
         <path id="DejaVuSans-34" d="M 2419 4116 
L 825 1625 
L 2419 1625 
L 2419 4116 
z
M 2253 4666 
L 3047 4666 
L 3047 1625 
L 3713 1625 
L 3713 1100 
L 3047 1100 
L 3047 0 
L 2419 0 
L 2419 1100 
L 313 1100 
L 313 1709 
L 2253 4666 
z
" transform="scale(0.015625)"/>
        </defs>
        <use xlink:href="#DejaVuSans-39"/>
        <use xlink:href="#DejaVuSans-34" transform="translate(63.623047 0)"/>
       </g>
      </g>
     </g>
     <g id="ytick_20">
      <g id="line2d_64">
       <g>
        <use xlink:href="#me53eb11552" x="528.196875" y="750.37874" style="stroke: #000000; stroke-width: 0.8"/>
       </g>
      </g>
      <g id="text_40">
       <!-- 95 -->
       <g transform="translate(535.196875 754.177959) scale(0.1 -0.1)">
        <use xlink:href="#DejaVuSans-39"/>
        <use xlink:href="#DejaVuSans-35" transform="translate(63.623047 0)"/>
       </g>
      </g>
     </g>
     <g id="ytick_21">
      <g id="line2d_65">
       <g>
        <use xlink:href="#me53eb11552" x="528.196875" y="710.262164" style="stroke: #000000; stroke-width: 0.8"/>
       </g>
      </g>
      <g id="text_41">
       <!-- 96 -->
       <g transform="translate(535.196875 714.061382) scale(0.1 -0.1)">
        <defs>
         <path id="DejaVuSans-36" d="M 2113 2584 
Q 1688 2584 1439 2293 
Q 1191 2003 1191 1497 
Q 1191 994 1439 701 
Q 1688 409 2113 409 
Q 2538 409 2786 701 
Q 3034 994 3034 1497 
Q 3034 2003 2786 2293 
Q 2538 2584 2113 2584 
z
M 3366 4563 
L 3366 3988 
Q 3128 4100 2886 4159 
Q 2644 4219 2406 4219 
Q 1781 4219 1451 3797 
Q 1122 3375 1075 2522 
Q 1259 2794 1537 2939 
Q 1816 3084 2150 3084 
Q 2853 3084 3261 2657 
Q 3669 2231 3669 1497 
Q 3669 778 3244 343 
Q 2819 -91 2113 -91 
Q 1303 -91 875 529 
Q 447 1150 447 2328 
Q 447 3434 972 4092 
Q 1497 4750 2381 4750 
Q 2619 4750 2861 4703 
Q 3103 4656 3366 4563 
z
" transform="scale(0.015625)"/>
        </defs>
        <use xlink:href="#DejaVuSans-39"/>
        <use xlink:href="#DejaVuSans-36" transform="translate(63.623047 0)"/>
       </g>
      </g>
     </g>
     <g id="text_42">
      <!-- φ (deg) -->
      <g transform="translate(559.520313 846.354438) rotate(-90) scale(0.1 -0.1)">
       <defs>
        <path id="DejaVuSans-3c6" d="M 2591 3034 
Q 2388 3034 2388 2581 
L 2388 438 
Q 2684 438 2981 763 
Q 3247 1053 3247 1750 
Q 3247 2400 2978 2750 
Q 2759 3034 2591 3034 
z
M 2591 3525 
Q 3028 3525 3425 3113 
Q 3853 2672 3853 1750 
Q 3853 903 3425 400 
Q 3022 -75 2388 -75 
L 2388 -1331 
L 1816 -1331 
L 1816 -78 
Q 1194 -78 775 400 
Q 350 888 350 1747 
Q 350 2641 775 3097 
Q 1094 3438 1613 3525 
L 1613 3016 
Q 1406 2944 1225 2700 
Q 956 2341 956 1747 
Q 956 1116 1225 756 
Q 1466 434 1816 434 
L 1816 2581 
Q 1816 3525 2591 3525 
z
" transform="scale(0.015625)"/>
        <path id="DejaVuSans-64" d="M 2906 2969 
L 2906 4863 
L 3481 4863 
L 3481 0 
L 2906 0 
L 2906 525 
Q 2725 213 2448 61 
Q 2172 -91 1784 -91 
Q 1150 -91 751 415 
Q 353 922 353 1747 
Q 353 2572 751 3078 
Q 1150 3584 1784 3584 
Q 2172 3584 2448 3432 
Q 2725 3281 2906 2969 
z
M 947 1747 
Q 947 1113 1208 752 
Q 1469 391 1925 391 
Q 2381 391 2643 752 
Q 2906 1113 2906 1747 
Q 2906 2381 2643 2742 
Q 2381 3103 1925 3103 
Q 1469 3103 1208 2742 
Q 947 2381 947 1747 
z
" transform="scale(0.015625)"/>
       </defs>
       <use xlink:href="#DejaVuSans-3c6"/>
       <use xlink:href="#DejaVuSans-20" transform="translate(65.966797 0)"/>
       <use xlink:href="#DejaVuSans-28" transform="translate(97.753906 0)"/>
       <use xlink:href="#DejaVuSans-64" transform="translate(136.767578 0)"/>
       <use xlink:href="#DejaVuSans-65" transform="translate(200.244141 0)"/>
       <use xlink:href="#DejaVuSans-67" transform="translate(261.767578 0)"/>
       <use xlink:href="#DejaVuSans-29" transform="translate(325.244141 0)"/>
      </g>
     </g>
    </g>
    <g id="patch_14">
     <path d="M 528.196875 963.24375 
L 528.196875 693.037 
" style="fill: none; stroke: #000000; stroke-width: 0.8; stroke-linejoin: miter; stroke-linecap: square"/>
    </g>
   </g>
   <g id="matplotlib.axis_7">
    <g id="xtick_15">
     <g id="line2d_66">
      <path d="M 76.838565 963.24375 
L 76.838565 693.037 
" clip-path="url(#pf28c878267)" style="fill: none; stroke-dasharray: 2.96,1.28; stroke-dashoffset: 0; stroke: #b0b0b0; stroke-opacity: 0.5; stroke-width: 0.8"/>
     </g>
     <g id="line2d_67">
      <g>
       <use xlink:href="#m318bdae5f8" x="76.838565" y="963.24375" style="stroke: #000000; stroke-width: 0.8"/>
      </g>
     </g>
     <g id="text_43">
      <!-- 0 -->
      <g transform="translate(73.657315 977.842188) scale(0.1 -0.1)">
       <use xlink:href="#DejaVuSans-30"/>
      </g>
     </g>
    </g>
    <g id="xtick_16">
     <g id="line2d_68">
      <path d="M 142.35 963.24375 
L 142.35 693.037 
" clip-path="url(#pf28c878267)" style="fill: none; stroke-dasharray: 2.96,1.28; stroke-dashoffset: 0; stroke: #b0b0b0; stroke-opacity: 0.5; stroke-width: 0.8"/>
     </g>
     <g id="line2d_69">
      <g>
       <use xlink:href="#m318bdae5f8" x="142.35" y="963.24375" style="stroke: #000000; stroke-width: 0.8"/>
      </g>
     </g>
     <g id="text_44">
      <!-- 50 -->
      <g transform="translate(135.9875 977.842188) scale(0.1 -0.1)">
       <use xlink:href="#DejaVuSans-35"/>
       <use xlink:href="#DejaVuSans-30" transform="translate(63.623047 0)"/>
      </g>
     </g>
    </g>
    <g id="xtick_17">
     <g id="line2d_70">
      <path d="M 207.861434 963.24375 
L 207.861434 693.037 
" clip-path="url(#pf28c878267)" style="fill: none; stroke-dasharray: 2.96,1.28; stroke-dashoffset: 0; stroke: #b0b0b0; stroke-opacity: 0.5; stroke-width: 0.8"/>
     </g>
     <g id="line2d_71">
      <g>
       <use xlink:href="#m318bdae5f8" x="207.861434" y="963.24375" style="stroke: #000000; stroke-width: 0.8"/>
      </g>
     </g>
     <g id="text_45">
      <!-- 100 -->
      <g transform="translate(198.317684 977.842188) scale(0.1 -0.1)">
       <use xlink:href="#DejaVuSans-31"/>
       <use xlink:href="#DejaVuSans-30" transform="translate(63.623047 0)"/>
       <use xlink:href="#DejaVuSans-30" transform="translate(127.246094 0)"/>
      </g>
     </g>
    </g>
    <g id="xtick_18">
     <g id="line2d_72">
      <path d="M 273.372869 963.24375 
L 273.372869 693.037 
" clip-path="url(#pf28c878267)" style="fill: none; stroke-dasharray: 2.96,1.28; stroke-dashoffset: 0; stroke: #b0b0b0; stroke-opacity: 0.5; stroke-width: 0.8"/>
     </g>
     <g id="line2d_73">
      <g>
       <use xlink:href="#m318bdae5f8" x="273.372869" y="963.24375" style="stroke: #000000; stroke-width: 0.8"/>
      </g>
     </g>
     <g id="text_46">
      <!-- 150 -->
      <g transform="translate(263.829119 977.842188) scale(0.1 -0.1)">
       <use xlink:href="#DejaVuSans-31"/>
       <use xlink:href="#DejaVuSans-35" transform="translate(63.623047 0)"/>
       <use xlink:href="#DejaVuSans-30" transform="translate(127.246094 0)"/>
      </g>
     </g>
    </g>
    <g id="xtick_19">
     <g id="line2d_74">
      <path d="M 338.884304 963.24375 
L 338.884304 693.037 
" clip-path="url(#pf28c878267)" style="fill: none; stroke-dasharray: 2.96,1.28; stroke-dashoffset: 0; stroke: #b0b0b0; stroke-opacity: 0.5; stroke-width: 0.8"/>
     </g>
     <g id="line2d_75">
      <g>
       <use xlink:href="#m318bdae5f8" x="338.884304" y="963.24375" style="stroke: #000000; stroke-width: 0.8"/>
      </g>
     </g>
     <g id="text_47">
      <!-- 200 -->
      <g transform="translate(329.340554 977.842188) scale(0.1 -0.1)">
       <use xlink:href="#DejaVuSans-32"/>
       <use xlink:href="#DejaVuSans-30" transform="translate(63.623047 0)"/>
       <use xlink:href="#DejaVuSans-30" transform="translate(127.246094 0)"/>
      </g>
     </g>
    </g>
    <g id="xtick_20">
     <g id="line2d_76">
      <path d="M 404.395738 963.24375 
L 404.395738 693.037 
" clip-path="url(#pf28c878267)" style="fill: none; stroke-dasharray: 2.96,1.28; stroke-dashoffset: 0; stroke: #b0b0b0; stroke-opacity: 0.5; stroke-width: 0.8"/>
     </g>
     <g id="line2d_77">
      <g>
       <use xlink:href="#m318bdae5f8" x="404.395738" y="963.24375" style="stroke: #000000; stroke-width: 0.8"/>
      </g>
     </g>
     <g id="text_48">
      <!-- 250 -->
      <g transform="translate(394.851988 977.842188) scale(0.1 -0.1)">
       <use xlink:href="#DejaVuSans-32"/>
       <use xlink:href="#DejaVuSans-35" transform="translate(63.623047 0)"/>
       <use xlink:href="#DejaVuSans-30" transform="translate(127.246094 0)"/>
      </g>
     </g>
    </g>
    <g id="xtick_21">
     <g id="line2d_78">
      <path d="M 469.907173 963.24375 
L 469.907173 693.037 
" clip-path="url(#pf28c878267)" style="fill: none; stroke-dasharray: 2.96,1.28; stroke-dashoffset: 0; stroke: #b0b0b0; stroke-opacity: 0.5; stroke-width: 0.8"/>
     </g>
     <g id="line2d_79">
      <g>
       <use xlink:href="#m318bdae5f8" x="469.907173" y="963.24375" style="stroke: #000000; stroke-width: 0.8"/>
      </g>
     </g>
     <g id="text_49">
      <!-- 300 -->
      <g transform="translate(460.363423 977.842188) scale(0.1 -0.1)">
       <use xlink:href="#DejaVuSans-33"/>
       <use xlink:href="#DejaVuSans-30" transform="translate(63.623047 0)"/>
       <use xlink:href="#DejaVuSans-30" transform="translate(127.246094 0)"/>
      </g>
     </g>
    </g>
    <g id="text_50">
     <!-- Distance Along (ft) -->
     <g transform="translate(244.984375 991.520313) scale(0.1 -0.1)">
      <use xlink:href="#DejaVuSans-44"/>
      <use xlink:href="#DejaVuSans-69" transform="translate(77.001953 0)"/>
      <use xlink:href="#DejaVuSans-73" transform="translate(104.785156 0)"/>
      <use xlink:href="#DejaVuSans-74" transform="translate(156.884766 0)"/>
      <use xlink:href="#DejaVuSans-61" transform="translate(196.09375 0)"/>
      <use xlink:href="#DejaVuSans-6e" transform="translate(257.373047 0)"/>
      <use xlink:href="#DejaVuSans-63" transform="translate(320.751953 0)"/>
      <use xlink:href="#DejaVuSans-65" transform="translate(375.732422 0)"/>
      <use xlink:href="#DejaVuSans-20" transform="translate(437.255859 0)"/>
      <use xlink:href="#DejaVuSans-41" transform="translate(469.042969 0)"/>
      <use xlink:href="#DejaVuSans-6c" transform="translate(537.451172 0)"/>
      <use xlink:href="#DejaVuSans-6f" transform="translate(565.234375 0)"/>
      <use xlink:href="#DejaVuSans-6e" transform="translate(626.416016 0)"/>
      <use xlink:href="#DejaVuSans-67" transform="translate(689.794922 0)"/>
      <use xlink:href="#DejaVuSans-20" transform="translate(753.271484 0)"/>
      <use xlink:href="#DejaVuSans-28" transform="translate(785.058594 0)"/>
      <use xlink:href="#DejaVuSans-66" transform="translate(824.072266 0)"/>
      <use xlink:href="#DejaVuSans-74" transform="translate(857.527344 0)"/>
      <use xlink:href="#DejaVuSans-29" transform="translate(896.736328 0)"/>
     </g>
    </g>
   </g>
   <g id="matplotlib.axis_8">
    <g id="ytick_22">
     <g id="line2d_80">
      <path d="M 55.345313 929.806885 
L 528.196875 929.806885 
" clip-path="url(#pf28c878267)" style="fill: none; stroke-dasharray: 2.96,1.28; stroke-dashoffset: 0; stroke: #b0b0b0; stroke-opacity: 0.5; stroke-width: 0.8"/>
     </g>
     <g id="line2d_81">
      <g>
       <use xlink:href="#mdbae1ffddb" x="55.345313" y="929.806885" style="stroke: #000000; stroke-width: 0.8"/>
      </g>
     </g>
     <g id="text_51">
      <!-- 1.58 -->
      <g transform="translate(26.079688 933.606104) scale(0.1 -0.1)">
       <defs>
        <path id="DejaVuSans-38" d="M 2034 2216 
Q 1584 2216 1326 1975 
Q 1069 1734 1069 1313 
Q 1069 891 1326 650 
Q 1584 409 2034 409 
Q 2484 409 2743 651 
Q 3003 894 3003 1313 
Q 3003 1734 2745 1975 
Q 2488 2216 2034 2216 
z
M 1403 2484 
Q 997 2584 770 2862 
Q 544 3141 544 3541 
Q 544 4100 942 4425 
Q 1341 4750 2034 4750 
Q 2731 4750 3128 4425 
Q 3525 4100 3525 3541 
Q 3525 3141 3298 2862 
Q 3072 2584 2669 2484 
Q 3125 2378 3379 2068 
Q 3634 1759 3634 1313 
Q 3634 634 3220 271 
Q 2806 -91 2034 -91 
Q 1263 -91 848 271 
Q 434 634 434 1313 
Q 434 1759 690 2068 
Q 947 2378 1403 2484 
z
M 1172 3481 
Q 1172 3119 1398 2916 
Q 1625 2713 2034 2713 
Q 2441 2713 2670 2916 
Q 2900 3119 2900 3481 
Q 2900 3844 2670 4047 
Q 2441 4250 2034 4250 
Q 1625 4250 1398 4047 
Q 1172 3844 1172 3481 
z
" transform="scale(0.015625)"/>
       </defs>
       <use xlink:href="#DejaVuSans-31"/>
       <use xlink:href="#DejaVuSans-2e" transform="translate(63.623047 0)"/>
       <use xlink:href="#DejaVuSans-35" transform="translate(95.410156 0)"/>
       <use xlink:href="#DejaVuSans-38" transform="translate(159.033203 0)"/>
      </g>
     </g>
    </g>
    <g id="ytick_23">
     <g id="line2d_82">
      <path d="M 55.345313 883.836674 
L 528.196875 883.836674 
" clip-path="url(#pf28c878267)" style="fill: none; stroke-dasharray: 2.96,1.28; stroke-dashoffset: 0; stroke: #b0b0b0; stroke-opacity: 0.5; stroke-width: 0.8"/>
     </g>
     <g id="line2d_83">
      <g>
       <use xlink:href="#mdbae1ffddb" x="55.345313" y="883.836674" style="stroke: #000000; stroke-width: 0.8"/>
      </g>
     </g>
     <g id="text_52">
      <!-- 1.60 -->
      <g transform="translate(26.079688 887.635893) scale(0.1 -0.1)">
       <use xlink:href="#DejaVuSans-31"/>
       <use xlink:href="#DejaVuSans-2e" transform="translate(63.623047 0)"/>
       <use xlink:href="#DejaVuSans-36" transform="translate(95.410156 0)"/>
       <use xlink:href="#DejaVuSans-30" transform="translate(159.033203 0)"/>
      </g>
     </g>
    </g>
    <g id="ytick_24">
     <g id="line2d_84">
      <path d="M 55.345313 837.866463 
L 528.196875 837.866463 
" clip-path="url(#pf28c878267)" style="fill: none; stroke-dasharray: 2.96,1.28; stroke-dashoffset: 0; stroke: #b0b0b0; stroke-opacity: 0.5; stroke-width: 0.8"/>
     </g>
     <g id="line2d_85">
      <g>
       <use xlink:href="#mdbae1ffddb" x="55.345313" y="837.866463" style="stroke: #000000; stroke-width: 0.8"/>
      </g>
     </g>
     <g id="text_53">
      <!-- 1.62 -->
      <g transform="translate(26.079688 841.665682) scale(0.1 -0.1)">
       <use xlink:href="#DejaVuSans-31"/>
       <use xlink:href="#DejaVuSans-2e" transform="translate(63.623047 0)"/>
       <use xlink:href="#DejaVuSans-36" transform="translate(95.410156 0)"/>
       <use xlink:href="#DejaVuSans-32" transform="translate(159.033203 0)"/>
      </g>
     </g>
    </g>
    <g id="ytick_25">
     <g id="line2d_86">
      <path d="M 55.345313 791.896252 
L 528.196875 791.896252 
" clip-path="url(#pf28c878267)" style="fill: none; stroke-dasharray: 2.96,1.28; stroke-dashoffset: 0; stroke: #b0b0b0; stroke-opacity: 0.5; stroke-width: 0.8"/>
     </g>
     <g id="line2d_87">
      <g>
       <use xlink:href="#mdbae1ffddb" x="55.345313" y="791.896252" style="stroke: #000000; stroke-width: 0.8"/>
      </g>
     </g>
     <g id="text_54">
      <!-- 1.64 -->
      <g transform="translate(26.079688 795.695471) scale(0.1 -0.1)">
       <use xlink:href="#DejaVuSans-31"/>
       <use xlink:href="#DejaVuSans-2e" transform="translate(63.623047 0)"/>
       <use xlink:href="#DejaVuSans-36" transform="translate(95.410156 0)"/>
       <use xlink:href="#DejaVuSans-34" transform="translate(159.033203 0)"/>
      </g>
     </g>
    </g>
    <g id="ytick_26">
     <g id="line2d_88">
      <path d="M 55.345313 745.926041 
L 528.196875 745.926041 
" clip-path="url(#pf28c878267)" style="fill: none; stroke-dasharray: 2.96,1.28; stroke-dashoffset: 0; stroke: #b0b0b0; stroke-opacity: 0.5; stroke-width: 0.8"/>
     </g>
     <g id="line2d_89">
      <g>
       <use xlink:href="#mdbae1ffddb" x="55.345313" y="745.926041" style="stroke: #000000; stroke-width: 0.8"/>
      </g>
     </g>
     <g id="text_55">
      <!-- 1.66 -->
      <g transform="translate(26.079688 749.72526) scale(0.1 -0.1)">
       <use xlink:href="#DejaVuSans-31"/>
       <use xlink:href="#DejaVuSans-2e" transform="translate(63.623047 0)"/>
       <use xlink:href="#DejaVuSans-36" transform="translate(95.410156 0)"/>
       <use xlink:href="#DejaVuSans-36" transform="translate(159.033203 0)"/>
      </g>
     </g>
    </g>
    <g id="ytick_27">
     <g id="line2d_90">
      <path d="M 55.345313 699.955831 
L 528.196875 699.955831 
" clip-path="url(#pf28c878267)" style="fill: none; stroke-dasharray: 2.96,1.28; stroke-dashoffset: 0; stroke: #b0b0b0; stroke-opacity: 0.5; stroke-width: 0.8"/>
     </g>
     <g id="line2d_91">
      <g>
       <use xlink:href="#mdbae1ffddb" x="55.345313" y="699.955831" style="stroke: #000000; stroke-width: 0.8"/>
      </g>
     </g>
     <g id="text_56">
      <!-- 1.68 -->
      <g transform="translate(26.079688 703.755049) scale(0.1 -0.1)">
       <use xlink:href="#DejaVuSans-31"/>
       <use xlink:href="#DejaVuSans-2e" transform="translate(63.623047 0)"/>
       <use xlink:href="#DejaVuSans-36" transform="translate(95.410156 0)"/>
       <use xlink:href="#DejaVuSans-38" transform="translate(159.033203 0)"/>
      </g>
     </g>
    </g>
    <g id="text_57">
     <!-- φ (rad) -->
     <g transform="translate(20 845.223188) rotate(-90) scale(0.1 -0.1)">
      <use xlink:href="#DejaVuSans-3c6"/>
      <use xlink:href="#DejaVuSans-20" transform="translate(65.966797 0)"/>
      <use xlink:href="#DejaVuSans-28" transform="translate(97.753906 0)"/>
      <use xlink:href="#DejaVuSans-72" transform="translate(136.767578 0)"/>
      <use xlink:href="#DejaVuSans-61" transform="translate(177.880859 0)"/>
      <use xlink:href="#DejaVuSans-64" transform="translate(239.160156 0)"/>
      <use xlink:href="#DejaVuSans-29" transform="translate(302.636719 0)"/>
     </g>
    </g>
   </g>
   <g id="line2d_92">
    <path d="M 76.838565 950.961625 
L 81.137216 950.901864 
L 85.435867 950.720281 
L 89.734517 950.416878 
L 94.033168 949.993952 
L 98.331818 949.449205 
L 102.630468 948.787235 
L 106.929119 948.003441 
L 111.22777 947.102426 
L 115.52642 946.084183 
L 119.825071 944.951016 
L 124.123722 943.700618 
L 128.422372 942.337594 
L 132.721023 940.859635 
L 137.019674 939.271349 
L 141.318323 937.575023 
L 145.616974 935.768357 
L 149.915625 933.858245 
L 154.214275 931.842386 
L 158.512926 929.723079 
L 162.811577 927.504919 
L 167.110227 925.187883 
L 171.408878 922.776587 
L 175.707529 920.271005 
L 180.006178 917.673427 
L 184.304829 914.988483 
L 188.60348 912.218397 
L 192.90213 909.363199 
L 197.200781 906.42978 
L 201.499432 903.418137 
L 205.798082 900.332815 
L 210.096733 897.176155 
L 214.395384 893.950396 
L 218.694034 890.662484 
L 222.992684 887.310058 
L 227.291335 883.899934 
L 231.589985 880.434533 
L 235.888636 876.918378 
L 240.187287 873.353758 
L 244.485937 869.74526 
L 248.784588 866.095088 
L 253.083239 862.405697 
L 257.381889 858.686095 
L 261.680539 854.934061 
L 265.97919 851.15418 
L 270.27784 847.353334 
L 274.576491 843.533809 
L 278.875142 839.700188 
L 283.173792 835.852346 
L 287.472443 831.999681 
L 291.771094 828.139776 
L 296.069744 824.281799 
L 300.368395 820.428032 
L 304.667045 816.583049 
L 308.965695 812.747111 
L 313.264346 808.926681 
L 317.562997 805.126756 
L 321.861647 801.347039 
L 326.160298 797.59699 
L 330.458949 793.874158 
L 334.757599 790.187702 
L 339.05625 786.537609 
L 343.354899 782.926489 
L 347.65355 779.363173 
L 351.952201 775.845699 
L 356.250852 772.380763 
L 360.549502 768.970825 
L 364.848153 765.620463 
L 369.146804 762.329482 
L 373.445454 759.10512 
L 377.744105 755.947376 
L 382.042756 752.86292 
L 386.341405 749.852139 
L 390.640056 746.91692 
L 394.938707 744.064526 
L 399.237357 741.292668 
L 403.536008 738.608209 
L 407.834659 736.011145 
L 412.133309 733.506265 
L 416.43196 731.093348 
L 420.730611 728.777407 
L 425.02926 726.557997 
L 429.327911 724.440136 
L 433.626562 722.423597 
L 437.925212 720.510892 
L 442.223863 718.706595 
L 446.522514 717.008416 
L 450.821164 715.421164 
L 455.119815 713.944602 
L 459.418466 712.581252 
L 463.717116 711.330875 
L 468.015766 710.196235 
L 472.314417 709.179379 
L 476.613067 708.277779 
L 480.911718 707.494202 
L 485.210369 706.830937 
L 489.509019 706.287739 
L 493.80767 705.864608 
L 498.106321 705.561789 
L 502.404971 705.381566 
L 506.703622 705.319125 
" clip-path="url(#pf28c878267)" style="fill: none; stroke: #2ca02c; stroke-width: 1.5; stroke-linecap: square"/>
   </g>
   <g id="patch_15">
    <path d="M 55.345313 963.24375 
L 55.345313 693.037 
" style="fill: none; stroke: #000000; stroke-width: 0.8; stroke-linejoin: miter; stroke-linecap: square"/>
   </g>
   <g id="patch_16">
    <path d="M 528.196875 963.24375 
L 528.196875 693.037 
" style="fill: none; stroke: #000000; stroke-width: 0.8; stroke-linejoin: miter; stroke-linecap: square"/>
   </g>
   <g id="patch_17">
    <path d="M 55.345313 963.24375 
L 528.196875 963.24375 
" style="fill: none; stroke: #000000; stroke-width: 0.8; stroke-linejoin: miter; stroke-linecap: square"/>
   </g>
   <g id="patch_18">
    <path d="M 55.345313 693.037 
L 528.196875 693.037 
" style="fill: none; stroke: #000000; stroke-width: 0.8; stroke-linejoin: miter; stroke-linecap: square"/>
   </g>
   <g id="text_58">
    <!-- Cross-slope angle — CosineCurve -->
    <g transform="translate(224.577344 678.07875) scale(0.08 -0.08)">
     <defs>
      <path id="DejaVuSans-70" d="M 1159 525 
L 1159 -1331 
L 581 -1331 
L 581 3500 
L 1159 3500 
L 1159 2969 
Q 1341 3281 1617 3432 
Q 1894 3584 2278 3584 
Q 2916 3584 3314 3078 
Q 3713 2572 3713 1747 
Q 3713 922 3314 415 
Q 2916 -91 2278 -91 
Q 1894 -91 1617 61 
Q 1341 213 1159 525 
z
M 3116 1747 
Q 3116 2381 2855 2742 
Q 2594 3103 2138 3103 
Q 1681 3103 1420 2742 
Q 1159 2381 1159 1747 
Q 1159 1113 1420 752 
Q 1681 391 2138 391 
Q 2594 391 2855 752 
Q 3116 1113 3116 1747 
z
" transform="scale(0.015625)"/>
     </defs>
     <use xlink:href="#DejaVuSans-43"/>
     <use xlink:href="#DejaVuSans-72" transform="translate(69.824219 0)"/>
     <use xlink:href="#DejaVuSans-6f" transform="translate(108.6875 0)"/>
     <use xlink:href="#DejaVuSans-73" transform="translate(169.869141 0)"/>
     <use xlink:href="#DejaVuSans-73" transform="translate(221.96875 0)"/>
     <use xlink:href="#DejaVuSans-2d" transform="translate(274.068359 0)"/>
     <use xlink:href="#DejaVuSans-73" transform="translate(310.152344 0)"/>
     <use xlink:href="#DejaVuSans-6c" transform="translate(362.251953 0)"/>
     <use xlink:href="#DejaVuSans-6f" transform="translate(390.035156 0)"/>
     <use xlink:href="#DejaVuSans-70" transform="translate(451.216797 0)"/>
     <use xlink:href="#DejaVuSans-65" transform="translate(514.693359 0)"/>
     <use xlink:href="#DejaVuSans-20" transform="translate(576.216797 0)"/>
     <use xlink:href="#DejaVuSans-61" transform="translate(608.003906 0)"/>
     <use xlink:href="#DejaVuSans-6e" transform="translate(669.283203 0)"/>
     <use xlink:href="#DejaVuSans-67" transform="translate(732.662109 0)"/>
     <use xlink:href="#DejaVuSans-6c" transform="translate(796.138672 0)"/>
     <use xlink:href="#DejaVuSans-65" transform="translate(823.921875 0)"/>
     <use xlink:href="#DejaVuSans-20" transform="translate(885.445312 0)"/>
     <use xlink:href="#DejaVuSans-2014" transform="translate(917.232422 0)"/>
     <use xlink:href="#DejaVuSans-20" transform="translate(1017.232422 0)"/>
     <use xlink:href="#DejaVuSans-43" transform="translate(1049.019531 0)"/>
     <use xlink:href="#DejaVuSans-6f" transform="translate(1118.84375 0)"/>
     <use xlink:href="#DejaVuSans-73" transform="translate(1180.025391 0)"/>
     <use xlink:href="#DejaVuSans-69" transform="translate(1232.125 0)"/>
     <use xlink:href="#DejaVuSans-6e" transform="translate(1259.908203 0)"/>
     <use xlink:href="#DejaVuSans-65" transform="translate(1323.287109 0)"/>
     <use xlink:href="#DejaVuSans-43" transform="translate(1384.810547 0)"/>
     <use xlink:href="#DejaVuSans-75" transform="translate(1454.634766 0)"/>
     <use xlink:href="#DejaVuSans-72" transform="translate(1518.013672 0)"/>
     <use xlink:href="#DejaVuSans-76" transform="translate(1559.126953 0)"/>
     <use xlink:href="#DejaVuSans-65" transform="translate(1618.306641 0)"/>
    </g>
    <!-- Cant_CosineCurve_100.0_-1000_-300_IntlFoot -->
    <g transform="translate(200.024844 687.037) scale(0.08 -0.08)">
     <use xlink:href="#DejaVuSans-43"/>
     <use xlink:href="#DejaVuSans-61" transform="translate(69.824219 0)"/>
     <use xlink:href="#DejaVuSans-6e" transform="translate(131.103516 0)"/>
     <use xlink:href="#DejaVuSans-74" transform="translate(194.482422 0)"/>
     <use xlink:href="#DejaVuSans-5f" transform="translate(233.691406 0)"/>
     <use xlink:href="#DejaVuSans-43" transform="translate(283.691406 0)"/>
     <use xlink:href="#DejaVuSans-6f" transform="translate(353.515625 0)"/>
     <use xlink:href="#DejaVuSans-73" transform="translate(414.697266 0)"/>
     <use xlink:href="#DejaVuSans-69" transform="translate(466.796875 0)"/>
     <use xlink:href="#DejaVuSans-6e" transform="translate(494.580078 0)"/>
     <use xlink:href="#DejaVuSans-65" transform="translate(557.958984 0)"/>
     <use xlink:href="#DejaVuSans-43" transform="translate(619.482422 0)"/>
     <use xlink:href="#DejaVuSans-75" transform="translate(689.306641 0)"/>
     <use xlink:href="#DejaVuSans-72" transform="translate(752.685547 0)"/>
     <use xlink:href="#DejaVuSans-76" transform="translate(793.798828 0)"/>
     <use xlink:href="#DejaVuSans-65" transform="translate(852.978516 0)"/>
     <use xlink:href="#DejaVuSans-5f" transform="translate(914.501953 0)"/>
     <use xlink:href="#DejaVuSans-31" transform="translate(964.501953 0)"/>
     <use xlink:href="#DejaVuSans-30" transform="translate(1028.125 0)"/>
     <use xlink:href="#DejaVuSans-30" transform="translate(1091.748047 0)"/>
     <use xlink:href="#DejaVuSans-2e" transform="translate(1155.371094 0)"/>
     <use xlink:href="#DejaVuSans-30" transform="translate(1187.158203 0)"/>
     <use xlink:href="#DejaVuSans-5f" transform="translate(1250.78125 0)"/>
     <use xlink:href="#DejaVuSans-2d" transform="translate(1300.78125 0)"/>
     <use xlink:href="#DejaVuSans-31" transform="translate(1336.865234 0)"/>
     <use xlink:href="#DejaVuSans-30" transform="translate(1400.488281 0)"/>
     <use xlink:href="#DejaVuSans-30" transform="translate(1464.111328 0)"/>
     <use xlink:href="#DejaVuSans-30" transform="translate(1527.734375 0)"/>
     <use xlink:href="#DejaVuSans-5f" transform="translate(1591.357422 0)"/>
     <use xlink:href="#DejaVuSans-2d" transform="translate(1641.357422 0)"/>
     <use xlink:href="#DejaVuSans-33" transform="translate(1677.441406 0)"/>
     <use xlink:href="#DejaVuSans-30" transform="translate(1741.064453 0)"/>
     <use xlink:href="#DejaVuSans-30" transform="translate(1804.6875 0)"/>
     <use xlink:href="#DejaVuSans-5f" transform="translate(1868.310547 0)"/>
     <use xlink:href="#DejaVuSans-49" transform="translate(1918.310547 0)"/>
     <use xlink:href="#DejaVuSans-6e" transform="translate(1947.802734 0)"/>
     <use xlink:href="#DejaVuSans-74" transform="translate(2011.181641 0)"/>
     <use xlink:href="#DejaVuSans-6c" transform="translate(2050.390625 0)"/>
     <use xlink:href="#DejaVuSans-46" transform="translate(2078.173828 0)"/>
     <use xlink:href="#DejaVuSans-6f" transform="translate(2132.068359 0)"/>
     <use xlink:href="#DejaVuSans-6f" transform="translate(2193.25 0)"/>
     <use xlink:href="#DejaVuSans-74" transform="translate(2254.431641 0)"/>
    </g>
   </g>
  </g>
 </g>
 <defs>
  <clipPath id="p96b561581f">
   <rect x="55.345313" y="28.237" width="472.851562" height="270.20675"/>
  </clipPath>
  <clipPath id="pb0a6cef380">
   <rect x="55.345313" y="360.637" width="472.851562" height="270.20675"/>
  </clipPath>
  <clipPath id="pf28c878267">
   <rect x="55.345313" y="693.037" width="472.851562" height="270.20675"/>
  </clipPath>
 </defs>
</svg>
